<?xml version="1.0" encoding="UTF-8"?>
<svg id="Layer_1" xmlns="http://www.w3.org/2000/svg" version="1.1" viewBox="0 0 583 294">
  <defs>
    <style>
      .st0, .st1 {
        fill: none;
      }

      .st2 {
        fill: #005ea5;
      }

      .st3 {
        fill: #231f20;
      }

      .st4 {
        fill: #1d70b8;
      }

      .st5 {
        clip-path: url(#clippath-1);
      }

      .st6 {
        stroke: #0b0c0c;
      }

      .st6, .st7 {
        fill: #fff;
      }

      .st8 {
        fill: #0b0c0c;
      }

      .st1 {
        stroke: #2b8cc4;
        stroke-width: 2px;
      }

      .st9 {
        fill: #00823b;
      }

      .st10 {
        fill: #bfc1c3;
      }

      .st11 {
        clip-path: url(#clippath);
      }
    </style>
    <clipPath id="clippath">
      <rect class="st0" x="25" y="42" width="62.06" height="18"/>
    </clipPath>
    <clipPath id="clippath-1">
      <rect class="st0" x="174.12" y="41" width="141.24" height="18"/>
    </clipPath>
  </defs>
  <path class="st7" d="M2,0h581v292H2V0Z"/>
  <path class="st8" d="M409,119l-6,3.46v-6.92l6,3.46ZM155.5,167c0-.28-.22-.5-.5-.5s-.5.22-.5.5h1ZM155,238h-.5c0,.28.22.5.5.5v-.5ZM154.5,167.5c0,.28.22.5.5.5s.5-.22.5-.5h-1ZM155.5,171.56c0-.28-.22-.5-.5-.5s-.5.22-.5.5h1ZM154.5,172.58c0,.28.22.5.5.5s.5-.22.5-.5h-1ZM155.5,176.64c0-.28-.22-.5-.5-.5s-.5.22-.5.5h1ZM154.5,177.65c0,.28.22.5.5.5s.5-.22.5-.5h-1ZM155.5,181.71c0-.28-.22-.5-.5-.5s-.5.22-.5.5h1ZM154.5,182.72c0,.28.22.5.5.5s.5-.22.5-.5h-1ZM155.5,186.78c0-.28-.22-.5-.5-.5s-.5.22-.5.5h1ZM154.5,187.79c0,.28.22.5.5.5s.5-.22.5-.5h-1ZM155.5,191.85c0-.28-.22-.5-.5-.5s-.5.22-.5.5h1ZM154.5,192.86c0,.28.22.5.5.5s.5-.22.5-.5h-1ZM155.5,196.92c0-.28-.22-.5-.5-.5s-.5.22-.5.5h1ZM154.5,197.94c0,.28.22.5.5.5s.5-.22.5-.5h-1ZM155.5,201.99c0-.28-.22-.5-.5-.5s-.5.22-.5.5h1ZM154.5,203.01c0,.28.22.5.5.5s.5-.22.5-.5h-1ZM155.5,207.06c0-.28-.22-.5-.5-.5s-.5.22-.5.5h1ZM154.5,208.08c0,.28.22.5.5.5s.5-.22.5-.5h-1ZM155.5,212.14c0-.28-.22-.5-.5-.5s-.5.22-.5.5h1ZM154.5,213.15c0,.28.22.5.5.5s.5-.22.5-.5h-1ZM155.5,217.21c0-.28-.22-.5-.5-.5s-.5.22-.5.5h1ZM154.5,218.22c0,.28.22.5.5.5s.5-.22.5-.5h-1ZM155.5,222.28c0-.28-.22-.5-.5-.5s-.5.22-.5.5h1ZM154.5,223.29c0,.28.22.5.5.5s.5-.22.5-.5h-1ZM155.5,227.35c0-.28-.22-.5-.5-.5s-.5.22-.5.5h1ZM154.5,228.36c0,.28.22.5.5.5s.5-.22.5-.5h-1ZM155.5,232.42c0-.28-.22-.5-.5-.5s-.5.22-.5.5h1ZM154.5,233.44c0,.28.22.5.5.5s.5-.22.5-.5h-1ZM155.5,237.49c0-.28-.22-.5-.5-.5s-.5.22-.5.5h1ZM155.5,238.5c.28,0,.5-.22.5-.5s-.22-.5-.5-.5v1ZM159.5,237.5c-.28,0-.5.22-.5.5s.22.5.5.5v-1ZM160.5,238.5c.28,0,.5-.22.5-.5s-.22-.5-.5-.5v1ZM164.5,237.5c-.28,0-.5.22-.5.5s.22.5.5.5v-1ZM165.5,238.5c.28,0,.5-.22.5-.5s-.22-.5-.5-.5v1ZM169.5,237.5c-.28,0-.5.22-.5.5s.22.5.5.5v-1ZM170.5,238.5c.28,0,.5-.22.5-.5s-.22-.5-.5-.5v1ZM174.5,237.5c-.28,0-.5.22-.5.5s.22.5.5.5v-1ZM175.5,238.5c.28,0,.5-.22.5-.5s-.22-.5-.5-.5v1ZM179.5,237.5c-.28,0-.5.22-.5.5s.22.5.5.5v-1ZM180.5,238.5c.28,0,.5-.22.5-.5s-.22-.5-.5-.5v1ZM184.5,237.5c-.28,0-.5.22-.5.5s.22.5.5.5v-1ZM185.5,238.5c.28,0,.5-.22.5-.5s-.22-.5-.5-.5v1ZM189.5,237.5c-.28,0-.5.22-.5.5s.22.5.5.5v-1ZM190.5,238.5c.28,0,.5-.22.5-.5s-.22-.5-.5-.5v1ZM194.5,237.5c-.28,0-.5.22-.5.5s.22.5.5.5v-1ZM195.5,238.5c.28,0,.5-.22.5-.5s-.22-.5-.5-.5v1ZM199.5,237.5c-.28,0-.5.22-.5.5s.22.5.5.5v-1ZM200.5,238.5c.28,0,.5-.22.5-.5s-.22-.5-.5-.5v1ZM204.5,237.5c-.28,0-.5.22-.5.5s.22.5.5.5v-1ZM205.5,238.5c.28,0,.5-.22.5-.5s-.22-.5-.5-.5v1ZM209.5,237.5c-.28,0-.5.22-.5.5s.22.5.5.5v-1ZM210.5,238.5c.28,0,.5-.22.5-.5s-.22-.5-.5-.5v1ZM214.5,237.5c-.28,0-.5.22-.5.5s.22.5.5.5v-1ZM215.5,238.5c.28,0,.5-.22.5-.5s-.22-.5-.5-.5v1ZM219.5,237.5c-.28,0-.5.22-.5.5s.22.5.5.5v-1ZM220.5,238.5c.28,0,.5-.22.5-.5s-.22-.5-.5-.5v1ZM224.5,237.5c-.28,0-.5.22-.5.5s.22.5.5.5v-1ZM225.5,238.5c.28,0,.5-.22.5-.5s-.22-.5-.5-.5v1ZM229.5,237.5c-.28,0-.5.22-.5.5s.22.5.5.5v-1ZM230.5,238.5c.28,0,.5-.22.5-.5s-.22-.5-.5-.5v1ZM234.5,237.5c-.28,0-.5.22-.5.5s.22.5.5.5v-1ZM235.5,238.5c.28,0,.5-.22.5-.5s-.22-.5-.5-.5v1ZM239.5,237.5c-.28,0-.5.22-.5.5s.22.5.5.5v-1ZM240.5,238.5c.28,0,.5-.22.5-.5s-.22-.5-.5-.5v1ZM244.5,237.5c-.28,0-.5.22-.5.5s.22.5.5.5v-1ZM245.5,238.5c.28,0,.5-.22.5-.5s-.22-.5-.5-.5v1ZM249.5,237.5c-.28,0-.5.22-.5.5s.22.5.5.5v-1ZM250.5,238.5c.28,0,.5-.22.5-.5s-.22-.5-.5-.5v1ZM254.5,237.5c-.28,0-.5.22-.5.5s.22.5.5.5v-1ZM255.5,238.5c.28,0,.5-.22.5-.5s-.22-.5-.5-.5v1ZM259.5,237.5c-.28,0-.5.22-.5.5s.22.5.5.5v-1ZM260.5,238.5c.28,0,.5-.22.5-.5s-.22-.5-.5-.5v1ZM264.5,237.5c-.28,0-.5.22-.5.5s.22.5.5.5v-1ZM265.5,238.5c.28,0,.5-.22.5-.5s-.22-.5-.5-.5v1ZM269.5,237.5c-.28,0-.5.22-.5.5s.22.5.5.5v-1ZM270.5,238.5c.28,0,.5-.22.5-.5s-.22-.5-.5-.5v1ZM274.5,237.5c-.28,0-.5.22-.5.5s.22.5.5.5v-1ZM275.5,238.5c.28,0,.5-.22.5-.5s-.22-.5-.5-.5v1ZM279.5,237.5c-.28,0-.5.22-.5.5s.22.5.5.5v-1ZM280.5,238.5c.28,0,.5-.22.5-.5s-.22-.5-.5-.5v1ZM284.5,237.5c-.28,0-.5.22-.5.5s.22.5.5.5v-1ZM285.5,238.5c.28,0,.5-.22.5-.5s-.22-.5-.5-.5v1ZM289.5,237.5c-.28,0-.5.22-.5.5s.22.5.5.5v-1ZM290.5,238.5c.28,0,.5-.22.5-.5s-.22-.5-.5-.5v1ZM294.5,237.5c-.28,0-.5.22-.5.5s.22.5.5.5v-1ZM295.5,238.5c.28,0,.5-.22.5-.5s-.22-.5-.5-.5v1ZM299.5,237.5c-.28,0-.5.22-.5.5s.22.5.5.5v-1ZM300.5,238.5c.28,0,.5-.22.5-.5s-.22-.5-.5-.5v1ZM304.5,237.5c-.28,0-.5.22-.5.5s.22.5.5.5v-1ZM305.5,238.5c.28,0,.5-.22.5-.5s-.22-.5-.5-.5v1ZM309.5,237.5c-.28,0-.5.22-.5.5s.22.5.5.5v-1ZM310.5,238.5c.28,0,.5-.22.5-.5s-.22-.5-.5-.5v1ZM314.5,237.5c-.28,0-.5.22-.5.5s.22.5.5.5v-1ZM315.5,238.5c.28,0,.5-.22.5-.5s-.22-.5-.5-.5v1ZM319.5,237.5c-.28,0-.5.22-.5.5s.22.5.5.5v-1ZM320.5,238.5c.28,0,.5-.22.5-.5s-.22-.5-.5-.5v1ZM324.5,237.5c-.28,0-.5.22-.5.5s.22.5.5.5v-1ZM325.5,238.5c.28,0,.5-.22.5-.5s-.22-.5-.5-.5v1ZM329.5,237.5c-.28,0-.5.22-.5.5s.22.5.5.5v-1ZM330.5,238.5c.28,0,.5-.22.5-.5s-.22-.5-.5-.5v1ZM334.5,237.5c-.28,0-.5.22-.5.5s.22.5.5.5v-1ZM335.5,238.5c.28,0,.5-.22.5-.5s-.22-.5-.5-.5v1ZM339.5,237.5c-.28,0-.5.22-.5.5s.22.5.5.5v-1ZM340.5,238.5c.28,0,.5-.22.5-.5s-.22-.5-.5-.5v1ZM344.5,237.5c-.28,0-.5.22-.5.5s.22.5.5.5v-1ZM345.5,238.5c.28,0,.5-.22.5-.5s-.22-.5-.5-.5v1ZM349.5,237.5c-.28,0-.5.22-.5.5s.22.5.5.5v-1ZM350.5,238.5c.28,0,.5-.22.5-.5s-.22-.5-.5-.5v1ZM354.5,237.5c-.28,0-.5.22-.5.5s.22.5.5.5v-1ZM355.5,238.5c.28,0,.5-.22.5-.5s-.22-.5-.5-.5v1ZM359.5,237.5c-.28,0-.5.22-.5.5s.22.5.5.5v-1ZM360.5,238.5c.28,0,.5-.22.5-.5s-.22-.5-.5-.5v1ZM364.5,237.5c-.28,0-.5.22-.5.5s.22.5.5.5v-1ZM365.5,238.5c.28,0,.5-.22.5-.5s-.22-.5-.5-.5v1ZM369.5,237.5c-.28,0-.5.22-.5.5s.22.5.5.5v-1ZM370.5,238.5c.28,0,.5-.22.5-.5s-.22-.5-.5-.5v1ZM374.5,237.5c-.28,0-.5.22-.5.5s.22.5.5.5v-1ZM375.5,238.5c.28,0,.5-.22.5-.5s-.22-.5-.5-.5v1ZM379.5,237.5c-.28,0-.5.22-.5.5s.22.5.5.5v-1ZM380.5,238.5c.28,0,.5-.22.5-.5s-.22-.5-.5-.5v1ZM384.5,237.5c-.28,0-.5.22-.5.5s.22.5.5.5v-1ZM385.5,238.5c.28,0,.5-.22.5-.5s-.22-.5-.5-.5v1ZM389.5,237.5c-.28,0-.5.22-.5.5s.22.5.5.5v-1ZM390.5,238.5c.28,0,.5-.22.5-.5s-.22-.5-.5-.5v1ZM394.5,237.5c-.28,0-.5.22-.5.5s.22.5.5.5v-1ZM395.5,238.5c.28,0,.5-.22.5-.5s-.22-.5-.5-.5v1ZM399.5,237.5c-.28,0-.5.22-.5.5s.22.5.5.5v-1ZM400.5,238.5c.28,0,.5-.22.5-.5s-.22-.5-.5-.5v1ZM404.5,237.5c-.28,0-.5.22-.5.5s.22.5.5.5v-1ZM154.5,167v.5h1v-.5h-1ZM154.5,171.56v1.02h1v-1.02h-1ZM154.5,176.64v1.01h1v-1.01h-1ZM154.5,181.71v1.01h1v-1.01h-1ZM154.5,186.78v1.01h1v-1.01h-1ZM154.5,191.85v1.01h1v-1.01h-1ZM154.5,196.92v1.02h1v-1.02h-1ZM154.5,201.99v1.02h1v-1.02h-1ZM154.5,207.06v1.02h1v-1.02h-1ZM154.5,212.14v1.01h1v-1.01h-1ZM154.5,217.21v1.01h1v-1.01h-1ZM154.5,222.28v1.01h1v-1.01h-1ZM154.5,227.35v1.01h1v-1.01h-1ZM154.5,232.42v1.02h1v-1.02h-1ZM154.5,237.49v.51h1v-.5h-1ZM155,238.5h.5v-1h-.5v1ZM159.5,238.5h1v-1h-1v1ZM164.5,238.5h1v-1h-1v1ZM169.5,238.5h1v-1h-1v1ZM174.5,238.5h1v-1h-1v1ZM179.5,238.5h1v-1h-1v1ZM184.5,238.5h1v-1h-1v1ZM189.5,238.5h1v-1h-1v1ZM194.5,238.5h1v-1h-1v1ZM199.5,238.5h1v-1h-1v1ZM204.5,238.5h1v-1h-1v1ZM209.5,238.5h1v-1h-1v1ZM214.5,238.5h1v-1h-1v1ZM219.5,238.5h1v-1h-1v1ZM224.5,238.5h1v-1h-1v1ZM229.5,238.5h1v-1h-1v1ZM234.5,238.5h1v-1h-1v1ZM239.5,238.5h1v-1h-1v1ZM244.5,238.5h1v-1h-1v1ZM249.5,238.5h1v-1h-1v1ZM254.5,238.5h1v-1h-1v1ZM259.5,238.5h1v-1h-1v1ZM264.5,238.5h1v-1h-1v1ZM269.5,238.5h1v-1h-1v1ZM274.5,238.5h1v-1h-1v1ZM279.5,238.5h1v-1h-1v1ZM284.5,238.5h1v-1h-1v1ZM289.5,238.5h1v-1h-1v1ZM294.5,238.5h1v-1h-1v1ZM299.5,238.5h1v-1h-1v1ZM304.5,238.5h1v-1h-1v1ZM309.5,238.5h1v-1h-1v1ZM314.5,238.5h1v-1h-1v1ZM319.5,238.5h1v-1h-1v1ZM324.5,238.5h1v-1h-1v1ZM329.5,238.5h1v-1h-1v1ZM334.5,238.5h1v-1h-1v1ZM339.5,238.5h1v-1h-1v1ZM344.5,238.5h1v-1h-1v1ZM349.5,238.5h1v-1h-1v1ZM354.5,238.5h1v-1h-1v1ZM359.5,238.5h1v-1h-1v1ZM364.5,238.5h1v-1h-1v1ZM369.5,238.5h1v-1h-1v1ZM374.5,238.5h1v-1h-1v1ZM379.5,238.5h1v-1h-1v1ZM384.5,238.5h1v-1h-1v1ZM389.5,238.5h1v-1h-1v1ZM394.5,238.5h1v-1h-1v1ZM399.5,238.5h1v-1h-1v1ZM404.5,238.5h.5v-1h-.5v1Z"/>
  <rect class="st4" x="498" y="68" width="64" height="10"/>
  <path class="st8" d="M562,164h-64v-96h64v96ZM500,162h60v-92h-60v92Z"/>
  <path class="st8" d="M505,111h22v1h-22v-1ZM505,117h50v1h-50v-1ZM505,125h50v1h-50v-1ZM505,121h50v1h-50v-1ZM505,129h40v1h-40v-1Z"/>
  <path class="st9" d="M505,83h50v23h-50v-23Z"/>
  <path class="st7" d="M514.78,91.13h-1.82l-.27.91h-1.06l1.6-4.9h1.31l1.63,4.9h-1.11l-.28-.91h0ZM513.23,90.26h1.28l-.63-2.08h-.02l-.63,2.07h0ZM517.61,93.2h-.95v-4.82h.95v.31c.24-.26.58-.4.93-.39.45,0,.88.2,1.16.55.14.17.25.37.33.6.08.24.11.49.11.76s-.04.52-.11.76c-.08.23-.2.43-.34.6-.36.42-.93.62-1.47.5-.16-.03-.31-.1-.44-.2-.06-.04-.12-.09-.17-.14,0,0,0,1.47,0,1.47ZM517.58,90.55c0,.1.02.19.05.27.08.17.22.3.4.36.1.03.2.05.3.05.24.01.47-.09.62-.28.07-.09.13-.2.16-.31.04-.12.06-.26.06-.4v-.05c0-.14-.02-.28-.06-.4-.03-.12-.09-.22-.16-.32-.07-.09-.16-.16-.26-.21-.11-.05-.23-.08-.35-.08-.11,0-.22.01-.32.05-.17.06-.32.19-.39.36-.04.09-.05.18-.05.28v.68ZM521.75,93.2h-.95v-4.82h.95v.32c.23-.26.57-.41.92-.4.45,0,.89.21,1.17.56.15.18.26.38.33.6.23.71.1,1.49-.34,2.1-.36.43-.93.63-1.48.52-.16-.03-.31-.1-.44-.2-.06-.05-.11-.1-.16-.15v1.47ZM521.72,90.55c0,.1.02.19.05.27.07.17.22.3.39.36.1.04.21.05.32.05.12,0,.24-.02.35-.07.1-.05.19-.11.26-.2.07-.1.13-.2.16-.32.04-.12.06-.26.06-.4v-.05c0-.14-.02-.28-.06-.4-.03-.12-.09-.22-.16-.32-.07-.09-.16-.16-.26-.21-.11-.05-.23-.08-.35-.08-.11,0-.22.01-.32.05-.17.06-.32.19-.39.36-.04.09-.05.18-.05.28v.68ZM524.92,87.14h.95v3.9c0,.08.02.14.07.18.04.04.11.07.21.07.08,0,.17-.01.25-.04l.07.8-.2.03c-.07,0-.15.02-.22.02h-.25c-.13,0-.25,0-.36-.04-.1-.03-.2-.08-.28-.15-.08-.07-.13-.16-.17-.26-.04-.11-.06-.23-.06-.35v-4.16h-.01ZM527.97,92.04h-.95v-3.66h.95v3.66ZM526.92,87.42c0-.08.02-.15.05-.22.06-.14.16-.24.3-.3.14-.06.3-.06.44,0,.07.03.13.07.18.12.11.1.17.25.17.4,0,.31-.24.56-.55.57,0,0-.01,0-.02,0-.08,0-.15-.02-.22-.05-.07-.03-.13-.07-.18-.12-.1-.11-.17-.25-.17-.4ZM529.59,90.22c0,.13.02.25.05.37.03.12.08.22.15.32.06.1.15.17.25.23s.23.1.37.1c.17,0,.33-.05.46-.15.06-.04.11-.09.16-.15.05-.06.09-.13.12-.2l.83.43c-.06.14-.14.28-.25.39-.1.12-.22.22-.35.3-.14.08-.3.14-.46.18-.17.05-.35.07-.53.07-.26,0-.5-.05-.7-.14-.22-.09-.41-.23-.57-.4-.16-.17-.29-.38-.37-.6-.09-.24-.13-.5-.13-.76,0-.27.04-.52.13-.75s.21-.43.37-.6c.16-.18.34-.31.56-.4.22-.1.47-.15.71-.15.18,0,.36.02.53.07.31.08.59.25.81.48.11.12.2.25.25.4l-.83.42c-.07-.14-.16-.26-.28-.35-.06-.04-.13-.08-.2-.1-.08-.03-.17-.05-.26-.05-.25,0-.48.12-.62.33-.07.1-.12.21-.15.33-.03.12-.05.24-.05.36v.03h0ZM533.77,90.55c-.1.02-.2.06-.28.13-.07.06-.11.16-.1.25,0,.12.04.22.13.3.08.1.21.13.38.13.15,0,.31-.05.42-.15.1-.11.16-.25.15-.4v-.38l-.7.12ZM534.63,91.7s-.09.09-.14.13c-.06.05-.13.1-.2.14-.19.09-.4.14-.61.14-.19,0-.36-.03-.51-.09-.15-.06-.28-.14-.4-.24-.12-.1-.21-.23-.28-.37-.07-.14-.1-.29-.1-.45,0-.3.1-.53.28-.72.18-.18.43-.3.75-.35l1.05-.15v-.07c.01-.15-.04-.3-.15-.4-.1-.09-.26-.13-.48-.13-.1,0-.2,0-.29.03-.18.04-.35.1-.52.17l-.2.09-.36-.72c.2-.12.44-.21.7-.29.42-.12.87-.14,1.3-.06.17.04.33.1.47.2.14.09.26.21.35.38.08.16.13.36.13.6v1.51c0,.1.03.19.08.24.06.05.13.1.23.14l-.42.68c-.15,0-.29-.05-.42-.13-.11-.07-.19-.17-.26-.28h0ZM537.44,90.95s0,.08.02.12c.01.04.03.07.06.1.03.03.08.06.12.07.06.02.12.02.2.02h.25s.12-.03.12-.03l.1-.02.08.84c-.18.02-.37.04-.55.05h-.3c-.33,0-.58-.07-.76-.21-.19-.15-.28-.39-.28-.71v-1.98h-.66v-.82h.66v-1.04l.95-.25v1.29h.96v.82h-.96v1.75h-.01ZM539.97,92.04h-.94v-3.66h.94v3.66ZM538.93,87.42c0-.31.26-.57.57-.57h0c.08,0,.15.02.22.05.07.03.13.07.18.12s.1.1.12.18c.03.07.05.14.05.22,0,.23-.14.43-.35.52-.14.06-.3.06-.44,0-.07-.03-.13-.07-.19-.12-.1-.11-.16-.25-.16-.4ZM542.43,88.31c.27,0,.51.05.73.14.23.1.41.23.57.4.16.18.28.38.36.61.1.23.13.48.13.75s-.04.52-.13.76c-.16.45-.49.81-.93,1-.23.1-.48.14-.73.14-.75.03-1.42-.44-1.67-1.14-.09-.24-.13-.5-.13-.76,0-.27.04-.52.12-.75.09-.23.21-.43.37-.6.16-.17.35-.31.56-.4.23-.1.48-.15.75-.15ZM542.43,91.23c.12,0,.24-.02.35-.07.1-.05.19-.12.26-.21.08-.09.14-.2.17-.32.03-.12.05-.26.05-.4v-.03c0-.15-.02-.29-.05-.4-.03-.12-.09-.23-.17-.33-.07-.09-.16-.16-.26-.21-.11-.05-.23-.08-.35-.08-.12,0-.25.03-.36.08-.1.05-.19.12-.26.21-.07.1-.13.2-.16.32-.04.13-.06.26-.06.4v.03c0,.15.02.29.06.41.03.12.09.23.16.32.15.19.38.29.62.28ZM544.88,88.38h.94v.31c.11-.1.24-.19.38-.26.18-.08.37-.12.56-.12.2,0,.37.03.53.1.3.12.54.36.65.66.05.16.08.32.08.5v2.47h-.94v-2.13c0-.13-.02-.24-.05-.33-.02-.08-.06-.16-.12-.22-.05-.06-.11-.1-.18-.12-.16-.06-.34-.05-.5.01-.08.04-.15.09-.21.16-.07.08-.12.16-.15.26-.04.12-.05.24-.05.37v2h-.94v-3.66h0ZM515.78,97.23c0,.12.02.24.05.36.03.12.08.22.15.32.07.09.15.17.25.23.1.06.23.1.38.1.16,0,.32-.06.45-.15.06-.04.12-.09.17-.15l.12-.2.82.43c-.06.14-.14.27-.24.39-.1.12-.23.22-.36.3-.14.08-.3.14-.46.18-.17.05-.35.07-.53.07-.25,0-.49-.05-.7-.14-.22-.09-.41-.23-.57-.4-.16-.18-.28-.38-.36-.6-.09-.24-.14-.5-.14-.76,0-.27.05-.52.13-.75.1-.23.22-.43.37-.6.33-.36.79-.56,1.28-.55.18,0,.36.02.52.07.31.08.6.24.82.48.1.12.19.25.24.4l-.82.42c-.04-.07-.08-.14-.13-.2-.05-.06-.1-.11-.16-.15-.06-.04-.13-.08-.2-.1-.08-.03-.16-.05-.25-.05-.25,0-.49.12-.63.33-.07.1-.12.21-.15.33-.03.12-.04.24-.04.36v.03h-.01ZM520.4,95.31c.27,0,.51.05.73.14.22.1.41.23.57.4.16.17.28.38.36.61.18.48.18,1.02,0,1.5-.16.45-.49.81-.93,1-.23.1-.48.15-.73.15-.75.03-1.43-.43-1.68-1.14-.09-.24-.13-.5-.13-.76,0-.27.05-.52.13-.75.08-.22.21-.43.37-.6.16-.17.35-.31.56-.4.23-.1.47-.15.75-.15ZM520.4,98.23c.12,0,.24-.02.35-.07.1-.05.19-.12.26-.21.07-.1.13-.2.16-.32.04-.13.06-.26.06-.4v-.03c0-.15-.02-.29-.06-.4-.03-.12-.08-.23-.16-.33-.07-.09-.16-.16-.26-.21-.11-.05-.23-.08-.35-.08-.12,0-.25.03-.36.08-.1.05-.19.12-.26.21-.07.1-.13.2-.16.32-.04.13-.06.26-.06.4v.03c0,.15.02.29.06.41.03.12.09.23.16.32.15.19.38.29.62.28ZM525.93,99.04h-.93v-2.13c0-.13-.02-.24-.05-.33-.02-.08-.06-.16-.11-.22-.05-.06-.11-.1-.18-.12-.15-.05-.32-.05-.47.01-.08.03-.15.09-.2.15-.06.08-.11.17-.14.27-.03.1-.05.23-.05.37v2h-.94v-3.66h.94v.32c.12-.13.26-.23.42-.3.34-.13.72-.12,1.05.02.18.08.32.22.42.39.12-.17.29-.31.48-.39.2-.08.41-.12.62-.11.2,0,.39.03.55.1.46.18.77.63.76,1.13v2.5h-.96v-2.13c0-.13-.01-.24-.04-.33-.02-.08-.06-.16-.12-.22-.05-.06-.11-.1-.18-.12-.15-.05-.31-.05-.46.01-.08.03-.15.08-.21.15-.06.08-.11.17-.14.27-.03.1-.04.23-.04.37v2h-.02ZM529.84,100.19h-.94v-4.81h.94v.31c.24-.25.58-.39.93-.38.45,0,.88.19,1.17.54.14.17.25.37.32.6.17.49.17,1.03,0,1.52-.07.22-.18.42-.33.6-.36.43-.93.62-1.48.5-.23-.05-.44-.17-.6-.34v1.46h-.01ZM529.82,97.55c0,.1.01.19.05.27.03.08.09.16.15.22.07.06.15.1.24.14.1.03.2.05.31.05.24.01.47-.09.62-.28.07-.09.13-.2.16-.31.04-.12.06-.26.06-.4v-.05c0-.15-.02-.28-.06-.4-.03-.12-.09-.22-.16-.32-.07-.09-.16-.16-.26-.21-.11-.05-.24-.08-.36-.08-.11,0-.21.02-.31.05-.09.03-.17.08-.24.15-.13.13-.21.31-.2.49v.68ZM533.02,94.14h.95v3.9c0,.08.02.14.06.18.05.04.12.06.22.06.08,0,.17,0,.25-.03l.07.8-.2.03c-.07,0-.15.02-.22.02h-.25c-.13,0-.25,0-.36-.04-.1-.03-.2-.08-.28-.15-.08-.07-.13-.16-.17-.26-.04-.11-.06-.23-.06-.35v-4.16h-.01ZM535.91,97.54c.03.21.14.4.3.53.09.07.19.12.3.15.1.04.21.06.33.06.33,0,.64-.12.9-.32l.45.67c-.17.14-.38.26-.63.35-.25.09-.52.13-.79.13-.25,0-.49-.04-.71-.13-.22-.08-.43-.21-.6-.38-.17-.17-.3-.38-.39-.6-.1-.25-.15-.52-.14-.79,0-.27.04-.52.13-.75.08-.22.2-.42.35-.6.33-.36.79-.56,1.27-.55.45,0,.89.18,1.21.5.15.16.27.35.36.57.09.23.13.48.13.73v.43h-2.47ZM536.68,96.13c-.19,0-.38.07-.52.2-.14.13-.22.31-.24.5h1.47c0-.19-.07-.37-.2-.5-.14-.13-.32-.21-.51-.2h0ZM540.36,97.95s0,.08.02.12c.01.04.03.07.06.1.03.03.08.06.12.07.05.02.12.02.2.02h.25s.12-.03.12-.03l.1-.02.08.84c-.18.02-.37.04-.55.05-.1,0-.2,0-.3,0-.33,0-.59-.07-.77-.21-.18-.15-.27-.39-.27-.71v-1.98h-.66v-.82h.66v-1.04l.94-.25v1.29h.96v.82h-.96v1.75h0ZM542.74,97.54c.01.1.05.2.1.3.05.09.12.17.2.23.09.07.19.12.29.15.1.04.22.06.34.06.33,0,.64-.12.9-.32l.45.67c-.17.14-.38.26-.63.35-.26.09-.53.13-.8.13-.24,0-.48-.04-.7-.13-.22-.08-.43-.21-.6-.38-.17-.17-.3-.38-.39-.6-.1-.25-.14-.52-.14-.79,0-.27.04-.52.12-.75.09-.23.21-.43.36-.6.33-.36.79-.56,1.27-.55.45,0,.89.18,1.21.5.15.16.27.35.36.57.09.22.13.46.13.73v.43h-2.47ZM543.5,96.13c-.19,0-.37.07-.51.2-.14.13-.23.31-.25.5h1.48c0-.19-.07-.37-.21-.5-.13-.13-.31-.2-.5-.2h0Z"/>
  <path class="st4" d="M310,68h64v10h-64v-10Z"/>
  <path class="st8" d="M374,164h-64v-96h64v96ZM312,162h60v-92h-60v92Z"/>
  <path class="st9" d="M317,142h26v10h-26v-10Z"/>
  <path class="st10" d="M317,127h50v1h-50v-1ZM317,119h50v1h-50v-1ZM317,111h50v1h-50v-1Z"/>
  <path class="st2" d="M357,115h10v1h-10v-1ZM357,131h10v1h-10v-1ZM357,123h10v1h-10v-1Z"/>
  <path class="st8" d="M317,115h8v1h-8v-1ZM330,115h22v1h-22v-1ZM317,131h8v1h-8v-1ZM330,131h22v1h-22v-1ZM317,123h8v1h-8v-1ZM330,123h22v1h-22v-1Z"/>
  <path class="st3" d="M317.38,87.5c0-.5.08-.97.22-1.4.16-.45.38-.83.66-1.15.28-.33.64-.59,1.03-.77.43-.19.89-.29,1.36-.28.37,0,.7.05,1.01.14.59.18,1.11.54,1.49,1.03.18.24.32.51.42.82l-1.36.45c-.05-.14-.11-.28-.19-.4-.09-.14-.19-.27-.32-.38-.14-.11-.29-.21-.46-.27-.18-.07-.38-.11-.58-.11-.56-.01-1.08.26-1.39.72-.15.22-.26.46-.33.74-.07.27-.1.56-.1.84v.04c0,.29.04.57.1.85.07.27.18.52.33.73.15.21.33.39.56.52s.51.2.83.2c.22,0,.41-.04.58-.1.47-.18.82-.57.97-1.05l1.36.44c-.1.29-.24.57-.42.82-.18.24-.4.46-.65.63-.26.18-.54.31-.84.4-.32.09-.66.14-1,.14-.51,0-.97-.1-1.37-.28-.39-.18-.75-.44-1.03-.77-.29-.33-.51-.72-.66-1.14-.15-.45-.22-.93-.22-1.41h0ZM324.35,84h1.34v2.22c.16-.15.34-.28.54-.38.25-.12.52-.17.8-.17.28,0,.53.04.76.14.43.17.76.52.92.95.08.22.12.46.12.71v3.53h-1.34v-3.04c0-.19-.03-.34-.07-.47-.03-.11-.09-.22-.17-.31-.07-.08-.16-.14-.26-.18-.1-.04-.21-.06-.32-.06-.14,0-.27.03-.39.08-.12.05-.22.12-.3.22-.1.11-.17.23-.21.37-.05.17-.08.35-.08.53v2.86h-1.34v-7ZM330.99,88.85c.02.16.07.3.15.43.16.26.41.46.7.55.15.06.31.08.48.08.46-.01.91-.17,1.28-.45l.65.95c-.27.22-.57.39-.9.5-.36.13-.75.19-1.13.19-.36,0-.7-.06-1.02-.19-.31-.12-.6-.3-.84-.54-.24-.24-.44-.53-.57-.85-.14-.36-.21-.74-.2-1.13,0-.39.06-.75.18-1.08s.3-.62.51-.86c.46-.5,1.12-.79,1.8-.78.65,0,1.28.25,1.74.72.22.22.39.5.51.8.13.32.19.67.19,1.05v.61h-3.53ZM332.09,86.84c-.3,0-.54.1-.74.3-.2.18-.32.43-.35.7h2.1c0-.27-.11-.52-.3-.71-.19-.19-.45-.3-.72-.29h0ZM336.39,88.41c0,.17.03.34.08.51.04.17.11.33.2.46.1.14.22.25.37.34s.32.13.53.13c.23,0,.46-.07.65-.2.17-.14.3-.31.4-.5l1.19.6c-.08.2-.2.39-.35.56-.15.17-.32.31-.51.42-.2.12-.42.21-.65.27-.59.16-1.21.12-1.78-.1-.3-.14-.57-.34-.8-.58-.22-.24-.4-.52-.52-.85-.13-.34-.2-.71-.2-1.08,0-.39.07-.75.2-1.08.12-.32.29-.61.52-.86.47-.51,1.13-.79,1.82-.78.27,0,.52.03.76.1.45.11.85.36,1.16.7.15.16.27.34.35.55l-1.18.61c-.05-.1-.11-.19-.18-.28-.06-.09-.14-.16-.23-.22-.09-.07-.19-.12-.29-.15-.12-.04-.24-.06-.36-.06-.36-.01-.7.17-.9.47-.09.14-.16.3-.2.46-.05.17-.07.34-.07.52v.04h-.01ZM341.89,87.82l1.74-2.05h1.68l-1.89,2.14,1.94,3.09h-1.62l-1.3-2.13-.55.6v1.53h-1.35v-7h1.35v3.82ZM348.04,91.61c.15,0,.27-.03.34-.08.08-.07.14-.16.17-.27l.05-.16-1.8-5.33h1.49l1.04,3.6.86-3.6h1.48l-1.76,5.88c-.05.18-.13.35-.24.5-.1.14-.23.26-.37.34-.15.09-.31.16-.48.2-.18.05-.37.07-.56.07-.2,0-.41-.02-.61-.04-.11-.01-.22-.02-.33-.04-.1-.02-.2-.04-.3-.06l.25-1.1c.16.04.33.07.5.08h.27s0,.01,0,.01ZM354.51,85.67c.39,0,.74.07,1.06.2.63.27,1.12.79,1.33,1.44.12.34.18.7.18,1.08s-.06.74-.18,1.08c-.23.64-.72,1.15-1.34,1.42-.33.14-.69.21-1.05.2-.38,0-.74-.06-1.05-.2-.31-.13-.58-.33-.81-.57-.23-.25-.41-.53-.53-.85-.12-.35-.19-.71-.18-1.08,0-.39.06-.75.18-1.08.21-.65.7-1.17,1.33-1.44.32-.13.68-.2,1.06-.2ZM354.51,89.85c.2,0,.36-.04.51-.11.15-.07.28-.17.38-.3.1-.13.17-.28.23-.45.05-.18.07-.38.07-.59v-.03c0-.21-.02-.4-.07-.58-.05-.17-.12-.32-.23-.46-.1-.13-.23-.23-.38-.3-.16-.07-.33-.11-.5-.11-.2,0-.37.03-.52.1-.15.08-.27.18-.37.3-.1.13-.18.29-.23.47-.05.17-.08.37-.08.58v.03c0,.21.03.4.08.59.05.17.13.32.23.45s.22.23.37.3.32.1.51.1h0ZM362.32,91h-1.35v-.45c-.08.07-.16.14-.24.21-.09.07-.19.13-.3.18-.11.05-.23.09-.35.11-.14.03-.29.05-.44.05-.26,0-.52-.04-.76-.14-.21-.09-.41-.22-.57-.38-.15-.16-.27-.36-.35-.57-.08-.22-.12-.46-.12-.7v-3.54h1.34v3.04c0,.18.02.34.06.47.04.13.1.24.17.32.08.08.17.13.27.17.1.04.2.06.32.06.13,0,.26-.03.38-.08.12-.05.23-.12.32-.22.08-.1.15-.22.2-.37.05-.17.07-.35.07-.53v-2.86h1.35v5.23h0ZM366.32,87.08h-.13c-.2,0-.38.02-.55.06-.35.07-.65.31-.78.64-.08.17-.12.4-.12.68v2.54h-1.35v-5.23h1.35v.6c.13-.2.31-.37.52-.48.27-.14.57-.21.87-.21h.2v1.4h-.01ZM319.27,99.88c-.15.02-.29.08-.4.17-.1.09-.16.22-.15.36,0,.17.06.32.18.44.13.12.31.18.55.18s.45-.07.6-.22c.15-.16.23-.36.22-.58v-.53l-1,.18ZM320.49,101.51c-.06.07-.13.14-.2.2-.09.07-.19.14-.29.19-.27.13-.57.2-.87.2-.25,0-.49-.04-.72-.12-.21-.08-.41-.21-.58-.36-.17-.14-.3-.32-.4-.51-.09-.2-.14-.43-.13-.65,0-.42.13-.76.39-1.03s.62-.43,1.08-.5l1.5-.22v-.1c.01-.21-.06-.41-.21-.56-.15-.13-.38-.2-.7-.2-.13,0-.27.02-.4.05l-.4.1c-.12.04-.24.08-.35.14l-.28.13-.53-1.03c.3-.17.63-.3,1-.41.37-.11.75-.16,1.14-.16.24,0,.48.02.73.08.24.04.47.14.67.27s.36.31.49.55c.13.22.19.52.19.87v2.15c0,.15.04.27.12.34s.19.14.33.2l-.61.97c-.21-.02-.42-.08-.6-.2-.15-.11-.28-.24-.37-.4h0ZM322.65,96.77h1.35v.45c.15-.15.33-.28.53-.38.25-.12.52-.17.8-.17.28,0,.53.04.76.14.43.17.76.52.92.95.08.23.12.47.12.71v3.53h-1.34v-3.04c0-.19-.02-.34-.07-.47-.03-.11-.09-.22-.17-.31-.07-.08-.16-.14-.26-.18-.1-.04-.21-.06-.32-.06-.14,0-.27.03-.39.08-.12.05-.22.12-.3.22-.1.11-.17.23-.21.37-.05.17-.07.35-.07.53v2.86h-1.35v-5.23h0ZM328.53,100.33c.2.17.43.32.7.44.26.13.53.19.8.19.2,0,.36-.04.47-.11.12-.08.17-.18.17-.3,0-.2-.22-.36-.66-.48l-.38-.1c-.19-.05-.39-.11-.57-.19-.19-.08-.37-.18-.53-.31-.16-.13-.3-.29-.4-.48-.1-.22-.15-.46-.14-.7,0-.2.05-.42.14-.61.1-.2.24-.37.41-.52.18-.15.4-.27.65-.36.27-.09.56-.13.85-.13.73-.01,1.44.23,2.02.68l-.7.9c-.18-.13-.38-.23-.59-.3-.22-.09-.45-.14-.68-.14-.17-.01-.35.03-.5.12-.1.07-.17.16-.17.27,0,.11.06.22.15.28.1.07.26.13.45.18l.57.16c.54.15.93.36,1.16.62.24.26.35.6.35.99,0,.22-.04.43-.13.63-.1.2-.23.38-.4.53-.18.16-.4.28-.66.38-.26.08-.55.13-.89.13-.46,0-.91-.09-1.33-.26-.18-.07-.35-.16-.52-.27-.14-.09-.27-.19-.39-.3,0,0,.75-.94.75-.94ZM337.62,100.29l.64-3.52h1.42l-1.2,5.23h-1.6l-.79-3.4-.83,3.4h-1.57l-1.21-5.23h1.47l.62,3.52.9-3.52h1.3l.85,3.52ZM341.47,99.85c.03.16.07.3.15.43.16.26.41.46.7.55.15.06.31.08.49.08.22,0,.43-.04.64-.11.23-.08.44-.2.63-.34l.65.95c-.27.22-.57.39-.9.5-.36.13-.75.19-1.13.19-.36,0-.7-.06-1.02-.19-.31-.12-.6-.3-.84-.53-.24-.25-.43-.54-.56-.86-.14-.36-.21-.74-.2-1.13-.03-.71.22-1.41.7-1.94.46-.5,1.12-.79,1.8-.78.65,0,1.27.26,1.73.72.21.22.38.5.5.8.13.32.2.67.2,1.05v.61h-3.54ZM342.57,97.84c-.3,0-.54.1-.74.3-.2.18-.32.43-.35.7h2.11c0-.27-.11-.52-.3-.71-.19-.19-.45-.3-.72-.29ZM348.7,98.08h-.14c-.2,0-.38.02-.55.06-.17.04-.33.1-.46.21-.13.1-.24.24-.32.42-.08.18-.12.41-.12.7v2.53h-1.35v-5.23h1.35v.6c.06-.1.13-.18.21-.26.2-.18.44-.3.7-.37.15-.04.31-.06.48-.06h.2v1.4h0ZM349.81,100.33c.2.17.42.32.7.44.26.13.53.19.8.19.2,0,.36-.04.47-.11.12-.08.17-.18.17-.3,0-.2-.22-.36-.66-.48l-.38-.1c-.19-.05-.39-.11-.57-.19-.19-.08-.37-.18-.53-.31-.16-.13-.3-.29-.4-.48-.1-.22-.15-.46-.14-.7,0-.21.05-.42.14-.61.1-.2.24-.38.41-.52.18-.15.4-.27.65-.36.99-.29,2.06-.09,2.87.55l-.7.9c-.19-.13-.39-.23-.6-.3-.21-.09-.44-.14-.67-.14-.17-.01-.35.03-.5.12-.11.07-.17.16-.17.27s.05.2.15.28c.1.07.26.13.45.18l.57.16c.54.15.93.36,1.16.62.24.26.35.6.35.99,0,.45-.19.87-.53,1.16-.18.16-.4.28-.66.38-.29.09-.59.14-.89.13-.46,0-.91-.09-1.34-.26-.17-.08-.34-.17-.5-.27-.14-.09-.28-.19-.4-.3l.75-.94h0Z"/>
  <g class="st11">
    <path class="st3" d="M28.23,43h1.41v7h-1.41v-7ZM30.96,44.77h1.35v.45c.15-.15.33-.28.53-.38.25-.12.52-.17.8-.17.28,0,.53.04.76.14.43.17.76.52.92.95.08.23.12.47.12.71v3.53h-1.34v-3.04c0-.19-.02-.34-.07-.47-.03-.11-.09-.22-.17-.31-.07-.08-.16-.14-.26-.18-.1-.04-.21-.06-.32-.06-.14,0-.27.03-.39.08-.12.05-.22.12-.3.22-.1.11-.17.23-.21.37-.05.17-.07.35-.07.53v2.86h-1.35s0-5.23,0-5.23ZM38.5,48.44c0,.06,0,.12.03.18.01.06.04.11.08.15l.17.09c.1.03.2.04.3.03h.16l.18-.02c.07,0,.12-.02.17-.03l.14-.02.12,1.19c-.26.03-.52.05-.78.07l-.44.02c-.46,0-.83-.1-1.09-.32-.26-.21-.39-.55-.39-1.01v-2.83h-.94v-1.17h.94v-1.48l1.35-.36v1.84h1.37v1.17h-1.37v2.5ZM43.66,46.08h-.14c-.2,0-.38.02-.55.06-.17.04-.32.11-.46.21-.13.1-.24.24-.32.42-.08.18-.12.41-.12.7v2.53h-1.35v-5.23h1.35v.6c.13-.21.31-.37.52-.48.13-.07.26-.12.4-.15.15-.04.3-.06.47-.06h.2s0,1.4,0,1.4ZM46.8,44.67c.7,0,1.38.27,1.87.78.22.24.4.53.52.86s.18.7.18,1.08-.06.74-.18,1.08c-.23.64-.72,1.15-1.34,1.42-.33.14-.69.21-1.05.2-.39,0-.74-.06-1.05-.2-.62-.27-1.11-.78-1.34-1.42-.12-.35-.19-.71-.18-1.08,0-.39.06-.75.18-1.08s.3-.62.52-.86c.23-.24.5-.43.81-.57.33-.14.7-.21,1.06-.21ZM46.8,48.85c.2,0,.36-.04.51-.11.15-.07.28-.17.38-.3.1-.12.17-.28.23-.45.05-.18.07-.38.07-.59v-.03c0-.2-.02-.39-.07-.58-.05-.17-.13-.32-.24-.46-.1-.13-.22-.23-.37-.3-.16-.07-.33-.11-.5-.11-.2,0-.37.03-.52.1-.15.08-.27.18-.37.3-.1.14-.18.29-.23.47-.05.19-.08.38-.08.58v.03c0,.21.03.4.08.59.05.17.13.32.23.45.21.27.54.41.88.4h0ZM53.62,50v-.45c-.07.08-.15.15-.24.22-.19.14-.4.24-.63.28-.78.16-1.59-.11-2.1-.72-.21-.25-.38-.55-.48-.86-.11-.35-.17-.71-.17-1.08,0-.39.06-.75.17-1.08.11-.33.27-.62.46-.86.41-.5,1.02-.79,1.67-.78.5-.02.98.18,1.32.55v-2.22h1.35v7s-1.35,0-1.35,0ZM53.66,46.9c0-.26-.11-.52-.3-.7-.1-.09-.21-.16-.33-.2-.14-.05-.3-.08-.45-.08-.19,0-.36.03-.51.1-.15.08-.27.18-.37.3-.1.13-.18.29-.23.46-.05.19-.08.38-.08.58v.06c0,.21.03.4.08.58.05.17.13.32.23.45.1.12.22.22.37.3.15.06.32.1.51.1.17,0,.32-.03.45-.08.13-.04.24-.11.34-.2.09-.08.16-.19.21-.3.05-.13.08-.26.08-.4,0,0,0-.97,0-.97ZM60.58,50h-1.35v-.45c-.08.07-.16.14-.24.21-.09.07-.19.13-.3.18-.25.11-.53.16-.8.16-.26,0-.51-.05-.75-.14-.21-.09-.41-.22-.57-.38-.16-.16-.28-.36-.36-.57-.08-.22-.12-.46-.12-.7v-3.54h1.35v3.04c0,.18.02.34.06.47s.1.24.17.32c.07.07.16.13.26.17.1.04.21.06.33.06.13,0,.26-.03.38-.08.12-.05.22-.12.31-.22.09-.11.16-.23.2-.37.06-.15.08-.33.08-.53v-2.86h1.35s0,5.23,0,5.23ZM62.87,47.41c0,.18.02.35.06.52.05.16.12.32.21.45.1.14.22.25.36.34.15.09.33.13.54.13.13,0,.25-.02.36-.06.21-.07.39-.19.52-.37.07-.08.13-.18.18-.28l1.18.61c-.09.2-.2.39-.35.56-.15.17-.33.31-.52.42-.2.12-.42.21-.65.27-.59.16-1.21.12-1.77-.1-.3-.14-.57-.33-.8-.58-.23-.25-.41-.53-.53-.85-.13-.35-.19-.71-.19-1.08,0-.39.07-.75.2-1.08.12-.33.3-.62.52-.86.47-.51,1.13-.79,1.82-.78.26,0,.52.03.75.1.45.11.86.36,1.17.7.15.16.26.35.35.55l-1.18.61c-.05-.1-.11-.19-.18-.28-.06-.09-.14-.16-.23-.22-.09-.07-.19-.12-.3-.15-.11-.04-.23-.06-.35-.06-.36-.01-.7.17-.9.47-.09.14-.16.3-.2.46-.05.17-.08.34-.08.52v.04h.01ZM69.04,48.44c0,.06,0,.12.02.18.01.06.04.11.08.15l.18.09c.09.02.19.03.29.03h.16l.19-.02c.06,0,.12-.02.17-.03l.14-.02.12,1.19c-.26.03-.53.06-.79.07l-.43.02c-.47,0-.83-.1-1.09-.32-.26-.21-.39-.55-.39-1.01v-2.83h-.94v-1.17h.94v-1.48l1.35-.36v1.84h1.37v1.17h-1.37s0,2.5,0,2.5ZM72.6,50h-1.35v-5.23h1.35v5.23ZM71.1,43.4c0-.11.03-.22.07-.31.12-.31.42-.5.75-.5.1,0,.21.02.31.06.1.04.19.1.26.18.08.07.14.16.18.26.04.1.06.2.06.3,0,.22-.08.44-.24.59-.07.07-.16.13-.26.17-.1.04-.2.06-.31.06-.11,0-.22-.02-.32-.06-.1-.04-.18-.1-.26-.17-.07-.08-.13-.16-.17-.26-.04-.1-.06-.21-.06-.32h-.01ZM76.06,44.67c.7,0,1.37.28,1.86.78.23.24.4.53.52.86.13.33.19.7.19,1.08s-.06.74-.19,1.08c-.23.64-.71,1.15-1.33,1.42-.33.14-.69.21-1.05.2-.39,0-.74-.06-1.05-.2-.62-.27-1.11-.78-1.34-1.42-.12-.35-.19-.71-.18-1.08,0-.39.06-.75.18-1.08.22-.64.7-1.17,1.33-1.43.33-.14.7-.21,1.06-.21ZM76.06,48.85c.2,0,.36-.04.5-.11.16-.07.28-.17.38-.3.1-.12.18-.28.23-.45.06-.18.08-.38.08-.59v-.03c0-.2-.03-.39-.08-.58-.05-.17-.12-.32-.23-.46-.1-.13-.22-.23-.37-.3-.16-.08-.33-.11-.51-.11-.2,0-.36.03-.51.1-.15.08-.27.18-.37.3-.1.14-.18.29-.23.47-.05.19-.08.38-.08.58v.03c0,.21.02.4.08.59.05.17.13.32.23.45.21.27.54.41.88.4h0ZM79.52,44.77h1.35v.45c.16-.16.34-.28.54-.38.25-.12.52-.17.8-.17.28,0,.53.04.75.14.43.17.77.51.93.95.08.23.12.47.12.71v3.53h-1.35v-3.04c0-.19-.02-.34-.06-.47-.04-.12-.1-.22-.18-.31-.07-.08-.16-.14-.26-.18-.1-.04-.21-.06-.32-.06-.14,0-.27.03-.39.08-.12.05-.22.12-.3.22-.09.11-.16.23-.2.37-.05.17-.08.35-.08.53v2.86h-1.35s0-5.23,0-5.23Z"/>
  </g>
  <path class="st1" d="M25,54h64M26,55v6M88.06,55v6"/>
  <g class="st5">
    <path class="st3" d="M225.34,41.9c.53,0,1,.1,1.4.28.8.38,1.42,1.06,1.7,1.9.32.91.32,1.91,0,2.82-.13.45-.35.83-.64,1.15l-.07.08.61.76-1,.82-.68-.85c-.4.16-.83.24-1.31.24-.53,0-1-.1-1.41-.28-.4-.18-.76-.44-1.05-.77-.29-.33-.52-.72-.66-1.14-.15-.45-.22-.93-.22-1.41,0-.5.07-.97.22-1.4.15-.45.37-.83.66-1.15.29-.33.65-.59,1.05-.77.44-.19.92-.29,1.4-.28h0ZM225.34,47.82c.16,0,.3-.02.44-.05l-.79-.98,1-.82.85,1.05c.11-.17.2-.36.26-.58.08-.28.13-.59.13-.92v-.04c0-.33-.05-.63-.13-.91-.07-.27-.19-.52-.36-.74-.16-.2-.36-.36-.59-.47-.25-.12-.52-.18-.8-.18-.31,0-.58.06-.82.18-.23.11-.43.27-.59.47-.15.2-.27.45-.35.74-.08.28-.13.58-.13.9v.05c0,.33.05.64.13.92s.2.52.35.72c.16.2.36.37.6.49.23.11.5.17.8.17h0ZM234.08,49h-1.34v-.45c-.08.07-.16.14-.25.21-.09.07-.19.13-.29.18-.12.05-.24.09-.36.11-.14.03-.29.05-.44.05-.26,0-.52-.04-.76-.14-.21-.09-.41-.22-.57-.38-.15-.16-.27-.36-.35-.57-.08-.22-.12-.46-.12-.7v-3.54h1.34v3.04c0,.18.02.34.06.47.05.13.1.24.17.32.08.08.17.13.27.17.1.04.2.06.33.06.13,0,.26-.03.38-.08.12-.05.22-.13.3-.22.1-.1.16-.22.21-.37.05-.17.08-.35.08-.53v-2.86h1.34v5.23h0ZM236.38,46.85c.02.16.07.3.15.43.16.26.41.46.7.55.15.05.32.08.48.08.46-.01.91-.17,1.28-.45l.65.95c-.27.22-.57.39-.9.5-.35.12-.73.19-1.13.19-.36,0-.7-.06-1.02-.19-.31-.12-.6-.3-.84-.54-.25-.24-.44-.53-.57-.85-.14-.36-.21-.74-.2-1.13,0-.39.06-.74.18-1.08.12-.33.3-.62.51-.86.46-.5,1.12-.79,1.8-.78.65,0,1.28.25,1.74.72.22.22.4.49.51.8.13.32.19.67.19,1.05v.61h-3.53,0ZM237.48,44.84c-.3,0-.54.1-.74.3-.2.18-.32.43-.35.7h2.1c0-.27-.11-.52-.3-.71-.19-.19-.45-.3-.72-.29h.01ZM241.14,47.33c.2.17.42.32.69.44.27.13.54.19.81.19.2,0,.35-.04.47-.11.11-.08.17-.18.17-.3,0-.2-.22-.36-.66-.48l-.38-.1c-.19-.05-.39-.11-.57-.19-.19-.08-.37-.18-.53-.31-.16-.13-.3-.29-.4-.48-.1-.22-.15-.46-.14-.7,0-.2.05-.42.14-.61.1-.2.23-.37.41-.52.18-.15.4-.27.65-.36.99-.29,2.06-.09,2.87.55l-.7.9c-.19-.13-.39-.23-.6-.3-.21-.09-.44-.14-.67-.14-.17-.01-.35.03-.5.12-.11.07-.17.16-.17.27,0,.12.05.2.15.28.1.07.25.13.45.18l.57.16c.54.15.92.36,1.16.62.23.26.35.6.35.99,0,.45-.2.88-.54,1.17-.17.15-.4.28-.65.37-.29.09-.59.14-.89.13-.46,0-.91-.09-1.34-.26-.18-.07-.35-.17-.51-.27-.14-.09-.28-.19-.4-.3l.76-.94h0ZM247.51,47.44l.03.18c.01.06.04.11.08.15l.18.09c.09.02.19.03.28.03h.17l.19-.02c.06,0,.11-.02.17-.03l.13-.02.12,1.19c-.26.03-.52.05-.78.07l-.44.02c-.46,0-.82-.1-1.08-.32-.27-.21-.4-.55-.4-1.01v-2.83h-.94v-1.17h.94v-1.48l1.35-.36v1.84h1.38v1.17h-1.38v2.5ZM251.08,49h-1.35v-5.23h1.35v5.23ZM249.59,42.4c0-.21.09-.42.24-.57.07-.08.16-.14.26-.18.1-.04.2-.06.31-.06.21,0,.42.08.57.24.08.07.14.16.18.26.04.09.06.2.06.3,0,.12-.02.23-.06.33-.08.19-.24.35-.43.43-.1.04-.21.06-.32.06-.11,0-.21-.03-.31-.07-.1-.04-.18-.1-.26-.17-.07-.08-.13-.16-.17-.26-.04-.1-.07-.2-.07-.31ZM254.54,43.67c.4,0,.74.07,1.06.2.63.27,1.12.79,1.33,1.44.12.33.18.7.18,1.08s-.06.74-.18,1.08c-.12.32-.3.6-.53.85-.22.24-.49.43-.8.57-.34.14-.7.21-1.06.2-.38,0-.74-.06-1.05-.2-.62-.27-1.1-.78-1.33-1.42-.13-.35-.19-.71-.19-1.08,0-.39.06-.75.18-1.08.22-.65.7-1.17,1.33-1.43.32-.14.68-.21,1.06-.21h0ZM254.54,47.85c.2,0,.36-.04.51-.11s.28-.17.38-.3c.1-.12.17-.28.23-.45.05-.18.08-.38.08-.59v-.03c0-.21-.03-.4-.08-.58-.05-.17-.12-.32-.23-.46-.1-.13-.23-.23-.38-.3-.16-.07-.33-.11-.5-.11-.2,0-.37.03-.52.1-.15.08-.27.18-.37.3-.1.14-.18.29-.23.47-.05.17-.08.37-.08.58v.03c0,.21.03.4.08.59.05.17.13.32.23.45s.22.23.37.3.32.1.51.1h0ZM258.01,43.77h1.34v.45c.16-.16.34-.28.54-.38.25-.12.52-.17.8-.17.28,0,.53.04.76.14.43.17.76.52.92.95.08.22.12.46.12.71v3.53h-1.34v-3.04c0-.19-.03-.34-.07-.47-.03-.11-.09-.22-.17-.31-.07-.08-.16-.14-.26-.18-.1-.04-.21-.06-.32-.06-.14,0-.27.03-.4.08-.12.05-.22.12-.3.22-.09.11-.16.23-.2.37-.05.17-.08.35-.08.53v2.86h-1.34s0-5.23,0-5.23ZM263.99,47.33c.2.17.42.32.7.44.26.13.53.19.8.19.2,0,.36-.04.47-.11.11-.08.17-.18.17-.3,0-.2-.22-.36-.66-.48l-.38-.1c-.19-.05-.39-.11-.57-.19-.19-.08-.37-.18-.53-.31-.16-.13-.3-.29-.4-.48-.1-.22-.15-.46-.14-.7,0-.21.05-.42.14-.61.1-.2.24-.38.41-.52.18-.15.4-.27.65-.36.99-.29,2.06-.09,2.87.55l-.7.9c-.19-.13-.39-.23-.6-.3-.21-.09-.44-.14-.67-.14-.17-.01-.35.03-.5.12-.11.07-.17.16-.17.27,0,.12.05.2.15.28.1.07.26.13.45.18l.57.16c.54.15.93.36,1.16.62s.35.6.35.99c0,.45-.2.88-.54,1.17-.17.15-.39.28-.65.37-.26.08-.56.13-.89.13-.46,0-.91-.09-1.34-.26-.17-.08-.34-.17-.5-.27-.14-.09-.28-.19-.4-.3l.75-.94h0Z"/>
  </g>
  <path class="st1" d="M124,54h250M125,55v6M373,55v6"/>
  <path class="st4" d="M124,69h64v10h-64v-10Z"/>
  <path class="st8" d="M188,165h-64v-96h64v96ZM126,163h60v-92h-60v92Z"/>
  <path class="st9" d="M131,144h26v10h-26v-10Z"/>
  <path class="st8" d="M144,131h25v1h-25v-1Z"/>
  <circle class="st6" cx="136" cy="131" r="4.5"/>
  <path class="st8" d="M144,118h25v1h-25v-1Z"/>
  <circle class="st6" cx="136" cy="118" r="4.5"/>
  <path class="st3" d="M134.72,84.9c.52,0,.99.1,1.4.28.8.38,1.42,1.06,1.7,1.9.32.91.32,1.91,0,2.82-.14.45-.36.83-.65,1.15l-.07.08.62.76-1,.82-.69-.85c-.39.16-.82.24-1.3.24-.53,0-1-.1-1.42-.28-.4-.18-.75-.44-1.04-.77-.29-.33-.52-.72-.66-1.14-.15-.45-.23-.93-.23-1.41,0-.5.08-.97.23-1.4.15-.45.37-.83.66-1.15.29-.33.64-.59,1.04-.77.44-.19.93-.29,1.41-.28h0ZM134.72,90.82c.16,0,.3-.02.44-.05l-.8-.98,1.01-.82.84,1.05c.12-.17.2-.36.27-.58.08-.28.12-.59.12-.92v-.04c0-.33-.04-.63-.12-.91-.07-.27-.19-.52-.36-.74-.16-.2-.37-.36-.6-.47-.25-.12-.52-.18-.8-.18-.3,0-.57.06-.81.18-.23.11-.44.27-.6.47-.15.2-.27.45-.35.74-.08.28-.12.58-.12.9v.05c0,.33.04.64.12.92s.2.52.36.72c.16.2.36.37.59.49.23.11.5.17.81.17h0ZM143.46,92h-1.35v-.45c-.08.07-.16.14-.24.21-.09.07-.19.13-.3.18-.11.05-.23.09-.35.11-.14.03-.29.05-.44.05-.26,0-.52-.04-.76-.14-.21-.09-.41-.22-.57-.38-.15-.16-.27-.36-.35-.57-.08-.22-.13-.46-.13-.7v-3.54h1.35v3.04c0,.18.02.34.06.47.04.13.1.24.17.32.07.07.16.13.26.17.1.04.21.06.33.06.13,0,.26-.02.38-.07.12-.05.22-.12.31-.22.1-.1.16-.23.21-.38.05-.17.07-.35.07-.53v-2.86h1.35v5.23h0ZM145.76,89.85c.02.16.07.3.14.43.16.26.41.46.7.55.16.05.32.08.49.08.46-.01.91-.17,1.28-.45l.65.95c-.27.22-.57.39-.9.5-.36.12-.73.19-1.13.19-.37,0-.7-.06-1.02-.19-.31-.12-.6-.3-.84-.53-.25-.25-.44-.54-.57-.86-.14-.36-.21-.74-.2-1.13-.03-.71.22-1.41.7-1.94.46-.5,1.12-.79,1.8-.78.65,0,1.27.26,1.73.72.22.22.39.5.51.8.12.32.19.67.19,1.05v.61h-3.53,0ZM146.85,87.84c-.29,0-.54.1-.74.3-.19.19-.31.43-.34.7h2.1c0-.27-.11-.52-.3-.71-.19-.19-.45-.3-.72-.29ZM150.52,90.33c.19.17.42.32.68.44.27.13.54.19.82.19.2,0,.35-.04.46-.11.12-.08.17-.18.17-.3,0-.2-.21-.36-.65-.48l-.39-.1c-.19-.05-.39-.11-.57-.19-.19-.08-.37-.18-.53-.31-.16-.13-.29-.3-.39-.48-.11-.22-.16-.46-.15-.7,0-.2.05-.42.15-.61.1-.2.23-.37.4-.52.18-.15.4-.27.66-.36.99-.29,2.06-.09,2.87.55l-.7.9c-.19-.13-.39-.23-.6-.3-.22-.09-.45-.14-.68-.14-.17,0-.34.03-.49.12-.12.07-.18.16-.18.27,0,.12.06.2.16.28.1.07.25.13.45.18l.56.16c.54.15.93.36,1.16.62.24.26.36.6.36.99,0,.45-.2.88-.54,1.17-.18.15-.4.28-.66.37-.28.09-.58.13-.88.13-.46,0-.91-.09-1.34-.26-.18-.07-.35-.17-.51-.27-.14-.09-.28-.19-.4-.3l.76-.94h0ZM156.89,90.44c0,.06,0,.12.02.18.02.06.05.11.09.15.04.03.1.07.17.09.09.02.19.03.29.03h.17l.18-.02c.06,0,.11-.02.17-.03l.14-.02.12,1.19c-.26.03-.52.05-.78.07l-.44.02c-.46,0-.83-.1-1.09-.32-.26-.21-.39-.55-.39-1.01v-2.83h-.94v-1.17h.94v-1.47l1.35-.36v1.84h1.37v1.17h-1.37v2.5h0ZM160.46,92h-1.35v-5.23h1.35s0,5.23,0,5.23ZM158.96,85.4c0-.21.09-.42.24-.57.07-.08.16-.14.26-.18.1-.04.21-.06.32-.06.21,0,.42.08.57.24.08.07.14.16.18.26.04.09.06.2.06.3,0,.12-.02.23-.06.33-.08.2-.24.35-.44.43-.1.04-.2.06-.31.06-.11,0-.22-.02-.32-.06-.1-.04-.18-.1-.26-.17-.07-.08-.13-.16-.17-.26-.04-.1-.06-.21-.06-.32h-.01ZM163.92,86.67c.39,0,.74.07,1.05.2.63.27,1.12.79,1.33,1.44.26.69.26,1.46,0,2.15-.23.64-.71,1.16-1.33,1.43-.33.14-.69.21-1.05.2-.39,0-.74-.06-1.05-.2-.31-.13-.59-.33-.82-.57-.23-.25-.4-.54-.52-.85-.12-.35-.18-.71-.18-1.08,0-.39.06-.75.18-1.08.21-.65.7-1.17,1.33-1.44.32-.13.67-.2,1.06-.2h0ZM163.92,90.85c.2,0,.36-.04.5-.11.16-.07.28-.17.38-.3.1-.13.18-.28.23-.45.06-.18.08-.38.08-.59v-.03c0-.21-.02-.4-.08-.58-.05-.17-.12-.32-.23-.46-.1-.13-.23-.23-.37-.3-.16-.08-.33-.11-.51-.11-.2,0-.36.03-.51.1-.15.08-.27.18-.37.3-.1.13-.18.29-.23.47-.06.17-.08.37-.08.58v.03c0,.21.02.4.08.59.05.17.12.32.23.45s.22.23.37.3.32.1.51.1h0ZM167.38,86.77h1.35v.45c.08-.07.16-.14.24-.2.09-.07.19-.13.3-.18.25-.12.52-.17.8-.17.28,0,.53.04.75.14.43.17.77.51.93.95.08.22.12.46.12.71v3.53h-1.35v-3.04c0-.19-.02-.34-.06-.47-.04-.12-.1-.22-.18-.31-.07-.08-.16-.14-.26-.18-.1-.04-.21-.06-.32-.06-.13,0-.26.03-.38.08-.12.05-.23.12-.31.22-.09.11-.16.23-.2.37-.05.17-.08.35-.08.53v2.86h-1.35v-5.23ZM177.2,85v7h-1.45v-4.63h-1.27v-1.27h.31c.21,0,.38-.02.51-.05.12-.03.22-.09.31-.18.08-.08.14-.19.16-.3.02-.12.04-.27.04-.44v-.13h1.4,0Z"/>
  <rect class="st4" x="25" y="70" width="64" height="10"/>
  <path class="st8" d="M89,166H25v-96h64v96ZM27,164h60v-92H27v92Z"/>
  <path class="st8" d="M31,99h45v1H31v-1Z"/>
  <path class="st9" d="M32,121h26v10h-26v-10Z"/>
  <path class="st8" d="M31,111h25v1h-25v-1ZM31,105h45v1H31v-1Z"/>
  <path class="st3" d="M33.2,91.03c.21.24.47.44.76.58.35.17.73.26,1.12.26.4,0,.7-.08.92-.25.2-.14.32-.37.32-.61,0-.25-.1-.44-.28-.57-.28-.16-.58-.27-.9-.31l-.21-.04c-.29-.05-.58-.12-.87-.2-.28-.08-.55-.21-.79-.37-.23-.16-.43-.37-.57-.61-.16-.29-.23-.62-.22-.95,0-.52.23-1.01.61-1.36.21-.2.49-.37.82-.5.34-.13.75-.2,1.23-.2.57,0,1.07.1,1.51.28.45.19.8.43,1.08.74l-.94.88c-.2-.22-.46-.39-.74-.5-.3-.12-.61-.18-.93-.18-.37,0-.66.07-.86.21s-.31.32-.31.55c0,.14.03.27.1.36.06.1.16.18.28.25.14.07.28.12.43.15.17.05.36.09.57.13l.11.02c.28.05.56.12.84.2.27.08.53.2.75.35.23.16.41.36.55.6.14.26.21.57.21.96,0,.35-.07.66-.22.93-.14.27-.34.51-.58.7-.24.19-.52.33-.83.43-.32.1-.66.14-1,.14-.32,0-.64-.03-.95-.09-.28-.05-.54-.14-.8-.25-.22-.1-.44-.22-.64-.36-.18-.13-.35-.27-.5-.43l.93-.94h0ZM40.77,91.44c0,.06,0,.12.02.18.02.05.05.1.09.14.04.04.1.07.17.1.1.03.2.04.3.03h.16l.18-.02c.06,0,.12-.02.17-.03l.14-.02.12,1.19c-.26.03-.52.05-.78.07l-.44.02c-.46,0-.83-.1-1.09-.32-.26-.21-.39-.55-.39-1.01v-2.83h-.94v-1.17h.94v-1.47l1.35-.36v1.84h1.37v1.17h-1.37v2.5h0ZM44.68,90.88c-.15.02-.29.08-.4.17-.1.09-.16.22-.15.36,0,.17.07.33.19.44.12.12.3.18.54.18.22.01.44-.07.6-.22.15-.15.23-.36.22-.58v-.52s-1,.17-1,.17ZM45.9,92.51c-.06.07-.13.14-.2.2-.09.07-.19.14-.29.19-.27.13-.57.2-.87.2-.26,0-.5-.04-.72-.12-.21-.08-.41-.21-.58-.36-.16-.14-.29-.32-.39-.51-.1-.2-.14-.43-.14-.65,0-.42.13-.76.39-1.03s.62-.43,1.08-.5l1.5-.22v-.1c.01-.21-.06-.41-.21-.56-.15-.13-.38-.2-.7-.2-.14,0-.27.02-.4.05-.13.03-.27.06-.4.1-.12.04-.24.08-.35.14l-.28.13-.53-1.03c.3-.17.63-.3,1-.41.37-.11.75-.16,1.14-.16.24,0,.48.02.73.08.24.04.47.14.67.27.2.13.36.31.49.55.13.22.19.52.19.87v2.15c0,.15.04.27.12.34.08.07.19.14.33.2l-.61.97c-.21-.02-.42-.09-.6-.2-.15-.11-.28-.24-.37-.4h0ZM51.1,89.08h-.14c-.2,0-.38.02-.56.06-.17.04-.32.11-.46.21-.13.1-.24.24-.32.42-.08.18-.11.41-.11.7v2.53h-1.35v-5.23h1.35v.6c.05-.1.12-.18.21-.26.2-.18.44-.3.7-.37.15-.04.3-.06.48-.06h.2v1.4ZM53.87,91.44c0,.06,0,.12.02.18.02.05.04.1.08.14.05.04.1.07.18.1.09.02.19.03.29.03h.16l.19-.02c.06,0,.12-.02.17-.03l.14-.02.12,1.19c-.26.03-.53.06-.79.07l-.43.02c-.47,0-.83-.1-1.1-.32-.25-.21-.38-.55-.38-1.01v-2.83h-.95v-1.17h.95v-1.47l1.34-.36v1.84h1.38v1.17h-1.38v2.5h.01ZM59.24,94.65h-1.34v-6.88h1.35v.45c.34-.37.82-.57,1.32-.55.65,0,1.26.28,1.67.78.2.24.36.53.47.86.23.7.23,1.46,0,2.16-.11.32-.27.61-.49.86-.42.49-1.03.78-1.68.77-.26,0-.52-.05-.76-.16-.1-.05-.2-.1-.29-.17-.09-.07-.17-.14-.24-.22v2.1h0ZM59.2,90.87c0,.4.25.76.63.9.14.05.29.08.45.08.34.02.67-.13.88-.4.11-.13.19-.29.24-.45.05-.19.07-.38.07-.58v-.06c0-.21-.02-.4-.07-.58-.05-.16-.13-.32-.23-.45-.1-.13-.23-.23-.38-.3-.16-.07-.33-.11-.5-.11-.17,0-.32.02-.46.07-.13.05-.24.12-.33.2-.1.09-.17.2-.22.32-.05.12-.08.26-.08.39v.97ZM65.45,90.87c-.15.02-.29.08-.4.18-.1.09-.16.22-.15.36,0,.17.07.33.19.44.12.12.3.18.54.18.22.01.44-.07.6-.22.15-.15.23-.36.22-.58v-.53l-1,.18h0ZM66.67,92.51c-.06.07-.13.14-.2.2-.09.07-.18.14-.28.19-.27.14-.57.2-.88.2-.26,0-.5-.04-.72-.12-.21-.08-.41-.21-.58-.36-.16-.14-.29-.32-.39-.51-.1-.2-.14-.43-.14-.65,0-.42.13-.76.39-1.03.26-.27.62-.43,1.08-.5l1.5-.22v-.1c.01-.21-.06-.41-.21-.56-.14-.13-.38-.2-.7-.2-.13,0-.27.02-.4.05-.13.03-.27.06-.4.1-.12.04-.24.08-.35.14l-.28.13-.53-1.03c.3-.17.63-.3,1-.41.37-.11.75-.16,1.14-.16.24,0,.48.02.73.08.25.04.47.14.67.27s.36.31.49.55c.13.22.19.52.19.87v2.15c0,.15.04.27.12.34s.19.14.33.2l-.61.97c-.21-.02-.42-.09-.6-.2-.15-.11-.28-.24-.37-.4h0ZM72.11,92.07c-.14.16-.31.28-.51.35-.22.09-.46.13-.7.13-.36,0-.67-.06-.94-.19-.27-.11-.51-.29-.7-.5-.19-.23-.33-.49-.42-.77-.1-.32-.15-.65-.15-.98,0-.35.05-.67.15-.97s.24-.56.43-.77c.18-.22.42-.4.69-.52.52-.22,1.11-.24,1.64-.05.22.09.39.2.5.35v-.38h1.36v5.18c0,.32-.06.6-.18.82-.12.23-.29.42-.5.57-.2.14-.45.25-.73.31-.29.07-.58.1-.88.1-.38,0-.78-.04-1.2-.13-.36-.07-.72-.18-1.06-.33l.38-1.09c.25.11.51.19.77.25.32.07.64.12.97.13.14,0,.27-.01.4-.04.12-.02.24-.07.34-.14.1-.06.19-.15.24-.25.07-.12.1-.25.1-.39,0,0,0-.69,0-.69ZM70.08,90.13c0,.17.01.33.05.49.04.15.1.27.18.38.09.11.2.19.32.25.13.06.3.09.48.09.36,0,.63-.12.78-.35.16-.23.24-.52.24-.86v-.04c0-.17-.02-.33-.06-.48-.03-.14-.09-.27-.17-.39-.08-.11-.19-.2-.32-.25-.15-.07-.31-.1-.47-.1-.37,0-.63.12-.8.36-.15.23-.23.51-.23.86v.04ZM75.75,90.85c.04.3.2.58.44.77.26.19.58.3.9.3.46-.02.91-.18,1.27-.46l.65.95c-.27.22-.57.39-.9.5-.35.12-.73.19-1.13.19-.36,0-.7-.06-1.02-.19-.31-.12-.6-.3-.84-.54-.24-.24-.44-.53-.57-.85-.14-.36-.21-.74-.2-1.13,0-.39.06-.75.18-1.08s.3-.62.51-.86c.46-.5,1.12-.79,1.8-.78.65,0,1.28.25,1.74.72.22.22.4.5.52.8.12.32.18.67.18,1.05v.61h-3.53ZM76.85,88.84c-.3,0-.54.1-.74.3-.2.18-.32.43-.35.7h2.11c0-.27-.11-.52-.3-.71-.19-.19-.46-.3-.73-.29h.01Z"/>
  <rect class="st4" x="409" y="190" width="64" height="10"/>
  <path class="st8" d="M473,286h-64v-96h64v96ZM411,284h60v-92h-60v92Z"/>
  <path class="st8" d="M409,238l-6,3.46v-6.92l6,3.46h0Z"/>
  <path class="st9" d="M416,231h26v10h-26v-10Z"/>
  <path class="st3" d="M418.15,207.64v5.36h-1.42v-7h2l2.8,4.7v-4.7h1.42v7h-1.56l-3.24-5.36ZM426.57,207.67c.7,0,1.37.28,1.86.78.23.24.4.53.52.86.12.34.19.7.19,1.08s-.07.75-.2,1.08c-.23.63-.7,1.15-1.32,1.42-.33.14-.69.21-1.05.2-.4,0-.74-.06-1.06-.2-.62-.27-1.1-.78-1.33-1.42-.13-.35-.19-.71-.19-1.08,0-.39.06-.74.18-1.08.13-.33.3-.62.53-.86.22-.24.5-.44.8-.57.34-.14.7-.22,1.07-.21h0ZM426.57,211.85c.19,0,.36-.04.5-.11.15-.07.28-.17.38-.3.1-.12.18-.28.23-.45.05-.18.08-.38.08-.59v-.03c0-.21-.03-.4-.08-.58-.05-.17-.12-.32-.23-.46-.1-.13-.23-.23-.38-.3-.16-.07-.33-.11-.5-.11-.2,0-.37.03-.52.1-.14.08-.27.18-.37.3-.11.14-.19.3-.23.47-.05.17-.07.37-.07.58v.03c0,.21.02.4.07.59.06.17.13.32.23.45s.23.23.37.3c.15.07.32.1.52.1h0ZM431.96,211.45c0,.05,0,.11.02.17.02.05.04.1.08.14.05.04.1.07.18.1.09.02.19.03.29.03h.16l.19-.02c.06,0,.12-.02.17-.03l.14-.02.12,1.19c-.26.03-.53.05-.79.07l-.43.02c-.47,0-.83-.1-1.09-.32-.26-.21-.4-.55-.4-1.01v-2.83h-.93v-1.17h.94v-1.48l1.35-.36v1.84h1.37v1.17h-1.37v2.5h0ZM417.71,221.85c.02.16.07.3.15.43.16.26.41.46.7.55.15.05.3.08.48.08.22,0,.44-.04.65-.11.23-.08.44-.2.63-.34l.65.95c-.27.22-.57.39-.9.5-.36.13-.75.19-1.13.19-.35,0-.69-.06-1.02-.19-.31-.12-.6-.3-.84-.53-.25-.25-.44-.54-.57-.86-.14-.36-.21-.74-.2-1.13,0-.39.06-.74.18-1.08.12-.33.3-.62.51-.86.46-.5,1.12-.79,1.8-.78.65,0,1.28.25,1.74.72.22.22.39.5.51.8.13.32.19.67.19,1.05v.61h-3.53ZM418.81,219.84c-.3,0-.54.1-.74.3-.2.18-.32.43-.35.7h2.1c0-.27-.11-.52-.3-.71-.19-.19-.45-.3-.72-.29h0ZM422.08,217h1.35v5.58c0,.11.03.2.09.25.07.06.17.1.3.1l.17-.02.19-.04.1,1.15-.29.04c-.22.02-.44.04-.66.04-.18,0-.35-.03-.52-.08-.15-.04-.28-.11-.4-.21-.11-.1-.19-.22-.24-.36-.07-.16-.1-.33-.1-.5v-5.95h0ZM426.38,224h-1.35v-5.23h1.35v5.23ZM424.88,217.4c0-.11.03-.22.07-.31.15-.41.61-.63,1.03-.47.22.08.39.25.47.47.04.09.06.2.06.3,0,.12-.02.23-.07.33-.04.1-.1.18-.17.26-.32.31-.83.31-1.15,0-.07-.08-.13-.16-.17-.26-.04-.1-.06-.21-.06-.32h0ZM430.72,223.07c-.12.15-.3.27-.51.35-.22.09-.46.13-.7.13-.32,0-.64-.05-.94-.18-.27-.12-.51-.29-.7-.51-.19-.23-.33-.49-.42-.77-.1-.32-.15-.65-.15-.98,0-.35.05-.67.15-.97s.24-.56.43-.77c.18-.22.42-.4.69-.52.3-.13.62-.19.94-.18.25,0,.48.04.7.13.22.09.39.2.5.35v-.38h1.36v5.18c0,.32-.06.6-.18.82-.12.23-.29.42-.5.57-.22.15-.47.26-.73.32-.29.07-.58.1-.88.1-.38,0-.78-.05-1.2-.14-.36-.07-.72-.18-1.06-.33l.38-1.09c.55.23,1.14.36,1.74.38.14,0,.27,0,.4-.04.12-.02.24-.07.34-.14.1-.06.18-.15.24-.25.07-.12.1-.25.1-.39v-.69h0ZM428.69,221.13c0,.17.01.33.05.49.04.15.1.28.18.38.09.11.2.19.32.25.13.06.29.09.48.09.36,0,.63-.12.78-.35.16-.23.24-.52.24-.86v-.04c0-.17-.02-.33-.06-.48-.03-.14-.09-.27-.17-.39-.08-.11-.19-.2-.32-.25-.15-.07-.31-.1-.47-.1-.37,0-.63.12-.8.36-.15.23-.23.52-.23.86v.04h0ZM434.58,224h-1.35v-5.23h1.35v5.23h0ZM433.09,217.4c0-.21.08-.42.23-.57.15-.16.36-.24.58-.24.21,0,.42.09.57.24.08.07.14.16.18.26.04.09.06.2.06.3,0,.12-.02.23-.06.33-.04.1-.1.19-.18.26-.32.31-.83.31-1.15,0-.07-.08-.13-.16-.17-.26-.04-.1-.06-.21-.06-.32h0ZM440.71,221.39c0,.39-.05.75-.17,1.08-.1.31-.27.61-.48.86-.2.24-.45.43-.73.56-.3.14-.62.21-.95.2-.15,0-.3,0-.42-.04-.23-.05-.44-.14-.63-.28-.09-.07-.17-.14-.24-.22v.45h-1.35v-7h1.35v2.22c.16-.16.34-.3.54-.4.22-.1.48-.15.78-.15.35,0,.66.07.94.2.28.15.53.34.73.58s.36.53.47.86c.1.33.16.69.16,1.08h0ZM437.05,221.87c0,.14.02.27.07.4.11.23.31.41.56.5.13.05.28.08.45.08.34.02.67-.13.88-.4.1-.13.18-.28.23-.45.05-.18.08-.37.08-.58v-.06c0-.21-.03-.4-.08-.58-.05-.16-.13-.32-.23-.45-.1-.13-.23-.23-.37-.3-.16-.08-.33-.11-.51-.11-.17,0-.32.02-.45.07-.13.04-.24.11-.34.2-.19.18-.3.44-.29.7v.98ZM441.59,217h1.35v5.58c0,.11.03.2.1.25.06.06.16.1.3.1l.17-.02.18-.04.1,1.15-.28.04c-.1,0-.21.02-.31.02l-.36.02c-.2,0-.36-.03-.52-.08-.15-.04-.28-.11-.4-.21-.11-.1-.19-.22-.24-.36-.06-.16-.09-.33-.09-.5v-5.95h0ZM445.67,221.85c.02.16.07.3.14.43.16.26.41.46.7.55.16.06.32.08.5.08.22,0,.43-.04.64-.11.23-.08.44-.2.63-.34l.65.95c-.27.22-.57.39-.9.5-.36.13-.75.19-1.13.19-.35,0-.69-.06-1.02-.19-.31-.12-.6-.3-.84-.53-.25-.25-.44-.54-.57-.86-.14-.36-.21-.74-.2-1.13,0-.39.06-.74.18-1.08.12-.33.3-.62.51-.86.46-.5,1.12-.79,1.8-.78.65,0,1.28.25,1.74.72.22.22.39.5.51.8.13.32.19.67.19,1.05v.61h-3.53ZM446.77,219.84c-.3,0-.54.1-.75.3-.19.19-.31.43-.34.7h2.1c0-.27-.11-.52-.3-.71-.19-.19-.45-.3-.72-.29h0Z"/>
  <path class="st4" d="M216,68h64v10h-64v-10Z"/>
  <path class="st8" d="M280,164h-64v-96h64v96ZM218,162h60v-92h-60v92Z"/>
  <path class="st9" d="M223,131h26v10h-26v-10Z"/>
  <path class="st6" d="M223.5,111.5h49v9h-49v-9Z"/>
  <path class="st3" d="M226.72,83.9c.52,0,.99.1,1.4.28.8.38,1.42,1.06,1.7,1.9.32.91.32,1.91,0,2.82-.14.45-.36.83-.65,1.15l-.07.08.62.76-1,.82-.69-.85c-.39.16-.82.24-1.3.24-.53,0-1-.1-1.42-.28-.4-.18-.75-.44-1.04-.77-.29-.33-.52-.72-.66-1.14-.15-.45-.23-.93-.23-1.41,0-.5.08-.97.23-1.4.15-.45.37-.83.66-1.15.29-.33.64-.59,1.04-.77.44-.19.93-.29,1.41-.28h0ZM226.72,89.82c.16,0,.3-.02.44-.05l-.8-.98,1.01-.82.84,1.05c.12-.17.2-.36.27-.58.08-.28.12-.59.12-.92v-.04c0-.33-.04-.63-.12-.91-.07-.27-.19-.52-.36-.74-.16-.2-.37-.36-.6-.47-.25-.12-.52-.18-.8-.18-.3,0-.57.06-.81.18-.23.11-.44.27-.6.47-.15.2-.27.45-.35.74-.08.28-.12.58-.12.9v.05c0,.33.04.64.12.92s.2.52.36.72c.16.2.36.37.59.49.23.11.5.17.81.17h0ZM235.46,91h-1.35v-.45c-.08.07-.16.14-.24.21-.09.07-.19.13-.3.18-.11.05-.23.09-.35.11-.14.03-.29.05-.44.05-.26,0-.52-.04-.76-.14-.21-.09-.41-.22-.57-.38-.15-.16-.27-.36-.35-.57-.08-.22-.13-.46-.13-.7v-3.54h1.35v3.04c0,.18.02.34.06.47.04.13.1.24.17.32.07.07.16.13.26.17.1.04.21.06.33.06.13,0,.26-.02.38-.07.12-.05.22-.12.31-.22.1-.1.16-.23.21-.38.05-.17.07-.35.07-.53v-2.86h1.35v5.23h0ZM237.76,88.85c.02.16.07.3.14.43.16.26.41.46.7.55.16.05.32.08.49.08.46-.01.91-.17,1.28-.45l.65.95c-.27.22-.57.39-.9.5-.36.12-.73.19-1.13.19-.37,0-.7-.06-1.02-.19-.31-.12-.6-.3-.84-.53-.25-.25-.44-.54-.57-.86-.14-.36-.21-.74-.2-1.13-.03-.71.22-1.41.7-1.94.46-.5,1.12-.79,1.8-.78.65,0,1.27.26,1.73.72.22.22.39.5.51.8.12.32.19.67.19,1.05v.61h-3.53,0ZM238.85,86.84c-.29,0-.54.1-.74.3-.19.19-.31.43-.34.7h2.1c0-.27-.11-.52-.3-.71-.19-.19-.45-.3-.72-.29ZM242.52,89.33c.19.17.42.32.68.44.27.13.54.19.82.19.2,0,.35-.04.46-.11.12-.08.17-.18.17-.3,0-.2-.21-.36-.65-.48l-.39-.1c-.19-.05-.39-.11-.57-.19-.19-.08-.37-.18-.53-.31-.16-.13-.29-.3-.39-.48-.11-.22-.16-.46-.15-.7,0-.2.05-.42.15-.61.1-.2.23-.37.4-.52.18-.15.4-.27.66-.36.99-.29,2.06-.09,2.87.55l-.7.9c-.19-.13-.39-.23-.6-.3-.22-.09-.45-.14-.68-.14-.17,0-.34.03-.49.12-.12.07-.18.16-.18.27,0,.12.06.2.16.28.1.07.25.13.45.18l.56.16c.54.15.93.36,1.16.62.24.26.36.6.36.99,0,.45-.2.88-.54,1.17-.18.15-.4.28-.66.37-.28.09-.58.13-.88.13-.46,0-.91-.09-1.34-.26-.18-.07-.35-.17-.51-.27-.14-.09-.28-.19-.4-.3l.76-.94h0ZM248.89,89.44c0,.06,0,.12.02.18.02.06.05.11.09.15.04.03.1.07.17.09.09.02.19.03.29.03h.17l.18-.02c.06,0,.11-.02.17-.03l.14-.02.12,1.19c-.26.03-.52.05-.78.07l-.44.02c-.46,0-.83-.1-1.09-.32-.26-.21-.39-.55-.39-1.01v-2.83h-.94v-1.17h.94v-1.47l1.35-.36v1.84h1.37v1.17h-1.37v2.5h0ZM252.46,91h-1.35v-5.23h1.35s0,5.23,0,5.23ZM250.96,84.4c0-.21.09-.42.24-.57.07-.08.16-.14.26-.18.1-.04.21-.06.32-.06.21,0,.42.08.57.24.08.07.14.16.18.26.04.09.06.2.06.3,0,.12-.02.23-.06.33-.08.2-.24.35-.44.43-.1.04-.2.06-.31.06-.11,0-.22-.02-.32-.06-.1-.04-.18-.1-.26-.17-.07-.08-.13-.16-.17-.26-.04-.1-.06-.21-.06-.32h-.01ZM255.92,85.67c.39,0,.74.07,1.05.2.63.27,1.12.79,1.33,1.44.26.69.26,1.46,0,2.15-.23.64-.71,1.16-1.33,1.43-.33.14-.69.21-1.05.2-.39,0-.74-.06-1.06-.2-.3-.13-.57-.33-.8-.57-.23-.25-.41-.53-.53-.85-.12-.35-.18-.71-.18-1.08,0-.39.06-.75.18-1.08.21-.65.7-1.17,1.33-1.44.32-.13.67-.2,1.06-.2h0ZM255.92,89.85c.2,0,.36-.04.5-.11.16-.07.28-.17.38-.3.1-.13.18-.28.23-.45.05-.18.08-.38.08-.59v-.03c0-.21-.03-.4-.08-.58-.05-.17-.12-.32-.23-.46-.1-.13-.23-.23-.37-.3-.16-.08-.33-.11-.51-.11-.2,0-.36.03-.51.1-.15.08-.27.18-.37.3-.1.13-.18.29-.23.47-.06.17-.08.37-.08.58v.03c0,.21.02.4.08.59.05.17.12.32.23.45s.22.23.37.3.32.1.51.1h0ZM259.38,85.77h1.35v.45c.08-.07.16-.14.24-.2.09-.07.19-.13.3-.18.25-.12.52-.17.8-.17.28,0,.53.04.75.14.43.17.77.51.93.95.08.22.12.46.12.71v3.53h-1.35v-3.04c0-.19-.02-.34-.06-.47-.04-.12-.1-.22-.18-.31-.07-.08-.16-.14-.26-.18-.1-.04-.21-.06-.32-.06-.13,0-.26.03-.38.08-.12.05-.23.12-.31.22-.09.11-.16.23-.2.37-.05.17-.08.35-.08.53v2.86h-1.35v-5.23h0ZM269.18,85.21c-.2,0-.37.03-.51.1-.14.05-.26.14-.36.25-.1.11-.16.24-.2.4-.05.15-.08.31-.08.47l-1.45-.13c0-.39.08-.73.2-1.02.27-.58.76-1.02,1.36-1.22.68-.23,1.42-.22,2.1.02.61.19,1.11.64,1.35,1.23.27.65.26,1.39-.04,2.03-.14.33-.34.63-.6.92-.25.28-.53.53-.86.77-.33.23-.66.44-1,.62l-.14.07h2.92v1.28h-5.1v-1.27c.55-.3,1.08-.63,1.6-.97.26-.18.5-.36.74-.55.23-.2.43-.4.6-.6.16-.2.29-.41.4-.64.1-.21.16-.44.16-.68,0-.14-.02-.27-.07-.4-.09-.26-.29-.48-.54-.59-.15-.07-.32-.1-.49-.1h.01Z"/>
  <path class="st4" d="M409,68h64v10h-64v-10Z"/>
  <path class="st8" d="M473,164h-64v-96h64v96ZM411,162h60v-92h-60v92Z"/>
  <path class="st9" d="M416,100h26v10h-26v-10Z"/>
  <path class="st3" d="M416.73,84h4.72v1.28h-3.3v1.5h3.04v1.27h-3.04v1.67h3.49v1.28h-4.9v-7h-.01ZM422.59,84h1.35v5.58c0,.1.03.2.09.25.06.06.17.1.3.1l.17-.02.19-.04.1,1.15c-.2.03-.4.05-.6.06l-.35.02c-.2,0-.37-.03-.52-.08-.15-.04-.28-.11-.4-.21-.11-.1-.19-.22-.24-.36-.07-.16-.1-.33-.1-.5v-5.95h0ZM426.89,91h-1.35v-5.23h1.34v5.23h.01ZM425.39,84.4c0-.11.03-.22.07-.31.08-.2.23-.36.43-.44.1-.04.21-.06.32-.06.21,0,.42.08.57.24.07.07.13.16.17.26.13.3.06.65-.17.88-.07.07-.16.13-.26.17-.1.04-.2.07-.31.07-.11,0-.22-.02-.32-.07-.1-.04-.18-.1-.26-.17-.07-.08-.13-.16-.17-.26-.04-.1-.06-.2-.06-.31h0ZM431.23,90.07c-.13.15-.3.27-.51.35-.22.09-.46.13-.7.13-.36,0-.67-.06-.94-.18-.27-.12-.51-.29-.7-.51-.19-.23-.34-.49-.43-.77-.1-.32-.15-.65-.14-.98,0-.35.05-.67.14-.97.1-.3.25-.56.43-.77.19-.22.43-.4.7-.52.52-.22,1.11-.24,1.64-.05.22.09.38.2.5.35v-.38h1.36v5.18c0,.32-.06.6-.18.82-.12.23-.29.42-.5.57-.22.15-.47.25-.73.31-.29.07-.58.1-.88.1-.38,0-.78-.04-1.2-.13-.36-.07-.72-.18-1.06-.33l.38-1.09c.24.11.5.19.76.25.32.07.65.12.98.13.14,0,.27-.01.4-.04.12-.02.24-.07.34-.14.1-.06.18-.15.24-.25.07-.12.1-.25.1-.39v-.69h0ZM429.19,88.13c0,.17.02.33.06.49.04.15.1.27.18.38.09.11.2.19.32.25.13.06.29.09.47.09.37,0,.63-.12.79-.35.16-.23.23-.52.23-.86v-.04c0-.17-.01-.33-.05-.48-.03-.14-.09-.27-.17-.39-.08-.11-.19-.2-.32-.25-.15-.07-.31-.1-.48-.1-.36,0-.63.12-.79.36-.16.23-.24.51-.24.86v.04ZM435.09,91h-1.35v-5.23h1.35v5.23ZM433.59,84.4c0-.11.03-.22.07-.31.08-.2.23-.36.43-.44.1-.04.21-.06.32-.06.1,0,.21.02.31.06.1.04.19.1.26.18.07.07.13.16.17.26.04.09.07.2.07.3,0,.12-.02.23-.07.33-.08.19-.24.35-.43.43-.1.04-.2.06-.31.06-.11,0-.22-.02-.32-.06-.1-.04-.18-.1-.26-.17-.07-.08-.13-.16-.17-.26-.04-.1-.06-.21-.06-.32h-.01ZM441.22,88.39c0,.38-.06.74-.17,1.08-.1.31-.27.61-.48.86-.42.49-1.03.78-1.68.77-.27,0-.53-.05-.77-.16-.1-.05-.19-.1-.28-.17-.09-.07-.17-.14-.24-.22v.45h-1.35v-7h1.35v2.22c.34-.37.82-.57,1.32-.55.65,0,1.26.28,1.67.78.2.24.35.53.46.86s.17.69.17,1.08h0ZM437.56,88.87c0,.14.02.27.07.4.05.1.13.21.22.3.1.09.21.16.34.2.13.05.28.08.45.08.34.02.67-.13.88-.4.1-.13.18-.28.23-.45.05-.18.08-.37.08-.58v-.06c0-.21-.03-.4-.08-.58-.05-.16-.13-.32-.23-.45-.1-.13-.23-.23-.37-.3-.16-.08-.33-.11-.51-.11-.17,0-.32.02-.45.07-.13.04-.24.11-.34.2-.2.18-.31.43-.3.7v.98h0ZM442.1,84h1.35v5.58c0,.1.03.2.09.25.06.06.17.1.3.1l.17-.02.19-.04.1,1.15c-.2.03-.4.05-.6.06l-.35.02c-.2,0-.37-.03-.52-.08-.15-.04-.28-.11-.4-.21-.11-.1-.19-.22-.24-.36-.07-.16-.1-.33-.1-.5v-5.95h0ZM446.18,88.85c.02.16.07.3.14.43.16.26.41.46.7.55.16.05.32.08.49.08.46-.01.91-.17,1.28-.45l.65.95c-.27.22-.57.39-.9.5-.36.12-.73.19-1.13.19-.36,0-.7-.06-1.02-.19-.31-.12-.6-.3-.84-.54-.24-.24-.44-.53-.57-.85-.14-.36-.21-.74-.2-1.13,0-.39.06-.75.18-1.08s.29-.62.5-.86c.46-.51,1.12-.79,1.81-.78.65,0,1.28.25,1.74.72.22.22.39.5.51.8.12.32.19.67.19,1.05v.61h-3.53ZM447.27,86.84c-.29,0-.54.1-.74.3-.19.19-.31.43-.34.7h2.1c0-.27-.11-.52-.3-.71-.19-.19-.45-.3-.72-.29h0ZM467,41h2.7c.43,0,.8.06,1.11.18.32.12.59.28.8.48.42.39.66.94.66,1.52,0,.23-.04.45-.11.66-.2.6-.66,1.07-1.26,1.28l1.54,2.88h-1.63l-1.27-2.52h-1.13v2.52h-1.41v-7ZM470.79,43.23c0-.14-.03-.27-.08-.4-.05-.12-.13-.22-.23-.3-.11-.09-.24-.16-.38-.2-.17-.05-.35-.08-.53-.08h-1.15v1.97h1.15c.2,0,.38-.02.53-.07.15-.06.28-.13.38-.21.1-.09.18-.2.23-.32.05-.12.08-.26.08-.39ZM474.21,45.85c.02.16.07.3.14.43.16.26.41.46.7.55.16.05.32.08.49.08.46-.01.91-.17,1.28-.45l.65.95c-.27.22-.57.39-.9.5-.36.12-.73.19-1.13.19-.36,0-.7-.06-1.02-.19-.31-.12-.6-.3-.84-.54-.25-.24-.44-.53-.57-.85-.14-.36-.21-.74-.2-1.13,0-.39.06-.74.18-1.08.12-.33.29-.62.5-.86.47-.51,1.13-.79,1.82-.78.65,0,1.27.26,1.73.72.22.22.39.49.51.8.12.32.19.67.19,1.05v.61h-3.53ZM475.3,43.84c-.29,0-.54.1-.74.3-.19.19-.31.43-.34.7h2.1c0-.27-.11-.52-.3-.71-.19-.19-.45-.3-.72-.29h0ZM478.97,46.33c.19.17.42.32.68.44.27.13.54.19.82.19.2,0,.35-.04.46-.11.12-.08.17-.18.17-.3,0-.2-.21-.36-.65-.48l-.39-.1c-.19-.05-.39-.11-.57-.19-.19-.08-.37-.18-.53-.31-.16-.13-.29-.3-.39-.48-.11-.22-.16-.46-.15-.7,0-.2.05-.42.15-.61.1-.2.23-.37.4-.52.18-.15.4-.27.66-.36.99-.29,2.06-.09,2.87.55l-.7.9c-.19-.13-.39-.23-.6-.3-.22-.09-.45-.14-.68-.14-.17,0-.34.03-.49.12-.12.07-.17.16-.17.27,0,.12.05.2.15.28.1.07.25.13.45.18l.56.16c.54.15.93.36,1.16.62.24.26.36.6.36.99,0,.45-.2.88-.54,1.17-.18.15-.4.28-.66.37-.28.09-.58.13-.88.13-.46,0-.91-.09-1.34-.26-.18-.07-.36-.16-.52-.27-.14-.09-.27-.19-.39-.3l.76-.94h0ZM487.86,48h-1.35v-.45c-.08.07-.16.14-.24.21-.09.07-.19.13-.3.18-.25.11-.53.16-.8.16-.28,0-.53-.05-.75-.14-.22-.09-.41-.22-.58-.38-.15-.16-.27-.36-.35-.57-.08-.22-.12-.46-.12-.7v-3.54h1.35v3.04c0,.18.02.34.06.47s.1.24.17.32c.07.07.16.13.26.17.1.04.21.06.33.06.13,0,.26-.03.38-.08.12-.05.22-.12.31-.22.09-.1.16-.22.2-.37.05-.17.08-.35.08-.53v-2.86h1.35v5.23h0ZM489.01,41h1.34v5.58c0,.1.03.2.1.25.06.06.16.1.3.1l.17-.02.18-.04.11,1.15-.29.04c-.39.03-.79.02-1.18-.04-.15-.04-.28-.11-.4-.21-.11-.1-.2-.22-.25-.36-.06-.16-.09-.33-.08-.5v-5.95ZM493.68,46.44c0,.06,0,.12.02.18.02.06.05.11.09.15l.17.09c.09.02.19.03.29.03h.17l.18-.02c.06,0,.12-.02.17-.03l.14-.02.12,1.19c-.26.03-.52.05-.78.07l-.44.02c-.46,0-.83-.1-1.09-.32-.26-.21-.39-.55-.39-1.01v-2.83h-.94v-1.17h.94v-1.48l1.35-.36v1.84h1.37v1.17h-1.37v2.5h0ZM496.28,46.33c.18.17.41.32.68.44.27.13.54.19.81.19.2,0,.36-.04.47-.11.11-.08.17-.18.17-.3,0-.2-.22-.36-.66-.48l-.38-.1c-.19-.05-.39-.11-.57-.19-.19-.08-.37-.18-.53-.31-.16-.13-.3-.29-.4-.48-.1-.22-.15-.46-.14-.7,0-.2.05-.42.14-.61.1-.2.24-.37.41-.52.18-.15.4-.27.65-.36.27-.09.56-.13.85-.13.73-.01,1.44.23,2.02.68l-.7.9c-.19-.13-.39-.23-.6-.3-.21-.09-.44-.14-.67-.14-.17-.01-.35.03-.5.12-.11.07-.17.16-.17.27,0,.12.05.2.15.28.1.07.26.13.45.18l.57.16c.54.15.93.36,1.16.62s.35.6.35.99c0,.45-.2.88-.54,1.17-.19.16-.41.29-.65.37-.26.08-.56.13-.89.13-.46,0-.91-.09-1.34-.26-.18-.07-.35-.17-.51-.27-.14-.09-.28-.19-.4-.3l.76-.94h.01Z"/>
  <path class="st1" d="M409,54h154M410,55v6M562,55v6"/>
  <path class="st8" d="M89.52,119.5c.28,0,.5-.22.5-.5s-.22-.5-.5-.5v1ZM93.65,118.5c-.28,0-.5.22-.5.5s.22.5.5.5v-1ZM94.68,119.5c.28,0,.5-.22.5-.5s-.22-.5-.5-.5v1ZM98.82,118.5c-.28,0-.5.22-.5.5s.22.5.5.5v-1ZM99.85,119.5c.28,0,.5-.22.5-.5s-.22-.5-.5-.5v1ZM103.98,118.5c-.28,0-.5.22-.5.5s.22.5.5.5v-1ZM105.02,119.5c.28,0,.5-.22.5-.5s-.22-.5-.5-.5v1ZM109.15,118.5c-.28,0-.5.22-.5.5s.22.5.5.5v-1ZM110.18,119.5c.28,0,.5-.22.5-.5s-.22-.5-.5-.5v1ZM114.32,118.5c-.28,0-.5.22-.5.5s.22.5.5.5v-1ZM115.35,119.5c.28,0,.5-.22.5-.5s-.22-.5-.5-.5v1ZM119.48,118.5c-.28,0-.5.22-.5.5s.22.5.5.5v-1ZM89,119.5h.52v-1h-.52v1h0ZM93.65,119.5h1.03v-1h-1.03v1ZM98.82,119.5h1.03v-1h-1.03v1ZM103.98,119.5h1.04v-1h-1.04v1ZM109.15,119.5h1.03v-1h-1.03v1ZM114.32,119.5h1.03v-1h-1.03v1ZM119.48,119.5h.52v-1h-.52v1ZM189,118c-.28,0-.5.22-.5.5s.22.5.5.5v-1ZM189.46,119c.28,0,.5-.22.5-.5s-.22-.5-.5-.5v1ZM193.14,118c-.28,0-.5.22-.5.5s.22.5.5.5v-1ZM194.06,119c.28,0,.5-.22.5-.5s-.22-.5-.5-.5v1ZM197.74,118c-.28,0-.5.22-.5.5s.22.5.5.5v-1ZM198.66,119c.28,0,.5-.22.5-.5s-.22-.5-.5-.5v1ZM202.34,118c-.28,0-.5.22-.5.5s.22.5.5.5v-1ZM203.26,119c.28,0,.5-.22.5-.5s-.22-.5-.5-.5v1ZM206.94,118c-.28,0-.5.22-.5.5s.22.5.5.5v-1ZM207.86,119c.28,0,.5-.22.5-.5s-.22-.5-.5-.5v1ZM211.54,118c-.28,0-.5.22-.5.5s.22.5.5.5v-1ZM189,119h.46v-1h-.46v1ZM193.14,119h.92v-1h-.92v1ZM197.74,119h.92v-1h-.92v1ZM202.34,119h.92v-1h-.92v1ZM206.94,119h.92v-1h-.92v1ZM211.54,119h.46v-1h-.46v1ZM280,118c-.28,0-.5.22-.5.5s.22.5.5.5v-1ZM280.54,119c.28,0,.5-.22.5-.5s-.22-.5-.5-.5v1ZM284.86,118c-.28,0-.5.22-.5.5s.22.5.5.5v-1ZM285.94,119c.28,0,.5-.22.5-.5s-.22-.5-.5-.5v1ZM290.26,118c-.28,0-.5.22-.5.5s.22.5.5.5v-1ZM291.34,119c.28,0,.5-.22.5-.5s-.22-.5-.5-.5v1ZM295.66,118c-.28,0-.5.22-.5.5s.22.5.5.5v-1ZM296.74,119c.28,0,.5-.22.5-.5s-.22-.5-.5-.5v1ZM301.06,118c-.28,0-.5.22-.5.5s.22.5.5.5v-1ZM302.14,119c.28,0,.5-.22.5-.5s-.22-.5-.5-.5v1ZM306.46,118c-.28,0-.5.22-.5.5s.22.5.5.5v-1ZM280,119h.54v-1h-.54v1ZM284.86,119h1.08v-1h-1.08v1ZM290.26,119h1.08v-1h-1.08v1ZM295.66,119h1.08v-1h-1.08v1ZM301.06,119h1.08v-1h-1.08v1ZM306.46,119h.54v-1h-.54v1ZM374,118.5c-.28,0-.5.22-.5.5s.22.5.5.5v-1ZM374.53,119.5c.28,0,.5-.22.5-.5s-.22-.5-.5-.5v1ZM378.8,118.5c-.28,0-.5.22-.5.5s.22.5.5.5v-1ZM379.87,119.5c.28,0,.5-.22.5-.5s-.22-.5-.5-.5v1ZM384.13,118.5c-.28,0-.5.22-.5.5s.22.5.5.5v-1ZM385.2,119.5c.28,0,.5-.22.5-.5s-.22-.5-.5-.5v1ZM389.47,118.5c-.28,0-.5.22-.5.5s.22.5.5.5v-1ZM390.53,119.5c.28,0,.5-.22.5-.5s-.22-.5-.5-.5v1ZM394.8,118.5c-.28,0-.5.22-.5.5s.22.5.5.5v-1ZM395.87,119.5c.28,0,.5-.22.5-.5s-.22-.5-.5-.5v1ZM400.13,118.5c-.28,0-.5.22-.5.5s.22.5.5.5v-1ZM401.2,119.5c.28,0,.5-.22.5-.5s-.22-.5-.5-.5v1ZM405.47,118.5c-.28,0-.5.22-.5.5s.22.5.5.5v-1ZM374,119.5h.53v-1h-.53v1h0ZM378.8,119.5h1.07v-1h-1.07v1ZM384.13,119.5h1.07v-1h-1.07v1ZM389.47,119.5h1.06v-1h-1.06v1ZM394.8,119.5h1.07v-1h-1.07v1ZM400.13,119.5h1.07v-1h-1.07v1ZM405.47,119.5h.53v-1h-.53v1ZM473,118c-.28,0-.5.22-.5.5s.22.5.5.5v-1ZM473.54,119c.28,0,.5-.22.5-.5s-.22-.5-.5-.5v1ZM477.86,118c-.28,0-.5.22-.5.5s.22.5.5.5v-1ZM478.94,119c.28,0,.5-.22.5-.5s-.22-.5-.5-.5v1ZM483.26,118c-.28,0-.5.22-.5.5s.22.5.5.5v-1ZM484.34,119c.28,0,.5-.22.5-.5s-.22-.5-.5-.5v1ZM488.66,118c-.28,0-.5.22-.5.5s.22.5.5.5v-1ZM489.74,119c.28,0,.5-.22.5-.5s-.22-.5-.5-.5v1ZM494.06,118c-.28,0-.5.22-.5.5s.22.5.5.5v-1ZM495.14,119c.28,0,.5-.22.5-.5s-.22-.5-.5-.5v1ZM499.46,118c-.28,0-.5.22-.5.5s.22.5.5.5v-1ZM473,119h.54v-1h-.54v1ZM477.86,119h1.08v-1h-1.08v1ZM483.26,119h1.08v-1h-1.08v1ZM488.66,119h1.08v-1h-1.08v1ZM494.06,119h1.08v-1h-1.08v1ZM499.46,119h.54v-1h-.54v1Z"/>
  <path class="st8" d="M216,118l-6,3.46v-6.92l6,3.46ZM311,119l-6,3.46v-6.92l6,3.46ZM124,119l-6,3.46v-6.92l6,3.46ZM498,119l-6,3.46v-6.92l6,3.46Z"/>
</svg>