<svg width="583" height="294" fill="none" xmlns="http://www.w3.org/2000/svg"><path d="M2 0h581v292H2V0Z" fill="#fff"/><path d="m409 119-6 3.464v-6.928l6 3.464ZM155.5 167a.5.5 0 0 0-1 0h1Zm-.5 71h-.5a.5.5 0 0 0 .5.5v-.5Zm-.5-70.493a.5.5 0 0 0 1 0h-1Zm1 4.057a.5.5 0 0 0-1 0h1Zm-1 1.015a.5.5 0 0 0 1 0h-1Zm1 4.057a.5.5 0 0 0-1 0h1Zm-1 1.014a.5.5 0 0 0 1 0h-1Zm1 4.057a.5.5 0 0 0-1 0h1Zm-1 1.014a.5.5 0 1 0 1 0h-1Zm1 4.058a.5.5 0 1 0-1 0h1Zm-1 1.014a.5.5 0 0 0 1 0h-1Zm1 4.057a.5.5 0 0 0-1 0h1Zm-1 1.014a.5.5 0 0 0 1 0h-1Zm1 4.057a.5.5 0 0 0-1 0h1Zm-1 1.015a.5.5 0 0 0 1 0h-1Zm1 4.057a.5.5 0 0 0-1 0h1Zm-1 1.014a.5.5 0 0 0 1 0h-1Zm1 4.057a.5.5 0 0 0-1 0h1Zm-1 1.015a.5.5 0 0 0 1 0h-1Zm1 4.057a.5.5 0 0 0-1 0h1Zm-1 1.014a.5.5 0 0 0 1 0h-1Zm1 4.057a.5.5 0 0 0-1 0h1Zm-1 1.014a.5.5 0 1 0 1 0h-1Zm1 4.058a.5.5 0 1 0-1 0h1Zm-1 1.014a.5.5 0 0 0 1 0h-1Zm1 4.057a.5.5 0 0 0-1 0h1Zm-1 1.014a.5.5 0 0 0 1 0h-1Zm1 4.057a.5.5 0 0 0-1 0h1Zm-1 1.015a.5.5 0 0 0 1 0h-1Zm1 4.057a.5.5 0 0 0-1 0h1Zm0 1.007a.5.5 0 0 0 0-1v1Zm4-1a.5.5 0 0 0 0 1v-1Zm1 1a.5.5 0 0 0 0-1v1Zm4-1a.5.5 0 0 0 0 1v-1Zm1 1a.5.5 0 0 0 0-1v1Zm4-1a.5.5 0 0 0 0 1v-1Zm1 1a.5.5 0 0 0 0-1v1Zm4-1a.5.5 0 0 0 0 1v-1Zm1 1a.5.5 0 0 0 0-1v1Zm4-1a.5.5 0 0 0 0 1v-1Zm1 1a.5.5 0 0 0 0-1v1Zm4-1a.5.5 0 0 0 0 1v-1Zm1 1a.5.5 0 0 0 0-1v1Zm4-1a.5.5 0 0 0 0 1v-1Zm1 1a.5.5 0 0 0 0-1v1Zm4-1a.5.5 0 0 0 0 1v-1Zm1 1a.5.5 0 0 0 0-1v1Zm4-1a.5.5 0 0 0 0 1v-1Zm1 1a.5.5 0 0 0 0-1v1Zm4-1a.5.5 0 0 0 0 1v-1Zm1 1a.5.5 0 0 0 0-1v1Zm4-1a.5.5 0 0 0 0 1v-1Zm1 1a.5.5 0 0 0 0-1v1Zm4-1a.5.5 0 0 0 0 1v-1Zm1 1a.5.5 0 0 0 0-1v1Zm4-1a.5.5 0 0 0 0 1v-1Zm1 1a.5.5 0 0 0 0-1v1Zm4-1a.5.5 0 0 0 0 1v-1Zm1 1a.5.5 0 0 0 0-1v1Zm4-1a.5.5 0 0 0 0 1v-1Zm1 1a.5.5 0 0 0 0-1v1Zm4-1a.5.5 0 0 0 0 1v-1Zm1 1a.5.5 0 0 0 0-1v1Zm4-1a.5.5 0 0 0 0 1v-1Zm1 1a.5.5 0 0 0 0-1v1Zm4-1a.5.5 0 0 0 0 1v-1Zm1 1a.5.5 0 0 0 0-1v1Zm4-1a.5.5 0 0 0 0 1v-1Zm1 1a.5.5 0 0 0 0-1v1Zm4-1a.5.5 0 0 0 0 1v-1Zm1 1a.5.5 0 0 0 0-1v1Zm4-1a.5.5 0 0 0 0 1v-1Zm1 1a.5.5 0 0 0 0-1v1Zm4-1a.5.5 0 0 0 0 1v-1Zm1 1a.5.5 0 0 0 0-1v1Zm4-1a.5.5 0 0 0 0 1v-1Zm1 1a.5.5 0 0 0 0-1v1Zm4-1a.5.5 0 0 0 0 1v-1Zm1 1a.5.5 0 0 0 0-1v1Zm4-1a.5.5 0 0 0 0 1v-1Zm1 1a.5.5 0 0 0 0-1v1Zm4-1a.5.5 0 0 0 0 1v-1Zm1 1a.5.5 0 0 0 0-1v1Zm4-1a.5.5 0 0 0 0 1v-1Zm1 1a.5.5 0 0 0 0-1v1Zm4-1a.5.5 0 0 0 0 1v-1Zm1 1a.5.5 0 0 0 0-1v1Zm4-1a.5.5 0 0 0 0 1v-1Zm1 1a.5.5 0 0 0 0-1v1Zm4-1a.5.5 0 0 0 0 1v-1Zm1 1a.5.5 0 0 0 0-1v1Zm4-1a.5.5 0 0 0 0 1v-1Zm1 1a.5.5 0 0 0 0-1v1Zm4-1a.5.5 0 0 0 0 1v-1Zm1 1a.5.5 0 0 0 0-1v1Zm4-1a.5.5 0 0 0 0 1v-1Zm1 1a.5.5 0 0 0 0-1v1Zm4-1a.5.5 0 0 0 0 1v-1Zm1 1a.5.5 0 0 0 0-1v1Zm4-1a.5.5 0 0 0 0 1v-1Zm1 1a.5.5 0 0 0 0-1v1Zm4-1a.5.5 0 0 0 0 1v-1Zm1 1a.5.5 0 0 0 0-1v1Zm4-1a.5.5 0 0 0 0 1v-1Zm1 1a.5.5 0 0 0 0-1v1Zm4-1a.5.5 0 0 0 0 1v-1Zm1 1a.5.5 0 0 0 0-1v1Zm4-1a.5.5 0 0 0 0 1v-1Zm1 1a.5.5 0 0 0 0-1v1Zm4-1a.5.5 0 0 0 0 1v-1Zm1 1a.5.5 0 0 0 0-1v1Zm4-1a.5.5 0 0 0 0 1v-1Zm1 1a.5.5 0 0 0 0-1v1Zm4-1a.5.5 0 0 0 0 1v-1Zm1 1a.5.5 0 0 0 0-1v1Zm4-1a.5.5 0 0 0 0 1v-1Zm1 1a.5.5 0 0 0 0-1v1Zm4-1a.5.5 0 0 0 0 1v-1Zm1 1a.5.5 0 0 0 0-1v1Zm4-1a.5.5 0 0 0 0 1v-1Zm1 1a.5.5 0 0 0 0-1v1Zm4-1a.5.5 0 0 0 0 1v-1Zm1 1a.5.5 0 0 0 0-1v1Zm4-1a.5.5 0 0 0 0 1v-1Zm1 1a.5.5 0 0 0 0-1v1Zm4-1a.5.5 0 0 0 0 1v-1Zm1 1a.5.5 0 0 0 0-1v1Zm4-1a.5.5 0 0 0 0 1v-1Zm1 1a.5.5 0 0 0 0-1v1Zm4-1a.5.5 0 0 0 0 1v-1Zm-250-70.5v.507h1V167h-1Zm0 4.564v1.015h1v-1.015h-1Zm0 5.072v1.014h1v-1.014h-1Zm0 5.071v1.014h1v-1.014h-1Zm0 5.072v1.014h1v-1.014h-1Zm0 5.071v1.014h1v-1.014h-1Zm0 5.071v1.015h1v-1.015h-1Zm0 5.072v1.014h1v-1.014h-1Zm0 5.071v1.015h1v-1.015h-1Zm0 5.072v1.014h1v-1.014h-1Zm0 5.071v1.014h1v-1.014h-1Zm0 5.072v1.014h1v-1.014h-1Zm0 5.071v1.014h1v-1.014h-1Zm0 5.071v1.015h1v-1.015h-1Zm0 5.072V238h1v-.507h-1Zm.5 1.007h.5v-1h-.5v1Zm4.5 0h1v-1h-1v1Zm5 0h1v-1h-1v1Zm5 0h1v-1h-1v1Zm5 0h1v-1h-1v1Zm5 0h1v-1h-1v1Zm5 0h1v-1h-1v1Zm5 0h1v-1h-1v1Zm5 0h1v-1h-1v1Zm5 0h1v-1h-1v1Zm5 0h1v-1h-1v1Zm5 0h1v-1h-1v1Zm5 0h1v-1h-1v1Zm5 0h1v-1h-1v1Zm5 0h1v-1h-1v1Zm5 0h1v-1h-1v1Zm5 0h1v-1h-1v1Zm5 0h1v-1h-1v1Zm5 0h1v-1h-1v1Zm5 0h1v-1h-1v1Zm5 0h1v-1h-1v1Zm5 0h1v-1h-1v1Zm5 0h1v-1h-1v1Zm5 0h1v-1h-1v1Zm5 0h1v-1h-1v1Zm5 0h1v-1h-1v1Zm5 0h1v-1h-1v1Zm5 0h1v-1h-1v1Zm5 0h1v-1h-1v1Zm5 0h1v-1h-1v1Zm5 0h1v-1h-1v1Zm5 0h1v-1h-1v1Zm5 0h1v-1h-1v1Zm5 0h1v-1h-1v1Zm5 0h1v-1h-1v1Zm5 0h1v-1h-1v1Zm5 0h1v-1h-1v1Zm5 0h1v-1h-1v1Zm5 0h1v-1h-1v1Zm5 0h1v-1h-1v1Zm5 0h1v-1h-1v1Zm5 0h1v-1h-1v1Zm5 0h1v-1h-1v1Zm5 0h1v-1h-1v1Zm5 0h1v-1h-1v1Zm5 0h1v-1h-1v1Zm5 0h1v-1h-1v1Zm5 0h1v-1h-1v1Zm5 0h1v-1h-1v1Zm5 0h1v-1h-1v1Zm5 0h.5v-1h-.5v1Z" fill="#0B0C0C"/><path fill="#fff" stroke="#0B0C0C" stroke-width="2" d="M499 69h62v94h-62z"/><path fill="#0B0C0C" d="M498 68h64v10h-64zM505 111h22v1h-22zM505 117h50v1h-50zM505 125h50v1h-50zM505 121h50v1h-50zM505 129h40v1h-40z"/><path fill="#00823B" d="M505 83h50v23h-50z"/><path d="M514.779 91.13h-1.815l-.277.91h-1.053l1.603-4.901h1.303l1.627 4.901h-1.108l-.28-.91Zm-1.548-.874h1.281l-.635-2.071h-.014l-.632 2.07Zm4.377 2.94h-.943v-4.817h.943v.315c.103-.107.229-.198.38-.274.15-.075.332-.112.546-.112a1.498 1.498 0 0 1 1.166.547c.141.168.251.369.328.601.078.233.116.484.116.755 0 .272-.04.523-.119.756-.08.232-.192.433-.335.601a1.522 1.522 0 0 1-1.473.51 1.09 1.09 0 0 1-.441-.199 1.32 1.32 0 0 1-.168-.153v1.47Zm-.027-2.646c0 .098.017.189.051.273a.664.664 0 0 0 .39.36.906.906 0 0 0 .314.05.747.747 0 0 0 .619-.28.934.934 0 0 0 .16-.314c.037-.123.055-.258.055-.404v-.044c0-.146-.018-.28-.055-.403a.931.931 0 0 0-.16-.318.732.732 0 0 0-.263-.212.802.802 0 0 0-.356-.075.906.906 0 0 0-.314.05.656.656 0 0 0-.39.362.724.724 0 0 0-.051.275v.68Zm4.166 2.645h-.944V88.38h.944v.315a1.212 1.212 0 0 1 .926-.386 1.498 1.498 0 0 1 1.165.547 1.8 1.8 0 0 1 .328.601c.078.233.117.484.117.755 0 .272-.04.523-.12.756-.08.232-.191.433-.335.601a1.522 1.522 0 0 1-1.473.51 1.081 1.081 0 0 1-.441-.199 1.382 1.382 0 0 1-.167-.153v1.47Zm-.028-2.645c0 .098.017.189.051.273a.664.664 0 0 0 .39.36.912.912 0 0 0 .315.05.829.829 0 0 0 .355-.071.73.73 0 0 0 .263-.209.936.936 0 0 0 .161-.314c.036-.123.055-.258.055-.404v-.044c0-.146-.019-.28-.055-.403a.933.933 0 0 0-.161-.318.716.716 0 0 0-.263-.212.798.798 0 0 0-.355-.075.912.912 0 0 0-.315.05.656.656 0 0 0-.39.362.724.724 0 0 0-.051.275v.68Zm3.209-3.411h.943v3.906c0 .078.022.137.065.178.046.041.118.062.216.062a.835.835 0 0 0 .246-.034l.075.803-.205.027a4.034 4.034 0 0 1-.216.017c-.079.007-.162.01-.249.01-.135 0-.255-.017-.362-.05a.79.79 0 0 1-.277-.151.691.691 0 0 1-.175-.253.916.916 0 0 1-.061-.349V87.14Zm3.038 4.901h-.944v-3.66h.944v3.66Zm-1.043-4.621c0-.078.015-.15.045-.219a.55.55 0 0 1 .3-.304.558.558 0 0 1 .441 0 .54.54 0 0 1 .182.123.544.544 0 0 1 .167.4.563.563 0 0 1-.567.567.558.558 0 0 1-.223-.044.623.623 0 0 1-.181-.12.6.6 0 0 1-.164-.403Zm2.669 2.81c0 .118.016.238.048.358.032.119.081.226.147.322.066.095.15.174.253.235.105.06.229.09.372.09a.793.793 0 0 0 .458-.14.809.809 0 0 0 .161-.158 1.09 1.09 0 0 0 .123-.198l.827.427a1.333 1.333 0 0 1-.246.39 1.52 1.52 0 0 1-.359.297 1.726 1.726 0 0 1-.454.188 2 2 0 0 1-.53.068c-.258 0-.495-.047-.711-.143a1.728 1.728 0 0 1-.561-.4 1.842 1.842 0 0 1-.369-.598 2.095 2.095 0 0 1-.133-.756c0-.269.044-.52.133-.751.089-.233.212-.435.369-.605.157-.171.344-.305.561-.4a1.7 1.7 0 0 1 .711-.147 2 2 0 0 1 .53.068 1.659 1.659 0 0 1 .813.489c.105.116.187.246.246.39l-.827.427a.993.993 0 0 0-.284-.352.664.664 0 0 0-.205-.106.735.735 0 0 0-.253-.041.723.723 0 0 0-.625.328 1.033 1.033 0 0 0-.147.324 1.41 1.41 0 0 0-.048.363v.03Zm4.183.324a.535.535 0 0 0-.281.123.32.32 0 0 0-.105.253c0 .119.043.221.129.308.087.084.215.126.383.126a.57.57 0 0 0 .421-.153.552.552 0 0 0 .153-.407v-.37l-.7.12Zm.854 1.142a1.59 1.59 0 0 1-.143.14 1.042 1.042 0 0 1-.199.133 1.341 1.341 0 0 1-.611.14c-.183 0-.351-.028-.506-.085a1.304 1.304 0 0 1-.404-.246 1.172 1.172 0 0 1-.273-.362 1.038 1.038 0 0 1-.099-.452c0-.294.091-.534.273-.72.183-.188.434-.305.756-.353l1.052-.154v-.068a.514.514 0 0 0-.15-.39c-.1-.095-.263-.143-.489-.143-.093 0-.188.011-.283.034-.096.02-.188.044-.277.072-.087.027-.168.059-.243.095-.075.035-.141.065-.198.093l-.369-.722c.209-.116.442-.211.697-.287.257-.075.524-.112.8-.112.168 0 .338.018.509.054.173.035.329.098.468.192.142.093.257.22.346.382.088.16.133.364.133.612v1.504c0 .107.027.187.082.24.057.05.134.096.232.14l-.427.676a.912.912 0 0 1-.417-.133.907.907 0 0 1-.26-.28Zm2.816-.745a.45.45 0 0 0 .017.123.255.255 0 0 0 .058.102c.03.028.071.05.123.065.053.016.12.024.202.024l.116-.003.13-.014c.043-.004.083-.01.12-.017l.095-.017.086.834a8.467 8.467 0 0 1-.551.051c-.1.007-.201.01-.304.01-.326 0-.58-.074-.762-.222-.182-.148-.273-.384-.273-.707v-1.98h-.66v-.82h.66v-1.035l.943-.253v1.288h.96v.82h-.96v1.75Zm2.528 1.09h-.943v-3.66h.943v3.66Zm-1.042-4.621a.569.569 0 0 1 .567-.567c.078 0 .151.014.219.044.071.03.131.07.181.123.053.05.094.11.123.181.03.069.045.141.045.219a.56.56 0 0 1-.349.523.557.557 0 0 1-.441 0 .61.61 0 0 1-.181-.12.563.563 0 0 1-.164-.403Zm3.496.889c.271 0 .517.049.738.147.221.095.41.229.567.4.158.17.278.372.363.605.086.232.13.483.13.751 0 .272-.044.523-.13.756a1.711 1.711 0 0 1-.933.998 1.83 1.83 0 0 1-.735.143 1.711 1.711 0 0 1-1.672-1.142 2.16 2.16 0 0 1-.129-.755c0-.269.042-.52.126-.751.087-.233.208-.435.366-.605a1.65 1.65 0 0 1 .567-.4c.223-.098.471-.147.742-.147Zm0 2.925a.798.798 0 0 0 .355-.075.73.73 0 0 0 .263-.208.915.915 0 0 0 .161-.318c.037-.126.055-.262.055-.41v-.024c0-.148-.018-.284-.055-.407a.912.912 0 0 0-.161-.321.716.716 0 0 0-.263-.212.798.798 0 0 0-.355-.075.822.822 0 0 0-.359.075.73.73 0 0 0-.26.212.93.93 0 0 0-.161.321 1.445 1.445 0 0 0-.054.407v.024c0 .148.018.285.054.41.037.123.09.229.161.318a.746.746 0 0 0 .619.283Zm2.453-2.854h.943v.315c.051-.05.106-.098.168-.144.064-.048.133-.089.208-.123a1.296 1.296 0 0 1 .558-.12c.198 0 .376.034.533.1a1.146 1.146 0 0 1 .646.666c.057.153.085.318.085.496v2.471h-.943v-2.13c0-.13-.015-.239-.045-.328a.547.547 0 0 0-.123-.218.425.425 0 0 0-.181-.123.71.71 0 0 0-.495.01.585.585 0 0 0-.216.157.718.718 0 0 0-.143.26 1.197 1.197 0 0 0-.052.37v2.002h-.943v-3.66Zm-29.094 8.85c0 .118.016.238.047.358.032.119.081.226.147.322a.825.825 0 0 0 .253.235c.105.06.229.09.373.09a.798.798 0 0 0 .458-.14.836.836 0 0 0 .161-.158c.047-.062.088-.128.123-.198l.827.427a1.333 1.333 0 0 1-.246.39 1.52 1.52 0 0 1-.359.297 1.719 1.719 0 0 1-.455.188 1.995 1.995 0 0 1-.53.068c-.257 0-.494-.047-.711-.143a1.735 1.735 0 0 1-.56-.4 1.842 1.842 0 0 1-.369-.598 2.095 2.095 0 0 1-.133-.756c0-.269.044-.52.133-.751.089-.233.212-.435.369-.605a1.707 1.707 0 0 1 1.271-.547c.187 0 .364.022.53.068a1.652 1.652 0 0 1 .814.489c.105.116.187.246.246.39l-.827.427a1.096 1.096 0 0 0-.123-.195.723.723 0 0 0-.161-.157.675.675 0 0 0-.205-.106.739.739 0 0 0-.253-.041.724.724 0 0 0-.626.328 1.033 1.033 0 0 0-.147.324c-.031.121-.047.242-.047.363v.03Zm4.61-1.921c.271 0 .517.049.738.147.221.095.41.229.567.4.158.17.278.372.363.605.086.232.13.483.13.751 0 .272-.044.523-.13.756a1.711 1.711 0 0 1-.933.998 1.83 1.83 0 0 1-.735.143 1.711 1.711 0 0 1-1.672-1.142 2.16 2.16 0 0 1-.13-.755c0-.269.043-.52.127-.751a1.8 1.8 0 0 1 .366-.605 1.65 1.65 0 0 1 .567-.4c.223-.098.471-.147.742-.147Zm0 2.925a.798.798 0 0 0 .355-.075.73.73 0 0 0 .263-.208.915.915 0 0 0 .161-.318 1.48 1.48 0 0 0 .055-.41v-.024c0-.148-.019-.284-.055-.407a.912.912 0 0 0-.161-.321.716.716 0 0 0-.263-.212.798.798 0 0 0-.355-.075.822.822 0 0 0-.359.075.73.73 0 0 0-.26.212.93.93 0 0 0-.161.321 1.445 1.445 0 0 0-.054.407v.024c0 .148.018.285.054.41.037.123.09.229.161.318a.746.746 0 0 0 .619.283Zm5.539.807h-.946v-2.13c0-.13-.015-.239-.045-.328a.551.551 0 0 0-.116-.218.406.406 0 0 0-.174-.12.684.684 0 0 0-.472.01.545.545 0 0 0-.205.15.77.77 0 0 0-.137.264c-.032.105-.048.23-.048.376v1.996h-.943v-3.66h.943v.32c.121-.134.261-.233.421-.297.162-.064.335-.095.519-.095.189 0 .366.038.53.116a.97.97 0 0 1 .414.383 1.07 1.07 0 0 1 .488-.387c.096-.038.195-.067.298-.085.105-.018.212-.027.321-.027.205 0 .387.034.547.102a1.191 1.191 0 0 1 .755 1.132v2.498h-.953v-2.13c0-.13-.015-.239-.045-.328a.551.551 0 0 0-.116-.218.4.4 0 0 0-.178-.12.66.66 0 0 0-.468.01.545.545 0 0 0-.205.15.77.77 0 0 0-.137.264c-.032.105-.048.23-.048.376v1.996Zm3.91 1.155h-.943v-4.816h.943v.315a1.215 1.215 0 0 1 .926-.386 1.502 1.502 0 0 1 1.166.547c.141.168.25.369.328.601.077.233.116.484.116.755 0 .272-.04.523-.12.756a1.816 1.816 0 0 1-.335.601 1.516 1.516 0 0 1-1.473.51 1.099 1.099 0 0 1-.608-.352v1.469Zm-.027-2.645c0 .098.017.189.051.273a.65.65 0 0 0 .154.216c.066.061.144.109.235.143a.916.916 0 0 0 .315.051.742.742 0 0 0 .619-.28.934.934 0 0 0 .16-.314c.037-.123.055-.258.055-.404v-.044c0-.146-.018-.28-.055-.403a.931.931 0 0 0-.16-.318.727.727 0 0 0-.264-.212.798.798 0 0 0-.355-.075.916.916 0 0 0-.315.05.702.702 0 0 0-.235.144.642.642 0 0 0-.205.493v.68Zm3.208-3.411h.944v3.906c0 .078.021.137.065.178.045.041.117.062.215.062a.835.835 0 0 0 .246-.034l.075.803-.205.027a3.907 3.907 0 0 1-.215.017c-.08.007-.163.01-.25.01-.134 0-.255-.017-.362-.05a.798.798 0 0 1-.277-.151.69.69 0 0 1-.174-.253.916.916 0 0 1-.062-.349V94.14Zm2.884 3.397a.83.83 0 0 0 .308.537.952.952 0 0 0 .284.15c.107.037.221.055.341.055a1.559 1.559 0 0 0 .896-.314l.454.662c-.17.144-.38.26-.628.35a2.34 2.34 0 0 1-.793.132c-.253 0-.491-.043-.715-.13a1.738 1.738 0 0 1-.588-.375 1.809 1.809 0 0 1-.396-.599 2.078 2.078 0 0 1-.144-.793c0-.269.042-.52.127-.751a1.87 1.87 0 0 1 .359-.605 1.694 1.694 0 0 1 1.264-.547c.242 0 .466.044.674.133.207.087.387.21.54.37.152.156.272.345.359.566.086.222.129.465.129.732v.427h-2.471Zm.766-1.408a.714.714 0 0 0-.516.205.793.793 0 0 0-.243.489h1.477a.693.693 0 0 0-.212-.492.695.695 0 0 0-.506-.202Zm3.687 1.822a.45.45 0 0 0 .017.123.267.267 0 0 0 .058.102c.03.028.071.05.123.065.053.016.12.024.202.024l.116-.003.13-.014c.043-.004.083-.01.12-.017l.095-.017.086.834a8.467 8.467 0 0 1-.55.051 4.46 4.46 0 0 1-.305.01c-.325 0-.58-.074-.762-.222-.182-.148-.273-.384-.273-.707v-1.98h-.66v-.82h.66v-1.035l.943-.253v1.288h.961v.82h-.961v1.75Zm2.375-.414c.016.11.05.21.102.3a.89.89 0 0 0 .205.237.965.965 0 0 0 .284.15c.107.037.221.055.342.055a1.532 1.532 0 0 0 .895-.314l.455.662c-.171.144-.381.26-.629.35a2.335 2.335 0 0 1-.793.132c-.253 0-.491-.043-.714-.13a1.728 1.728 0 0 1-.588-.375 1.811 1.811 0 0 1-.397-.599 2.097 2.097 0 0 1-.143-.793c0-.269.042-.52.126-.751.087-.233.207-.435.359-.605a1.688 1.688 0 0 1 1.265-.547c.241 0 .466.044.673.133.208.087.388.21.54.37.153.156.273.345.359.566.087.222.13.465.13.732v.427h-2.471Zm.765-1.408a.717.717 0 0 0-.516.205.786.786 0 0 0-.242.489h1.476a.685.685 0 0 0-.212-.492.692.692 0 0 0-.506-.202Z" fill="#fff"/><path fill="#fff" stroke="#0B0C0C" stroke-width="2" d="M311 69h62v94h-62z"/><path fill="#0B0C0C" d="M310 68h64v10h-64z"/><g filter="url(#a)"><path fill="#00823B" d="M317 142h26v10h-26z"/></g><path fill="#BFC1C3" d="M317 127h50v1h-50zM317 119h50v1h-50zM317 111h50v1h-50z"/><path fill="#005EA5" d="M357 115h10v1h-10zM357 131h10v1h-10zM357 123h10v1h-10z"/><path fill="#0B0C0C" d="M317 115h8v1h-8zM330 115h22v1h-22zM317 131h8v1h-8zM330 131h22v1h-22zM317 123h8v1h-8zM330 123h22v1h-22z"/><path d="M317.381 87.499c0-.501.075-.97.224-1.406.153-.44.372-.82.655-1.143a3.012 3.012 0 0 1 1.03-.766 3.179 3.179 0 0 1 1.362-.284c.365 0 .702.048 1.011.142.313.094.593.228.84.4.251.173.465.381.644.625.179.245.321.518.425.82l-1.362.455a1.671 1.671 0 0 0-.186-.4 1.523 1.523 0 0 0-.322-.377 1.61 1.61 0 0 0-.459-.278 1.5 1.5 0 0 0-.581-.107c-.322 0-.599.066-.83.2-.228.13-.415.304-.561.522-.147.215-.256.461-.328.738a3.467 3.467 0 0 0-.102.84v.039c0 .29.034.572.102.85.072.273.181.517.328.732.146.214.333.389.561.522.231.13.508.195.83.195.215 0 .409-.035.581-.107.176-.072.329-.163.459-.273.13-.114.238-.24.322-.377.085-.136.147-.27.186-.4l1.362.45a3.06 3.06 0 0 1-.425.82 2.744 2.744 0 0 1-.644.63 2.933 2.933 0 0 1-.84.4 3.56 3.56 0 0 1-1.011.137c-.504 0-.958-.093-1.362-.279a3.01 3.01 0 0 1-1.03-.766 3.475 3.475 0 0 1-.655-1.143 4.338 4.338 0 0 1-.224-1.411Zm6.965-3.501h1.348v2.222c.072-.072.151-.14.239-.205.091-.069.191-.127.298-.176a1.842 1.842 0 0 1 .796-.17c.283-.001.537.046.762.14.224.092.413.219.566.381.156.163.275.354.357.572.081.218.122.454.122.708V91h-1.348v-3.042c0-.186-.021-.342-.064-.469a.795.795 0 0 0-.175-.312.615.615 0 0 0-.259-.176.86.86 0 0 0-.322-.059c-.137 0-.266.025-.386.074a.83.83 0 0 0-.308.224 1.02 1.02 0 0 0-.205.371 1.7 1.7 0 0 0-.073.528V91h-1.348v-7.002Zm6.643 4.854c.023.156.072.299.147.43.078.13.176.242.293.336.117.091.252.163.405.215.153.052.316.078.488.078a2.203 2.203 0 0 0 1.28-.45l.649.948a2.893 2.893 0 0 1-.898.498 3.34 3.34 0 0 1-1.133.19c-.361 0-.702-.061-1.021-.185a2.46 2.46 0 0 1-.839-.537 2.575 2.575 0 0 1-.567-.855 2.971 2.971 0 0 1-.205-1.132c0-.384.06-.743.181-1.075.123-.332.294-.62.512-.864a2.416 2.416 0 0 1 1.807-.781c.345 0 .666.063.962.19.296.124.553.3.771.528.219.224.389.495.513.81.124.316.186.664.186 1.045v.61h-3.531Zm1.094-2.012c-.29 0-.535.097-.737.293a1.13 1.13 0 0 0-.347.698h2.11a.987.987 0 0 0-.303-.703.99.99 0 0 0-.723-.288Zm4.314 1.572c0 .17.023.34.069.513.045.17.115.322.21.459.094.136.214.249.361.337.15.084.327.127.532.127.134 0 .254-.018.361-.054.111-.036.209-.085.293-.147.088-.065.165-.14.23-.224.068-.088.127-.182.176-.283l1.181.61c-.084.205-.201.39-.351.557a2.176 2.176 0 0 1-.513.424 2.457 2.457 0 0 1-.649.269c-.238.065-.49.098-.757.098-.368 0-.707-.069-1.016-.205a2.489 2.489 0 0 1-.801-.572c-.224-.24-.4-.525-.527-.854a2.995 2.995 0 0 1-.19-1.08c0-.383.063-.742.19-1.073a2.68 2.68 0 0 1 .527-.865 2.436 2.436 0 0 1 1.817-.781c.267 0 .519.032.757.098a2.364 2.364 0 0 1 1.162.698c.15.166.267.351.351.556l-1.181.61a1.464 1.464 0 0 0-.176-.277 1 1 0 0 0-.23-.225.95.95 0 0 0-.293-.151 1.045 1.045 0 0 0-.361-.059 1.033 1.033 0 0 0-.893.469 1.444 1.444 0 0 0-.21.464 2.001 2.001 0 0 0-.069.517v.044Zm5.491-.59 1.743-2.052h1.68l-1.89 2.14 1.944 3.09h-1.621l-1.304-2.129-.552.6V91h-1.348v-7.002h1.348v3.823Zm6.153 3.788c.153 0 .265-.027.337-.083a.541.541 0 0 0 .175-.268l.049-.161-1.811-5.328h1.499l1.04 3.609.864-3.609h1.479l-1.762 5.88a1.62 1.62 0 0 1-.244.502c-.105.14-.228.254-.371.342a1.574 1.574 0 0 1-.479.2 2.33 2.33 0 0 1-.557.064 6.43 6.43 0 0 1-.61-.039 5.772 5.772 0 0 1-.332-.04 3.246 3.246 0 0 1-.298-.058l.254-1.103c.078.02.16.035.244.048.075.013.156.023.244.03.091.01.184.014.279.014Zm6.472-5.942c.387 0 .739.07 1.055.21.315.137.586.327.81.571.225.244.397.532.518.865.123.332.185.69.185 1.074 0 .387-.062.747-.185 1.079a2.453 2.453 0 0 1-1.333 1.426 2.617 2.617 0 0 1-1.05.205c-.387 0-.739-.069-1.055-.205a2.442 2.442 0 0 1-.81-.572 2.558 2.558 0 0 1-.523-.854 3.06 3.06 0 0 1-.185-1.08c0-.383.06-.742.18-1.073.124-.333.298-.62.523-.865.224-.244.495-.434.81-.571.319-.14.673-.21 1.06-.21Zm0 4.18c.192 0 .361-.036.508-.108.149-.071.275-.17.376-.298.101-.127.177-.278.229-.454.052-.179.078-.374.078-.586v-.034c0-.211-.026-.405-.078-.58a1.319 1.319 0 0 0-.229-.46 1.04 1.04 0 0 0-.376-.303 1.145 1.145 0 0 0-.508-.107c-.192 0-.363.036-.513.107-.146.072-.27.173-.371.303-.101.127-.177.28-.229.46-.052.175-.079.369-.079.58v.034c0 .212.027.407.079.586.052.176.128.327.229.454s.225.227.371.298c.15.072.321.108.513.108Zm7.81 1.152h-1.348v-.45a2.97 2.97 0 0 1-.244.21 1.819 1.819 0 0 1-.293.176 1.803 1.803 0 0 1-.361.118c-.13.029-.275.044-.435.044-.283 0-.537-.046-.761-.137a1.73 1.73 0 0 1-.572-.38 1.676 1.676 0 0 1-.351-.572 1.995 1.995 0 0 1-.122-.708v-3.53h1.347v3.037c0 .185.02.343.059.473.042.13.099.236.171.318a.722.722 0 0 0 .264.175c.1.036.21.054.327.054a.987.987 0 0 0 .381-.073.843.843 0 0 0 .312-.22c.088-.1.156-.226.205-.376a1.7 1.7 0 0 0 .073-.527V85.77h1.348V91Zm4.006-3.92h-.141c-.192 0-.376.019-.552.058-.172.039-.325.11-.459.215-.133.1-.241.24-.322.42-.078.178-.117.408-.117.688V91h-1.348v-5.23h1.348v.591a1.412 1.412 0 0 1 .522-.469 1.83 1.83 0 0 1 .869-.215h.2v1.402Zm-47.058 12.796a.754.754 0 0 0-.401.176.453.453 0 0 0-.151.361c0 .169.062.316.185.44.124.12.306.18.547.18.254 0 .454-.073.601-.22.146-.146.219-.34.219-.581v-.527l-1 .171Zm1.22 1.631a2.329 2.329 0 0 1-.205.2 1.452 1.452 0 0 1-.283.19 1.915 1.915 0 0 1-.874.201 2.09 2.09 0 0 1-.723-.122 1.855 1.855 0 0 1-.576-.352 1.68 1.68 0 0 1-.391-.518 1.483 1.483 0 0 1-.141-.644c0-.42.13-.763.39-1.03.261-.267.621-.435 1.08-.503l1.503-.22v-.098c0-.234-.071-.42-.214-.556-.144-.137-.376-.205-.699-.205a1.75 1.75 0 0 0-.405.048c-.137.03-.268.064-.395.103a2.52 2.52 0 0 0-.347.137c-.107.048-.202.093-.283.131l-.528-1.03c.3-.166.632-.303.996-.41a4.059 4.059 0 0 1 1.143-.161c.241 0 .483.026.728.078.247.049.47.14.669.273.201.134.366.316.493.547.127.228.19.52.19.874v2.149c0 .153.039.267.117.342.082.071.192.138.332.2l-.61.967a1.303 1.303 0 0 1-.596-.191 1.294 1.294 0 0 1-.371-.4Zm2.156-4.737h1.348v.45c.071-.072.151-.14.239-.205.091-.069.19-.127.298-.176a1.856 1.856 0 0 1 .796-.17c.283-.001.537.046.761.14.225.092.414.219.567.381.156.163.275.354.356.572.082.218.122.454.122.708V102h-1.347v-3.042c0-.186-.021-.342-.064-.469a.796.796 0 0 0-.176-.312.606.606 0 0 0-.258-.176.862.862 0 0 0-.323-.059c-.136 0-.265.025-.385.074a.823.823 0 0 0-.308.224 1.02 1.02 0 0 0-.205.371 1.7 1.7 0 0 0-.073.528V102h-1.348v-5.23Zm5.886 3.56c.192.173.422.321.689.444.267.124.537.186.81.186.199 0 .355-.037.469-.112.114-.078.171-.178.171-.298 0-.205-.22-.365-.659-.479l-.381-.102a4.013 4.013 0 0 1-.571-.186 2.244 2.244 0 0 1-.532-.317c-.16-.13-.29-.288-.391-.474a1.491 1.491 0 0 1-.147-.693c0-.218.048-.425.142-.62.098-.199.234-.373.41-.523.179-.15.396-.268.65-.356a2.58 2.58 0 0 1 .849-.132c.446 0 .843.07 1.192.21.351.14.628.298.83.474l-.703.898a2.457 2.457 0 0 0-.591-.308 1.852 1.852 0 0 0-.679-.131c-.212 0-.376.039-.493.117-.117.075-.176.166-.176.273a.33.33 0 0 0 .151.279c.105.068.254.128.45.18l.566.161c.54.153.928.36 1.162.62.235.26.352.59.352.987 0 .221-.046.433-.137.634a1.619 1.619 0 0 1-.4.533c-.176.156-.394.28-.655.371-.26.088-.556.132-.888.132a3.57 3.57 0 0 1-1.338-.254 3.347 3.347 0 0 1-.513-.274 3.041 3.041 0 0 1-.391-.302l.752-.938Zm9.085-.039.64-3.52h1.425L338.477 102h-1.601l-.781-3.398-.831 3.398h-1.577l-1.211-5.23h1.47l.62 3.521.908-3.52h1.289l.855 3.52Zm3.855-.44c.023.157.072.3.147.43a1.245 1.245 0 0 0 .698.552c.153.052.316.078.488.078a2.1 2.1 0 0 0 .645-.112c.231-.078.442-.191.634-.337l.65.947a2.903 2.903 0 0 1-.899.498 3.33 3.33 0 0 1-1.132.191c-.362 0-.702-.062-1.021-.186a2.485 2.485 0 0 1-.84-.537 2.585 2.585 0 0 1-.566-.854 2.976 2.976 0 0 1-.205-1.133c0-.384.06-.743.18-1.075.124-.332.295-.62.513-.864a2.416 2.416 0 0 1 1.807-.781c.345 0 .665.063.962.19.296.124.553.3.771.528.218.224.389.495.513.81.123.316.185.664.185 1.045v.61h-3.53Zm1.094-2.011c-.29 0-.536.097-.738.293a1.13 1.13 0 0 0-.346.698h2.109a.979.979 0 0 0-.303-.703.99.99 0 0 0-.722-.288Zm6.135.24h-.141c-.193 0-.376.019-.552.058-.173.039-.326.11-.459.215-.134.1-.241.24-.322.42-.079.178-.118.408-.118.688V102h-1.347v-5.23h1.347v.591c.056-.088.127-.172.215-.254a1.731 1.731 0 0 1 .703-.371c.147-.039.305-.058.474-.058h.2v1.401Zm1.111 2.25c.192.173.422.321.689.444.266.124.537.186.81.186.199 0 .355-.037.469-.112.114-.078.171-.178.171-.298 0-.205-.22-.365-.659-.479l-.381-.102a4.024 4.024 0 0 1-.572-.186 2.264 2.264 0 0 1-.532-.317 1.57 1.57 0 0 1-.39-.474 1.491 1.491 0 0 1-.147-.693 1.4 1.4 0 0 1 .142-.62 1.61 1.61 0 0 1 .41-.523c.179-.15.395-.268.649-.356.254-.088.537-.132.85-.132.446 0 .843.07 1.191.21.352.14.629.298.83.474l-.703.898a2.457 2.457 0 0 0-.591-.308 1.843 1.843 0 0 0-.678-.131c-.212 0-.376.039-.493.117-.118.075-.176.166-.176.273 0 .114.05.207.151.279.104.068.254.128.449.18l.567.161c.54.153.927.36 1.162.62.234.26.351.59.351.987a1.522 1.522 0 0 1-.537 1.167c-.175.156-.394.28-.654.371a2.77 2.77 0 0 1-.889.132 3.56 3.56 0 0 1-1.338-.254 3.383 3.383 0 0 1-.512-.274 3.041 3.041 0 0 1-.391-.302l.752-.938Z" fill="#231F20"/><g clip-path="url(#b)"><path d="M28.228 42.998h1.416V50h-1.416v-7.002Zm2.73 1.773h1.347v.449c.071-.072.151-.14.239-.205.091-.069.19-.127.298-.176a1.85 1.85 0 0 1 .796-.17c.283-.001.537.046.761.14.225.092.414.219.567.381.156.163.275.354.356.572.082.218.122.454.122.708V50h-1.347v-3.042c0-.185-.021-.342-.064-.469a.802.802 0 0 0-.175-.312.613.613 0 0 0-.26-.176.86.86 0 0 0-.322-.059c-.136 0-.265.025-.385.074a.827.827 0 0 0-.308.224 1.018 1.018 0 0 0-.205.371c-.049.15-.073.326-.073.528V50h-1.348v-5.23Zm7.543 3.671c0 .062.008.12.024.176a.366.366 0 0 0 .083.147c.043.039.101.07.176.092.075.023.171.035.288.035.05 0 .104-.002.166-.005l.186-.02c.062-.006.119-.014.17-.024l.137-.025.122 1.192a12.35 12.35 0 0 1-.786.073c-.143.01-.288.015-.434.015-.466 0-.829-.106-1.089-.318-.26-.211-.39-.548-.39-1.01v-2.828h-.943V44.77h.942v-1.479l1.348-.361v1.84h1.372v1.172h-1.372v2.5Zm5.161-2.363h-.142c-.192 0-.375.02-.551.059a1.15 1.15 0 0 0-.46.215c-.133.1-.24.24-.322.42-.078.178-.117.408-.117.688V50h-1.347v-5.23h1.347v.591c.056-.088.127-.172.215-.254.088-.081.19-.153.308-.214a1.73 1.73 0 0 1 .395-.157c.147-.039.305-.058.474-.058h.2v1.401Zm3.14-1.411c.387 0 .739.07 1.054.21.316.137.586.327.811.571.225.244.397.532.518.864.123.332.185.69.185 1.075 0 .387-.062.747-.185 1.079a2.454 2.454 0 0 1-1.333 1.426 2.615 2.615 0 0 1-1.05.205c-.388 0-.74-.069-1.055-.205a2.453 2.453 0 0 1-1.333-1.426 3.067 3.067 0 0 1-.186-1.08c0-.383.06-.742.181-1.074.124-.332.298-.62.523-.864.224-.244.494-.434.81-.571a2.61 2.61 0 0 1 1.06-.21Zm0 4.18c.192 0 .361-.036.508-.108.15-.071.275-.17.376-.298.1-.127.177-.278.23-.454.051-.179.077-.374.077-.586v-.034a2.04 2.04 0 0 0-.078-.58 1.323 1.323 0 0 0-.23-.46c-.1-.13-.226-.231-.375-.303a1.143 1.143 0 0 0-.508-.107c-.192 0-.363.036-.513.107-.146.072-.27.173-.371.303-.1.127-.177.28-.23.46a2.04 2.04 0 0 0-.078.58v.034c0 .212.026.407.078.586.053.176.13.327.23.454a1.066 1.066 0 0 0 .884.406ZM53.623 50v-.45a1.94 1.94 0 0 1-.24.22 1.545 1.545 0 0 1-.635.283 2.171 2.171 0 0 1-2.1-.727 2.626 2.626 0 0 1-.477-.86 3.395 3.395 0 0 1-.166-1.078c0-.388.055-.747.166-1.08.11-.331.265-.618.464-.859a2.142 2.142 0 0 1 1.67-.781c.306 0 .565.054.776.161.215.104.396.234.542.39v-2.221h1.348V50h-1.348Zm.04-3.1a.973.973 0 0 0-.294-.704.998.998 0 0 0-.342-.205 1.26 1.26 0 0 0-.444-.073c-.192 0-.363.036-.513.107-.146.072-.27.173-.37.303-.102.127-.178.278-.23.454a2.021 2.021 0 0 0-.078.576v.064c0 .208.026.4.078.576.052.173.128.322.23.45.1.126.224.225.37.297.15.069.321.103.513.103.166 0 .314-.025.444-.074a.998.998 0 0 0 .342-.205.876.876 0 0 0 .215-.307.973.973 0 0 0 .078-.39v-.973ZM60.58 50h-1.348v-.45a3.13 3.13 0 0 1-.244.21 1.84 1.84 0 0 1-.293.177 1.983 1.983 0 0 1-.796.161 2.01 2.01 0 0 1-.761-.137 1.723 1.723 0 0 1-.572-.38 1.682 1.682 0 0 1-.351-.572 2.009 2.009 0 0 1-.122-.708v-3.53h1.347v3.037c0 .185.02.343.059.473.042.13.1.236.17.318a.72.72 0 0 0 .265.175c.1.036.21.054.327.054a.98.98 0 0 0 .38-.073.84.84 0 0 0 .313-.22 1.07 1.07 0 0 0 .205-.376c.049-.15.073-.325.073-.527V44.77h1.348V50Zm2.285-2.588a2 2 0 0 0 .069.513c.045.17.115.322.21.459.094.136.214.249.36.337.15.084.328.127.533.127.134 0 .254-.018.361-.054a1.03 1.03 0 0 0 .523-.371c.068-.088.127-.182.176-.283l1.181.61c-.084.205-.201.39-.351.557a2.159 2.159 0 0 1-.513.424 2.456 2.456 0 0 1-.65.269c-.237.065-.49.098-.756.098-.368 0-.707-.069-1.016-.205a2.48 2.48 0 0 1-.8-.572c-.225-.24-.401-.525-.528-.854a2.995 2.995 0 0 1-.19-1.08c0-.383.063-.742.19-1.074.127-.332.303-.62.527-.864a2.435 2.435 0 0 1 1.816-.781c.268 0 .52.032.758.098a2.363 2.363 0 0 1 1.162.698c.15.166.267.351.351.556l-1.181.61a1.434 1.434 0 0 0-.176-.278 1.002 1.002 0 0 0-.23-.224.96.96 0 0 0-.293-.151 1.05 1.05 0 0 0-.36-.059 1.032 1.032 0 0 0-.894.469 1.47 1.47 0 0 0-.21.464 2.018 2.018 0 0 0-.069.517v.044Zm6.172 1.03c0 .062.008.12.025.176a.366.366 0 0 0 .082.147c.043.039.101.07.176.092.075.023.171.035.288.035.05 0 .105-.002.166-.005l.186-.02c.062-.006.119-.014.17-.024l.138-.025.122 1.192a12.39 12.39 0 0 1-.787.073c-.143.01-.288.015-.434.015-.466 0-.829-.106-1.089-.318-.26-.211-.39-.548-.39-1.01v-2.828h-.943V44.77h.942v-1.479l1.348-.361v1.84h1.372v1.172h-1.372v2.5ZM72.608 50H71.26v-5.23h1.347V50Zm-1.49-6.602c0-.11.021-.214.064-.312a.798.798 0 0 1 .747-.498c.11 0 .215.021.312.063a.76.76 0 0 1 .259.176.76.76 0 0 1 .176.259.778.778 0 0 1 .063.312.79.79 0 0 1-.239.577.796.796 0 0 1-.259.17.777.777 0 0 1-.312.064.79.79 0 0 1-.318-.064.872.872 0 0 1-.258-.17.873.873 0 0 1-.171-.26.79.79 0 0 1-.064-.317Zm4.951 1.27c.388 0 .74.07 1.055.21.316.137.586.327.81.571.225.244.398.532.518.864.124.332.186.69.186 1.075 0 .387-.062.747-.186 1.079a2.454 2.454 0 0 1-1.333 1.426 2.615 2.615 0 0 1-1.05.205c-.387 0-.739-.069-1.054-.205a2.453 2.453 0 0 1-1.333-1.426 3.067 3.067 0 0 1-.186-1.08c0-.383.06-.742.18-1.074.124-.332.299-.62.523-.864.225-.244.495-.434.81-.571a2.61 2.61 0 0 1 1.06-.21Zm0 4.18c.192 0 .362-.036.508-.108.15-.071.275-.17.376-.298.101-.127.178-.278.23-.454.052-.179.078-.374.078-.586v-.034a2.04 2.04 0 0 0-.078-.58 1.321 1.321 0 0 0-.23-.46 1.034 1.034 0 0 0-.376-.303 1.143 1.143 0 0 0-.508-.107c-.192 0-.363.036-.512.107-.147.072-.27.173-.371.303-.101.127-.178.28-.23.46a2.04 2.04 0 0 0-.078.58v.034c0 .212.026.407.078.586.052.176.129.327.23.454a1.066 1.066 0 0 0 .883.406Zm3.462-4.078h1.348v.45c.072-.072.151-.14.24-.205.09-.069.19-.127.297-.176a1.851 1.851 0 0 1 .796-.17c.283-.001.537.046.762.14.224.092.413.219.566.381.156.163.275.354.356.572.082.218.123.454.123.708V50H82.67v-3.042c0-.185-.021-.342-.064-.469a.803.803 0 0 0-.175-.312.612.612 0 0 0-.26-.176.86.86 0 0 0-.321-.059c-.137 0-.266.025-.386.074a.826.826 0 0 0-.308.224 1.018 1.018 0 0 0-.205.371c-.049.15-.073.326-.073.528V50H79.53v-5.23Z" fill="#231F20"/></g><path stroke="#2B8CC4" stroke-width="2" d="M25 54h64M26 55v6M88.061 55v6"/><g clip-path="url(#c)"><path d="M225.345 41.9c.521 0 .988.095 1.401.284.414.185.763.44 1.05.766.29.322.509.703.659 1.143.153.436.23.905.23 1.406 0 .505-.077.975-.23 1.411-.15.436-.369.817-.659 1.143l-.068.078.615.757-1.001.82-.684-.85c-.39.16-.828.24-1.313.24-.524 0-.993-.093-1.407-.279a3.084 3.084 0 0 1-1.049-.766 3.417 3.417 0 0 1-.66-1.143 4.338 4.338 0 0 1-.224-1.411c0-.501.075-.97.224-1.406.153-.44.373-.82.66-1.143a3.085 3.085 0 0 1 1.049-.766 3.355 3.355 0 0 1 1.407-.284Zm0 5.918c.156 0 .302-.014.439-.044l-.791-.986 1.001-.82.845 1.054c.111-.172.198-.367.264-.585.081-.28.122-.586.122-.918v-.04c0-.328-.041-.633-.122-.913a2.146 2.146 0 0 0-.362-.732 1.646 1.646 0 0 0-.591-.479 1.755 1.755 0 0 0-.805-.175c-.306 0-.576.058-.811.175a1.663 1.663 0 0 0-.591.479c-.156.205-.275.45-.356.732-.081.28-.122.585-.122.913v.04c0 .332.041.638.122.918.081.28.2.522.356.727.16.205.357.366.591.483.235.114.505.171.811.171Zm8.74 1.182h-1.348v-.45a3.146 3.146 0 0 1-.244.21 1.819 1.819 0 0 1-.293.177 1.803 1.803 0 0 1-.361.117c-.13.029-.275.044-.435.044-.283 0-.537-.046-.761-.137a1.73 1.73 0 0 1-.572-.38 1.676 1.676 0 0 1-.351-.572 1.995 1.995 0 0 1-.122-.708v-3.53h1.347v3.037c0 .185.02.343.059.473.042.13.099.236.171.318a.726.726 0 0 0 .263.175c.101.036.21.054.328.054a.978.978 0 0 0 .38-.073.839.839 0 0 0 .313-.22c.088-.1.156-.226.205-.376a1.7 1.7 0 0 0 .073-.527V43.77h1.348V49Zm2.295-2.148c.023.156.072.299.146.43.078.13.176.242.293.336.118.091.253.163.406.215a1.5 1.5 0 0 0 .488.078 2.19 2.19 0 0 0 1.279-.45l.65.948a2.91 2.91 0 0 1-.899.498c-.355.127-.732.19-1.133.19-.361 0-.701-.061-1.02-.185a2.475 2.475 0 0 1-.84-.537 2.573 2.573 0 0 1-.566-.855 2.971 2.971 0 0 1-.205-1.132c0-.384.06-.742.18-1.075.124-.332.295-.62.513-.864a2.413 2.413 0 0 1 1.807-.781c.345 0 .665.063.961.19.297.124.554.3.772.528.218.224.389.494.513.81.123.316.185.664.185 1.045v.61h-3.53Zm1.094-2.012c-.29 0-.536.097-.738.293a1.13 1.13 0 0 0-.346.698h2.109a.979.979 0 0 0-.303-.703.99.99 0 0 0-.722-.288Zm3.667 2.49c.192.173.421.32.688.444.267.124.537.186.811.186.198 0 .354-.038.468-.112.114-.078.171-.178.171-.298 0-.205-.219-.365-.659-.479l-.381-.102a4.013 4.013 0 0 1-.571-.186 2.264 2.264 0 0 1-.532-.317c-.16-.13-.29-.288-.391-.474a1.492 1.492 0 0 1-.146-.693c0-.218.047-.425.141-.62.098-.199.235-.373.41-.523.179-.15.396-.268.65-.356.254-.088.537-.132.849-.132.446 0 .844.07 1.192.21.351.14.628.298.83.474l-.703.898a2.457 2.457 0 0 0-.591-.308 1.852 1.852 0 0 0-.679-.132c-.211 0-.376.04-.493.118-.117.075-.176.166-.176.273 0 .114.051.207.152.279.104.068.254.128.449.18l.566.161c.541.153.928.36 1.162.62.235.26.352.59.352.987a1.528 1.528 0 0 1-.537 1.167c-.176.156-.394.28-.654.37a2.777 2.777 0 0 1-.889.133 3.545 3.545 0 0 1-1.338-.254 3.303 3.303 0 0 1-.513-.274 2.877 2.877 0 0 1-.39-.302l.752-.938Zm6.372.112c0 .062.008.12.024.176a.362.362 0 0 0 .083.147c.042.039.101.07.176.092.075.023.171.035.288.035.049 0 .104-.002.166-.005l.186-.02a2.21 2.21 0 0 0 .17-.024l.137-.025.122 1.192a12.61 12.61 0 0 1-.786.073c-.143.01-.288.015-.434.015-.466 0-.829-.106-1.089-.318-.261-.211-.391-.548-.391-1.01v-2.828h-.942V43.77h.942v-1.479l1.348-.361v1.84h1.372v1.172h-1.372v2.5ZM251.082 49h-1.348v-5.23h1.348V49Zm-1.489-6.602a.82.82 0 0 1 .234-.571.828.828 0 0 1 .259-.176.787.787 0 0 1 .317-.063c.111 0 .215.021.313.063.101.043.187.101.259.176a.767.767 0 0 1 .175.259.767.767 0 0 1 .064.312c0 .114-.021.22-.064.318a.801.801 0 0 1-.434.43.78.78 0 0 1-.313.063.789.789 0 0 1-.317-.064.871.871 0 0 1-.259-.17.9.9 0 0 1-.171-.26.794.794 0 0 1-.063-.317Zm4.951 1.27c.387 0 .739.07 1.055.21.315.137.586.327.81.571.225.244.397.532.518.864.123.332.185.69.185 1.075 0 .387-.062.747-.185 1.079a2.558 2.558 0 0 1-.523.854c-.224.241-.494.432-.81.572a2.617 2.617 0 0 1-1.05.205c-.387 0-.739-.069-1.055-.205a2.453 2.453 0 0 1-1.333-1.426 3.082 3.082 0 0 1-.185-1.08c0-.383.06-.742.18-1.074.124-.332.298-.62.523-.864.224-.244.495-.434.81-.571.319-.14.673-.21 1.06-.21Zm0 4.18c.192 0 .361-.036.508-.108.15-.071.275-.17.376-.298.101-.127.177-.278.229-.454.052-.179.078-.374.078-.586v-.034c0-.211-.026-.405-.078-.58a1.319 1.319 0 0 0-.229-.46 1.031 1.031 0 0 0-.376-.303 1.145 1.145 0 0 0-.508-.107c-.192 0-.363.036-.513.107-.146.072-.27.173-.371.303-.101.127-.177.28-.229.46-.052.175-.078.369-.078.58v.034c0 .212.026.407.078.586.052.176.128.327.229.454s.225.227.371.298c.15.072.321.108.513.108Zm3.462-4.078h1.348v.45c.071-.072.151-.14.239-.205.091-.069.19-.127.298-.176a1.856 1.856 0 0 1 .796-.17c.283-.001.537.046.761.14.225.092.414.219.567.381.156.163.275.354.356.572.081.218.122.454.122.708V49h-1.347v-3.042c0-.185-.022-.342-.064-.469a.796.796 0 0 0-.176-.312.609.609 0 0 0-.259-.176.856.856 0 0 0-.322-.059 1.02 1.02 0 0 0-.386.074.827.827 0 0 0-.307.224 1.02 1.02 0 0 0-.205.371 1.7 1.7 0 0 0-.073.528V49h-1.348v-5.23Zm5.986 3.56c.192.173.422.32.689.444.267.124.537.186.81.186.199 0 .355-.038.469-.112.114-.078.171-.178.171-.298 0-.205-.22-.365-.659-.479l-.381-.102a4.013 4.013 0 0 1-.571-.186 2.25 2.25 0 0 1-.533-.317 1.585 1.585 0 0 1-.39-.474 1.491 1.491 0 0 1-.147-.693 1.4 1.4 0 0 1 .142-.62 1.61 1.61 0 0 1 .41-.523c.179-.15.395-.268.649-.356.254-.088.537-.132.85-.132.446 0 .843.07 1.191.21.352.14.629.298.83.474l-.703.898a2.469 2.469 0 0 0-.59-.308 1.852 1.852 0 0 0-.679-.132c-.212 0-.376.04-.493.118-.118.075-.176.166-.176.273 0 .114.05.207.151.279.104.068.254.128.449.18l.567.161c.54.153.928.36 1.162.62.234.26.352.59.352.987a1.528 1.528 0 0 1-.538 1.167c-.175.156-.393.28-.654.37-.26.089-.557.133-.889.133a3.519 3.519 0 0 1-1.337-.254 3.303 3.303 0 0 1-.513-.274 2.955 2.955 0 0 1-.391-.302l.752-.938Z" fill="#231F20"/></g><path stroke="#2B8CC4" stroke-width="2" d="M124 54h250M125 55v6M373 55v6"/><path fill="#fff" stroke="#0B0C0C" stroke-width="2" d="M125 70h62v94h-62z"/><path fill="#0B0C0C" d="M124 69h64v10h-64z"/><g filter="url(#d)"><path fill="#00823B" d="M131 144h26v10h-26z"/></g><path fill="#0B0C0C" d="M144 131h25v1h-25z"/><circle cx="136" cy="131" r="4.5" fill="#fff" stroke="#0B0C0C"/><path fill="#0B0C0C" d="M144 118h25v1h-25z"/><circle cx="136" cy="118" r="4.5" fill="#fff" stroke="#0B0C0C"/><path d="M134.721 84.9c.521 0 .988.095 1.401.284.413.185.763.44 1.05.766.29.322.509.703.659 1.143.153.436.23.905.23 1.406 0 .505-.077.975-.23 1.411-.15.436-.369.817-.659 1.143l-.068.078.615.757-1.001.82-.684-.85c-.39.16-.828.24-1.313.24-.524 0-.993-.093-1.407-.279a3.084 3.084 0 0 1-1.049-.766 3.417 3.417 0 0 1-.66-1.143 4.338 4.338 0 0 1-.224-1.411c0-.501.075-.97.224-1.406.153-.44.373-.82.66-1.143a3.085 3.085 0 0 1 1.049-.766 3.355 3.355 0 0 1 1.407-.284Zm0 5.918c.156 0 .302-.014.439-.044l-.791-.986 1.001-.82.845 1.054c.111-.172.198-.367.264-.586.081-.28.122-.585.122-.917v-.04c0-.328-.041-.633-.122-.913a2.146 2.146 0 0 0-.362-.732 1.646 1.646 0 0 0-.591-.478 1.755 1.755 0 0 0-.805-.176c-.306 0-.576.058-.811.175a1.663 1.663 0 0 0-.591.479c-.156.205-.275.45-.356.732-.081.28-.122.585-.122.913v.04c0 .332.041.638.122.917.081.28.2.523.356.728.16.205.357.366.591.483.235.114.505.171.811.171Zm8.74 1.182h-1.348v-.45a3.146 3.146 0 0 1-.244.21 1.819 1.819 0 0 1-.293.176 1.803 1.803 0 0 1-.361.118c-.13.029-.275.044-.435.044-.283 0-.537-.046-.761-.137a1.73 1.73 0 0 1-.572-.38 1.676 1.676 0 0 1-.351-.572 1.995 1.995 0 0 1-.122-.708v-3.53h1.347v3.037c0 .185.02.343.059.473.042.13.099.236.171.318a.726.726 0 0 0 .263.175c.101.036.21.054.328.054a.978.978 0 0 0 .38-.073.839.839 0 0 0 .313-.22c.088-.1.156-.226.205-.376a1.7 1.7 0 0 0 .073-.527V86.77h1.348V92Zm2.295-2.148c.023.156.071.299.146.43.078.13.176.242.293.336.117.091.253.163.406.215a1.5 1.5 0 0 0 .488.078 2.19 2.19 0 0 0 1.279-.45l.65.948a2.91 2.91 0 0 1-.899.498c-.355.127-.732.19-1.133.19-.361 0-.701-.061-1.02-.185a2.475 2.475 0 0 1-.84-.537 2.573 2.573 0 0 1-.566-.855 2.971 2.971 0 0 1-.206-1.132c0-.384.061-.743.181-1.075.124-.332.295-.62.513-.864a2.411 2.411 0 0 1 1.806-.781c.346 0 .666.063.962.19.297.124.554.3.772.528.218.224.389.495.513.81.123.316.185.664.185 1.045v.61h-3.53Zm1.094-2.012c-.29 0-.536.097-.738.293a1.13 1.13 0 0 0-.346.698h2.109a.983.983 0 0 0-.303-.703.99.99 0 0 0-.722-.288Zm3.667 2.49c.192.173.421.32.688.444.267.124.537.186.811.186.198 0 .354-.037.468-.112.114-.079.171-.178.171-.298 0-.205-.219-.365-.659-.479l-.381-.102a4.013 4.013 0 0 1-.571-.186 2.244 2.244 0 0 1-.532-.317c-.16-.13-.29-.288-.391-.474a1.492 1.492 0 0 1-.146-.693c0-.218.047-.425.141-.62.098-.199.235-.373.41-.523.179-.15.396-.268.65-.356.254-.088.537-.132.849-.132.446 0 .843.07 1.192.21.351.14.628.298.83.474l-.703.898a2.457 2.457 0 0 0-.591-.308 1.852 1.852 0 0 0-.679-.131c-.211 0-.376.039-.493.117-.117.075-.176.166-.176.273 0 .114.051.207.152.279.104.068.254.128.449.18l.566.161c.541.153.928.36 1.162.62.235.26.352.59.352.987a1.528 1.528 0 0 1-.537 1.167c-.176.156-.394.28-.654.37a2.777 2.777 0 0 1-.889.133 3.545 3.545 0 0 1-1.338-.254 3.303 3.303 0 0 1-.513-.274 2.877 2.877 0 0 1-.39-.302l.752-.938Zm6.372.112c0 .062.008.12.024.176a.362.362 0 0 0 .083.147c.042.039.101.07.176.092.075.023.171.035.288.035.049 0 .104-.002.166-.005l.186-.02a2.21 2.21 0 0 0 .17-.024l.137-.025.122 1.192a12.61 12.61 0 0 1-.786.073c-.143.01-.288.015-.434.015-.466 0-.829-.106-1.089-.318-.261-.211-.391-.548-.391-1.01v-2.828h-.942v-1.171h.942v-1.48l1.348-.361v1.84h1.372v1.172h-1.372v2.5ZM160.458 92h-1.348v-5.23h1.348V92Zm-1.489-6.602a.82.82 0 0 1 .234-.571.828.828 0 0 1 .259-.176.787.787 0 0 1 .317-.063c.111 0 .215.021.313.063.101.043.187.101.259.176a.767.767 0 0 1 .175.259.767.767 0 0 1 .064.312c0 .114-.021.22-.064.318a.801.801 0 0 1-.434.43.78.78 0 0 1-.313.063.789.789 0 0 1-.317-.064.871.871 0 0 1-.259-.17.9.9 0 0 1-.171-.26.794.794 0 0 1-.063-.317Zm4.951 1.27c.387 0 .739.07 1.055.21.315.137.586.327.81.571.225.244.397.532.518.865.123.332.185.69.185 1.074 0 .387-.062.747-.185 1.079a2.453 2.453 0 0 1-1.333 1.426 2.617 2.617 0 0 1-1.05.205c-.387 0-.739-.069-1.055-.205a2.442 2.442 0 0 1-.81-.572 2.558 2.558 0 0 1-.523-.854 3.082 3.082 0 0 1-.185-1.08c0-.383.06-.742.18-1.073.124-.333.298-.62.523-.865.224-.244.495-.434.81-.571.319-.14.673-.21 1.06-.21Zm0 4.18c.192 0 .361-.036.508-.108.149-.071.275-.17.376-.298.101-.127.177-.278.229-.454.052-.179.078-.374.078-.586v-.034c0-.211-.026-.405-.078-.58a1.319 1.319 0 0 0-.229-.46 1.04 1.04 0 0 0-.376-.303 1.145 1.145 0 0 0-.508-.107c-.192 0-.363.036-.513.107-.146.072-.27.173-.371.303-.101.127-.177.28-.229.46-.052.175-.078.369-.078.58v.034c0 .212.026.407.078.586.052.176.128.327.229.454s.225.227.371.298c.15.072.321.108.513.108Zm3.462-4.078h1.347v.45a2.18 2.18 0 0 1 .24-.205c.091-.069.19-.127.298-.176a1.854 1.854 0 0 1 .795-.17c.284-.001.538.046.762.14.225.092.414.219.567.381.156.163.275.354.356.572.081.218.122.454.122.708V92h-1.348v-3.042c0-.186-.021-.342-.063-.469a.796.796 0 0 0-.176-.312.609.609 0 0 0-.259-.176.856.856 0 0 0-.322-.059 1.02 1.02 0 0 0-.386.074.827.827 0 0 0-.307.224 1.02 1.02 0 0 0-.205.371 1.7 1.7 0 0 0-.074.528V92h-1.347v-5.23Zm9.809-1.772V92h-1.45v-4.629h-1.269v-1.28h.312c.209 0 .378-.017.508-.053a.688.688 0 0 0 .312-.176.604.604 0 0 0 .152-.297c.026-.124.039-.272.039-.445v-.122h1.396Z" fill="#231F20"/><path fill="#fff" stroke="#0B0C0C" stroke-width="2" d="M26 71h62v94H26z"/><path fill="#0B0C0C" d="M25 70h64v10H25zM31 99h45v1H31z"/><g filter="url(#e)"><path fill="#00823B" d="M32 121h26v10H32z"/></g><path fill="#0B0C0C" d="M31 111h25v1H31zM31 105h45v1H31z"/><path d="M33.201 91.032c.091.104.202.207.332.308.13.1.274.192.43.273.16.078.332.142.517.19.186.046.386.07.601.07.4 0 .706-.084.918-.25.215-.17.322-.374.322-.615 0-.25-.094-.441-.283-.572-.185-.13-.482-.232-.889-.307l-.22-.04a8.274 8.274 0 0 1-.873-.204 2.767 2.767 0 0 1-.786-.366 1.9 1.9 0 0 1-.572-.61c-.146-.251-.22-.567-.22-.948 0-.221.05-.453.147-.693.098-.245.252-.468.464-.67.215-.204.49-.372.825-.502.339-.13.747-.196 1.226-.196.566 0 1.07.095 1.513.284.446.185.806.43 1.08.737l-.943.879a1.961 1.961 0 0 0-.742-.498c-.3-.12-.609-.18-.928-.18-.368 0-.656.07-.864.21-.205.139-.308.321-.308.546 0 .146.033.269.098.366.068.098.163.18.283.244.12.062.265.114.435.156.169.043.358.085.566.127l.112.02c.28.052.559.119.835.2.277.078.528.195.752.352.228.153.412.355.552.605.14.248.21.565.21.952 0 .352-.073.663-.22.933a2.25 2.25 0 0 1-.58.693c-.242.19-.52.332-.836.43a3.426 3.426 0 0 1-.986.142 4.96 4.96 0 0 1-.962-.088 3.78 3.78 0 0 1-.8-.25 3.855 3.855 0 0 1-.64-.36 3.156 3.156 0 0 1-.489-.43l.923-.938Zm7.569.41c0 .062.008.12.024.176a.365.365 0 0 0 .083.147c.042.039.1.07.176.092.075.023.17.035.288.035.049 0 .104-.002.166-.005l.185-.02c.062-.006.12-.014.171-.024l.137-.025.122 1.192a12.415 12.415 0 0 1-.786.073c-.143.01-.288.015-.435.015-.465 0-.828-.106-1.089-.318-.26-.211-.39-.548-.39-1.01v-2.828h-.942v-1.171h.942v-1.48l1.348-.361v1.84h1.372v1.172h-1.373v2.5Zm3.91-.566a.756.756 0 0 0-.4.176.454.454 0 0 0-.151.361.6.6 0 0 0 .186.44c.123.12.305.18.546.18.254 0 .454-.073.6-.22.147-.146.22-.34.22-.58v-.528l-1 .171Zm1.221 1.63a2.432 2.432 0 0 1-.205.201 1.477 1.477 0 0 1-.283.19 1.91 1.91 0 0 1-.874.2c-.26 0-.501-.04-.723-.121a1.85 1.85 0 0 1-.576-.352 1.67 1.67 0 0 1-.39-.518 1.482 1.482 0 0 1-.142-.644c0-.42.13-.763.39-1.03.261-.267.62-.435 1.08-.503l1.504-.22v-.098c0-.234-.072-.42-.215-.556-.143-.137-.376-.205-.698-.205-.134 0-.269.016-.406.048a4.66 4.66 0 0 0-.395.103 2.55 2.55 0 0 0-.347.137c-.107.048-.202.093-.283.131l-.528-1.03c.3-.166.632-.303.997-.41a4.056 4.056 0 0 1 1.142-.161c.241 0 .484.026.728.078.247.049.47.14.669.273.202.134.366.316.493.547.127.228.19.52.19.874v2.149c0 .153.04.267.117.342.082.071.193.138.332.2l-.61.967c-.247-.026-.446-.09-.596-.19a1.285 1.285 0 0 1-.37-.401Zm5.196-3.427h-.142c-.192 0-.376.02-.552.059a1.15 1.15 0 0 0-.459.215c-.133.1-.24.24-.322.42-.078.178-.117.408-.117.688V93h-1.348v-5.23h1.348v.591c.055-.088.127-.172.215-.254a1.73 1.73 0 0 1 .703-.371c.146-.039.304-.058.474-.058h.2v1.401Zm2.768 2.363c0 .062.008.12.025.176a.365.365 0 0 0 .083.147c.042.039.1.07.175.092.075.023.171.035.288.035.05 0 .105-.002.166-.005l.186-.02c.062-.006.119-.014.171-.024l.137-.025.122 1.192a12.415 12.415 0 0 1-.786.073c-.144.01-.288.015-.435.015-.465 0-.828-.106-1.089-.318-.26-.211-.39-.548-.39-1.01v-2.828h-.943v-1.171h.943v-1.48l1.347-.361v1.84h1.372v1.172h-1.372v2.5Zm5.376 3.208h-1.347v-6.88h1.347v.45c.147-.153.327-.284.542-.39.215-.108.475-.162.782-.162a2.142 2.142 0 0 1 1.665.781c.201.241.358.528.468.86.11.332.166.691.166 1.079 0 .387-.057.747-.17 1.079a2.624 2.624 0 0 1-.48.86 2.17 2.17 0 0 1-1.684.772 1.868 1.868 0 0 1-.761-.158 1.679 1.679 0 0 1-.288-.17 1.94 1.94 0 0 1-.24-.22v2.1Zm-.039-3.779c0 .14.025.27.073.39.053.118.126.22.22.308.095.088.207.157.337.205.133.05.283.074.45.074.191 0 .36-.034.507-.103.15-.072.275-.17.376-.298a1.33 1.33 0 0 0 .23-.449 2.02 2.02 0 0 0 .078-.576v-.064c0-.208-.026-.4-.078-.576a1.325 1.325 0 0 0-.23-.454c-.1-.13-.226-.231-.376-.303a1.143 1.143 0 0 0-.508-.107c-.166 0-.316.024-.449.073-.13.049-.242.117-.337.205a.922.922 0 0 0-.22.313 1.03 1.03 0 0 0-.073.39v.972Zm6.25.005a.756.756 0 0 0-.4.176.454.454 0 0 0-.152.361.6.6 0 0 0 .186.44c.124.12.306.18.547.18.254 0 .454-.073.6-.22.147-.146.22-.34.22-.58v-.528l-1 .171Zm1.22 1.63a2.432 2.432 0 0 1-.204.201 1.483 1.483 0 0 1-.283.19 1.912 1.912 0 0 1-.874.2c-.26 0-.502-.04-.723-.121a1.85 1.85 0 0 1-.576-.352 1.67 1.67 0 0 1-.39-.518 1.482 1.482 0 0 1-.142-.644c0-.42.13-.763.39-1.03s.62-.435 1.08-.503l1.503-.22v-.098c0-.234-.072-.42-.215-.556-.143-.137-.376-.205-.698-.205-.133 0-.269.016-.405.048a4.65 4.65 0 0 0-.396.103 2.55 2.55 0 0 0-.346.137c-.108.048-.202.093-.284.131l-.527-1.03c.3-.166.631-.303.996-.41a4.056 4.056 0 0 1 1.143-.161c.24 0 .483.026.727.078.248.049.47.14.67.273.201.134.365.316.492.547.127.228.19.52.19.874v2.149c0 .153.04.267.118.342.081.071.192.138.332.2l-.61.967c-.248-.026-.446-.09-.596-.19a1.286 1.286 0 0 1-.371-.401Zm5.435-.434a1.24 1.24 0 0 1-.507.352 1.9 1.9 0 0 1-.703.127c-.352 0-.665-.062-.938-.186a2.015 2.015 0 0 1-.693-.508 2.342 2.342 0 0 1-.43-.771 3.105 3.105 0 0 1-.147-.977c0-.345.05-.667.147-.966.1-.303.244-.562.43-.777.188-.218.42-.389.693-.513.273-.123.586-.185.938-.185.253 0 .488.044.703.132.218.088.387.205.507.351v-.38h1.353v5.18c0 .32-.06.593-.18.82-.121.232-.287.42-.499.567-.208.146-.45.252-.727.317a3.678 3.678 0 0 1-.884.103c-.38 0-.778-.046-1.192-.137a5.404 5.404 0 0 1-1.069-.332l.381-1.089c.091.04.203.082.337.127.133.049.277.091.43.127.153.036.312.065.478.088.17.026.334.04.493.04.14 0 .275-.016.406-.045a.942.942 0 0 0 .341-.137c.101-.062.181-.145.24-.249a.738.738 0 0 0 .092-.39v-.689Zm-2.03-1.943c0 .172.017.335.053.488.039.15.1.278.18.386a.914.914 0 0 0 .323.249c.13.059.288.088.473.088.368 0 .63-.116.787-.347.156-.234.234-.522.234-.864v-.04c0-.172-.018-.333-.054-.483a1.026 1.026 0 0 0-.175-.385.804.804 0 0 0-.318-.25 1.077 1.077 0 0 0-.474-.092c-.364 0-.628.115-.79.347-.16.23-.24.519-.24.864v.039Zm5.673.723c.023.156.072.299.147.43.078.13.175.242.292.336.118.091.253.163.406.215.153.052.316.078.488.078a2.2 2.2 0 0 0 1.28-.45l.649.948a2.899 2.899 0 0 1-.899.498c-.355.127-.732.19-1.132.19-.362 0-.702-.061-1.021-.185a2.473 2.473 0 0 1-.84-.537 2.58 2.58 0 0 1-.566-.855 2.977 2.977 0 0 1-.205-1.132c0-.384.06-.743.18-1.075.124-.332.295-.62.513-.864a2.414 2.414 0 0 1 1.807-.781c.345 0 .665.063.962.19.296.124.553.3.771.528.218.224.389.495.513.81.123.316.185.664.185 1.045v.61h-3.53Zm1.094-2.012c-.29 0-.536.097-.738.293a1.13 1.13 0 0 0-.346.698h2.11a.983.983 0 0 0-.304-.703.99.99 0 0 0-.722-.288Z" fill="#231F20"/><path fill="#fff" stroke="#0B0C0C" stroke-width="2" d="M410 191h62v94h-62z"/><path fill="#0B0C0C" d="M409 190h64v10h-64zM409 238l-6 3.464v-6.928l6 3.464Z"/><g filter="url(#f)"><path fill="#00823B" d="M416 231h26v10h-26z"/></g><path d="M418.148 207.639V213h-1.416v-7.002h1.997l2.803 4.702v-4.702h1.416V213h-1.557l-3.243-5.361Zm8.418.029c.388 0 .739.07 1.055.21.316.137.586.327.811.571.224.244.397.532.517.864.124.333.186.691.186 1.075 0 .387-.062.747-.186 1.079a2.457 2.457 0 0 1-1.333 1.426 2.626 2.626 0 0 1-1.05.205c-.387 0-.739-.069-1.054-.205a2.457 2.457 0 0 1-1.333-1.426 3.061 3.061 0 0 1-.186-1.079c0-.384.06-.742.181-1.075.124-.332.298-.62.522-.864a2.37 2.37 0 0 1 .811-.571c.319-.14.672-.21 1.059-.21Zm0 4.18c.192 0 .362-.036.508-.108.15-.071.275-.171.376-.298.101-.127.178-.278.23-.454.052-.179.078-.374.078-.586v-.034c0-.211-.026-.405-.078-.581a1.32 1.32 0 0 0-.23-.459 1.038 1.038 0 0 0-.376-.303 1.15 1.15 0 0 0-.508-.107c-.192 0-.363.036-.512.107-.147.072-.27.173-.371.303a1.32 1.32 0 0 0-.23.459c-.052.176-.078.37-.078.581v.034c0 .212.026.407.078.586.052.176.129.327.23.454s.224.227.371.298c.149.072.32.108.512.108Zm5.391-.406c0 .062.008.121.024.176a.377.377 0 0 0 .083.147c.043.039.101.07.176.092a1 1 0 0 0 .288.035c.049 0 .104-.002.166-.005l.186-.02c.062-.006.119-.014.171-.024l.137-.025.122 1.192a12.948 12.948 0 0 1-.787.073c-.143.01-.288.015-.434.015-.466 0-.829-.106-1.089-.318-.26-.211-.391-.548-.391-1.01v-2.828h-.942v-1.171h.942v-1.48l1.348-.361v1.841h1.372v1.171h-1.372v2.5Zm-14.248 10.41c.023.156.072.299.146.429.079.13.176.243.293.337.118.091.253.163.406.215.153.052.315.078.488.078a2.1 2.1 0 0 0 .645-.112c.231-.078.442-.191.634-.337l.65.947a2.903 2.903 0 0 1-.899.498 3.336 3.336 0 0 1-1.133.191 2.79 2.79 0 0 1-1.02-.186 2.485 2.485 0 0 1-.84-.537 2.57 2.57 0 0 1-.566-.854 2.975 2.975 0 0 1-.205-1.133c0-.384.06-.742.18-1.075.124-.332.295-.62.513-.864a2.414 2.414 0 0 1 1.807-.781c.345 0 .665.063.962.19.296.124.553.3.771.528.218.224.389.495.513.81.123.316.185.664.185 1.045v.611h-3.53Zm1.094-2.012c-.29 0-.536.098-.738.293a1.13 1.13 0 0 0-.346.698h2.109a.978.978 0 0 0-.303-.703.99.99 0 0 0-.722-.288Zm3.276-2.842h1.348v5.581c0 .111.031.195.093.254.065.059.167.088.307.088.065 0 .121-.003.166-.01l.186-.039.107 1.148-.293.039c-.088.009-.19.017-.307.024-.114.01-.233.015-.357.015a1.69 1.69 0 0 1-.517-.074 1.128 1.128 0 0 1-.396-.214 1.001 1.001 0 0 1-.249-.362 1.299 1.299 0 0 1-.088-.498v-5.952Zm4.297 7.002h-1.348v-5.229h1.348V224Zm-1.489-6.602c0-.11.021-.214.063-.312a.806.806 0 0 1 1.494 0 .768.768 0 0 1 .064.312c0 .114-.021.22-.064.318a.846.846 0 0 1-.175.259.823.823 0 0 1-1.148 0 .89.89 0 0 1-.171-.259.799.799 0 0 1-.063-.318Zm5.83 5.674c-.121.147-.29.264-.508.352a1.914 1.914 0 0 1-.703.127 2.25 2.25 0 0 1-.938-.186 2.01 2.01 0 0 1-.693-.508 2.335 2.335 0 0 1-.43-.771 3.124 3.124 0 0 1-.146-.977c0-.345.049-.667.146-.966.101-.303.244-.562.43-.777.189-.218.42-.389.693-.512a2.25 2.25 0 0 1 .938-.186c.254 0 .488.044.703.132.218.088.387.205.508.351v-.38h1.352v5.18c0 .319-.06.593-.18.82-.121.232-.287.42-.498.567a2.09 2.09 0 0 1-.728.317 3.643 3.643 0 0 1-.884.103c-.381 0-.778-.046-1.191-.137a5.345 5.345 0 0 1-1.069-.332l.38-1.089c.092.039.204.082.337.127.134.049.277.091.43.127.153.036.313.065.479.088.169.026.333.039.493.039.14 0 .275-.015.405-.044a.949.949 0 0 0 .342-.137.665.665 0 0 0 .239-.249.736.736 0 0 0 .093-.39v-.689Zm-2.031-1.943c0 .172.017.335.053.488.039.15.1.279.181.386a.92.92 0 0 0 .322.249c.13.059.288.088.474.088.368 0 .63-.116.786-.347.156-.234.234-.522.234-.864v-.039c0-.173-.018-.334-.053-.484a1.033 1.033 0 0 0-.176-.385.794.794 0 0 0-.318-.249 1.072 1.072 0 0 0-.473-.093c-.365 0-.628.115-.791.347-.16.231-.239.519-.239.864v.039Zm5.893 2.871h-1.348v-5.229h1.348V224Zm-1.489-6.602a.823.823 0 0 1 .234-.571.794.794 0 0 1 .576-.239.785.785 0 0 1 .572.239.755.755 0 0 1 .175.259.768.768 0 0 1 .064.312c0 .114-.021.22-.064.318a.829.829 0 0 1-.175.259.823.823 0 0 1-1.148 0 .911.911 0 0 1-.171-.259.799.799 0 0 1-.063-.318Zm7.622 3.99c0 .387-.057.747-.171 1.079a2.608 2.608 0 0 1-.479.859c-.205.241-.45.43-.737.567a2.178 2.178 0 0 1-.947.205c-.153 0-.293-.015-.42-.044a1.641 1.641 0 0 1-.63-.283 1.943 1.943 0 0 1-.239-.22V224h-1.348v-7.002h1.348v2.222a1.95 1.95 0 0 1 .542-.391c.215-.107.475-.161.781-.161.345 0 .658.07.938.21.283.137.525.327.727.571.202.241.358.528.469.86.111.332.166.691.166 1.079Zm-3.662.483c0 .14.024.27.073.391a.98.98 0 0 0 .557.512c.133.049.283.074.449.074.192 0 .361-.035.508-.103.149-.071.275-.171.376-.298.101-.127.177-.276.229-.449.052-.176.078-.368.078-.576v-.064c0-.208-.026-.4-.078-.576a1.32 1.32 0 0 0-.229-.454 1.047 1.047 0 0 0-.376-.303 1.154 1.154 0 0 0-.508-.107c-.166 0-.316.024-.449.073a.996.996 0 0 0-.337.205.911.911 0 0 0-.293.703v.972Zm4.541-4.873h1.347v5.581c0 .111.031.195.093.254.065.059.168.088.308.088.065 0 .12-.003.166-.01l.185-.039.108 1.148-.293.039a7.455 7.455 0 0 1-.308.024c-.114.01-.232.015-.356.015-.192 0-.365-.025-.518-.074a1.115 1.115 0 0 1-.395-.214.977.977 0 0 1-.249-.362 1.299 1.299 0 0 1-.088-.498v-5.952Zm4.077 4.854c.023.156.072.299.146.429.079.13.176.243.293.337.118.091.253.163.406.215.153.052.315.078.488.078a2.1 2.1 0 0 0 .645-.112c.231-.078.442-.191.634-.337l.65.947a2.903 2.903 0 0 1-.899.498 3.336 3.336 0 0 1-1.133.191 2.79 2.79 0 0 1-1.02-.186 2.485 2.485 0 0 1-.84-.537 2.57 2.57 0 0 1-.566-.854 2.975 2.975 0 0 1-.205-1.133c0-.384.06-.742.18-1.075.124-.332.295-.62.513-.864a2.414 2.414 0 0 1 1.807-.781c.345 0 .665.063.962.19.296.124.553.3.771.528.218.224.389.495.513.81.123.316.185.664.185 1.045v.611h-3.53Zm1.094-2.012c-.29 0-.536.098-.738.293a1.13 1.13 0 0 0-.346.698h2.109a.978.978 0 0 0-.303-.703.99.99 0 0 0-.722-.288Z" fill="#231F20"/><path fill="#fff" stroke="#0B0C0C" stroke-width="2" d="M217 69h62v94h-62z"/><path fill="#0B0C0C" d="M216 68h64v10h-64z"/><g filter="url(#g)"><path fill="#00823B" d="M223 131h26v10h-26z"/></g><path fill="#fff" stroke="#0B0C0C" d="M223.5 111.5h49v9h-49z"/><path d="M226.721 83.9c.521 0 .988.095 1.401.284.413.185.763.44 1.05.766.29.322.509.703.659 1.143.153.436.23.905.23 1.406 0 .505-.077.975-.23 1.411-.15.436-.369.817-.659 1.143l-.068.078.615.757-1.001.82-.684-.85c-.39.16-.828.24-1.313.24-.524 0-.993-.093-1.407-.279a3.084 3.084 0 0 1-1.049-.766 3.417 3.417 0 0 1-.66-1.143 4.338 4.338 0 0 1-.224-1.411c0-.501.075-.97.224-1.406.153-.44.373-.82.66-1.143a3.085 3.085 0 0 1 1.049-.766 3.355 3.355 0 0 1 1.407-.284Zm0 5.918c.156 0 .302-.014.439-.044l-.791-.986 1.001-.82.845 1.054c.111-.172.198-.367.264-.586.081-.28.122-.585.122-.917v-.04c0-.328-.041-.633-.122-.913a2.146 2.146 0 0 0-.362-.732 1.646 1.646 0 0 0-.591-.478 1.755 1.755 0 0 0-.805-.176c-.306 0-.576.058-.811.175a1.663 1.663 0 0 0-.591.479c-.156.205-.275.45-.356.732-.081.28-.122.585-.122.913v.04c0 .332.041.638.122.917.081.28.2.523.356.728.16.205.357.366.591.483.235.114.505.171.811.171Zm8.74 1.182h-1.348v-.45a3.146 3.146 0 0 1-.244.21 1.819 1.819 0 0 1-.293.176 1.803 1.803 0 0 1-.361.118c-.13.029-.275.044-.435.044-.283 0-.537-.046-.761-.137a1.73 1.73 0 0 1-.572-.38 1.676 1.676 0 0 1-.351-.572 1.995 1.995 0 0 1-.122-.708v-3.53h1.347v3.037c0 .185.02.343.059.473.042.13.099.236.171.318a.726.726 0 0 0 .263.175c.101.036.21.054.328.054a.978.978 0 0 0 .38-.073.839.839 0 0 0 .313-.22c.088-.1.156-.226.205-.376a1.7 1.7 0 0 0 .073-.527V85.77h1.348V91Zm2.295-2.148c.023.156.071.299.146.43.078.13.176.242.293.336.117.091.253.163.406.215a1.5 1.5 0 0 0 .488.078 2.19 2.19 0 0 0 1.279-.45l.65.948a2.91 2.91 0 0 1-.899.498c-.355.127-.732.19-1.133.19-.361 0-.701-.061-1.02-.185a2.475 2.475 0 0 1-.84-.537 2.573 2.573 0 0 1-.566-.855 2.971 2.971 0 0 1-.206-1.132c0-.384.061-.743.181-1.075.124-.332.295-.62.513-.864a2.411 2.411 0 0 1 1.806-.781c.346 0 .666.063.962.19.297.124.554.3.772.528.218.224.389.495.513.81.123.316.185.664.185 1.045v.61h-3.53Zm1.094-2.012c-.29 0-.536.097-.738.293a1.13 1.13 0 0 0-.346.698h2.109a.983.983 0 0 0-.303-.703.99.99 0 0 0-.722-.288Zm3.667 2.49c.192.173.421.32.688.444.267.124.537.186.811.186.198 0 .354-.037.468-.112.114-.079.171-.178.171-.298 0-.205-.219-.365-.659-.479l-.381-.102a4.013 4.013 0 0 1-.571-.186 2.244 2.244 0 0 1-.532-.317c-.16-.13-.29-.288-.391-.474a1.492 1.492 0 0 1-.146-.693c0-.218.047-.425.141-.62.098-.199.235-.373.41-.523.179-.15.396-.268.65-.356.254-.088.537-.132.849-.132.446 0 .843.07 1.192.21.351.14.628.298.83.474l-.703.898a2.457 2.457 0 0 0-.591-.308 1.852 1.852 0 0 0-.679-.131c-.211 0-.376.039-.493.117-.117.075-.176.166-.176.273 0 .114.051.207.152.279.104.068.254.128.449.18l.566.161c.541.153.928.36 1.162.62.235.26.352.59.352.987a1.528 1.528 0 0 1-.537 1.167c-.176.156-.394.28-.654.37a2.777 2.777 0 0 1-.889.133 3.545 3.545 0 0 1-1.338-.254 3.303 3.303 0 0 1-.513-.274 2.877 2.877 0 0 1-.39-.302l.752-.938Zm6.372.112c0 .062.008.12.024.176a.362.362 0 0 0 .083.147c.042.039.101.07.176.092.075.023.171.035.288.035.049 0 .104-.002.166-.005l.186-.02a2.21 2.21 0 0 0 .17-.024l.137-.025.122 1.192a12.61 12.61 0 0 1-.786.073c-.143.01-.288.015-.434.015-.466 0-.829-.106-1.089-.318-.261-.211-.391-.548-.391-1.01v-2.828h-.942v-1.171h.942v-1.48l1.348-.361v1.84h1.372v1.172h-1.372v2.5ZM252.458 91h-1.348v-5.23h1.348V91Zm-1.489-6.602a.82.82 0 0 1 .234-.571.828.828 0 0 1 .259-.176.787.787 0 0 1 .317-.063c.111 0 .215.021.313.063.101.043.187.101.259.176a.767.767 0 0 1 .175.259.767.767 0 0 1 .064.312c0 .114-.021.22-.064.318a.801.801 0 0 1-.434.43.78.78 0 0 1-.313.063.789.789 0 0 1-.317-.064.871.871 0 0 1-.259-.17.9.9 0 0 1-.171-.26.794.794 0 0 1-.063-.317Zm4.951 1.27c.387 0 .739.07 1.055.21.315.137.586.327.81.571.225.244.397.532.518.865.123.332.185.69.185 1.074 0 .387-.062.747-.185 1.079a2.453 2.453 0 0 1-1.333 1.426 2.617 2.617 0 0 1-1.05.205c-.387 0-.739-.069-1.055-.205a2.442 2.442 0 0 1-.81-.572 2.558 2.558 0 0 1-.523-.854 3.082 3.082 0 0 1-.185-1.08c0-.383.06-.742.18-1.073.124-.333.298-.62.523-.865.224-.244.495-.434.81-.571.319-.14.673-.21 1.06-.21Zm0 4.18c.192 0 .361-.036.508-.108.149-.071.275-.17.376-.298.101-.127.177-.278.229-.454.052-.179.078-.374.078-.586v-.034c0-.211-.026-.405-.078-.58a1.319 1.319 0 0 0-.229-.46 1.04 1.04 0 0 0-.376-.303 1.145 1.145 0 0 0-.508-.107c-.192 0-.363.036-.513.107-.146.072-.27.173-.371.303-.101.127-.177.28-.229.46-.052.175-.078.369-.078.58v.034c0 .212.026.407.078.586.052.176.128.327.229.454s.225.227.371.298c.15.072.321.108.513.108Zm3.462-4.078h1.347v.45a2.18 2.18 0 0 1 .24-.205c.091-.069.19-.127.298-.176a1.854 1.854 0 0 1 .795-.17c.284-.001.538.046.762.14.225.092.414.219.567.381.156.163.275.354.356.572.081.218.122.454.122.708V91h-1.348v-3.042c0-.186-.021-.342-.063-.469a.796.796 0 0 0-.176-.312.609.609 0 0 0-.259-.176.856.856 0 0 0-.322-.059 1.02 1.02 0 0 0-.386.074.827.827 0 0 0-.307.224 1.02 1.02 0 0 0-.205.371 1.7 1.7 0 0 0-.074.528V91h-1.347v-5.23Zm9.79-.561c-.192 0-.36.03-.503.093a.97.97 0 0 0-.357.258c-.094.111-.164.241-.209.391a1.59 1.59 0 0 0-.069.479l-1.45-.132c.003-.384.072-.724.205-1.02.134-.3.316-.55.547-.753.231-.205.503-.36.815-.464.316-.107.66-.16 1.031-.16.387 0 .74.058 1.059.175.322.114.598.275.825.484.228.208.404.459.528.751.127.29.19.61.19.958 0 .38-.076.737-.229 1.069-.15.329-.35.635-.601.918-.251.28-.539.537-.864.771-.326.231-.661.44-1.006.625l-.132.069h2.92V91h-5.107v-1.27c.263-.143.532-.296.805-.459.277-.162.544-.332.801-.507.261-.18.506-.365.737-.557.232-.192.432-.39.601-.596a2.93 2.93 0 0 0 .41-.64 1.63 1.63 0 0 0 .152-.683 1.18 1.18 0 0 0-.069-.395 1.002 1.002 0 0 0-.547-.591 1.161 1.161 0 0 0-.483-.093Z" fill="#231F20"/><path fill="#fff" stroke="#0B0C0C" stroke-width="2" d="M410 69h62v94h-62z"/><path fill="#0B0C0C" d="M409 68h64v10h-64z"/><g filter="url(#h)"><path fill="#00823B" d="M416 100h26v10h-26z"/></g><path d="M416.732 83.998h4.717v1.284h-3.301v1.49h3.042v1.279h-3.042v1.67h3.492V91h-4.908v-7.002Zm5.855 0h1.348v5.581c0 .11.03.195.092.254.065.059.168.088.308.088.065 0 .12-.003.166-.01l.186-.039.107 1.147a5.595 5.595 0 0 1-.601.064c-.114.01-.232.015-.356.015-.192 0-.365-.025-.518-.074a1.131 1.131 0 0 1-.395-.214.97.97 0 0 1-.249-.362 1.3 1.3 0 0 1-.088-.498v-5.952ZM426.884 91h-1.348v-5.23h1.348V91Zm-1.489-6.602c0-.11.021-.214.063-.312a.787.787 0 0 1 .43-.435.784.784 0 0 1 .317-.063c.111 0 .215.021.313.063.1.043.187.101.258.176a.755.755 0 0 1 .176.259.795.795 0 0 1-.176.889.797.797 0 0 1-.258.17.78.78 0 0 1-.313.064.786.786 0 0 1-.317-.064.871.871 0 0 1-.259-.17.86.86 0 0 1-.171-.26.794.794 0 0 1-.063-.317Zm5.83 5.674c-.121.147-.29.264-.508.352a1.9 1.9 0 0 1-.703.127c-.352 0-.664-.062-.938-.186a2.02 2.02 0 0 1-.693-.508 2.335 2.335 0 0 1-.43-.771 3.094 3.094 0 0 1-.146-.977c0-.345.048-.667.146-.966.101-.303.244-.562.43-.777.189-.218.42-.389.693-.513.274-.123.586-.185.938-.185.254 0 .488.044.703.132.218.088.387.205.508.351v-.38h1.352v5.18c0 .32-.06.593-.181.82a1.54 1.54 0 0 1-.498.567 2.07 2.07 0 0 1-.727.317 3.678 3.678 0 0 1-.884.103c-.381 0-.778-.046-1.191-.137a5.41 5.41 0 0 1-1.07-.332l.381-1.089c.091.04.204.082.337.127.134.049.277.091.43.127.153.036.312.065.478.088.17.026.334.04.494.04.139 0 .275-.016.405-.045a.947.947 0 0 0 .342-.137c.1-.062.18-.145.239-.249a.737.737 0 0 0 .093-.39v-.689Zm-2.032-1.943c0 .172.018.335.054.488.039.15.099.278.181.386a.908.908 0 0 0 .322.249c.13.059.288.088.474.088.367 0 .63-.116.786-.347.156-.234.234-.522.234-.864v-.04c0-.172-.018-.333-.054-.483a1.017 1.017 0 0 0-.175-.385.812.812 0 0 0-.318-.25 1.076 1.076 0 0 0-.473-.092c-.365 0-.629.115-.791.347-.16.23-.24.519-.24.864v.039ZM435.087 91h-1.348v-5.23h1.348V91Zm-1.489-6.602c0-.11.021-.214.063-.312a.787.787 0 0 1 .43-.435.784.784 0 0 1 .317-.063c.111 0 .215.021.313.063a.75.75 0 0 1 .258.176.755.755 0 0 1 .176.259.767.767 0 0 1 .064.312c0 .114-.021.22-.064.318a.822.822 0 0 1-.434.43.78.78 0 0 1-.313.063.786.786 0 0 1-.317-.064.871.871 0 0 1-.259-.17.86.86 0 0 1-.171-.26.794.794 0 0 1-.063-.317Zm7.622 3.99c0 .387-.057.747-.171 1.079a2.627 2.627 0 0 1-.479.86 2.169 2.169 0 0 1-1.684.772 1.87 1.87 0 0 1-.762-.158 1.69 1.69 0 0 1-.288-.17 1.887 1.887 0 0 1-.239-.22V91h-1.348v-7.002h1.348v2.222c.146-.153.327-.284.542-.39.215-.108.475-.162.781-.162a2.138 2.138 0 0 1 1.665.781c.202.241.358.528.469.86.11.332.166.691.166 1.079Zm-3.662.483c0 .14.024.27.073.39.052.118.125.22.22.308a.995.995 0 0 0 .337.205c.133.05.283.074.449.074a1.062 1.062 0 0 0 .884-.4c.1-.128.177-.277.229-.45.052-.176.078-.368.078-.576v-.064c0-.208-.026-.4-.078-.576a1.34 1.34 0 0 0-.229-.454 1.04 1.04 0 0 0-.376-.303 1.145 1.145 0 0 0-.508-.107c-.166 0-.316.024-.449.073a.995.995 0 0 0-.337.205.913.913 0 0 0-.293.703v.972Zm4.541-4.873h1.347v5.581c0 .11.031.195.093.254.065.059.168.088.308.088.065 0 .12-.003.166-.01l.185-.039.108 1.147a5.676 5.676 0 0 1-.601.064c-.114.01-.233.015-.356.015-.192 0-.365-.025-.518-.074a1.123 1.123 0 0 1-.395-.214.97.97 0 0 1-.249-.362 1.3 1.3 0 0 1-.088-.498v-5.952Zm4.077 4.854c.023.156.071.299.146.43.078.13.176.242.293.336.117.091.253.163.406.215a1.5 1.5 0 0 0 .488.078 2.203 2.203 0 0 0 1.279-.45l.65.948a2.91 2.91 0 0 1-.899.498c-.355.127-.732.19-1.133.19-.361 0-.701-.061-1.02-.185a2.475 2.475 0 0 1-.84-.537 2.575 2.575 0 0 1-.567-.855 2.99 2.99 0 0 1-.205-1.132c0-.384.061-.743.181-1.075.124-.332.295-.62.513-.864a2.411 2.411 0 0 1 1.806-.781c.345 0 .666.063.962.19.297.124.554.3.772.528.218.224.389.495.513.81.123.316.185.664.185 1.045v.61h-3.53Zm1.094-2.012c-.29 0-.536.097-.738.293a1.13 1.13 0 0 0-.346.698h2.109a.983.983 0 0 0-.303-.703.99.99 0 0 0-.722-.288ZM466.999 40.998h2.71c.417 0 .784.06 1.103.18.319.121.586.282.801.484a2.07 2.07 0 0 1 .654 1.519c0 .23-.035.45-.107.659a2.02 2.02 0 0 1-1.255 1.28l1.533 2.88h-1.631l-1.269-2.52h-1.123V48h-1.416v-7.002Zm3.789 2.232c0-.14-.026-.27-.078-.391a.8.8 0 0 0-.23-.313 1.065 1.065 0 0 0-.381-.205 1.751 1.751 0 0 0-.532-.073h-1.152v1.973h1.152c.202 0 .379-.025.532-.073.153-.053.28-.123.381-.21a.84.84 0 0 0 .23-.318.974.974 0 0 0 .078-.39Zm3.418 2.622c.023.156.072.299.146.43.079.13.176.242.293.336.118.091.253.163.406.215a1.5 1.5 0 0 0 .488.078 2.19 2.19 0 0 0 1.279-.45l.65.948a2.91 2.91 0 0 1-.899.498c-.355.127-.732.19-1.133.19-.361 0-.701-.061-1.02-.185a2.475 2.475 0 0 1-.84-.537 2.573 2.573 0 0 1-.566-.855 2.971 2.971 0 0 1-.205-1.132c0-.384.06-.742.18-1.075.124-.332.295-.62.513-.864a2.413 2.413 0 0 1 1.807-.781c.345 0 .665.063.961.19.297.124.554.3.772.528.218.224.389.494.513.81.123.316.185.664.185 1.045v.61h-3.53Zm1.094-2.012c-.29 0-.536.097-.738.293a1.13 1.13 0 0 0-.346.698h2.109a.979.979 0 0 0-.303-.703.99.99 0 0 0-.722-.288Zm3.667 2.49c.192.173.421.32.688.444.267.124.537.186.811.186.198 0 .354-.038.468-.112.114-.078.171-.178.171-.298 0-.205-.219-.365-.659-.479l-.381-.102a4.013 4.013 0 0 1-.571-.186 2.264 2.264 0 0 1-.532-.317c-.16-.13-.29-.288-.391-.474a1.492 1.492 0 0 1-.146-.693c0-.218.047-.425.141-.62.098-.199.235-.373.41-.523.179-.15.396-.268.65-.356.254-.088.537-.132.849-.132.446 0 .844.07 1.192.21.351.14.628.298.83.474l-.703.898a2.457 2.457 0 0 0-.591-.308 1.852 1.852 0 0 0-.679-.132c-.211 0-.376.04-.493.118-.117.075-.176.166-.176.273 0 .114.051.207.152.279.104.068.254.128.449.18l.566.161c.541.153.928.36 1.162.62.235.26.352.59.352.987a1.528 1.528 0 0 1-.537 1.167c-.176.156-.394.28-.654.37a2.777 2.777 0 0 1-.889.133 3.545 3.545 0 0 1-1.338-.254 3.303 3.303 0 0 1-.513-.274 2.877 2.877 0 0 1-.39-.302l.752-.938Zm8.891 1.67h-1.347v-.45a3.165 3.165 0 0 1-.245.21 1.776 1.776 0 0 1-.293.177 1.98 1.98 0 0 1-.795.161c-.284 0-.538-.046-.762-.137a1.715 1.715 0 0 1-.571-.38 1.679 1.679 0 0 1-.352-.572 2.018 2.018 0 0 1-.122-.708v-3.53h1.348v3.037c0 .185.019.343.058.473.043.13.099.236.171.318a.722.722 0 0 0 .264.175c.101.036.21.054.327.054a.98.98 0 0 0 .381-.073.843.843 0 0 0 .312-.22c.088-.1.157-.226.205-.376a1.7 1.7 0 0 0 .074-.527V42.77h1.347V48Zm1.148-7.002h1.347v5.581c0 .11.031.195.093.254.065.059.168.088.308.088.065 0 .12-.003.166-.01l.185-.039.108 1.148-.293.039c-.088.01-.191.018-.308.024-.114.01-.233.015-.356.015-.192 0-.365-.025-.518-.074a1.123 1.123 0 0 1-.395-.214.97.97 0 0 1-.249-.362 1.3 1.3 0 0 1-.088-.498v-5.952Zm4.673 5.444c0 .062.008.12.024.176a.362.362 0 0 0 .083.147c.042.039.101.07.176.092.075.023.171.035.288.035.049 0 .104-.002.166-.005l.185-.02c.062-.006.119-.014.171-.024l.137-.025.122 1.192a12.61 12.61 0 0 1-.786.073c-.143.01-.288.015-.435.015-.465 0-.828-.106-1.088-.318-.261-.211-.391-.548-.391-1.01v-2.828h-.942V42.77h.942v-1.479l1.348-.361v1.84h1.372v1.172h-1.372v2.5Zm2.592-.112c.192.173.422.32.689.444.267.124.537.186.81.186.199 0 .355-.038.469-.112.114-.078.171-.178.171-.298 0-.205-.22-.365-.659-.479l-.381-.102a4.013 4.013 0 0 1-.571-.186 2.27 2.27 0 0 1-.533-.317 1.585 1.585 0 0 1-.39-.474 1.491 1.491 0 0 1-.147-.693c0-.218.048-.425.142-.62.098-.199.234-.373.41-.523.179-.15.396-.268.65-.356a2.58 2.58 0 0 1 .849-.132c.446 0 .843.07 1.192.21.351.14.628.298.83.474l-.704.898a2.45 2.45 0 0 0-.59-.308 1.852 1.852 0 0 0-.679-.132c-.212 0-.376.04-.493.118-.117.075-.176.166-.176.273 0 .114.05.207.151.279.105.068.254.128.45.18l.566.161c.54.153.928.36 1.162.62.234.26.352.59.352.987a1.528 1.528 0 0 1-.537 1.167 1.93 1.93 0 0 1-.655.37c-.26.089-.556.133-.888.133a3.519 3.519 0 0 1-1.338-.254 3.303 3.303 0 0 1-.513-.274 2.955 2.955 0 0 1-.391-.302l.752-.938Z" fill="#231F20"/><path stroke="#2B8CC4" stroke-width="2" d="M409 54h154M410 55v6M562 55v6"/><path d="M89.517 119.5a.5.5 0 0 0 0-1v1Zm4.133-1a.5.5 0 0 0 0 1v-1Zm1.033 1a.5.5 0 0 0 0-1v1Zm4.134-1a.5.5 0 0 0 0 1v-1Zm1.033 1a.5.5 0 0 0 0-1v1Zm4.133-1a.5.5 0 0 0 0 1v-1Zm1.034 1a.5.5 0 0 0 0-1v1Zm4.133-1a.5.5 0 0 0 0 1v-1Zm1.033 1a.5.5 0 0 0 0-1v1Zm4.134-1a.5.5 0 0 0 0 1v-1Zm1.033 1a.5.5 0 0 0 0-1v1Zm4.133-1a.5.5 0 0 0 0 1v-1ZM89 119.5h.517v-1H89v1Zm4.65 0h1.033v-1H93.65v1Zm5.167 0h1.033v-1h-1.033v1Zm5.166 0h1.034v-1h-1.034v1Zm5.167 0h1.033v-1h-1.033v1Zm5.167 0h1.033v-1h-1.033v1Zm5.166 0H120v-1h-.517v1ZM189 118a.5.5 0 0 0 0 1v-1Zm.46 1a.5.5 0 0 0 0-1v1Zm3.68-1a.5.5 0 0 0 0 1v-1Zm.92 1a.5.5 0 0 0 0-1v1Zm3.68-1a.5.5 0 0 0 0 1v-1Zm.92 1a.5.5 0 0 0 0-1v1Zm3.68-1a.5.5 0 0 0 0 1v-1Zm.92 1a.5.5 0 0 0 0-1v1Zm3.68-1a.5.5 0 0 0 0 1v-1Zm.92 1a.5.5 0 0 0 0-1v1Zm3.68-1a.5.5 0 0 0 0 1v-1ZM189 119h.46v-1H189v1Zm4.14 0h.92v-1h-.92v1Zm4.6 0h.92v-1h-.92v1Zm4.6 0h.92v-1h-.92v1Zm4.6 0h.92v-1h-.92v1Zm4.6 0h.46v-1h-.46v1ZM280 118a.5.5 0 0 0 0 1v-1Zm.54 1a.5.5 0 0 0 0-1v1Zm4.32-1a.5.5 0 0 0 0 1v-1Zm1.08 1a.5.5 0 0 0 0-1v1Zm4.32-1a.5.5 0 0 0 0 1v-1Zm1.08 1a.5.5 0 0 0 0-1v1Zm4.32-1a.5.5 0 0 0 0 1v-1Zm1.08 1a.5.5 0 0 0 0-1v1Zm4.32-1a.5.5 0 0 0 0 1v-1Zm1.08 1a.5.5 0 0 0 0-1v1Zm4.32-1a.5.5 0 0 0 0 1v-1ZM280 119h.54v-1H280v1Zm4.86 0h1.08v-1h-1.08v1Zm5.4 0h1.08v-1h-1.08v1Zm5.4 0h1.08v-1h-1.08v1Zm5.4 0h1.08v-1h-1.08v1Zm5.4 0h.54v-1h-.54v1ZM374 118.5a.5.5 0 0 0 0 1v-1Zm.533 1a.5.5 0 0 0 0-1v1Zm4.267-1a.5.5 0 0 0 0 1v-1Zm1.067 1a.5.5 0 0 0 0-1v1Zm4.266-1a.5.5 0 0 0 0 1v-1Zm1.067 1a.5.5 0 0 0 0-1v1Zm4.267-1a.5.5 0 0 0 0 1v-1Zm1.066 1a.5.5 0 0 0 0-1v1Zm4.267-1a.5.5 0 0 0 0 1v-1Zm1.067 1a.5.5 0 0 0 0-1v1Zm4.266-1a.5.5 0 0 0 0 1v-1Zm1.067 1a.5.5 0 0 0 0-1v1Zm4.267-1a.5.5 0 0 0 0 1v-1Zm-31.467 1h.533v-1H374v1Zm4.8 0h1.067v-1H378.8v1Zm5.333 0h1.067v-1h-1.067v1Zm5.334 0h1.066v-1h-1.066v1Zm5.333 0h1.067v-1H394.8v1Zm5.333 0h1.067v-1h-1.067v1Zm5.334 0H406v-1h-.533v1ZM473 118a.5.5 0 0 0 0 1v-1Zm.54 1a.5.5 0 0 0 0-1v1Zm4.32-1a.5.5 0 0 0 0 1v-1Zm1.08 1a.5.5 0 0 0 0-1v1Zm4.32-1a.5.5 0 0 0 0 1v-1Zm1.08 1a.5.5 0 0 0 0-1v1Zm4.32-1a.5.5 0 0 0 0 1v-1Zm1.08 1a.5.5 0 0 0 0-1v1Zm4.32-1a.5.5 0 0 0 0 1v-1Zm1.08 1a.5.5 0 0 0 0-1v1Zm4.32-1a.5.5 0 0 0 0 1v-1ZM473 119h.54v-1H473v1Zm4.86 0h1.08v-1h-1.08v1Zm5.4 0h1.08v-1h-1.08v1Zm5.4 0h1.08v-1h-1.08v1Zm5.4 0h1.08v-1h-1.08v1Zm5.4 0h.54v-1h-.54v1Z" fill="#0B0C0C"/><path d="m216 118-6 3.464v-6.928l6 3.464ZM311 119l-6 3.464v-6.928l6 3.464ZM124 119l-6 3.464v-6.928l6 3.464ZM498 119l-6 3.464v-6.928l6 3.464Z" fill="#0B0C0C"/><defs><filter id="a" x="317" y="142" width="26" height="10" filterUnits="userSpaceOnUse" color-interpolation-filters="sRGB"><feFlood flood-opacity="0" result="BackgroundImageFix"/><feBlend in="SourceGraphic" in2="BackgroundImageFix" result="shape"/><feColorMatrix in="SourceAlpha" values="0 0 0 0 0 0 0 0 0 0 0 0 0 0 0 0 0 0 127 0" result="hardAlpha"/><feOffset dy="-1"/><feComposite in2="hardAlpha" operator="arithmetic" k2="-1" k3="1"/><feColorMatrix values="0 0 0 0 0 0 0 0 0 0.392157 0 0 0 0 0.207843 0 0 0 1 0"/><feBlend in2="shape" result="effect1_innerShadow_1_516"/></filter><filter id="d" x="131" y="144" width="26" height="10" filterUnits="userSpaceOnUse" color-interpolation-filters="sRGB"><feFlood flood-opacity="0" result="BackgroundImageFix"/><feBlend in="SourceGraphic" in2="BackgroundImageFix" result="shape"/><feColorMatrix in="SourceAlpha" values="0 0 0 0 0 0 0 0 0 0 0 0 0 0 0 0 0 0 127 0" result="hardAlpha"/><feOffset dy="-1"/><feComposite in2="hardAlpha" operator="arithmetic" k2="-1" k3="1"/><feColorMatrix values="0 0 0 0 0 0 0 0 0 0.392157 0 0 0 0 0.207843 0 0 0 1 0"/><feBlend in2="shape" result="effect1_innerShadow_1_516"/></filter><filter id="e" x="32" y="121" width="26" height="10" filterUnits="userSpaceOnUse" color-interpolation-filters="sRGB"><feFlood flood-opacity="0" result="BackgroundImageFix"/><feBlend in="SourceGraphic" in2="BackgroundImageFix" result="shape"/><feColorMatrix in="SourceAlpha" values="0 0 0 0 0 0 0 0 0 0 0 0 0 0 0 0 0 0 127 0" result="hardAlpha"/><feOffset dy="-1"/><feComposite in2="hardAlpha" operator="arithmetic" k2="-1" k3="1"/><feColorMatrix values="0 0 0 0 0 0 0 0 0 0.392157 0 0 0 0 0.207843 0 0 0 1 0"/><feBlend in2="shape" result="effect1_innerShadow_1_516"/></filter><filter id="f" x="416" y="231" width="26" height="10" filterUnits="userSpaceOnUse" color-interpolation-filters="sRGB"><feFlood flood-opacity="0" result="BackgroundImageFix"/><feBlend in="SourceGraphic" in2="BackgroundImageFix" result="shape"/><feColorMatrix in="SourceAlpha" values="0 0 0 0 0 0 0 0 0 0 0 0 0 0 0 0 0 0 127 0" result="hardAlpha"/><feOffset dy="-1"/><feComposite in2="hardAlpha" operator="arithmetic" k2="-1" k3="1"/><feColorMatrix values="0 0 0 0 0 0 0 0 0 0.392157 0 0 0 0 0.207843 0 0 0 1 0"/><feBlend in2="shape" result="effect1_innerShadow_1_516"/></filter><filter id="g" x="223" y="131" width="26" height="10" filterUnits="userSpaceOnUse" color-interpolation-filters="sRGB"><feFlood flood-opacity="0" result="BackgroundImageFix"/><feBlend in="SourceGraphic" in2="BackgroundImageFix" result="shape"/><feColorMatrix in="SourceAlpha" values="0 0 0 0 0 0 0 0 0 0 0 0 0 0 0 0 0 0 127 0" result="hardAlpha"/><feOffset dy="-1"/><feComposite in2="hardAlpha" operator="arithmetic" k2="-1" k3="1"/><feColorMatrix values="0 0 0 0 0 0 0 0 0 0.392157 0 0 0 0 0.207843 0 0 0 1 0"/><feBlend in2="shape" result="effect1_innerShadow_1_516"/></filter><filter id="h" x="416" y="100" width="26" height="10" filterUnits="userSpaceOnUse" color-interpolation-filters="sRGB"><feFlood flood-opacity="0" result="BackgroundImageFix"/><feBlend in="SourceGraphic" in2="BackgroundImageFix" result="shape"/><feColorMatrix in="SourceAlpha" values="0 0 0 0 0 0 0 0 0 0 0 0 0 0 0 0 0 0 127 0" result="hardAlpha"/><feOffset dy="-1"/><feComposite in2="hardAlpha" operator="arithmetic" k2="-1" k3="1"/><feColorMatrix values="0 0 0 0 0 0 0 0 0 0.392157 0 0 0 0 0.207843 0 0 0 1 0"/><feBlend in2="shape" result="effect1_innerShadow_1_516"/></filter><clipPath id="b"><path fill="#fff" transform="translate(25 42)" d="M0 0h62.061v18H0z"/></clipPath><clipPath id="c"><path fill="#fff" transform="translate(174.118 41)" d="M0 0h141.242v18H0z"/></clipPath></defs></svg>