<svg xmlns="http://www.w3.org/2000/svg" width="583" height="294" fill="none"><path fill="#fff" d="M2 0h581v292H2V0Z"/><path fill="#0B0C0C" d="m409 119-6 3.46v-6.92l6 3.46Zm-253.5 48a.5.5 0 0 0-1 0h1Zm-.5 71h-.5a.5.5 0 0 0 .5.5v-.5Zm-.5-70.5a.5.5 0 0 0 1 0h-1Zm1 4.06a.5.5 0 0 0-1 0h1Zm-1 1.02a.5.5 0 0 0 1 0h-1Zm1 4.06a.5.5 0 0 0-1 0h1Zm-1 1.01a.5.5 0 0 0 1 0h-1Zm1 4.06a.5.5 0 0 0-1 0h1Zm-1 1.01a.5.5 0 1 0 1 0h-1Zm1 4.06a.5.5 0 1 0-1 0h1Zm-1 1.01a.5.5 0 0 0 1 0h-1Zm1 4.06a.5.5 0 0 0-1 0h1Zm-1 1.01a.5.5 0 0 0 1 0h-1Zm1 4.06a.5.5 0 0 0-1 0h1Zm-1 1.02a.5.5 0 0 0 1 0h-1Zm1 4.05a.5.5 0 0 0-1 0h1Zm-1 1.02a.5.5 0 0 0 1 0h-1Zm1 4.05a.5.5 0 0 0-1 0h1Zm-1 1.02a.5.5 0 0 0 1 0h-1Zm1 4.06a.5.5 0 0 0-1 0h1Zm-1 1.01a.5.5 0 0 0 1 0h-1Zm1 4.06a.5.5 0 0 0-1 0h1Zm-1 1.01a.5.5 0 1 0 1 0h-1Zm1 4.06a.5.5 0 1 0-1 0h1Zm-1 1.01a.5.5 0 0 0 1 0h-1Zm1 4.06a.5.5 0 0 0-1 0h1Zm-1 1.01a.5.5 0 0 0 1 0h-1Zm1 4.06a.5.5 0 0 0-1 0h1Zm-1 1.02a.5.5 0 0 0 1 0h-1Zm1 4.05a.5.5 0 0 0-1 0h1Zm0 1.01a.5.5 0 0 0 0-1v1Zm4-1a.5.5 0 0 0 0 1v-1Zm1 1a.5.5 0 0 0 0-1v1Zm4-1a.5.5 0 0 0 0 1v-1Zm1 1a.5.5 0 0 0 0-1v1Zm4-1a.5.5 0 0 0 0 1v-1Zm1 1a.5.5 0 0 0 0-1v1Zm4-1a.5.5 0 0 0 0 1v-1Zm1 1a.5.5 0 0 0 0-1v1Zm4-1a.5.5 0 0 0 0 1v-1Zm1 1a.5.5 0 0 0 0-1v1Zm4-1a.5.5 0 0 0 0 1v-1Zm1 1a.5.5 0 0 0 0-1v1Zm4-1a.5.5 0 0 0 0 1v-1Zm1 1a.5.5 0 0 0 0-1v1Zm4-1a.5.5 0 0 0 0 1v-1Zm1 1a.5.5 0 0 0 0-1v1Zm4-1a.5.5 0 0 0 0 1v-1Zm1 1a.5.5 0 0 0 0-1v1Zm4-1a.5.5 0 0 0 0 1v-1Zm1 1a.5.5 0 0 0 0-1v1Zm4-1a.5.5 0 0 0 0 1v-1Zm1 1a.5.5 0 0 0 0-1v1Zm4-1a.5.5 0 0 0 0 1v-1Zm1 1a.5.5 0 0 0 0-1v1Zm4-1a.5.5 0 0 0 0 1v-1Zm1 1a.5.5 0 0 0 0-1v1Zm4-1a.5.5 0 0 0 0 1v-1Zm1 1a.5.5 0 0 0 0-1v1Zm4-1a.5.5 0 0 0 0 1v-1Zm1 1a.5.5 0 0 0 0-1v1Zm4-1a.5.5 0 0 0 0 1v-1Zm1 1a.5.5 0 0 0 0-1v1Zm4-1a.5.5 0 0 0 0 1v-1Zm1 1a.5.5 0 0 0 0-1v1Zm4-1a.5.5 0 0 0 0 1v-1Zm1 1a.5.5 0 0 0 0-1v1Zm4-1a.5.5 0 0 0 0 1v-1Zm1 1a.5.5 0 0 0 0-1v1Zm4-1a.5.5 0 0 0 0 1v-1Zm1 1a.5.5 0 0 0 0-1v1Zm4-1a.5.5 0 0 0 0 1v-1Zm1 1a.5.5 0 0 0 0-1v1Zm4-1a.5.5 0 0 0 0 1v-1Zm1 1a.5.5 0 0 0 0-1v1Zm4-1a.5.5 0 0 0 0 1v-1Zm1 1a.5.5 0 0 0 0-1v1Zm4-1a.5.5 0 0 0 0 1v-1Zm1 1a.5.5 0 0 0 0-1v1Zm4-1a.5.5 0 0 0 0 1v-1Zm1 1a.5.5 0 0 0 0-1v1Zm4-1a.5.5 0 0 0 0 1v-1Zm1 1a.5.5 0 0 0 0-1v1Zm4-1a.5.5 0 0 0 0 1v-1Zm1 1a.5.5 0 0 0 0-1v1Zm4-1a.5.5 0 0 0 0 1v-1Zm1 1a.5.5 0 0 0 0-1v1Zm4-1a.5.5 0 0 0 0 1v-1Zm1 1a.5.5 0 0 0 0-1v1Zm4-1a.5.5 0 0 0 0 1v-1Zm1 1a.5.5 0 0 0 0-1v1Zm4-1a.5.5 0 0 0 0 1v-1Zm1 1a.5.5 0 0 0 0-1v1Zm4-1a.5.5 0 0 0 0 1v-1Zm1 1a.5.5 0 0 0 0-1v1Zm4-1a.5.5 0 0 0 0 1v-1Zm1 1a.5.5 0 0 0 0-1v1Zm4-1a.5.5 0 0 0 0 1v-1Zm1 1a.5.5 0 0 0 0-1v1Zm4-1a.5.5 0 0 0 0 1v-1Zm1 1a.5.5 0 0 0 0-1v1Zm4-1a.5.5 0 0 0 0 1v-1Zm1 1a.5.5 0 0 0 0-1v1Zm4-1a.5.5 0 0 0 0 1v-1Zm1 1a.5.5 0 0 0 0-1v1Zm4-1a.5.5 0 0 0 0 1v-1Zm1 1a.5.5 0 0 0 0-1v1Zm4-1a.5.5 0 0 0 0 1v-1Zm1 1a.5.5 0 0 0 0-1v1Zm4-1a.5.5 0 0 0 0 1v-1Zm1 1a.5.5 0 0 0 0-1v1Zm4-1a.5.5 0 0 0 0 1v-1Zm1 1a.5.5 0 0 0 0-1v1Zm4-1a.5.5 0 0 0 0 1v-1Zm1 1a.5.5 0 0 0 0-1v1Zm4-1a.5.5 0 0 0 0 1v-1Zm1 1a.5.5 0 0 0 0-1v1Zm4-1a.5.5 0 0 0 0 1v-1Zm1 1a.5.5 0 0 0 0-1v1Zm4-1a.5.5 0 0 0 0 1v-1Zm1 1a.5.5 0 0 0 0-1v1Zm4-1a.5.5 0 0 0 0 1v-1Zm1 1a.5.5 0 0 0 0-1v1Zm4-1a.5.5 0 0 0 0 1v-1Zm1 1a.5.5 0 0 0 0-1v1Zm4-1a.5.5 0 0 0 0 1v-1Zm1 1a.5.5 0 0 0 0-1v1Zm4-1a.5.5 0 0 0 0 1v-1Zm1 1a.5.5 0 0 0 0-1v1Zm4-1a.5.5 0 0 0 0 1v-1Zm-250-70.5v.5h1v-.5h-1Zm0 4.56v1.02h1v-1.02h-1Zm0 5.08v1.01h1v-1.01h-1Zm0 5.07v1.01h1v-1.01h-1Zm0 5.07v1.01h1v-1.01h-1Zm0 5.07v1.01h1v-1.01h-1Zm0 5.07v1.02h1v-1.02h-1Zm0 5.07v1.02h1v-1.02h-1Zm0 5.07v1.02h1v-1.02h-1Zm0 5.08v1.01h1v-1.01h-1Zm0 5.07v1.01h1v-1.01h-1Zm0 5.07v1.01h1v-1.01h-1Zm0 5.07v1.01h1v-1.01h-1Zm0 5.07v1.02h1v-1.02h-1Zm0 5.07v.51h1v-.5h-1Zm.5 1.01h.5v-1h-.5v1Zm4.5 0h1v-1h-1v1Zm5 0h1v-1h-1v1Zm5 0h1v-1h-1v1Zm5 0h1v-1h-1v1Zm5 0h1v-1h-1v1Zm5 0h1v-1h-1v1Zm5 0h1v-1h-1v1Zm5 0h1v-1h-1v1Zm5 0h1v-1h-1v1Zm5 0h1v-1h-1v1Zm5 0h1v-1h-1v1Zm5 0h1v-1h-1v1Zm5 0h1v-1h-1v1Zm5 0h1v-1h-1v1Zm5 0h1v-1h-1v1Zm5 0h1v-1h-1v1Zm5 0h1v-1h-1v1Zm5 0h1v-1h-1v1Zm5 0h1v-1h-1v1Zm5 0h1v-1h-1v1Zm5 0h1v-1h-1v1Zm5 0h1v-1h-1v1Zm5 0h1v-1h-1v1Zm5 0h1v-1h-1v1Zm5 0h1v-1h-1v1Zm5 0h1v-1h-1v1Zm5 0h1v-1h-1v1Zm5 0h1v-1h-1v1Zm5 0h1v-1h-1v1Zm5 0h1v-1h-1v1Zm5 0h1v-1h-1v1Zm5 0h1v-1h-1v1Zm5 0h1v-1h-1v1Zm5 0h1v-1h-1v1Zm5 0h1v-1h-1v1Zm5 0h1v-1h-1v1Zm5 0h1v-1h-1v1Zm5 0h1v-1h-1v1Zm5 0h1v-1h-1v1Zm5 0h1v-1h-1v1Zm5 0h1v-1h-1v1Zm5 0h1v-1h-1v1Zm5 0h1v-1h-1v1Zm5 0h1v-1h-1v1Zm5 0h1v-1h-1v1Zm5 0h1v-1h-1v1Zm5 0h1v-1h-1v1Zm5 0h1v-1h-1v1Zm5 0h1v-1h-1v1Zm5 0h.5v-1h-.5v1Z"/><path fill="#fff" stroke="#0B0C0C" stroke-width="2" d="M499 69h62v94h-62z"/><path fill="#0B0C0C" d="M498 68h64v10h-64zm7 43h22v1h-22zm0 6h50v1h-50zm0 8h50v1h-50zm0-4h50v1h-50zm0 8h40v1h-40z"/><path fill="#00823B" d="M505 83h50v23h-50z"/><path fill="#fff" d="M514.78 91.13h-1.82l-.27.91h-1.06l1.6-4.9h1.31l1.63 4.9h-1.11l-.28-.91Zm-1.55-.87h1.28l-.63-2.08h-.02l-.63 2.07Zm4.38 2.94h-.95v-4.82h.95v.31a1.21 1.21 0 0 1 .93-.39 1.5 1.5 0 0 1 1.16.55c.14.17.25.37.33.6.08.24.11.49.11.76s-.04.52-.11.76c-.08.23-.2.43-.34.6a1.52 1.52 0 0 1-1.47.5 1.09 1.09 0 0 1-.44-.2 1.32 1.32 0 0 1-.17-.14v1.47Zm-.03-2.65c0 .1.02.19.05.27a.66.66 0 0 0 .4.36.9.9 0 0 0 .3.05.75.75 0 0 0 .62-.28.93.93 0 0 0 .16-.31c.04-.12.06-.26.06-.4v-.05c0-.14-.02-.28-.06-.4a.93.93 0 0 0-.16-.32.73.73 0 0 0-.26-.21.8.8 0 0 0-.35-.08.9.9 0 0 0-.32.05.66.66 0 0 0-.39.36.72.72 0 0 0-.05.28v.68Zm4.17 2.65h-.95v-4.82h.95v.32a1.21 1.21 0 0 1 .92-.4 1.5 1.5 0 0 1 1.17.56 1.8 1.8 0 0 1 .33.6 2.36 2.36 0 0 1-.34 2.1 1.52 1.52 0 0 1-1.48.52 1.08 1.08 0 0 1-.44-.2 1.38 1.38 0 0 1-.16-.15v1.47Zm-.03-2.65c0 .1.02.19.05.27a.66.66 0 0 0 .39.36.91.91 0 0 0 .32.05.83.83 0 0 0 .35-.07.73.73 0 0 0 .26-.2.94.94 0 0 0 .16-.32c.04-.12.06-.26.06-.4v-.05c0-.14-.02-.28-.06-.4a.93.93 0 0 0-.16-.32.72.72 0 0 0-.26-.21.8.8 0 0 0-.35-.08.91.91 0 0 0-.32.05.66.66 0 0 0-.39.36.72.72 0 0 0-.05.28v.68Zm3.2-3.41h.95v3.9c0 .08.02.14.07.18.04.04.11.07.21.07a.83.83 0 0 0 .25-.04l.07.8-.2.03a4.03 4.03 0 0 1-.22.02h-.25c-.13 0-.25 0-.36-.04a.79.79 0 0 1-.28-.15.7.7 0 0 1-.17-.26.92.92 0 0 1-.06-.35v-4.16Zm3.05 4.9h-.95v-3.66h.95v3.66Zm-1.05-4.62c0-.08.02-.15.05-.22a.55.55 0 0 1 .3-.3.56.56 0 0 1 .44 0 .54.54 0 0 1 .18.12.54.54 0 0 1 .17.4.56.56 0 0 1-.57.57.56.56 0 0 1-.22-.05.62.62 0 0 1-.18-.12.6.6 0 0 1-.17-.4Zm2.67 2.8c0 .13.02.25.05.37.03.12.08.22.15.32.06.1.15.17.25.23s.23.1.37.1a.8.8 0 0 0 .46-.15.8.8 0 0 0 .16-.15 1.09 1.09 0 0 0 .12-.2l.83.43a1.33 1.33 0 0 1-.25.39 1.52 1.52 0 0 1-.35.3 1.73 1.73 0 0 1-.46.18 2 2 0 0 1-.53.07c-.26 0-.5-.05-.7-.14a1.73 1.73 0 0 1-.57-.4 1.84 1.84 0 0 1-.37-.6 2.1 2.1 0 0 1-.13-.76c0-.27.04-.52.13-.75.09-.23.21-.43.37-.6.16-.18.34-.31.56-.4a1.7 1.7 0 0 1 .71-.15 2 2 0 0 1 .53.07 1.66 1.66 0 0 1 .81.48c.11.12.2.25.25.4l-.83.42a1 1 0 0 0-.28-.35.66.66 0 0 0-.2-.1.73.73 0 0 0-.26-.05.72.72 0 0 0-.62.33 1.03 1.03 0 0 0-.15.33 1.41 1.41 0 0 0-.05.36v.03Zm4.18.33a.54.54 0 0 0-.28.13.32.32 0 0 0-.1.25c0 .12.04.22.13.3.08.1.21.13.38.13a.57.57 0 0 0 .42-.15.55.55 0 0 0 .15-.4v-.38l-.7.12Zm.86 1.15a1.59 1.59 0 0 1-.14.13 1.04 1.04 0 0 1-.2.14 1.34 1.34 0 0 1-.61.14c-.19 0-.36-.03-.51-.09a1.3 1.3 0 0 1-.4-.24 1.17 1.17 0 0 1-.28-.37 1.04 1.04 0 0 1-.1-.45c0-.3.1-.53.28-.72.18-.18.43-.3.75-.35l1.05-.15v-.07a.51.51 0 0 0-.15-.4c-.1-.09-.26-.13-.48-.13-.1 0-.2 0-.29.03a2.87 2.87 0 0 0-.52.17l-.2.09-.36-.72c.2-.12.44-.21.7-.29a2.84 2.84 0 0 1 1.3-.06c.17.04.33.1.47.2.14.09.26.21.35.38.08.16.13.36.13.6v1.51c0 .1.03.19.08.24.06.05.13.1.23.14l-.42.68a.91.91 0 0 1-.42-.13.9.9 0 0 1-.26-.28Zm2.81-.75a.45.45 0 0 0 .02.12.26.26 0 0 0 .06.1.3.3 0 0 0 .12.07c.06.02.12.02.2.02h.12l.13-.01.12-.02.1-.02.08.84a8.47 8.47 0 0 1-.55.05h-.3c-.33 0-.58-.07-.76-.21-.19-.15-.28-.39-.28-.71V89.2h-.66v-.82h.66v-1.04l.95-.25v1.29h.96v.82h-.96v1.75Zm2.53 1.09h-.94v-3.66h.94v3.66Zm-1.04-4.62a.57.57 0 0 1 .57-.57c.08 0 .15.02.22.05.07.03.13.07.18.12.05.05.1.1.12.18.03.07.05.14.05.22a.56.56 0 0 1-.35.52.56.56 0 0 1-.44 0 .61.61 0 0 1-.19-.12.56.56 0 0 1-.16-.4Zm3.5.89c.27 0 .51.05.73.14.23.1.41.23.57.4.16.18.28.38.36.61.1.23.13.48.13.75s-.04.52-.13.76a1.71 1.71 0 0 1-.93 1 1.83 1.83 0 0 1-.73.14 1.71 1.71 0 0 1-1.67-1.14 2.16 2.16 0 0 1-.13-.76c0-.27.04-.52.12-.75.09-.23.21-.43.37-.6a1.65 1.65 0 0 1 .56-.4c.23-.1.48-.15.75-.15Zm0 2.92a.8.8 0 0 0 .35-.07.73.73 0 0 0 .26-.21.92.92 0 0 0 .17-.32c.03-.12.05-.26.05-.4v-.03c0-.15-.02-.29-.05-.4a.91.91 0 0 0-.17-.33.72.72 0 0 0-.26-.21.8.8 0 0 0-.35-.08.82.82 0 0 0-.36.08.73.73 0 0 0-.26.21.93.93 0 0 0-.16.32 1.45 1.45 0 0 0-.06.4v.03c0 .15.02.29.06.41.03.12.09.23.16.32a.75.75 0 0 0 .62.28Zm2.45-2.85h.94v.31a1.6 1.6 0 0 1 .38-.26 1.3 1.3 0 0 1 .56-.12c.2 0 .37.03.53.1a1.15 1.15 0 0 1 .65.66c.05.16.08.32.08.5v2.47h-.94v-2.13c0-.13-.02-.24-.05-.33a.55.55 0 0 0-.12-.22.42.42 0 0 0-.18-.12.71.71 0 0 0-.5.01.58.58 0 0 0-.21.16.72.72 0 0 0-.15.26 1.2 1.2 0 0 0-.05.37v2h-.94v-3.66Zm-29.1 8.85c0 .12.02.24.05.36.03.12.08.22.15.32a.82.82 0 0 0 .25.23c.1.06.23.1.38.1a.8.8 0 0 0 .45-.15.84.84 0 0 0 .17-.15l.12-.2.82.43a1.33 1.33 0 0 1-.24.39 1.52 1.52 0 0 1-.36.3 1.72 1.72 0 0 1-.46.18 2 2 0 0 1-.53.07c-.25 0-.49-.05-.7-.14a1.74 1.74 0 0 1-.57-.4 1.84 1.84 0 0 1-.36-.6 2.1 2.1 0 0 1-.14-.76c0-.27.05-.52.13-.75.1-.23.22-.43.37-.6a1.7 1.7 0 0 1 1.28-.55c.18 0 .36.02.52.07a1.65 1.65 0 0 1 .82.48c.1.12.19.25.24.4l-.82.42a1.1 1.1 0 0 0-.13-.2.72.72 0 0 0-.16-.15.68.68 0 0 0-.2-.1.74.74 0 0 0-.25-.05.72.72 0 0 0-.63.33 1.03 1.03 0 0 0-.15.33c-.03.12-.04.24-.04.36v.03Zm4.62-1.92c.27 0 .51.05.73.14.22.1.41.23.57.4.16.17.28.38.36.61a2.16 2.16 0 0 1 0 1.5 1.71 1.71 0 0 1-.93 1 1.83 1.83 0 0 1-.73.15 1.71 1.71 0 0 1-1.68-1.14 2.16 2.16 0 0 1-.13-.76c0-.27.05-.52.13-.75a1.8 1.8 0 0 1 .37-.6 1.65 1.65 0 0 1 .56-.4c.23-.1.47-.15.75-.15Zm0 2.92a.8.8 0 0 0 .35-.07.73.73 0 0 0 .26-.21.92.92 0 0 0 .16-.32 1.48 1.48 0 0 0 .06-.4v-.03c0-.15-.02-.29-.06-.4a.91.91 0 0 0-.16-.33.72.72 0 0 0-.26-.21.8.8 0 0 0-.35-.08.82.82 0 0 0-.36.08.73.73 0 0 0-.26.21.93.93 0 0 0-.16.32 1.45 1.45 0 0 0-.06.4v.03c0 .15.02.29.06.41.03.12.09.23.16.32a.75.75 0 0 0 .62.28Zm5.53.81H525v-2.13c0-.13-.02-.24-.05-.33a.55.55 0 0 0-.11-.22.4.4 0 0 0-.18-.12.68.68 0 0 0-.47.01.55.55 0 0 0-.2.15.77.77 0 0 0-.14.27c-.03.1-.05.23-.05.37v2h-.94v-3.66h.94v.32c.12-.13.26-.23.42-.3a1.4 1.4 0 0 1 1.05.02.97.97 0 0 1 .42.39 1.07 1.07 0 0 1 .48-.39 1.52 1.52 0 0 1 .62-.11c.2 0 .39.03.55.1a1.2 1.2 0 0 1 .76 1.13v2.5h-.96v-2.13c0-.13-.01-.24-.04-.33a.55.55 0 0 0-.12-.22.4.4 0 0 0-.18-.12.66.66 0 0 0-.46.01.55.55 0 0 0-.21.15.77.77 0 0 0-.14.27c-.03.1-.04.23-.04.37v2Zm3.91 1.15h-.94v-4.81h.94v.31a1.22 1.22 0 0 1 .93-.38 1.5 1.5 0 0 1 1.17.54c.14.17.25.37.32.6a2.39 2.39 0 0 1 0 1.52 1.82 1.82 0 0 1-.33.6 1.52 1.52 0 0 1-1.48.5 1.1 1.1 0 0 1-.6-.34v1.46Zm-.02-2.64c0 .1.01.19.05.27a.65.65 0 0 0 .15.22c.07.06.15.1.24.14a.92.92 0 0 0 .31.05.74.74 0 0 0 .62-.28.93.93 0 0 0 .16-.31c.04-.12.06-.26.06-.4v-.05c0-.15-.02-.28-.06-.4a.93.93 0 0 0-.16-.32.73.73 0 0 0-.26-.21.8.8 0 0 0-.36-.08.92.92 0 0 0-.31.05.7.7 0 0 0-.24.15.64.64 0 0 0-.2.49v.68Zm3.2-3.41h.95v3.9c0 .08.02.14.06.18.05.04.12.06.22.06a.83.83 0 0 0 .25-.03l.07.8-.2.03a3.9 3.9 0 0 1-.22.02h-.25c-.13 0-.25 0-.36-.04a.8.8 0 0 1-.28-.15.69.69 0 0 1-.17-.26.92.92 0 0 1-.06-.35v-4.16Zm2.89 3.4a.83.83 0 0 0 .3.53.95.95 0 0 0 .3.15c.1.04.21.06.33.06a1.56 1.56 0 0 0 .9-.32l.45.67c-.17.14-.38.26-.63.35a2.34 2.34 0 0 1-.79.13c-.25 0-.49-.04-.71-.13a1.74 1.74 0 0 1-.6-.38 1.8 1.8 0 0 1-.39-.6 2.08 2.08 0 0 1-.14-.79c0-.27.04-.52.13-.75a1.87 1.87 0 0 1 .35-.6 1.7 1.7 0 0 1 1.27-.55 1.7 1.7 0 0 1 1.21.5c.15.16.27.35.36.57a2 2 0 0 1 .13.73v.43h-2.47Zm.77-1.41a.71.71 0 0 0-.52.2.8.8 0 0 0-.24.5h1.47a.7.7 0 0 0-.2-.5.7.7 0 0 0-.51-.2Zm3.68 1.82a.45.45 0 0 0 .02.12.27.27 0 0 0 .06.1.3.3 0 0 0 .12.07c.05.02.12.02.2.02h.12l.13-.01.12-.02.1-.02.08.84a8.47 8.47 0 0 1-.55.05 4.46 4.46 0 0 1-.3 0c-.33 0-.59-.07-.77-.21-.18-.15-.27-.39-.27-.71V96.2h-.66v-.82h.66v-1.04l.94-.25v1.29h.96v.82h-.96v1.75Zm2.38-.41c.01.1.05.2.1.3a.89.89 0 0 0 .2.23.96.96 0 0 0 .29.15c.1.04.22.06.34.06a1.53 1.53 0 0 0 .9-.32l.45.67c-.17.14-.38.26-.63.35a2.33 2.33 0 0 1-.8.13c-.24 0-.48-.04-.7-.13a1.73 1.73 0 0 1-.6-.38 1.81 1.81 0 0 1-.39-.6 2.1 2.1 0 0 1-.14-.79c0-.27.04-.52.12-.75.09-.23.21-.43.36-.6a1.69 1.69 0 0 1 1.27-.55 1.69 1.69 0 0 1 1.21.5c.15.16.27.35.36.57.09.22.13.46.13.73v.43h-2.47Zm.76-1.41a.72.72 0 0 0-.51.2.79.79 0 0 0-.25.5h1.48a.69.69 0 0 0-.21-.5.7.7 0 0 0-.5-.2Z"/><path fill="#fff" stroke="#0B0C0C" stroke-width="2" d="M311 69h62v94h-62z"/><path fill="#0B0C0C" d="M310 68h64v10h-64z"/><g filter="url(#a)"><path fill="#00823B" d="M317 142h26v10h-26z"/></g><path fill="#BFC1C3" d="M317 127h50v1h-50zm0-8h50v1h-50zm0-8h50v1h-50z"/><path fill="#005EA5" d="M357 115h10v1h-10zm0 16h10v1h-10zm0-8h10v1h-10z"/><path fill="#0B0C0C" d="M317 115h8v1h-8zm13 0h22v1h-22zm-13 16h8v1h-8zm13 0h22v1h-22zm-13-8h8v1h-8zm13 0h22v1h-22z"/><path fill="#231F20" d="M317.38 87.5c0-.5.08-.97.22-1.4.16-.45.38-.83.66-1.15a3.01 3.01 0 0 1 1.03-.77 3.18 3.18 0 0 1 1.36-.28c.37 0 .7.05 1.01.14a2.94 2.94 0 0 1 1.49 1.03c.18.24.32.51.42.82l-1.36.45a1.67 1.67 0 0 0-.19-.4 1.52 1.52 0 0 0-.32-.38 1.61 1.61 0 0 0-.46-.27 1.5 1.5 0 0 0-.58-.11 1.63 1.63 0 0 0-1.39.72c-.15.22-.26.46-.33.74a3.47 3.47 0 0 0-.1.84v.04c0 .29.04.57.1.85.07.27.18.52.33.73.15.21.33.39.56.52.23.13.51.2.83.2.22 0 .41-.04.58-.1a1.65 1.65 0 0 0 .97-1.05l1.36.44a3.06 3.06 0 0 1-.42.82 2.74 2.74 0 0 1-.65.63 2.93 2.93 0 0 1-.84.4 3.56 3.56 0 0 1-1 .14c-.51 0-.97-.1-1.37-.28a3.01 3.01 0 0 1-1.03-.77 3.48 3.48 0 0 1-.66-1.14 4.34 4.34 0 0 1-.22-1.41Zm6.97-3.5h1.34v2.22a2.1 2.1 0 0 1 .54-.38 1.84 1.84 0 0 1 .8-.17c.28 0 .53.04.76.14a1.6 1.6 0 0 1 .92.95c.08.22.12.46.12.71V91h-1.34v-3.04c0-.19-.03-.34-.07-.47a.8.8 0 0 0-.17-.31.61.61 0 0 0-.26-.18.86.86 0 0 0-.32-.06c-.14 0-.27.03-.39.08a.83.83 0 0 0-.3.22 1.02 1.02 0 0 0-.21.37 1.7 1.7 0 0 0-.08.53V91h-1.34v-7Zm6.64 4.85c.02.16.07.3.15.43a1.26 1.26 0 0 0 .7.55c.15.06.31.08.48.08a2.2 2.2 0 0 0 1.28-.45l.65.95a2.9 2.9 0 0 1-.9.5 3.34 3.34 0 0 1-1.13.19c-.36 0-.7-.06-1.02-.19a2.46 2.46 0 0 1-.84-.54 2.58 2.58 0 0 1-.57-.85 2.97 2.97 0 0 1-.2-1.13c0-.39.06-.75.18-1.08.12-.33.3-.62.51-.86a2.42 2.42 0 0 1 1.8-.78 2.41 2.41 0 0 1 1.74.72c.22.22.39.5.51.8.13.32.19.67.19 1.05v.61h-3.53Zm1.1-2.01c-.3 0-.54.1-.74.3a1.13 1.13 0 0 0-.35.7h2.1a.99.99 0 0 0-.3-.71.99.99 0 0 0-.72-.29Zm4.3 1.57c0 .17.03.34.08.51.04.17.11.33.2.46.1.14.22.25.37.34.15.09.32.13.53.13a1.13 1.13 0 0 0 .65-.2 1.61 1.61 0 0 0 .4-.5l1.19.6c-.08.2-.2.39-.35.56a2.18 2.18 0 0 1-.51.42 2.46 2.46 0 0 1-.65.27 2.86 2.86 0 0 1-1.78-.1 2.49 2.49 0 0 1-.8-.58c-.22-.24-.4-.52-.52-.85a3 3 0 0 1-.2-1.08c0-.39.07-.75.2-1.08a2.68 2.68 0 0 1 .52-.86 2.44 2.44 0 0 1 1.82-.78c.27 0 .52.03.76.1a2.36 2.36 0 0 1 1.16.7c.15.16.27.34.35.55l-1.18.61a1.46 1.46 0 0 0-.18-.28 1 1 0 0 0-.23-.22.95.95 0 0 0-.29-.15 1.04 1.04 0 0 0-.36-.06 1.03 1.03 0 0 0-.9.47 1.44 1.44 0 0 0-.2.46 2 2 0 0 0-.07.52v.04Zm5.5-.59 1.74-2.05h1.68l-1.89 2.14 1.94 3.09h-1.62l-1.3-2.13-.55.6V91h-1.35v-7h1.35v3.82Zm6.15 3.79c.15 0 .27-.03.34-.08a.54.54 0 0 0 .17-.27l.05-.16-1.8-5.33h1.49l1.04 3.6.86-3.6h1.48l-1.76 5.88a1.62 1.62 0 0 1-.24.5c-.1.14-.23.26-.37.34a1.57 1.57 0 0 1-.48.2 2.33 2.33 0 0 1-.56.07 6.43 6.43 0 0 1-.61-.04 5.77 5.77 0 0 1-.33-.04 3.25 3.25 0 0 1-.3-.06l.25-1.1a2.57 2.57 0 0 0 .5.08l.27.01Zm6.47-5.94c.39 0 .74.07 1.06.2a2.37 2.37 0 0 1 1.33 1.44c.12.34.18.7.18 1.08 0 .38-.06.74-.18 1.08a2.45 2.45 0 0 1-1.34 1.42 2.62 2.62 0 0 1-1.05.2c-.38 0-.74-.06-1.05-.2a2.44 2.44 0 0 1-.81-.57 2.56 2.56 0 0 1-.53-.85 3.06 3.06 0 0 1-.18-1.08c0-.39.06-.75.18-1.08a2.37 2.37 0 0 1 1.33-1.44c.32-.13.68-.2 1.06-.2Zm0 4.18c.2 0 .36-.04.51-.11.15-.07.28-.17.38-.3.1-.13.17-.28.23-.45.05-.18.07-.38.07-.59v-.03c0-.21-.02-.4-.07-.58a1.32 1.32 0 0 0-.23-.46 1.04 1.04 0 0 0-.38-.3 1.15 1.15 0 0 0-.5-.11c-.2 0-.37.03-.52.1-.15.08-.27.18-.37.3-.1.13-.18.29-.23.47-.05.17-.08.37-.08.58v.03c0 .21.03.4.08.59.05.17.13.32.23.45s.22.23.37.3c.15.07.32.1.51.1Zm7.81 1.15h-1.35v-.45a2.97 2.97 0 0 1-.24.21 1.82 1.82 0 0 1-.3.18 1.8 1.8 0 0 1-.35.11 2 2 0 0 1-.44.05 2 2 0 0 1-.76-.14 1.73 1.73 0 0 1-.57-.38 1.68 1.68 0 0 1-.35-.57 2 2 0 0 1-.12-.7v-3.54h1.34v3.04c0 .18.02.34.06.47.04.13.1.24.17.32a.72.72 0 0 0 .27.17c.1.04.2.06.32.06a.99.99 0 0 0 .38-.08.84.84 0 0 0 .32-.22c.08-.1.15-.22.2-.37a1.7 1.7 0 0 0 .07-.53v-2.86h1.35V91Zm4-3.92h-.13c-.2 0-.38.02-.55.06a1.05 1.05 0 0 0-.78.64c-.08.17-.12.4-.12.68V91h-1.35v-5.23h1.35v.6a1.41 1.41 0 0 1 .52-.48 1.83 1.83 0 0 1 .87-.21h.2v1.4Zm-47.05 12.8a.75.75 0 0 0-.4.17.45.45 0 0 0-.15.36c0 .17.06.32.18.44.13.12.31.18.55.18.25 0 .45-.07.6-.22a.79.79 0 0 0 .22-.58v-.53l-1 .18Zm1.22 1.63a2.33 2.33 0 0 1-.2.2 1.45 1.45 0 0 1-.29.19 1.92 1.92 0 0 1-.87.2 2.09 2.09 0 0 1-.72-.12 1.85 1.85 0 0 1-.58-.36 1.68 1.68 0 0 1-.4-.51 1.48 1.48 0 0 1-.13-.65c0-.42.13-.76.39-1.03s.62-.43 1.08-.5l1.5-.22v-.1a.73.73 0 0 0-.21-.56c-.15-.13-.38-.2-.7-.2a1.75 1.75 0 0 0-.4.05l-.4.1a2.52 2.52 0 0 0-.35.14l-.28.13-.53-1.03c.3-.17.63-.3 1-.41a4.06 4.06 0 0 1 1.14-.16c.24 0 .48.02.73.08.24.04.47.14.67.27.2.13.36.31.49.55.13.22.19.52.19.87v2.15c0 .15.04.27.12.34.08.07.19.14.33.2l-.61.97a1.3 1.3 0 0 1-.6-.2 1.3 1.3 0 0 1-.37-.4Zm2.16-4.74H324v.45a2.02 2.02 0 0 1 .53-.38 1.86 1.86 0 0 1 .8-.17c.28 0 .53.04.76.14a1.6 1.6 0 0 1 .92.95 2 2 0 0 1 .12.71V102h-1.34v-3.04c0-.19-.02-.34-.07-.47a.8.8 0 0 0-.17-.31.6.6 0 0 0-.26-.18.86.86 0 0 0-.32-.06c-.14 0-.27.03-.39.08a.82.82 0 0 0-.3.22 1.02 1.02 0 0 0-.21.37 1.7 1.7 0 0 0-.07.53V102h-1.35v-5.23Zm5.88 3.56c.2.17.43.32.7.44.26.13.53.19.8.19.2 0 .36-.04.47-.11.12-.08.17-.18.17-.3 0-.2-.22-.36-.66-.48l-.38-.1a4.01 4.01 0 0 1-.57-.19 2.24 2.24 0 0 1-.53-.31 1.57 1.57 0 0 1-.4-.48 1.5 1.5 0 0 1-.14-.7c0-.2.05-.42.14-.61.1-.2.24-.37.41-.52.18-.15.4-.27.65-.36a2.58 2.58 0 0 1 .85-.13 3.18 3.18 0 0 1 2.02.68l-.7.9a2.46 2.46 0 0 0-.59-.3 1.85 1.85 0 0 0-.68-.14.88.88 0 0 0-.5.12c-.1.07-.17.16-.17.27a.33.33 0 0 0 .15.28c.1.07.26.13.45.18l.57.16c.54.15.93.36 1.16.62.24.26.35.6.35.99 0 .22-.04.43-.13.63a1.62 1.62 0 0 1-.4.53c-.18.16-.4.28-.66.38-.26.08-.55.13-.89.13a3.57 3.57 0 0 1-1.33-.26 3.35 3.35 0 0 1-.52-.27 3.04 3.04 0 0 1-.39-.3l.75-.94Zm9.09-.04.64-3.52h1.42l-1.2 5.23h-1.6l-.79-3.4-.83 3.4h-1.57l-1.21-5.23h1.47l.62 3.52.9-3.52h1.3l.85 3.52Zm3.85-.44c.03.16.07.3.15.43a1.25 1.25 0 0 0 .7.55c.15.06.31.08.49.08a2.1 2.1 0 0 0 .64-.11c.23-.08.44-.2.63-.34l.65.95a2.9 2.9 0 0 1-.9.5 3.33 3.33 0 0 1-1.13.19c-.36 0-.7-.06-1.02-.19a2.48 2.48 0 0 1-.84-.53 2.58 2.58 0 0 1-.56-.86 2.98 2.98 0 0 1-.2-1.13 2.7 2.7 0 0 1 .7-1.94 2.42 2.42 0 0 1 1.8-.78 2.42 2.42 0 0 1 1.73.72c.21.22.38.5.5.8.13.32.2.67.2 1.05v.61h-3.54Zm1.1-2.01c-.3 0-.54.1-.74.3a1.13 1.13 0 0 0-.35.7h2.11a.98.98 0 0 0-.3-.71.99.99 0 0 0-.72-.29Zm6.13.24h-.14c-.2 0-.38.02-.55.06-.17.04-.33.1-.46.21-.13.1-.24.24-.32.42-.08.18-.12.41-.12.7V102h-1.35v-5.23h1.35v.6c.06-.1.13-.18.21-.26a1.73 1.73 0 0 1 .7-.37c.15-.04.31-.06.48-.06h.2v1.4Zm1.11 2.25c.2.17.42.32.7.44.26.13.53.19.8.19.2 0 .36-.04.47-.11.12-.08.17-.18.17-.3 0-.2-.22-.36-.66-.48l-.38-.1a4.02 4.02 0 0 1-.57-.19 2.26 2.26 0 0 1-.53-.31 1.57 1.57 0 0 1-.4-.48 1.5 1.5 0 0 1-.14-.7 1.4 1.4 0 0 1 .14-.61 1.61 1.61 0 0 1 .41-.52c.18-.15.4-.27.65-.36a3.17 3.17 0 0 1 2.87.55l-.7.9a2.46 2.46 0 0 0-.6-.3 1.84 1.84 0 0 0-.67-.14.88.88 0 0 0-.5.12c-.11.07-.17.16-.17.27 0 .11.05.2.15.28.1.07.26.13.45.18l.57.16c.54.15.93.36 1.16.62.24.26.35.6.35.99a1.52 1.52 0 0 1-.53 1.16c-.18.16-.4.28-.66.38a2.77 2.77 0 0 1-.89.13 3.56 3.56 0 0 1-1.34-.26 3.38 3.38 0 0 1-.5-.27 3.04 3.04 0 0 1-.4-.3l.75-.94Z"/><g clip-path="url(#b)"><path fill="#231F20" d="M28.23 43h1.41v7h-1.41v-7Zm2.73 1.77h1.35v.45a2.02 2.02 0 0 1 .53-.38 1.85 1.85 0 0 1 .8-.17c.28 0 .53.04.76.14a1.6 1.6 0 0 1 .92.95 2 2 0 0 1 .12.71V50H34.1v-3.04c0-.19-.02-.34-.07-.47a.8.8 0 0 0-.17-.31.61.61 0 0 0-.26-.18.86.86 0 0 0-.32-.06c-.14 0-.27.03-.39.08a.83.83 0 0 0-.3.22 1.02 1.02 0 0 0-.21.37 1.7 1.7 0 0 0-.07.53V50h-1.35v-5.23Zm7.54 3.67c0 .06 0 .12.03.18a.37.37 0 0 0 .08.15l.17.09a1 1 0 0 0 .3.03h.16l.18-.02c.07 0 .12-.02.17-.03l.14-.02.12 1.19a12.35 12.35 0 0 1-.78.07l-.44.02c-.46 0-.83-.1-1.09-.32-.26-.21-.39-.55-.39-1.01v-2.83h-.94v-1.17h.94v-1.48l1.35-.36v1.84h1.37v1.17H38.5v2.5Zm5.16-2.36h-.14c-.2 0-.38.02-.55.06a1.15 1.15 0 0 0-.46.21c-.13.1-.24.24-.32.42-.08.18-.12.41-.12.7V50h-1.35v-5.23h1.35v.6a1.3 1.3 0 0 1 .52-.48 1.73 1.73 0 0 1 .4-.15c.15-.04.3-.06.47-.06h.2v1.4Zm3.14-1.41a2.57 2.57 0 0 1 1.87.78c.22.24.4.53.52.86.12.33.18.7.18 1.08 0 .38-.06.74-.18 1.08a2.45 2.45 0 0 1-1.34 1.42 2.62 2.62 0 0 1-1.05.2c-.39 0-.74-.06-1.05-.2a2.45 2.45 0 0 1-1.34-1.42 3.07 3.07 0 0 1-.18-1.08c0-.39.06-.75.18-1.08.12-.33.3-.62.52-.86.23-.24.5-.43.81-.57a2.61 2.61 0 0 1 1.06-.21Zm0 4.18c.2 0 .36-.04.51-.11.15-.07.28-.17.38-.3.1-.12.17-.28.23-.45.05-.18.07-.38.07-.59v-.03a2.04 2.04 0 0 0-.07-.58 1.32 1.32 0 0 0-.24-.46c-.1-.13-.22-.23-.37-.3a1.14 1.14 0 0 0-.5-.11c-.2 0-.37.03-.52.1-.15.08-.27.18-.37.3-.1.14-.18.29-.23.47a2.04 2.04 0 0 0-.08.58v.03c0 .21.03.4.08.59.05.17.13.32.23.45a1.07 1.07 0 0 0 .88.4ZM53.62 50v-.45a1.94 1.94 0 0 1-.24.22 1.54 1.54 0 0 1-.63.28 2.17 2.17 0 0 1-2.1-.72 2.63 2.63 0 0 1-.48-.86 3.4 3.4 0 0 1-.17-1.08c0-.39.06-.75.17-1.08.11-.33.27-.62.46-.86a2.14 2.14 0 0 1 1.67-.78 1.7 1.7 0 0 1 1.32.55V43h1.35v7h-1.35Zm.04-3.1a.97.97 0 0 0-.3-.7 1 1 0 0 0-.33-.2 1.26 1.26 0 0 0-.45-.08c-.19 0-.36.03-.51.1-.15.08-.27.18-.37.3-.1.13-.18.29-.23.46a2.02 2.02 0 0 0-.08.58v.06c0 .21.03.4.08.58.05.17.13.32.23.45.1.12.22.22.37.3.15.06.32.1.51.1.17 0 .32-.03.45-.08a1 1 0 0 0 .34-.2.88.88 0 0 0 .21-.3.97.97 0 0 0 .08-.4v-.97Zm6.92 3.1h-1.35v-.45a3.13 3.13 0 0 1-.24.21 1.84 1.84 0 0 1-.3.18 1.98 1.98 0 0 1-.8.16 2.01 2.01 0 0 1-.75-.14 1.72 1.72 0 0 1-.57-.38 1.68 1.68 0 0 1-.36-.57 2 2 0 0 1-.12-.7v-3.54h1.35v3.04c0 .18.02.34.06.47.04.13.1.24.17.32a.72.72 0 0 0 .26.17c.1.04.21.06.33.06a.98.98 0 0 0 .38-.08.84.84 0 0 0 .31-.22 1.07 1.07 0 0 0 .2-.37c.06-.15.08-.33.08-.53v-2.86h1.35V50Zm2.29-2.59a2 2 0 0 0 .06.52c.05.16.12.32.21.45.1.14.22.25.36.34.15.09.33.13.54.13.13 0 .25-.02.36-.06a1.03 1.03 0 0 0 .52-.37c.07-.08.13-.18.18-.28l1.18.61c-.09.2-.2.39-.35.56a2.16 2.16 0 0 1-.52.42 2.46 2.46 0 0 1-.65.27 2.85 2.85 0 0 1-1.77-.1 2.48 2.48 0 0 1-.8-.58 2.6 2.6 0 0 1-.53-.85 3 3 0 0 1-.19-1.08c0-.39.07-.75.2-1.08.12-.33.3-.62.52-.86a2.44 2.44 0 0 1 1.82-.78c.26 0 .52.03.75.1a2.36 2.36 0 0 1 1.17.7c.15.16.26.35.35.55l-1.18.61a1.43 1.43 0 0 0-.18-.28 1 1 0 0 0-.23-.22.96.96 0 0 0-.3-.15 1.05 1.05 0 0 0-.35-.06 1.03 1.03 0 0 0-.9.47 1.47 1.47 0 0 0-.2.46 2.02 2.02 0 0 0-.08.52v.04Zm6.17 1.03c0 .06 0 .12.02.18a.37.37 0 0 0 .08.15l.18.09a1 1 0 0 0 .29.03h.16l.19-.02c.06 0 .12-.02.17-.03l.14-.02.12 1.19a12.39 12.39 0 0 1-.79.07l-.43.02c-.47 0-.83-.1-1.09-.32-.26-.21-.39-.55-.39-1.01v-2.83h-.94v-1.17h.94v-1.48l1.35-.36v1.84h1.37v1.17h-1.37v2.5ZM72.6 50h-1.35v-5.23h1.35V50Zm-1.5-6.6c0-.11.03-.22.07-.31a.8.8 0 0 1 .75-.5c.1 0 .21.02.31.06a.76.76 0 0 1 .26.18.76.76 0 0 1 .18.26.78.78 0 0 1 .06.3.79.79 0 0 1-.24.59.8.8 0 0 1-.26.17.78.78 0 0 1-.31.06.79.79 0 0 1-.32-.06.87.87 0 0 1-.26-.17.87.87 0 0 1-.17-.26.79.79 0 0 1-.06-.32Zm4.96 1.27a2.57 2.57 0 0 1 1.86.78c.23.24.4.53.52.86.13.33.19.7.19 1.08 0 .38-.06.74-.19 1.08a2.45 2.45 0 0 1-1.33 1.42 2.62 2.62 0 0 1-1.05.2c-.39 0-.74-.06-1.05-.2a2.45 2.45 0 0 1-1.34-1.42 3.07 3.07 0 0 1-.18-1.08c0-.39.06-.75.18-1.08A2.38 2.38 0 0 1 75 44.88a2.61 2.61 0 0 1 1.06-.21Zm0 4.18c.2 0 .36-.04.5-.11.16-.07.28-.17.38-.3.1-.12.18-.28.23-.45.06-.18.08-.38.08-.59v-.03a2.04 2.04 0 0 0-.08-.58 1.32 1.32 0 0 0-.23-.46 1.03 1.03 0 0 0-.37-.3 1.14 1.14 0 0 0-.51-.11c-.2 0-.36.03-.51.1-.15.08-.27.18-.37.3-.1.14-.18.29-.23.47a2.04 2.04 0 0 0-.08.58v.03c0 .21.02.4.08.59.05.17.13.32.23.45a1.07 1.07 0 0 0 .88.4Zm3.46-4.08h1.35v.45a2.03 2.03 0 0 1 .54-.38 1.85 1.85 0 0 1 .8-.17c.28 0 .53.04.75.14a1.6 1.6 0 0 1 .93.95 2 2 0 0 1 .12.71V50h-1.35v-3.04c0-.19-.02-.34-.06-.47a.8.8 0 0 0-.18-.31.61.61 0 0 0-.26-.18.86.86 0 0 0-.32-.06c-.14 0-.27.03-.39.08a.83.83 0 0 0-.3.22 1.02 1.02 0 0 0-.2.37 1.7 1.7 0 0 0-.08.53V50h-1.35v-5.23Z"/></g><path stroke="#2B8CC4" stroke-width="2" d="M25 54h64m-63 1v6m62.06-6v6"/><g clip-path="url(#c)"><path fill="#231F20" d="M225.34 41.9c.53 0 1 .1 1.4.28a3.25 3.25 0 0 1 1.7 1.9 4.23 4.23 0 0 1 0 2.82c-.13.45-.35.83-.64 1.15l-.07.08.61.76-1 .82-.68-.85c-.4.16-.83.24-1.31.24-.53 0-1-.1-1.41-.28a3.08 3.08 0 0 1-1.05-.77 3.42 3.42 0 0 1-.66-1.14 4.34 4.34 0 0 1-.22-1.41c0-.5.07-.97.22-1.4.15-.45.37-.83.66-1.15a3.08 3.08 0 0 1 1.05-.77 3.35 3.35 0 0 1 1.4-.28Zm0 5.92c.16 0 .3-.02.44-.05l-.79-.98 1-.82.85 1.05c.11-.17.2-.36.26-.58.08-.28.13-.59.13-.92v-.04c0-.33-.05-.63-.13-.91a2.15 2.15 0 0 0-.36-.74 1.65 1.65 0 0 0-.59-.47 1.75 1.75 0 0 0-.8-.18c-.31 0-.58.06-.82.18a1.66 1.66 0 0 0-.59.47c-.15.2-.27.45-.35.74-.08.28-.13.58-.13.9v.05c0 .33.05.64.13.92s.2.52.35.72c.16.2.36.37.6.49.23.11.5.17.8.17Zm8.74 1.18h-1.34v-.45a3.15 3.15 0 0 1-.25.21 1.82 1.82 0 0 1-.29.18 1.8 1.8 0 0 1-.36.11 2 2 0 0 1-.44.05 2 2 0 0 1-.76-.14 1.73 1.73 0 0 1-.57-.38 1.68 1.68 0 0 1-.35-.57 2 2 0 0 1-.12-.7v-3.54h1.34v3.04c0 .18.02.34.06.47.05.13.1.24.17.32a.73.73 0 0 0 .27.17c.1.04.2.06.33.06a.98.98 0 0 0 .38-.08.84.84 0 0 0 .3-.22c.1-.1.16-.22.21-.37a1.7 1.7 0 0 0 .08-.53v-2.86h1.34V49Zm2.3-2.15c.02.16.07.3.15.43a1.26 1.26 0 0 0 .7.55 1.5 1.5 0 0 0 .48.08 2.19 2.19 0 0 0 1.28-.45l.65.95a2.91 2.91 0 0 1-.9.5c-.35.12-.73.19-1.13.19-.36 0-.7-.06-1.02-.19a2.48 2.48 0 0 1-.84-.54 2.57 2.57 0 0 1-.57-.85 2.97 2.97 0 0 1-.2-1.13c0-.39.06-.74.18-1.08.12-.33.3-.62.51-.86a2.41 2.41 0 0 1 1.8-.78 2.41 2.41 0 0 1 1.74.72c.22.22.4.49.51.8.13.32.19.67.19 1.05v.61h-3.53Zm1.1-2.01c-.3 0-.54.1-.74.3a1.13 1.13 0 0 0-.35.7h2.1a.98.98 0 0 0-.3-.71.99.99 0 0 0-.72-.29Zm3.66 2.49c.2.17.42.32.69.44.27.13.54.19.81.19.2 0 .35-.04.47-.11.11-.08.17-.18.17-.3 0-.2-.22-.36-.66-.48l-.38-.1a4.01 4.01 0 0 1-.57-.19 2.26 2.26 0 0 1-.53-.31 1.57 1.57 0 0 1-.4-.48 1.5 1.5 0 0 1-.14-.7c0-.2.05-.42.14-.61.1-.2.23-.37.41-.52.18-.15.4-.27.65-.36a3.18 3.18 0 0 1 2.87.55l-.7.9a2.46 2.46 0 0 0-.6-.3 1.85 1.85 0 0 0-.67-.14.88.88 0 0 0-.5.12c-.11.07-.17.16-.17.27 0 .12.05.2.15.28.1.07.25.13.45.18l.57.16c.54.15.92.36 1.16.62.23.26.35.6.35.99a1.53 1.53 0 0 1-.54 1.17c-.17.15-.4.28-.65.37a2.78 2.78 0 0 1-.89.13 3.54 3.54 0 0 1-1.34-.26 3.3 3.3 0 0 1-.51-.27 2.88 2.88 0 0 1-.4-.3l.76-.94Zm6.37.11.03.18a.36.36 0 0 0 .08.15l.18.09a1 1 0 0 0 .28.03h.17l.19-.02a2.21 2.21 0 0 0 .17-.03l.13-.02.12 1.19a12.61 12.61 0 0 1-.78.07l-.44.02c-.46 0-.82-.1-1.08-.32-.27-.21-.4-.55-.4-1.01v-2.83h-.94v-1.17h.94v-1.48l1.35-.36v1.84h1.38v1.17h-1.38v2.5Zm3.57 1.56h-1.35v-5.23h1.35V49Zm-1.49-6.6a.82.82 0 0 1 .24-.57.83.83 0 0 1 .26-.18.79.79 0 0 1 .31-.06.78.78 0 0 1 .57.24.77.77 0 0 1 .18.26.77.77 0 0 1 .06.3c0 .12-.02.23-.06.33a.8.8 0 0 1-.43.43.78.78 0 0 1-.32.06.79.79 0 0 1-.31-.07.87.87 0 0 1-.26-.17.9.9 0 0 1-.17-.26.8.8 0 0 1-.07-.31Zm4.95 1.27c.4 0 .74.07 1.06.2a2.37 2.37 0 0 1 1.33 1.44c.12.33.18.7.18 1.08 0 .38-.06.74-.18 1.08a2.56 2.56 0 0 1-.53.85c-.22.24-.49.43-.8.57a2.62 2.62 0 0 1-1.06.2c-.38 0-.74-.06-1.05-.2a2.45 2.45 0 0 1-1.33-1.42 3.08 3.08 0 0 1-.19-1.08c0-.39.06-.75.18-1.08a2.37 2.37 0 0 1 1.33-1.43c.32-.14.68-.21 1.06-.21Zm0 4.18c.2 0 .36-.04.51-.11.15-.07.28-.17.38-.3.1-.12.17-.28.23-.45.05-.18.08-.38.08-.59v-.03c0-.21-.03-.4-.08-.58a1.32 1.32 0 0 0-.23-.46 1.03 1.03 0 0 0-.38-.3 1.15 1.15 0 0 0-.5-.11c-.2 0-.37.03-.52.1-.15.08-.27.18-.37.3-.1.14-.18.29-.23.47-.05.17-.08.37-.08.58v.03c0 .21.03.4.08.59.05.17.13.32.23.45s.22.23.37.3c.15.07.32.1.51.1Zm3.47-4.08h1.34v.45a2.02 2.02 0 0 1 .54-.38 1.86 1.86 0 0 1 .8-.17c.28 0 .53.04.76.14a1.6 1.6 0 0 1 .92.95c.08.22.12.46.12.71V49h-1.34v-3.04c0-.19-.03-.34-.07-.47a.8.8 0 0 0-.17-.31.6.6 0 0 0-.26-.18.86.86 0 0 0-.32-.06 1.02 1.02 0 0 0-.4.08.83.83 0 0 0-.3.22 1.02 1.02 0 0 0-.2.37 1.7 1.7 0 0 0-.08.53V49h-1.34v-5.23Zm5.98 3.56c.2.17.42.32.7.44.26.13.53.19.8.19.2 0 .36-.04.47-.11.11-.08.17-.18.17-.3 0-.2-.22-.36-.66-.48l-.38-.1a4.01 4.01 0 0 1-.57-.19 2.25 2.25 0 0 1-.53-.31 1.58 1.58 0 0 1-.4-.48 1.5 1.5 0 0 1-.14-.7 1.4 1.4 0 0 1 .14-.61 1.61 1.61 0 0 1 .41-.52c.18-.15.4-.27.65-.36a3.17 3.17 0 0 1 2.87.55l-.7.9a2.47 2.47 0 0 0-.6-.3 1.85 1.85 0 0 0-.67-.14.88.88 0 0 0-.5.12c-.11.07-.17.16-.17.27 0 .12.05.2.15.28.1.07.26.13.45.18l.57.16c.54.15.93.36 1.16.62.23.26.35.6.35.99a1.53 1.53 0 0 1-.54 1.17c-.17.15-.39.28-.65.37-.26.08-.56.13-.89.13a3.52 3.52 0 0 1-1.34-.26 3.3 3.3 0 0 1-.5-.27 2.96 2.96 0 0 1-.4-.3l.75-.94Z"/></g><path stroke="#2B8CC4" stroke-width="2" d="M124 54h250m-249 1v6m248-6v6"/><path fill="#fff" stroke="#0B0C0C" stroke-width="2" d="M125 70h62v94h-62z"/><path fill="#0B0C0C" d="M124 69h64v10h-64z"/><g filter="url(#d)"><path fill="#00823B" d="M131 144h26v10h-26z"/></g><path fill="#0B0C0C" d="M144 131h25v1h-25z"/><circle cx="136" cy="131" r="4.5" fill="#fff" stroke="#0B0C0C"/><path fill="#0B0C0C" d="M144 118h25v1h-25z"/><circle cx="136" cy="118" r="4.5" fill="#fff" stroke="#0B0C0C"/><path fill="#231F20" d="M134.72 84.9c.52 0 .99.1 1.4.28a3.25 3.25 0 0 1 1.7 1.9 4.23 4.23 0 0 1 0 2.82c-.14.45-.36.83-.65 1.15l-.07.08.62.76-1 .82-.69-.85c-.39.16-.82.24-1.3.24-.53 0-1-.1-1.42-.28a3.08 3.08 0 0 1-1.04-.77 3.42 3.42 0 0 1-.66-1.14 4.34 4.34 0 0 1-.23-1.41c0-.5.08-.97.23-1.4.15-.45.37-.83.66-1.15a3.08 3.08 0 0 1 1.04-.77 3.35 3.35 0 0 1 1.41-.28Zm0 5.92c.16 0 .3-.02.44-.05l-.8-.98 1.01-.82.84 1.05c.12-.17.2-.36.27-.58.08-.28.12-.59.12-.92v-.04c0-.33-.04-.63-.12-.91a2.15 2.15 0 0 0-.36-.74 1.65 1.65 0 0 0-.6-.47 1.75 1.75 0 0 0-.8-.18c-.3 0-.57.06-.81.18a1.66 1.66 0 0 0-.6.47c-.15.2-.27.45-.35.74-.08.28-.12.58-.12.9v.05c0 .33.04.64.12.92.08.28.2.52.36.72.16.2.36.37.59.49.23.11.5.17.81.17Zm8.74 1.18h-1.35v-.45a3.15 3.15 0 0 1-.24.21 1.82 1.82 0 0 1-.3.18 1.8 1.8 0 0 1-.35.11 2 2 0 0 1-.44.05 2 2 0 0 1-.76-.14 1.73 1.73 0 0 1-.57-.38 1.68 1.68 0 0 1-.35-.57 2 2 0 0 1-.13-.7v-3.54h1.35v3.04c0 .18.02.34.06.47.04.13.1.24.17.32a.73.73 0 0 0 .26.17c.1.04.21.06.33.06a.98.98 0 0 0 .38-.07.84.84 0 0 0 .31-.22c.1-.1.16-.23.21-.38a1.7 1.7 0 0 0 .07-.53v-2.86h1.35V92Zm2.3-2.15c.02.16.07.3.14.43a1.26 1.26 0 0 0 .7.55 1.5 1.5 0 0 0 .49.08 2.19 2.19 0 0 0 1.28-.45l.65.95a2.91 2.91 0 0 1-.9.5c-.36.12-.73.19-1.13.19-.37 0-.7-.06-1.02-.19a2.48 2.48 0 0 1-.84-.53 2.57 2.57 0 0 1-.57-.86 2.97 2.97 0 0 1-.2-1.13 2.7 2.7 0 0 1 .7-1.94 2.41 2.41 0 0 1 1.8-.78 2.41 2.41 0 0 1 1.73.72c.22.22.39.5.51.8.12.32.19.67.19 1.05v.61h-3.53Zm1.09-2.01c-.29 0-.54.1-.74.3a1.13 1.13 0 0 0-.34.7h2.1a.98.98 0 0 0-.3-.71.99.99 0 0 0-.72-.29Zm3.67 2.49c.19.17.42.32.68.44.27.13.54.19.82.19.2 0 .35-.04.46-.11.12-.08.17-.18.17-.3 0-.2-.21-.36-.65-.48l-.39-.1a4.01 4.01 0 0 1-.57-.19 2.24 2.24 0 0 1-.53-.31 1.57 1.57 0 0 1-.39-.48 1.5 1.5 0 0 1-.15-.7c0-.2.05-.42.15-.61.1-.2.23-.37.4-.52.18-.15.4-.27.66-.36a3.18 3.18 0 0 1 2.87.55l-.7.9a2.46 2.46 0 0 0-.6-.3 1.85 1.85 0 0 0-.68-.14.89.89 0 0 0-.49.12c-.12.07-.18.16-.18.27 0 .12.06.2.16.28.1.07.25.13.45.18l.56.16c.54.15.93.36 1.16.62.24.26.36.6.36.99a1.53 1.53 0 0 1-.54 1.17c-.18.15-.4.28-.66.37a2.78 2.78 0 0 1-.88.13 3.54 3.54 0 0 1-1.34-.26 3.3 3.3 0 0 1-.51-.27 2.88 2.88 0 0 1-.4-.3l.76-.94Zm6.37.11c0 .06 0 .12.02.18a.36.36 0 0 0 .09.15c.04.03.1.07.17.09a1 1 0 0 0 .29.03h.17l.18-.02a2.21 2.21 0 0 0 .17-.03l.14-.02.12 1.19a12.61 12.61 0 0 1-.78.07l-.44.02c-.46 0-.83-.1-1.09-.32-.26-.21-.39-.55-.39-1.01v-2.83h-.94v-1.17h.94V85.3l1.35-.36v1.84h1.37v1.17h-1.37v2.5Zm3.57 1.56h-1.35v-5.23h1.35V92Zm-1.5-6.6a.82.82 0 0 1 .24-.57.83.83 0 0 1 .26-.18.79.79 0 0 1 .32-.06.78.78 0 0 1 .57.24.77.77 0 0 1 .18.26.77.77 0 0 1 .06.3c0 .12-.02.23-.06.33a.8.8 0 0 1-.44.43.78.78 0 0 1-.31.06.79.79 0 0 1-.32-.06.87.87 0 0 1-.26-.17.9.9 0 0 1-.17-.26.8.8 0 0 1-.06-.32Zm4.96 1.27c.39 0 .74.07 1.05.2a2.37 2.37 0 0 1 1.33 1.44 3.08 3.08 0 0 1 0 2.15 2.45 2.45 0 0 1-1.33 1.43 2.62 2.62 0 0 1-1.05.2c-.39 0-.74-.06-1.05-.2a2.44 2.44 0 0 1-.82-.57 2.56 2.56 0 0 1-.52-.85 3.08 3.08 0 0 1-.18-1.08c0-.39.06-.75.18-1.08a2.37 2.37 0 0 1 1.33-1.44c.32-.13.67-.2 1.06-.2Zm0 4.18c.2 0 .36-.04.5-.11.16-.07.28-.17.38-.3.1-.13.18-.28.23-.45.06-.18.08-.38.08-.59v-.03c0-.21-.02-.4-.08-.58a1.32 1.32 0 0 0-.23-.46 1.04 1.04 0 0 0-.37-.3 1.15 1.15 0 0 0-.51-.11c-.2 0-.36.03-.51.1-.15.08-.27.18-.37.3-.1.13-.18.29-.23.47-.06.17-.08.37-.08.58v.03c0 .21.02.4.08.59.05.17.12.32.23.45s.22.23.37.3c.15.07.32.1.51.1Zm3.46-4.08h1.35v.45a2.18 2.18 0 0 1 .24-.2c.09-.07.19-.13.3-.18a1.85 1.85 0 0 1 .8-.17c.28 0 .53.04.75.14a1.6 1.6 0 0 1 .93.95c.08.22.12.46.12.71V92h-1.35v-3.04c0-.19-.02-.34-.06-.47a.8.8 0 0 0-.18-.31.6.6 0 0 0-.26-.18.86.86 0 0 0-.32-.06 1.02 1.02 0 0 0-.38.08.83.83 0 0 0-.31.22 1.02 1.02 0 0 0-.2.37 1.7 1.7 0 0 0-.08.53V92h-1.35v-5.23ZM177.2 85v7h-1.45v-4.63h-1.27V86.1h.31c.21 0 .38-.02.51-.05a.69.69 0 0 0 .31-.18.6.6 0 0 0 .16-.3c.02-.12.04-.27.04-.44V85h1.4Z"/><path fill="#fff" stroke="#0B0C0C" stroke-width="2" d="M26 71h62v94H26z"/><path fill="#0B0C0C" d="M25 70h64v10H25zm6 29h45v1H31z"/><g filter="url(#e)"><path fill="#00823B" d="M32 121h26v10H32z"/></g><path fill="#0B0C0C" d="M31 111h25v1H31zm0-6h45v1H31z"/><path fill="#231F20" d="M33.2 91.03a2.38 2.38 0 0 0 .76.58 2.5 2.5 0 0 0 1.12.26c.4 0 .7-.08.92-.25a.76.76 0 0 0 .32-.61c0-.25-.1-.44-.28-.57a2.34 2.34 0 0 0-.9-.31l-.21-.04a8.27 8.27 0 0 1-.87-.2 2.77 2.77 0 0 1-.79-.37 1.9 1.9 0 0 1-.57-.61 1.86 1.86 0 0 1-.22-.95 1.9 1.9 0 0 1 .61-1.36c.21-.2.49-.37.82-.5.34-.13.75-.2 1.23-.2.57 0 1.07.1 1.51.28.45.19.8.43 1.08.74l-.94.88a1.96 1.96 0 0 0-.74-.5c-.3-.12-.61-.18-.93-.18-.37 0-.66.07-.86.21-.2.14-.31.32-.31.55 0 .14.03.27.1.36.06.1.16.18.28.25a2 2 0 0 0 .43.15c.17.05.36.09.57.13l.11.02c.28.05.56.12.84.2.27.08.53.2.75.35.23.16.41.36.55.6.14.26.21.57.21.96 0 .35-.07.66-.22.93a2.25 2.25 0 0 1-.58.7c-.24.19-.52.33-.83.43a3.43 3.43 0 0 1-1 .14 4.96 4.96 0 0 1-.95-.09 3.78 3.78 0 0 1-.8-.25 3.85 3.85 0 0 1-.64-.36 3.16 3.16 0 0 1-.5-.43l.93-.94Zm7.57.41c0 .06 0 .12.02.18a.36.36 0 0 0 .09.14c.04.04.1.07.17.1a1 1 0 0 0 .3.03h.16l.18-.02c.06 0 .12-.02.17-.03l.14-.02.12 1.19a12.41 12.41 0 0 1-.78.07l-.44.02c-.46 0-.83-.1-1.09-.32-.26-.21-.39-.55-.39-1.01v-2.83h-.94v-1.17h.94V86.3l1.35-.36v1.84h1.37v1.17h-1.37v2.5Zm3.91-.56a.76.76 0 0 0-.4.17.45.45 0 0 0-.15.36.6.6 0 0 0 .19.44c.12.12.3.18.54.18a.8.8 0 0 0 .6-.22.78.78 0 0 0 .22-.58v-.52l-1 .17Zm1.22 1.63a2.43 2.43 0 0 1-.2.2 1.48 1.48 0 0 1-.29.19 1.91 1.91 0 0 1-.87.2c-.26 0-.5-.04-.72-.12a1.85 1.85 0 0 1-.58-.36 1.67 1.67 0 0 1-.39-.51 1.48 1.48 0 0 1-.14-.65c0-.42.13-.76.39-1.03s.62-.43 1.08-.5l1.5-.22v-.1a.73.73 0 0 0-.21-.56c-.15-.13-.38-.2-.7-.2-.14 0-.27.02-.4.05a4.66 4.66 0 0 0-.4.1 2.55 2.55 0 0 0-.35.14l-.28.13-.53-1.03c.3-.17.63-.3 1-.41a4.06 4.06 0 0 1 1.14-.16c.24 0 .48.02.73.08.24.04.47.14.67.27.2.13.36.31.49.55.13.22.19.52.19.87v2.15c0 .15.04.27.12.34.08.07.19.14.33.2l-.61.97a1.31 1.31 0 0 1-.6-.2 1.28 1.28 0 0 1-.37-.4Zm5.2-3.43h-.14c-.2 0-.38.02-.56.06a1.15 1.15 0 0 0-.46.21c-.13.1-.24.24-.32.42-.08.18-.11.41-.11.7V93h-1.35v-5.23h1.35v.6c.05-.1.12-.18.21-.26a1.73 1.73 0 0 1 .7-.37c.15-.04.3-.06.48-.06h.2v1.4Zm2.77 2.36c0 .06 0 .12.02.18a.36.36 0 0 0 .08.14c.05.04.1.07.18.1a1 1 0 0 0 .29.03h.16l.19-.02c.06 0 .12-.02.17-.03l.14-.02.12 1.19a12.41 12.41 0 0 1-.79.07l-.43.02c-.47 0-.83-.1-1.1-.32-.25-.21-.38-.55-.38-1.01v-2.83h-.95v-1.17h.95V86.3l1.34-.36v1.84h1.38v1.17h-1.38v2.5Zm5.37 3.21H57.9v-6.88h1.35v.45a1.73 1.73 0 0 1 1.32-.55 2.14 2.14 0 0 1 1.67.78c.2.24.36.53.47.86a3.4 3.4 0 0 1 0 2.16 2.62 2.62 0 0 1-.49.86 2.17 2.17 0 0 1-1.68.77 1.87 1.87 0 0 1-.76-.16 1.68 1.68 0 0 1-.29-.17 1.94 1.94 0 0 1-.24-.22v2.1Zm-.04-3.78a.95.95 0 0 0 .63.9c.14.05.29.08.45.08a1.05 1.05 0 0 0 .88-.4 1.33 1.33 0 0 0 .24-.45 2.02 2.02 0 0 0 .07-.58v-.06c0-.21-.02-.4-.07-.58a1.32 1.32 0 0 0-.23-.45c-.1-.13-.23-.23-.38-.3a1.14 1.14 0 0 0-.5-.11c-.17 0-.32.02-.46.07-.13.05-.24.12-.33.2a.92.92 0 0 0-.22.32 1.03 1.03 0 0 0-.08.39v.97Zm6.25 0a.76.76 0 0 0-.4.18.45.45 0 0 0-.15.36.6.6 0 0 0 .19.44c.12.12.3.18.54.18a.8.8 0 0 0 .6-.22.78.78 0 0 0 .22-.58v-.53l-1 .18Zm1.22 1.64a2.43 2.43 0 0 1-.2.2 1.48 1.48 0 0 1-.28.19 1.91 1.91 0 0 1-.88.2c-.26 0-.5-.04-.72-.12a1.85 1.85 0 0 1-.58-.36 1.67 1.67 0 0 1-.39-.51 1.48 1.48 0 0 1-.14-.65c0-.42.13-.76.39-1.03s.62-.43 1.08-.5l1.5-.22v-.1a.73.73 0 0 0-.21-.56c-.14-.13-.38-.2-.7-.2-.13 0-.27.02-.4.05a4.65 4.65 0 0 0-.4.1 2.55 2.55 0 0 0-.35.14l-.28.13-.53-1.03c.3-.17.63-.3 1-.41a4.06 4.06 0 0 1 1.14-.16c.24 0 .48.02.73.08.25.04.47.14.67.27.2.13.36.31.49.55.13.22.19.52.19.87v2.15c0 .15.04.27.12.34.08.07.19.14.33.2l-.61.97a1.31 1.31 0 0 1-.6-.2 1.29 1.29 0 0 1-.37-.4Zm5.44-.44a1.24 1.24 0 0 1-.51.35 1.9 1.9 0 0 1-.7.13c-.36 0-.67-.06-.94-.19a2.02 2.02 0 0 1-.7-.5 2.34 2.34 0 0 1-.42-.77 3.1 3.1 0 0 1-.15-.98c0-.35.05-.67.15-.97.1-.3.24-.56.43-.77.18-.22.42-.4.69-.52a2.26 2.26 0 0 1 1.64-.05c.22.09.39.2.5.35v-.38h1.36v5.18c0 .32-.06.6-.18.82-.12.23-.29.42-.5.57-.2.14-.45.25-.73.31a3.68 3.68 0 0 1-.88.1c-.38 0-.78-.04-1.2-.13a5.4 5.4 0 0 1-1.06-.33l.38-1.09a4.1 4.1 0 0 0 .77.25 5.2 5.2 0 0 0 .97.13c.14 0 .27-.01.4-.04a.94.94 0 0 0 .34-.14c.1-.06.19-.15.24-.25a.74.74 0 0 0 .1-.39v-.69Zm-2.03-1.94c0 .17.01.33.05.49.04.15.1.27.18.38a.91.91 0 0 0 .32.25c.13.06.3.09.48.09.36 0 .63-.12.78-.35.16-.23.24-.52.24-.86v-.04c0-.17-.02-.33-.06-.48a1.03 1.03 0 0 0-.17-.39.8.8 0 0 0-.32-.25 1.08 1.08 0 0 0-.47-.1c-.37 0-.63.12-.8.36-.15.23-.23.51-.23.86v.04Zm5.67.72a1.21 1.21 0 0 0 .44.77 1.5 1.5 0 0 0 .9.3 2.2 2.2 0 0 0 1.27-.46l.65.95a2.9 2.9 0 0 1-.9.5c-.35.12-.73.19-1.13.19-.36 0-.7-.06-1.02-.19a2.47 2.47 0 0 1-.84-.54 2.58 2.58 0 0 1-.57-.85 2.98 2.98 0 0 1-.2-1.13c0-.39.06-.75.18-1.08.12-.33.3-.62.51-.86a2.41 2.41 0 0 1 1.8-.78 2.42 2.42 0 0 1 1.74.72c.22.22.4.5.52.8.12.32.18.67.18 1.05v.61h-3.53Zm1.1-2.01c-.3 0-.54.1-.74.3a1.13 1.13 0 0 0-.35.7h2.11a.98.98 0 0 0-.3-.71.99.99 0 0 0-.73-.29Z"/><path fill="#fff" stroke="#0B0C0C" stroke-width="2" d="M410 191h62v94h-62z"/><path fill="#0B0C0C" d="M409 190h64v10h-64zm0 48-6 3.46v-6.92l6 3.46Z"/><g filter="url(#f)"><path fill="#00823B" d="M416 231h26v10h-26z"/></g><path fill="#231F20" d="M418.15 207.64V213h-1.42v-7h2l2.8 4.7V206h1.42v7h-1.56l-3.24-5.36Zm8.42.03a2.57 2.57 0 0 1 1.86.78c.23.24.4.53.52.86.12.34.19.7.19 1.08 0 .39-.07.75-.2 1.08a2.46 2.46 0 0 1-1.32 1.42 2.63 2.63 0 0 1-1.05.2c-.4 0-.74-.06-1.06-.2a2.46 2.46 0 0 1-1.33-1.42 3.06 3.06 0 0 1-.19-1.08c0-.39.06-.74.18-1.08.13-.33.3-.62.53-.86a2.37 2.37 0 0 1 .8-.57 2.6 2.6 0 0 1 1.07-.21Zm0 4.18c.19 0 .36-.04.5-.11.15-.07.28-.17.38-.3.1-.12.18-.28.23-.45.05-.18.08-.38.08-.59v-.03c0-.21-.03-.4-.08-.58a1.32 1.32 0 0 0-.23-.46 1.04 1.04 0 0 0-.38-.3 1.15 1.15 0 0 0-.5-.11c-.2 0-.37.03-.52.1-.14.08-.27.18-.37.3a1.32 1.32 0 0 0-.23.47c-.05.17-.07.37-.07.58v.03c0 .21.02.4.07.59.06.17.13.32.23.45s.23.23.37.3c.15.07.32.1.52.1Zm5.39-.4c0 .05 0 .11.02.17a.38.38 0 0 0 .08.14c.05.04.1.07.18.1a1 1 0 0 0 .29.03h.16l.19-.02c.06 0 .12-.02.17-.03l.14-.02.12 1.19a12.95 12.95 0 0 1-.79.07l-.43.02c-.47 0-.83-.1-1.09-.32-.26-.21-.4-.55-.4-1.01v-2.83h-.93v-1.17h.94v-1.48l1.35-.36v1.84h1.37v1.17h-1.37v2.5Zm-14.25 10.4c.02.16.07.3.15.43a1.28 1.28 0 0 0 .7.55c.15.05.3.08.48.08a2.1 2.1 0 0 0 .65-.11c.23-.08.44-.2.63-.34l.65.95a2.9 2.9 0 0 1-.9.5 3.34 3.34 0 0 1-1.13.19 2.79 2.79 0 0 1-1.02-.19 2.48 2.48 0 0 1-.84-.53 2.57 2.57 0 0 1-.57-.86 2.98 2.98 0 0 1-.2-1.13c0-.39.06-.74.18-1.08.12-.33.3-.62.51-.86a2.41 2.41 0 0 1 1.8-.78 2.42 2.42 0 0 1 1.74.72c.22.22.39.5.51.8.13.32.19.67.19 1.05v.61h-3.53Zm1.1-2.01c-.3 0-.54.1-.74.3a1.13 1.13 0 0 0-.35.7h2.1a.98.98 0 0 0-.3-.71.99.99 0 0 0-.72-.29Zm3.27-2.84h1.35v5.58c0 .11.03.2.09.25.07.06.17.1.3.1l.17-.02.19-.04.1 1.15-.29.04a7.4 7.4 0 0 1-.66.04 1.69 1.69 0 0 1-.52-.08 1.13 1.13 0 0 1-.4-.21 1 1 0 0 1-.24-.36 1.3 1.3 0 0 1-.1-.5V217Zm4.3 7h-1.35v-5.23h1.35V224Zm-1.5-6.6c0-.11.03-.22.07-.31a.8.8 0 0 1 1.5 0 .77.77 0 0 1 .06.3c0 .12-.02.23-.07.33a.85.85 0 0 1-.17.26.82.82 0 0 1-1.15 0 .89.89 0 0 1-.17-.26.8.8 0 0 1-.06-.32Zm5.84 5.67c-.12.15-.3.27-.51.35a1.91 1.91 0 0 1-.7.13 2.25 2.25 0 0 1-.94-.18 2.01 2.01 0 0 1-.7-.51 2.33 2.33 0 0 1-.42-.77 3.12 3.12 0 0 1-.15-.98c0-.35.05-.67.15-.97.1-.3.24-.56.43-.77.18-.22.42-.4.69-.52a2.25 2.25 0 0 1 .94-.18c.25 0 .48.04.7.13.22.09.39.2.5.35v-.38h1.36v5.18c0 .32-.06.6-.18.82-.12.23-.29.42-.5.57a2.09 2.09 0 0 1-.73.32 3.64 3.64 0 0 1-.88.1c-.38 0-.78-.05-1.2-.14a5.34 5.34 0 0 1-1.06-.33l.38-1.09a4.86 4.86 0 0 0 1.74.38c.14 0 .27-.01.4-.04a.95.95 0 0 0 .34-.14.67.67 0 0 0 .24-.25.74.74 0 0 0 .1-.39v-.69Zm-2.03-1.94c0 .17.01.33.05.49.04.15.1.28.18.38a.92.92 0 0 0 .32.25c.13.06.29.09.48.09.36 0 .63-.12.78-.35.16-.23.24-.52.24-.86v-.04c0-.17-.02-.33-.06-.48a1.03 1.03 0 0 0-.17-.39.8.8 0 0 0-.32-.25 1.07 1.07 0 0 0-.47-.1c-.37 0-.63.12-.8.36-.15.23-.23.52-.23.86v.04Zm5.89 2.87h-1.35v-5.23h1.35V224Zm-1.49-6.6a.82.82 0 0 1 .23-.57.8.8 0 0 1 .58-.24.79.79 0 0 1 .57.24.76.76 0 0 1 .18.26.77.77 0 0 1 .06.3c0 .12-.02.23-.06.33a.83.83 0 0 1-.18.26.82.82 0 0 1-1.15 0 .91.91 0 0 1-.17-.26.8.8 0 0 1-.06-.32Zm7.62 3.99c0 .39-.05.75-.17 1.08a2.6 2.6 0 0 1-.48.86c-.2.24-.45.43-.73.56a2.18 2.18 0 0 1-.95.2c-.15 0-.3 0-.42-.04a1.64 1.64 0 0 1-.63-.28 1.94 1.94 0 0 1-.24-.22v.45h-1.35v-7h1.35v2.22a1.95 1.95 0 0 1 .54-.4c.22-.1.48-.15.78-.15.35 0 .66.07.94.2.28.15.53.34.73.58.2.24.36.53.47.86.1.33.16.69.16 1.08Zm-3.66.48c0 .14.02.27.07.4a.98.98 0 0 0 .56.5c.13.05.28.08.45.08a1.05 1.05 0 0 0 .88-.4c.1-.13.18-.28.23-.45.05-.18.08-.37.08-.58v-.06c0-.21-.03-.4-.08-.58a1.32 1.32 0 0 0-.23-.45 1.05 1.05 0 0 0-.37-.3 1.15 1.15 0 0 0-.51-.11c-.17 0-.32.02-.45.07a1 1 0 0 0-.34.2.91.91 0 0 0-.29.7v.98Zm4.54-4.87h1.35v5.58c0 .11.03.2.1.25.06.06.16.1.3.1l.17-.02.18-.04.1 1.15-.28.04a7.46 7.46 0 0 1-.31.02l-.36.02c-.2 0-.36-.03-.52-.08a1.11 1.11 0 0 1-.4-.21.98.98 0 0 1-.24-.36 1.3 1.3 0 0 1-.09-.5V217Zm4.08 4.85c.02.16.07.3.14.43a1.28 1.28 0 0 0 .7.55c.16.06.32.08.5.08a2.1 2.1 0 0 0 .64-.11c.23-.08.44-.2.63-.34l.65.95a2.9 2.9 0 0 1-.9.5 3.34 3.34 0 0 1-1.13.19 2.79 2.79 0 0 1-1.02-.19 2.48 2.48 0 0 1-.84-.53 2.57 2.57 0 0 1-.57-.86 2.98 2.98 0 0 1-.2-1.13c0-.39.06-.74.18-1.08.12-.33.3-.62.51-.86a2.41 2.41 0 0 1 1.8-.78 2.42 2.42 0 0 1 1.74.72c.22.22.39.5.51.8.13.32.19.67.19 1.05v.61h-3.53Zm1.1-2.01c-.3 0-.54.1-.75.3a1.13 1.13 0 0 0-.34.7h2.1a.98.98 0 0 0-.3-.71.99.99 0 0 0-.72-.29Z"/><path fill="#fff" stroke="#0B0C0C" stroke-width="2" d="M217 69h62v94h-62z"/><path fill="#0B0C0C" d="M216 68h64v10h-64z"/><g filter="url(#g)"><path fill="#00823B" d="M223 131h26v10h-26z"/></g><path fill="#fff" stroke="#0B0C0C" d="M223.5 111.5h49v9h-49z"/><path fill="#231F20" d="M226.72 83.9c.52 0 .99.1 1.4.28a3.25 3.25 0 0 1 1.7 1.9 4.23 4.23 0 0 1 0 2.82c-.14.45-.36.83-.65 1.15l-.07.08.62.76-1 .82-.69-.85c-.39.16-.82.24-1.3.24-.53 0-1-.1-1.42-.28a3.08 3.08 0 0 1-1.04-.77 3.42 3.42 0 0 1-.66-1.14 4.34 4.34 0 0 1-.23-1.41c0-.5.08-.97.23-1.4.15-.45.37-.83.66-1.15a3.08 3.08 0 0 1 1.04-.77 3.35 3.35 0 0 1 1.41-.28Zm0 5.92c.16 0 .3-.02.44-.05l-.8-.98 1.01-.82.84 1.05c.12-.17.2-.36.27-.58.08-.28.12-.59.12-.92v-.04c0-.33-.04-.63-.12-.91a2.15 2.15 0 0 0-.36-.74 1.65 1.65 0 0 0-.6-.47 1.75 1.75 0 0 0-.8-.18c-.3 0-.57.06-.81.18a1.66 1.66 0 0 0-.6.47c-.15.2-.27.45-.35.74-.08.28-.12.58-.12.9v.05c0 .33.04.64.12.92.08.28.2.52.36.72.16.2.36.37.59.49.23.11.5.17.81.17Zm8.74 1.18h-1.35v-.45a3.15 3.15 0 0 1-.24.21 1.82 1.82 0 0 1-.3.18 1.8 1.8 0 0 1-.35.11 2 2 0 0 1-.44.05 2 2 0 0 1-.76-.14 1.73 1.73 0 0 1-.57-.38 1.68 1.68 0 0 1-.35-.57 2 2 0 0 1-.13-.7v-3.54h1.35v3.04c0 .18.02.34.06.47.04.13.1.24.17.32a.73.73 0 0 0 .26.17c.1.04.21.06.33.06a.98.98 0 0 0 .38-.07.84.84 0 0 0 .31-.22c.1-.1.16-.23.21-.38a1.7 1.7 0 0 0 .07-.53v-2.86h1.35V91Zm2.3-2.15c.02.16.07.3.14.43a1.26 1.26 0 0 0 .7.55 1.5 1.5 0 0 0 .49.08 2.19 2.19 0 0 0 1.28-.45l.65.95a2.91 2.91 0 0 1-.9.5c-.36.12-.73.19-1.13.19-.37 0-.7-.06-1.02-.19a2.48 2.48 0 0 1-.84-.53 2.57 2.57 0 0 1-.57-.86 2.97 2.97 0 0 1-.2-1.13 2.7 2.7 0 0 1 .7-1.94 2.41 2.41 0 0 1 1.8-.78 2.41 2.41 0 0 1 1.73.72c.22.22.39.5.51.8.12.32.19.67.19 1.05v.61h-3.53Zm1.09-2.01c-.29 0-.54.1-.74.3a1.13 1.13 0 0 0-.34.7h2.1a.98.98 0 0 0-.3-.71.99.99 0 0 0-.72-.29Zm3.67 2.49c.19.17.42.32.68.44.27.13.54.19.82.19.2 0 .35-.04.46-.11.12-.08.17-.18.17-.3 0-.2-.21-.36-.65-.48l-.39-.1a4.01 4.01 0 0 1-.57-.19 2.24 2.24 0 0 1-.53-.31 1.57 1.57 0 0 1-.39-.48 1.5 1.5 0 0 1-.15-.7c0-.2.05-.42.15-.61.1-.2.23-.37.4-.52.18-.15.4-.27.66-.36a3.18 3.18 0 0 1 2.87.55l-.7.9a2.46 2.46 0 0 0-.6-.3 1.85 1.85 0 0 0-.68-.14.89.89 0 0 0-.49.12c-.12.07-.18.16-.18.27 0 .12.06.2.16.28.1.07.25.13.45.18l.56.16c.54.15.93.36 1.16.62.24.26.36.6.36.99a1.53 1.53 0 0 1-.54 1.17c-.18.15-.4.28-.66.37a2.78 2.78 0 0 1-.88.13 3.54 3.54 0 0 1-1.34-.26 3.3 3.3 0 0 1-.51-.27 2.88 2.88 0 0 1-.4-.3l.76-.94Zm6.37.11c0 .06 0 .12.02.18a.36.36 0 0 0 .09.15c.04.03.1.07.17.09a1 1 0 0 0 .29.03h.17l.18-.02a2.21 2.21 0 0 0 .17-.03l.14-.02.12 1.19a12.61 12.61 0 0 1-.78.07l-.44.02c-.46 0-.83-.1-1.09-.32-.26-.21-.39-.55-.39-1.01v-2.83h-.94v-1.17h.94V84.3l1.35-.36v1.84h1.37v1.17h-1.37v2.5Zm3.57 1.56h-1.35v-5.23h1.35V91Zm-1.5-6.6a.82.82 0 0 1 .24-.57.83.83 0 0 1 .26-.18.79.79 0 0 1 .32-.06.78.78 0 0 1 .57.24.77.77 0 0 1 .18.26.77.77 0 0 1 .06.3c0 .12-.02.23-.06.33a.8.8 0 0 1-.44.43.78.78 0 0 1-.31.06.79.79 0 0 1-.32-.06.87.87 0 0 1-.26-.17.9.9 0 0 1-.17-.26.8.8 0 0 1-.06-.32Zm4.96 1.27c.39 0 .74.07 1.05.2a2.37 2.37 0 0 1 1.33 1.44 3.08 3.08 0 0 1 0 2.15 2.45 2.45 0 0 1-1.33 1.43 2.62 2.62 0 0 1-1.05.2c-.39 0-.74-.06-1.06-.2a2.44 2.44 0 0 1-.8-.57 2.56 2.56 0 0 1-.53-.85 3.08 3.08 0 0 1-.18-1.08c0-.39.06-.75.18-1.08a2.37 2.37 0 0 1 1.33-1.44c.32-.13.67-.2 1.06-.2Zm0 4.18c.2 0 .36-.04.5-.11.16-.07.28-.17.38-.3.1-.13.18-.28.23-.45.05-.18.08-.38.08-.59v-.03c0-.21-.03-.4-.08-.58a1.32 1.32 0 0 0-.23-.46 1.04 1.04 0 0 0-.37-.3 1.15 1.15 0 0 0-.51-.11c-.2 0-.36.03-.51.1-.15.08-.27.18-.37.3-.1.13-.18.29-.23.47-.06.17-.08.37-.08.58v.03c0 .21.02.4.08.59.05.17.12.32.23.45s.22.23.37.3c.15.07.32.1.51.1Zm3.46-4.08h1.35v.45a2.18 2.18 0 0 1 .24-.2c.09-.07.19-.13.3-.18a1.85 1.85 0 0 1 .8-.17c.28 0 .53.04.75.14a1.6 1.6 0 0 1 .93.95c.08.22.12.46.12.71V91h-1.35v-3.04c0-.19-.02-.34-.06-.47a.8.8 0 0 0-.18-.31.6.6 0 0 0-.26-.18.86.86 0 0 0-.32-.06 1.02 1.02 0 0 0-.38.08.83.83 0 0 0-.31.22 1.02 1.02 0 0 0-.2.37 1.7 1.7 0 0 0-.08.53V91h-1.35v-5.23Zm9.8-.56c-.2 0-.37.03-.51.1a.97.97 0 0 0-.36.25c-.1.11-.16.24-.2.4a1.59 1.59 0 0 0-.08.47l-1.45-.13c0-.39.08-.73.2-1.02a2.32 2.32 0 0 1 1.36-1.22 3.2 3.2 0 0 1 2.1.02 2.13 2.13 0 0 1 1.35 1.23 2.52 2.52 0 0 1-.04 2.03c-.14.33-.34.63-.6.92-.25.28-.53.53-.86.77-.33.23-.66.44-1 .62l-.14.07h2.92V91h-5.1v-1.27a23.04 23.04 0 0 0 1.6-.97c.26-.18.5-.36.74-.55.23-.2.43-.4.6-.6a2.93 2.93 0 0 0 .4-.64 1.63 1.63 0 0 0 .16-.68 1.18 1.18 0 0 0-.07-.4 1 1 0 0 0-.54-.59 1.16 1.16 0 0 0-.49-.1Z"/><path fill="#fff" stroke="#0B0C0C" stroke-width="2" d="M410 69h62v94h-62z"/><path fill="#0B0C0C" d="M409 68h64v10h-64z"/><g filter="url(#h)"><path fill="#00823B" d="M416 100h26v10h-26z"/></g><path fill="#231F20" d="M416.73 84h4.72v1.28h-3.3v1.5h3.04v1.27h-3.04v1.67h3.49V91h-4.9v-7Zm5.86 0h1.35v5.58c0 .1.03.2.09.25.06.06.17.1.3.1l.17-.02.19-.04.1 1.15a5.6 5.6 0 0 1-.6.06l-.35.02c-.2 0-.37-.03-.52-.08a1.13 1.13 0 0 1-.4-.21.97.97 0 0 1-.24-.36 1.3 1.3 0 0 1-.1-.5V84Zm4.3 7h-1.35v-5.23h1.34V91Zm-1.5-6.6c0-.11.03-.22.07-.31a.79.79 0 0 1 .43-.44.78.78 0 0 1 .32-.06.78.78 0 0 1 .57.24.76.76 0 0 1 .17.26.8.8 0 0 1-.17.88.8.8 0 0 1-.26.17.78.78 0 0 1-.31.07.79.79 0 0 1-.32-.07.87.87 0 0 1-.26-.17.86.86 0 0 1-.17-.26.8.8 0 0 1-.06-.31Zm5.84 5.67c-.13.15-.3.27-.51.35a1.9 1.9 0 0 1-.7.13c-.36 0-.67-.06-.94-.18a2.02 2.02 0 0 1-.7-.51 2.33 2.33 0 0 1-.43-.77 3.1 3.1 0 0 1-.14-.98c0-.35.05-.67.14-.97.1-.3.25-.56.43-.77a2 2 0 0 1 .7-.52 2.27 2.27 0 0 1 1.64-.05c.22.09.38.2.5.35v-.38h1.36v5.18c0 .32-.06.6-.18.82a1.54 1.54 0 0 1-.5.57 2.07 2.07 0 0 1-.73.31 3.68 3.68 0 0 1-.88.1c-.38 0-.78-.04-1.2-.13a5.41 5.41 0 0 1-1.06-.33l.38-1.09a4.24 4.24 0 0 0 .76.25 5.2 5.2 0 0 0 .98.13c.14 0 .27-.01.4-.04a.95.95 0 0 0 .34-.14c.1-.06.18-.15.24-.25a.74.74 0 0 0 .1-.39v-.69Zm-2.04-1.94c0 .17.02.33.06.49.04.15.1.27.18.38a.9.9 0 0 0 .32.25c.13.06.29.09.47.09.37 0 .63-.12.79-.35.16-.23.23-.52.23-.86v-.04c0-.17-.01-.33-.05-.48a1.02 1.02 0 0 0-.17-.39.81.81 0 0 0-.32-.25 1.08 1.08 0 0 0-.48-.1c-.36 0-.63.12-.79.36-.16.23-.24.51-.24.86v.04Zm5.9 2.87h-1.35v-5.23h1.35V91Zm-1.5-6.6c0-.11.03-.22.07-.31a.79.79 0 0 1 .43-.44.78.78 0 0 1 .32-.06c.1 0 .21.02.31.06a.75.75 0 0 1 .26.18.76.76 0 0 1 .17.26.77.77 0 0 1 .07.3c0 .12-.02.23-.07.33a.82.82 0 0 1-.43.43.78.78 0 0 1-.31.06.79.79 0 0 1-.32-.06.87.87 0 0 1-.26-.17.86.86 0 0 1-.17-.26.8.8 0 0 1-.06-.32Zm7.63 3.99c0 .38-.06.74-.17 1.08a2.63 2.63 0 0 1-.48.86 2.17 2.17 0 0 1-1.68.77 1.87 1.87 0 0 1-.77-.16 1.69 1.69 0 0 1-.28-.17 1.89 1.89 0 0 1-.24-.22V91h-1.35v-7h1.35v2.22a1.72 1.72 0 0 1 1.32-.55 2.14 2.14 0 0 1 1.67.78c.2.24.35.53.46.86.11.33.17.69.17 1.08Zm-3.66.48c0 .14.02.27.07.4.05.1.13.21.22.3a1 1 0 0 0 .34.2c.13.05.28.08.45.08a1.06 1.06 0 0 0 .88-.4c.1-.13.18-.28.23-.45.05-.18.08-.37.08-.58v-.06c0-.21-.03-.4-.08-.58a1.34 1.34 0 0 0-.23-.45 1.04 1.04 0 0 0-.37-.3 1.15 1.15 0 0 0-.51-.11c-.17 0-.32.02-.45.07a1 1 0 0 0-.34.2.91.91 0 0 0-.3.7v.98ZM442.1 84h1.35v5.58c0 .1.03.2.09.25.06.06.17.1.3.1l.17-.02.19-.04.1 1.15a5.68 5.68 0 0 1-.6.06l-.35.02c-.2 0-.37-.03-.52-.08a1.12 1.12 0 0 1-.4-.21.97.97 0 0 1-.24-.36 1.3 1.3 0 0 1-.1-.5V84Zm4.08 4.85c.02.16.07.3.14.43a1.26 1.26 0 0 0 .7.55 1.5 1.5 0 0 0 .49.08 2.2 2.2 0 0 0 1.28-.45l.65.95a2.91 2.91 0 0 1-.9.5c-.36.12-.73.19-1.13.19-.36 0-.7-.06-1.02-.19a2.48 2.48 0 0 1-.84-.54 2.58 2.58 0 0 1-.57-.85 2.99 2.99 0 0 1-.2-1.13c0-.39.06-.75.18-1.08.12-.33.29-.62.5-.86a2.41 2.41 0 0 1 1.81-.78 2.41 2.41 0 0 1 1.74.72c.22.22.39.5.51.8.12.32.19.67.19 1.05v.61h-3.53Zm1.09-2.01c-.29 0-.54.1-.74.3a1.13 1.13 0 0 0-.34.7h2.1a.98.98 0 0 0-.3-.71.99.99 0 0 0-.72-.29ZM467 41h2.7c.43 0 .8.06 1.11.18.32.12.59.28.8.48a2.07 2.07 0 0 1 .66 1.52c0 .23-.04.45-.11.66a2.02 2.02 0 0 1-1.26 1.28l1.54 2.88h-1.63l-1.27-2.52h-1.13V48H467v-7Zm3.79 2.23a.98.98 0 0 0-.08-.4.8.8 0 0 0-.23-.3 1.06 1.06 0 0 0-.38-.2 1.75 1.75 0 0 0-.53-.08h-1.15v1.97h1.15c.2 0 .38-.02.53-.07.15-.06.28-.13.38-.21a.84.84 0 0 0 .23-.32.97.97 0 0 0 .08-.39Zm3.42 2.62c.02.16.07.3.14.43a1.28 1.28 0 0 0 .7.55 1.5 1.5 0 0 0 .49.08 2.19 2.19 0 0 0 1.28-.45l.65.95a2.91 2.91 0 0 1-.9.5c-.36.12-.73.19-1.13.19-.36 0-.7-.06-1.02-.19a2.48 2.48 0 0 1-.84-.54 2.57 2.57 0 0 1-.57-.85 2.97 2.97 0 0 1-.2-1.13c0-.39.06-.74.18-1.08.12-.33.29-.62.5-.86a2.41 2.41 0 0 1 1.82-.78 2.41 2.41 0 0 1 1.73.72c.22.22.39.49.51.8.12.32.19.67.19 1.05v.61h-3.53Zm1.09-2.01c-.29 0-.54.1-.74.3a1.13 1.13 0 0 0-.34.7h2.1a.98.98 0 0 0-.3-.71.99.99 0 0 0-.72-.29Zm3.67 2.49c.19.17.42.32.68.44.27.13.54.19.82.19.2 0 .35-.04.46-.11.12-.08.17-.18.17-.3 0-.2-.21-.36-.65-.48l-.39-.1a4.01 4.01 0 0 1-.57-.19 2.26 2.26 0 0 1-.53-.31 1.57 1.57 0 0 1-.39-.48 1.5 1.5 0 0 1-.15-.7c0-.2.05-.42.15-.61.1-.2.23-.37.4-.52.18-.15.4-.27.66-.36a3.18 3.18 0 0 1 2.87.55l-.7.9a2.46 2.46 0 0 0-.6-.3 1.85 1.85 0 0 0-.68-.14.88.88 0 0 0-.49.12c-.12.07-.17.16-.17.27 0 .12.05.2.15.28.1.07.25.13.45.18l.56.16c.54.15.93.36 1.16.62.24.26.36.6.36.99a1.53 1.53 0 0 1-.54 1.17c-.18.15-.4.28-.66.37a2.78 2.78 0 0 1-.88.13 3.54 3.54 0 0 1-1.34-.26 3.3 3.3 0 0 1-.52-.27 2.88 2.88 0 0 1-.39-.3l.76-.94Zm8.89 1.67h-1.35v-.45a3.17 3.17 0 0 1-.24.21 1.78 1.78 0 0 1-.3.18 1.98 1.98 0 0 1-.8.16c-.28 0-.53-.05-.75-.14a1.72 1.72 0 0 1-.58-.38 1.68 1.68 0 0 1-.35-.57 2.02 2.02 0 0 1-.12-.7v-3.54h1.35v3.04c0 .18.02.34.06.47.04.13.1.24.17.32a.72.72 0 0 0 .26.17c.1.04.21.06.33.06a.98.98 0 0 0 .38-.08.84.84 0 0 0 .31-.22c.09-.1.16-.22.2-.37a1.7 1.7 0 0 0 .08-.53v-2.86h1.35V48Zm1.15-7h1.34v5.58c0 .1.03.2.1.25.06.06.16.1.3.1l.17-.02.18-.04.11 1.15-.29.04a5.07 5.07 0 0 1-1.18-.04 1.12 1.12 0 0 1-.4-.21.97.97 0 0 1-.25-.36 1.3 1.3 0 0 1-.08-.5V41Zm4.67 5.44c0 .06 0 .12.02.18a.36.36 0 0 0 .09.15l.17.09a1 1 0 0 0 .29.03h.17l.18-.02c.06 0 .12-.02.17-.03l.14-.02.12 1.19a12.61 12.61 0 0 1-.78.07l-.44.02c-.46 0-.83-.1-1.09-.32-.26-.21-.39-.55-.39-1.01v-2.83h-.94v-1.17h.94v-1.48l1.35-.36v1.84h1.37v1.17h-1.37v2.5Zm2.6-.11c.18.17.41.32.68.44.27.13.54.19.81.19.2 0 .36-.04.47-.11.11-.08.17-.18.17-.3 0-.2-.22-.36-.66-.48l-.38-.1a4.01 4.01 0 0 1-.57-.19 2.27 2.27 0 0 1-.53-.31 1.58 1.58 0 0 1-.4-.48 1.5 1.5 0 0 1-.14-.7c0-.2.05-.42.14-.61.1-.2.24-.37.41-.52.18-.15.4-.27.65-.36a2.58 2.58 0 0 1 .85-.13 3.18 3.18 0 0 1 2.02.68l-.7.9a2.45 2.45 0 0 0-.6-.3 1.85 1.85 0 0 0-.67-.14.88.88 0 0 0-.5.12c-.11.07-.17.16-.17.27 0 .12.05.2.15.28.1.07.26.13.45.18l.57.16c.54.15.93.36 1.16.62.23.26.35.6.35.99a1.53 1.53 0 0 1-.54 1.17 1.93 1.93 0 0 1-.65.37c-.26.08-.56.13-.89.13a3.52 3.52 0 0 1-1.34-.26 3.3 3.3 0 0 1-.51-.27 2.96 2.96 0 0 1-.4-.3l.76-.94Z"/><path stroke="#2B8CC4" stroke-width="2" d="M409 54h154m-153 1v6m152-6v6"/><path fill="#0B0C0C" d="M89.52 119.5a.5.5 0 0 0 0-1v1Zm4.13-1a.5.5 0 0 0 0 1v-1Zm1.03 1a.5.5 0 0 0 0-1v1Zm4.14-1a.5.5 0 0 0 0 1v-1Zm1.03 1a.5.5 0 0 0 0-1v1Zm4.13-1a.5.5 0 0 0 0 1v-1Zm1.04 1a.5.5 0 0 0 0-1v1Zm4.13-1a.5.5 0 0 0 0 1v-1Zm1.03 1a.5.5 0 0 0 0-1v1Zm4.14-1a.5.5 0 0 0 0 1v-1Zm1.03 1a.5.5 0 0 0 0-1v1Zm4.13-1a.5.5 0 0 0 0 1v-1Zm-30.48 1h.52v-1H89v1Zm4.65 0h1.03v-1h-1.03v1Zm5.17 0h1.03v-1h-1.03v1Zm5.16 0h1.04v-1h-1.04v1Zm5.17 0h1.03v-1h-1.03v1Zm5.17 0h1.03v-1h-1.03v1Zm5.16 0h.52v-1h-.52v1ZM189 118a.5.5 0 0 0 0 1v-1Zm.46 1a.5.5 0 0 0 0-1v1Zm3.68-1a.5.5 0 0 0 0 1v-1Zm.92 1a.5.5 0 0 0 0-1v1Zm3.68-1a.5.5 0 0 0 0 1v-1Zm.92 1a.5.5 0 0 0 0-1v1Zm3.68-1a.5.5 0 0 0 0 1v-1Zm.92 1a.5.5 0 0 0 0-1v1Zm3.68-1a.5.5 0 0 0 0 1v-1Zm.92 1a.5.5 0 0 0 0-1v1Zm3.68-1a.5.5 0 0 0 0 1v-1ZM189 119h.46v-1H189v1Zm4.14 0h.92v-1h-.92v1Zm4.6 0h.92v-1h-.92v1Zm4.6 0h.92v-1h-.92v1Zm4.6 0h.92v-1h-.92v1Zm4.6 0h.46v-1h-.46v1Zm68.46-1a.5.5 0 0 0 0 1v-1Zm.54 1a.5.5 0 0 0 0-1v1Zm4.32-1a.5.5 0 0 0 0 1v-1Zm1.08 1a.5.5 0 0 0 0-1v1Zm4.32-1a.5.5 0 0 0 0 1v-1Zm1.08 1a.5.5 0 0 0 0-1v1Zm4.32-1a.5.5 0 0 0 0 1v-1Zm1.08 1a.5.5 0 0 0 0-1v1Zm4.32-1a.5.5 0 0 0 0 1v-1Zm1.08 1a.5.5 0 0 0 0-1v1Zm4.32-1a.5.5 0 0 0 0 1v-1ZM280 119h.54v-1H280v1Zm4.86 0h1.08v-1h-1.08v1Zm5.4 0h1.08v-1h-1.08v1Zm5.4 0h1.08v-1h-1.08v1Zm5.4 0h1.08v-1h-1.08v1Zm5.4 0h.54v-1h-.54v1Zm67.54-.5a.5.5 0 0 0 0 1v-1Zm.53 1a.5.5 0 0 0 0-1v1Zm4.27-1a.5.5 0 0 0 0 1v-1Zm1.07 1a.5.5 0 0 0 0-1v1Zm4.26-1a.5.5 0 0 0 0 1v-1Zm1.07 1a.5.5 0 0 0 0-1v1Zm4.27-1a.5.5 0 0 0 0 1v-1Zm1.06 1a.5.5 0 0 0 0-1v1Zm4.27-1a.5.5 0 0 0 0 1v-1Zm1.07 1a.5.5 0 0 0 0-1v1Zm4.26-1a.5.5 0 0 0 0 1v-1Zm1.07 1a.5.5 0 0 0 0-1v1Zm4.27-1a.5.5 0 0 0 0 1v-1Zm-31.47 1h.53v-1H374v1Zm4.8 0h1.07v-1h-1.07v1Zm5.33 0h1.07v-1h-1.07v1Zm5.34 0h1.06v-1h-1.06v1Zm5.33 0h1.07v-1h-1.07v1Zm5.33 0h1.07v-1h-1.07v1Zm5.34 0h.53v-1h-.53v1ZM473 118a.5.5 0 0 0 0 1v-1Zm.54 1a.5.5 0 0 0 0-1v1Zm4.32-1a.5.5 0 0 0 0 1v-1Zm1.08 1a.5.5 0 0 0 0-1v1Zm4.32-1a.5.5 0 0 0 0 1v-1Zm1.08 1a.5.5 0 0 0 0-1v1Zm4.32-1a.5.5 0 0 0 0 1v-1Zm1.08 1a.5.5 0 0 0 0-1v1Zm4.32-1a.5.5 0 0 0 0 1v-1Zm1.08 1a.5.5 0 0 0 0-1v1Zm4.32-1a.5.5 0 0 0 0 1v-1ZM473 119h.54v-1H473v1Zm4.86 0h1.08v-1h-1.08v1Zm5.4 0h1.08v-1h-1.08v1Zm5.4 0h1.08v-1h-1.08v1Zm5.4 0h1.08v-1h-1.08v1Zm5.4 0h.54v-1h-.54v1Z"/><path fill="#0B0C0C" d="m216 118-6 3.46v-6.92l6 3.46Zm95 1-6 3.46v-6.92l6 3.46Zm-187 0-6 3.46v-6.92l6 3.46Zm374 0-6 3.46v-6.92l6 3.46Z"/><defs><filter id="a" width="26" height="10" x="317" y="142" color-interpolation-filters="sRGB" filterUnits="userSpaceOnUse"><feFlood flood-opacity="0" result="BackgroundImageFix"/><feBlend in="SourceGraphic" in2="BackgroundImageFix" result="shape"/><feColorMatrix in="SourceAlpha" result="hardAlpha" values="0 0 0 0 0 0 0 0 0 0 0 0 0 0 0 0 0 0 127 0"/><feOffset dy="-1"/><feComposite in2="hardAlpha" k2="-1" k3="1" operator="arithmetic"/><feColorMatrix values="0 0 0 0 0 0 0 0 0 0.392157 0 0 0 0 0.207843 0 0 0 1 0"/><feBlend in2="shape" result="effect1_innerShadow_1_516"/></filter><filter id="d" width="26" height="10" x="131" y="144" color-interpolation-filters="sRGB" filterUnits="userSpaceOnUse"><feFlood flood-opacity="0" result="BackgroundImageFix"/><feBlend in="SourceGraphic" in2="BackgroundImageFix" result="shape"/><feColorMatrix in="SourceAlpha" result="hardAlpha" values="0 0 0 0 0 0 0 0 0 0 0 0 0 0 0 0 0 0 127 0"/><feOffset dy="-1"/><feComposite in2="hardAlpha" k2="-1" k3="1" operator="arithmetic"/><feColorMatrix values="0 0 0 0 0 0 0 0 0 0.392157 0 0 0 0 0.207843 0 0 0 1 0"/><feBlend in2="shape" result="effect1_innerShadow_1_516"/></filter><filter id="e" width="26" height="10" x="32" y="121" color-interpolation-filters="sRGB" filterUnits="userSpaceOnUse"><feFlood flood-opacity="0" result="BackgroundImageFix"/><feBlend in="SourceGraphic" in2="BackgroundImageFix" result="shape"/><feColorMatrix in="SourceAlpha" result="hardAlpha" values="0 0 0 0 0 0 0 0 0 0 0 0 0 0 0 0 0 0 127 0"/><feOffset dy="-1"/><feComposite in2="hardAlpha" k2="-1" k3="1" operator="arithmetic"/><feColorMatrix values="0 0 0 0 0 0 0 0 0 0.392157 0 0 0 0 0.207843 0 0 0 1 0"/><feBlend in2="shape" result="effect1_innerShadow_1_516"/></filter><filter id="f" width="26" height="10" x="416" y="231" color-interpolation-filters="sRGB" filterUnits="userSpaceOnUse"><feFlood flood-opacity="0" result="BackgroundImageFix"/><feBlend in="SourceGraphic" in2="BackgroundImageFix" result="shape"/><feColorMatrix in="SourceAlpha" result="hardAlpha" values="0 0 0 0 0 0 0 0 0 0 0 0 0 0 0 0 0 0 127 0"/><feOffset dy="-1"/><feComposite in2="hardAlpha" k2="-1" k3="1" operator="arithmetic"/><feColorMatrix values="0 0 0 0 0 0 0 0 0 0.392157 0 0 0 0 0.207843 0 0 0 1 0"/><feBlend in2="shape" result="effect1_innerShadow_1_516"/></filter><filter id="g" width="26" height="10" x="223" y="131" color-interpolation-filters="sRGB" filterUnits="userSpaceOnUse"><feFlood flood-opacity="0" result="BackgroundImageFix"/><feBlend in="SourceGraphic" in2="BackgroundImageFix" result="shape"/><feColorMatrix in="SourceAlpha" result="hardAlpha" values="0 0 0 0 0 0 0 0 0 0 0 0 0 0 0 0 0 0 127 0"/><feOffset dy="-1"/><feComposite in2="hardAlpha" k2="-1" k3="1" operator="arithmetic"/><feColorMatrix values="0 0 0 0 0 0 0 0 0 0.392157 0 0 0 0 0.207843 0 0 0 1 0"/><feBlend in2="shape" result="effect1_innerShadow_1_516"/></filter><filter id="h" width="26" height="10" x="416" y="100" color-interpolation-filters="sRGB" filterUnits="userSpaceOnUse"><feFlood flood-opacity="0" result="BackgroundImageFix"/><feBlend in="SourceGraphic" in2="BackgroundImageFix" result="shape"/><feColorMatrix in="SourceAlpha" result="hardAlpha" values="0 0 0 0 0 0 0 0 0 0 0 0 0 0 0 0 0 0 127 0"/><feOffset dy="-1"/><feComposite in2="hardAlpha" k2="-1" k3="1" operator="arithmetic"/><feColorMatrix values="0 0 0 0 0 0 0 0 0 0.392157 0 0 0 0 0.207843 0 0 0 1 0"/><feBlend in2="shape" result="effect1_innerShadow_1_516"/></filter><clipPath id="b"><path fill="#fff" d="M25 42h62.06v18H25z"/></clipPath><clipPath id="c"><path fill="#fff" d="M174.12 41h141.24v18H174.12z"/></clipPath></defs></svg>