<svg id="Artwork" xmlns="http://www.w3.org/2000/svg" viewBox="0 0 894.83 324.97"><defs><style>.cls-1{fill:#0b0c0c}.cls-2{fill:#00823b}.cls-3{fill:#006435}.cls-4{fill:#505a5f}.cls-5{fill:#85994b}</style></defs><path class="cls-1" d="M6.53 4.37h1.41v7H6.53zM9.26 6.14h1.34v.45l.25-.21a2 2 0 01.29-.17 1.9 1.9 0 01.36-.12 1.52 1.52 0 01.44 0 2.06 2.06 0 01.76.14 1.73 1.73 0 01.57.38 1.65 1.65 0 01.35.57 2.08 2.08 0 01.12.71v3.53H12.4v-3a1.29 1.29 0 00-.07-.47.76.76 0 00-.17-.31.68.68 0 00-.26-.18.87.87 0 00-.32-.06 1 1 0 00-.39.08.84.84 0 00-.31.22 1.18 1.18 0 00-.2.37 1.69 1.69 0 00-.08.53v2.86H9.26zM16.8 9.81a.52.52 0 000 .18.42.42 0 00.09.14.35.35 0 00.17.1 1.12 1.12 0 00.29 0h.66l.12 1.19h-1.22a1.69 1.69 0 01-1.09-.32 1.23 1.23 0 01-.39-1V7.31h-.94V6.14h.94V4.66l1.37-.36v1.84h1.37v1.17H16.8zM22 7.45h-.14a2.38 2.38 0 00-.55.06 1.14 1.14 0 00-.46.21.91.91 0 00-.32.42 1.71 1.71 0 00-.12.69v2.54H19V6.14h1.35v.59a1 1 0 01.21-.25 1.44 1.44 0 01.31-.22 2.26 2.26 0 01.39-.15 1.86 1.86 0 01.48-.06H22zM25.1 6a2.56 2.56 0 011 .21 2.24 2.24 0 01.81.57 2.42 2.42 0 01.52.86 3.16 3.16 0 010 2.16 2.53 2.53 0 01-.52.85 2.58 2.58 0 01-3.73 0 2.53 2.53 0 01-.52-.85 3.18 3.18 0 01-.19-1.08 3 3 0 01.19-1.08 2.42 2.42 0 01.52-.86 2.24 2.24 0 01.82-.53A2.61 2.61 0 0125.1 6zm0 4.18a1.19 1.19 0 00.51-.11 1 1 0 00.37-.3 1.28 1.28 0 00.23-.45 2.21 2.21 0 00.08-.59 2.08 2.08 0 00-.08-.58A1.24 1.24 0 0026 7.7a1 1 0 00-.37-.3 1.06 1.06 0 00-.51-.11 1 1 0 00-.51.11 1 1 0 00-.38.3 1.42 1.42 0 00-.23.46 2.1 2.1 0 00-.07.58 2.22 2.22 0 00.07.59 1.47 1.47 0 00.23.45 1 1 0 00.38.3 1.16 1.16 0 00.49.14zM31.92 11.37v-.45a1.7 1.7 0 01-.24.22 1.17 1.17 0 01-.29.17 1.7 1.7 0 01-.34.12 2.72 2.72 0 01-.42 0 2.14 2.14 0 01-.95-.21 2.23 2.23 0 01-.74-.56 2.64 2.64 0 01-.47-.86 3.52 3.52 0 010-2.16 2.62 2.62 0 01.46-.86 1.93 1.93 0 01.73-.57A2.06 2.06 0 0130.6 6a1.67 1.67 0 01.78.16 1.78 1.78 0 01.54.39V4.37h1.35v7zm0-3.1a1 1 0 00-.08-.39.77.77 0 00-.22-.31.93.93 0 00-.33-.21 1.29 1.29 0 00-.45-.07 1.06 1.06 0 00-.51.11 1 1 0 00-.37.3 1.28 1.28 0 00-.23.45 2.14 2.14 0 00-.08.58v.06a2.14 2.14 0 00.08.58 1.37 1.37 0 00.23.45 1.06 1.06 0 00.37.29 1.19 1.19 0 00.51.11 1.57 1.57 0 00.45-.07.93.93 0 00.33-.21.84.84 0 00.22-.31 1 1 0 00.16-.39zM38.88 11.37h-1.35v-.45l-.25.21a1.17 1.17 0 01-.29.17 1.09 1.09 0 01-.36.12 1.88 1.88 0 01-.43.05 2.07 2.07 0 01-.77-.14 1.59 1.59 0 01-.56-.38 1.54 1.54 0 01-.36-.57 2 2 0 01-.12-.71V6.14h1.35v3a1.63 1.63 0 00.06.47.88.88 0 00.2.39.56.56 0 00.26.17.88.88 0 00.33.06 1.22 1.22 0 00.38-.07.87.87 0 00.31-.23 1 1 0 00.21-.37 2.06 2.06 0 00.04-.56V6.14h1.35zM41.16 8.78a2.22 2.22 0 00.06.51 1.62 1.62 0 00.21.46 1.2 1.2 0 00.37.34 1 1 0 00.53.13 1 1 0 00.36-.06A1 1 0 0043 10a1.2 1.2 0 00.22-.23 1.67 1.67 0 00.18-.28l1.18.61a1.82 1.82 0 01-.35.56 2.28 2.28 0 01-.51.42 2.48 2.48 0 01-.65.27 2.68 2.68 0 01-.76.1 2.45 2.45 0 01-1-.21A2.47 2.47 0 0140 9.84a3.16 3.16 0 010-2.16 2.57 2.57 0 01.52-.86 2.39 2.39 0 01.8-.57 2.45 2.45 0 011-.21 3.1 3.1 0 01.76.09 2.9 2.9 0 01.65.28 2.59 2.59 0 01.51.42 2 2 0 01.35.56l-1.2.61a1.67 1.67 0 00-.18-.28.92.92 0 00-.21-.22 1.08 1.08 0 00-.3-.16 1.36 1.36 0 00-.36 0 1 1 0 00-.53.13 1.09 1.09 0 00-.37.34 1.62 1.62 0 00-.21.46 2.31 2.31 0 00-.06.52zM47.33 9.81a1 1 0 000 .18.42.42 0 00.09.14.4.4 0 00.17.1 1.17 1.17 0 00.29 0h.66l.12 1.19h-1.22a1.7 1.7 0 01-1.09-.32 1.23 1.23 0 01-.39-1V7.31H45V6.14h1V4.66l1.35-.36v1.84h1.35v1.17h-1.37zM49.41 4.77a.87.87 0 01.06-.32.72.72 0 01.18-.25.64.64 0 01.25-.2.87.87 0 01.32 0 .81.81 0 01.31.06.68.68 0 01.26.18.88.88 0 01.18.25.88.88 0 010 .64.88.88 0 01-.18.25.81.81 0 01-.26.18.81.81 0 01-.31.06.87.87 0 01-.32-.06.76.76 0 01-.25-.18.72.72 0 01-.18-.25.87.87 0 01-.06-.36zm1.49 6.6h-1.35V6.14h1.35zM54.36 6a2.52 2.52 0 011 .21 2.24 2.24 0 01.81.57 2.59 2.59 0 01.53.86 3.18 3.18 0 01.18 1.08 3 3 0 01-.19 1.08 2.53 2.53 0 01-.52.85 2.37 2.37 0 01-.81.57 2.59 2.59 0 01-1 .21 2.54 2.54 0 01-1.87-.78 2.7 2.7 0 01-.49-.81 3.33 3.33 0 010-2.16 2.57 2.57 0 01.52-.86 2.33 2.33 0 01.81-.57A2.61 2.61 0 0154.36 6zm0 4.18a1.19 1.19 0 00.51-.11 1 1 0 00.37-.3 1.28 1.28 0 00.23-.45 1.87 1.87 0 00.08-.59 1.77 1.77 0 00-.08-.58 1.24 1.24 0 00-.23-.46 1 1 0 00-.37-.3 1.24 1.24 0 00-1 0 1 1 0 00-.37.3 1.11 1.11 0 00-.23.46 1.77 1.77 0 00-.08.58 1.87 1.87 0 00.08.59 1.13 1.13 0 00.23.45 1 1 0 00.37.3 1.19 1.19 0 00.49.15zM57.82 6.14h1.35v.45l.24-.21a2.14 2.14 0 01.3-.17 1.52 1.52 0 01.36-.12 1.45 1.45 0 01.43 0 2 2 0 01.76.14 1.63 1.63 0 01.93 1 2.08 2.08 0 01.12.71v3.53H61v-3a1.58 1.58 0 00-.06-.47.67.67 0 00-.18-.31.72.72 0 00-.25-.18.88.88 0 00-.33-.06 1 1 0 00-.38.08.84.84 0 00-.31.22 1 1 0 00-.21.37 1.7 1.7 0 00-.07.53v2.86h-1.39zM317.12 4.27a3.3 3.3 0 011.4.28 3.05 3.05 0 011.06.77 3.36 3.36 0 01.65 1.14 4.09 4.09 0 01.23 1.41 4.09 4.09 0 01-.23 1.41 3.22 3.22 0 01-.66 1.14.27.27 0 01-.07.08l.62.76-1 .82-.69-.85a3.4 3.4 0 01-1.31.24 3.3 3.3 0 01-1.4-.28 3.11 3.11 0 01-1.05-.77 3.22 3.22 0 01-.67-1.14 4.44 4.44 0 010-2.82 3.22 3.22 0 01.66-1.14 3.11 3.11 0 011.05-.77 3.3 3.3 0 011.41-.28zm0 5.92a3 3 0 00.44 0l-.79-1 1-.82.85 1.05a2.37 2.37 0 00.26-.58 3.36 3.36 0 00.12-.92 3.41 3.41 0 00-.12-.92 2.17 2.17 0 00-.36-.73 1.84 1.84 0 00-.59-.48 1.86 1.86 0 00-.81-.17 1.92 1.92 0 00-.81.17 1.84 1.84 0 00-.59.48 2.37 2.37 0 00-.36.73 3.41 3.41 0 00-.12.92 3.36 3.36 0 00.12.92 2.21 2.21 0 00.36.72 1.74 1.74 0 00.59.49 1.92 1.92 0 00.81.14zM325.86 11.37h-1.35v-.45l-.24.21a1.69 1.69 0 01-.29.17 1.09 1.09 0 01-.36.12 2 2 0 01-.44.05 2 2 0 01-.76-.14 1.63 1.63 0 01-.57-.38 1.65 1.65 0 01-.35-.57 1.83 1.83 0 01-.13-.71V6.14h1.35v3a1.63 1.63 0 00.06.47.88.88 0 00.22.39.59.59 0 00.27.17.87.87 0 00.32.06 1.23 1.23 0 00.39-.07 1 1 0 00.31-.23 1.18 1.18 0 00.2-.37 1.7 1.7 0 00.07-.53V6.14h1.35zM328.15 9.22a1.05 1.05 0 00.15.43 1.19 1.19 0 00.29.34 1.34 1.34 0 00.41.22 1.53 1.53 0 00.49.08 1.94 1.94 0 00.64-.12 2.16 2.16 0 00.64-.33l.65.94a3 3 0 01-.9.5 3.53 3.53 0 01-1.13.19 2.7 2.7 0 01-1-.19 2.32 2.32 0 01-.83-.53 2.59 2.59 0 01-.57-.86 2.88 2.88 0 01-.21-1.13 3.18 3.18 0 01.18-1.08 2.75 2.75 0 01.52-.86 2.26 2.26 0 01.79-.57 2.37 2.37 0 011-.21 2.41 2.41 0 011.74.71 2.37 2.37 0 01.51.82 2.87 2.87 0 01.19 1v.61zm1.1-2a1 1 0 00-.74.29 1.12 1.12 0 00-.35.7h2.11a1 1 0 00-.3-.7 1 1 0 00-.72-.3zM332.91 9.7a2.63 2.63 0 00.69.44 1.85 1.85 0 00.81.19.88.88 0 00.47-.11.36.36 0 00.17-.3q0-.3-.66-.48l-.38-.1a4.23 4.23 0 01-.57-.19 2.17 2.17 0 01-.53-.31 1.53 1.53 0 01-.39-.48 1.47 1.47 0 01-.15-.69 1.44 1.44 0 01.14-.62 1.72 1.72 0 01.41-.52 2.14 2.14 0 01.65-.36 2.57 2.57 0 01.85-.13 3.21 3.21 0 011.2.21 3 3 0 01.82.47l-.7.9a2.35 2.35 0 00-.59-.31 1.79 1.79 0 00-.68-.13.85.85 0 00-.49.11.32.32 0 000 .56 1.61 1.61 0 00.45.18l.57.16a2.38 2.38 0 011.16.62 1.44 1.44 0 01.35 1 1.51 1.51 0 01-.13.63 1.76 1.76 0 01-.41.54 1.93 1.93 0 01-.65.36 2.72 2.72 0 01-.89.14 3.23 3.23 0 01-.71-.07 3.47 3.47 0 01-.62-.19 3.17 3.17 0 01-.52-.27 3.31 3.31 0 01-.39-.3zM339.28 9.81a1 1 0 000 .18.42.42 0 00.09.14.4.4 0 00.17.1 1.17 1.17 0 00.29 0h.66l.12 1.19h-1.22a1.7 1.7 0 01-1.09-.32 1.23 1.23 0 01-.39-1V7.31H337V6.14h.94V4.66l1.35-.36v1.84h1.37v1.17h-1.37zM341.36 4.77a.87.87 0 01.06-.32.88.88 0 01.18-.25.72.72 0 01.25-.18.88.88 0 01.64 0 .72.72 0 01.25.18.88.88 0 01.18.25.88.88 0 010 .64 1 1 0 01-.43.43.88.88 0 01-.64 0 1 1 0 01-.43-.43.87.87 0 01-.06-.32zm1.49 6.6h-1.35V6.14h1.35zM346.31 6a2.61 2.61 0 011.06.21 2.43 2.43 0 01.81.57 2.75 2.75 0 01.52.86 3.18 3.18 0 01.18 1.08 3 3 0 01-.19 1.08 2.45 2.45 0 01-1.33 1.42 2.56 2.56 0 01-1.05.21 2.52 2.52 0 01-1.05-.21 2.37 2.37 0 01-.81-.57 2.55 2.55 0 01-.53-.85 3.33 3.33 0 010-2.16 2.57 2.57 0 01.52-.86 2.43 2.43 0 01.81-.57 2.61 2.61 0 011.06-.21zm0 4.18a1.19 1.19 0 00.51-.11 1 1 0 00.37-.3 1.13 1.13 0 00.23-.45 1.87 1.87 0 00.08-.59 1.77 1.77 0 00-.08-.58 1.11 1.11 0 00-.23-.46 1 1 0 00-.37-.3 1.24 1.24 0 00-1 0 1 1 0 00-.37.3 1.24 1.24 0 00-.23.46 2.08 2.08 0 00-.08.58 2.21 2.21 0 00.08.59 1.28 1.28 0 00.23.45 1 1 0 00.37.3 1.19 1.19 0 00.49.15zM349.77 6.14h1.35v.45l.24-.21a2.14 2.14 0 01.3-.17 1.69 1.69 0 01.36-.12 1.45 1.45 0 01.43 0 2.07 2.07 0 01.77.14 1.59 1.59 0 01.56.38 1.54 1.54 0 01.36.57 2.08 2.08 0 01.12.71v3.53h-1.35v-3a1.58 1.58 0 00-.06-.47.73.73 0 00-.43-.49.88.88 0 00-.33-.06 1 1 0 00-.38.08.84.84 0 00-.31.22 1 1 0 00-.21.37 1.7 1.7 0 00-.07.53v2.86h-1.35zM355.75 9.7a3 3 0 00.69.44 1.85 1.85 0 00.81.19.88.88 0 00.47-.11.34.34 0 00.17-.3q0-.3-.66-.48l-.38-.1a4.23 4.23 0 01-.57-.19 2.17 2.17 0 01-.53-.31 1.53 1.53 0 01-.39-.48 1.47 1.47 0 01-.15-.69 1.32 1.32 0 01.15-.62 1.46 1.46 0 01.41-.52 2 2 0 01.64-.36 2.57 2.57 0 01.85-.13 3.21 3.21 0 011.2.21 3 3 0 01.82.47l-.7.9a2.19 2.19 0 00-.59-.31 1.79 1.79 0 00-.68-.13.87.87 0 00-.49.11.34.34 0 00-.18.28.32.32 0 00.16.28 1.42 1.42 0 00.44.18l.57.16a2.38 2.38 0 011.16.62 1.4 1.4 0 01.35 1 1.51 1.51 0 01-.13.63 1.72 1.72 0 01-.4.54 2.08 2.08 0 01-.66.36 2.68 2.68 0 01-.89.14 3.23 3.23 0 01-.71-.07 3.75 3.75 0 01-.62-.19 3.63 3.63 0 01-.52-.27 3.31 3.31 0 01-.39-.3zM723.48 4.37h2.71a3.06 3.06 0 011.1.18 2.49 2.49 0 01.81.48 2.08 2.08 0 01.54 2.18 2 2 0 01-.28.56 2 2 0 01-.44.43 1.83 1.83 0 01-.53.29l1.53 2.88h-1.63L726 8.85h-1.1v2.52h-1.42zm3.79 2.23a.85.85 0 00-.08-.39.84.84 0 00-.19-.31 1.22 1.22 0 00-.39-.21 1.7 1.7 0 00-.53-.07h-1.18v2h1.15a1.7 1.7 0 00.53-.07 1.22 1.22 0 00.39-.21.87.87 0 00.22-.32.85.85 0 00.08-.42zM730.69 9.22a1.22 1.22 0 00.44.77 1.41 1.41 0 00.4.22 1.62 1.62 0 00.49.08 2 2 0 00.65-.12 2.29 2.29 0 00.64-.33l.64.94a2.83 2.83 0 01-.89.5 3.59 3.59 0 01-1.14.19 2.68 2.68 0 01-1-.19 2.45 2.45 0 01-.84-.53 2.59 2.59 0 01-.57-.86 3.08 3.08 0 01-.2-1.13 3.18 3.18 0 01.18-1.08 2.55 2.55 0 01.51-.86 2.35 2.35 0 01.79-.57 2.45 2.45 0 011-.21 2.35 2.35 0 011 .19 2.18 2.18 0 01.77.52 2.55 2.55 0 01.52.82 2.87 2.87 0 01.18 1v.61zm1.09-2a1 1 0 00-.73.29 1.12 1.12 0 00-.35.7h2.11a1 1 0 00-.31-.7 1 1 0 00-.72-.3zM735.45 9.7a2.63 2.63 0 00.69.44 1.78 1.78 0 00.81.19.91.91 0 00.47-.11.36.36 0 00.17-.3q0-.3-.66-.48l-.38-.1a4.23 4.23 0 01-.57-.19 2 2 0 01-.53-.31 1.53 1.53 0 01-.39-.48 1.47 1.47 0 01-.15-.69 1.31 1.31 0 01.14-.62 1.58 1.58 0 01.41-.52 2 2 0 01.65-.36A2.53 2.53 0 01737 6a3.19 3.19 0 011.19.21 3 3 0 01.83.47l-.7.9a2.53 2.53 0 00-.59-.31 1.86 1.86 0 00-.68-.13.91.91 0 00-.5.11.35.35 0 00-.17.28.33.33 0 00.15.28 1.39 1.39 0 00.45.18l.56.16a2.42 2.42 0 011.17.62 1.44 1.44 0 01.35 1 1.52 1.52 0 01-.14.63 1.58 1.58 0 01-.4.54 1.93 1.93 0 01-.65.36 2.72 2.72 0 01-.89.14 3.32 3.32 0 01-.72-.07 3.75 3.75 0 01-.62-.19 3.05 3.05 0 01-.51-.27 2.2 2.2 0 01-.39-.3zM744.34 11.37H743v-.45l-.25.21a1.17 1.17 0 01-.29.17 1.09 1.09 0 01-.36.12 2 2 0 01-.43.05 2.07 2.07 0 01-.77-.14 1.73 1.73 0 01-.57-.38 1.65 1.65 0 01-.35-.57 2 2 0 01-.12-.71V6.14h1.35v3a1.63 1.63 0 00.06.47.75.75 0 00.17.32.56.56 0 00.26.17.88.88 0 00.33.06 1.22 1.22 0 00.38-.07.87.87 0 00.31-.23.88.88 0 00.2-.37A1.69 1.69 0 00743 9V6.14h1.35zM745.48 4.37h1.35V10a.33.33 0 00.09.25.44.44 0 00.31.09h.35l.11 1.15h-.96a2 2 0 01-.52-.07 1.24 1.24 0 01-.39-.22.9.9 0 01-.25-.36 1.28 1.28 0 01-.09-.5zM750.16 9.81a.52.52 0 000 .18.42.42 0 00.09.14.35.35 0 00.17.1 1.12 1.12 0 00.29 0h.66l.12 1.19h-1.22a1.69 1.69 0 01-1.09-.32 1.23 1.23 0 01-.39-1V7.31h-.94V6.14h.94V4.66l1.35-.36v1.84h1.37v1.17h-1.37zM752.75 9.7a2.63 2.63 0 00.69.44 1.78 1.78 0 00.81.19.91.91 0 00.47-.11.36.36 0 00.17-.3q0-.3-.66-.48l-.38-.1a4.23 4.23 0 01-.57-.19 2 2 0 01-.53-.31 1.4 1.4 0 01-.39-.48 1.47 1.47 0 01-.15-.69 1.31 1.31 0 01.14-.62 1.58 1.58 0 01.41-.52 2 2 0 01.65-.36 2.53 2.53 0 01.85-.13 3.19 3.19 0 011.19.21 3 3 0 01.83.47l-.7.9a2.53 2.53 0 00-.59-.31 1.86 1.86 0 00-.68-.13.91.91 0 00-.5.11.35.35 0 00-.17.28.33.33 0 00.15.28 1.39 1.39 0 00.45.18l.56.16a2.42 2.42 0 011.17.62 1.44 1.44 0 01.35 1 1.52 1.52 0 01-.14.63 1.58 1.58 0 01-.4.54 1.93 1.93 0 01-.65.36 2.72 2.72 0 01-.89.14 3.32 3.32 0 01-.72-.07 3.75 3.75 0 01-.62-.19 3.05 3.05 0 01-.51-.27 2.2 2.2 0 01-.39-.3zM12.23 89.42l.95-4.83h1.54l-1.57 7h-1.72l-1-5-1 5H7.61l-1.61-7h1.59l.92 4.83 1.07-4.83h1.6zM15.57 84.59h1.34v2.22l.25-.21a1.17 1.17 0 01.29-.17 1.91 1.91 0 01.36-.13 2 2 0 01.44 0 1.87 1.87 0 01.76.14 1.73 1.73 0 01.57.38 1.65 1.65 0 01.35.57 2.08 2.08 0 01.12.71v3.53h-1.34v-3a1.5 1.5 0 00-.07-.47.88.88 0 00-.17-.32.65.65 0 00-.26-.17.87.87 0 00-.32-.06 1 1 0 00-.39.08.74.74 0 00-.31.22 1 1 0 00-.2.37 1.69 1.69 0 00-.08.53v2.86h-1.34zM24.09 91.1l-.21.19a1.15 1.15 0 01-.28.19 1.88 1.88 0 01-.38.15 1.9 1.9 0 01-.5.06 1.88 1.88 0 01-.72-.13 1.65 1.65 0 01-.57-.35 1.68 1.68 0 01-.4-.52 1.5 1.5 0 01-.14-.64 1.42 1.42 0 01.39-1 1.82 1.82 0 011.08-.5l1.51-.22v-.1a.77.77 0 00-.22-.56 1 1 0 00-.7-.2 1.37 1.37 0 00-.4 0l-.39.1a2.34 2.34 0 00-.35.13l-.29.14-.52-1a4.67 4.67 0 011-.41 4 4 0 011.14-.16 3.61 3.61 0 01.73.07 1.91 1.91 0 01.67.28 1.42 1.42 0 01.49.54 1.77 1.77 0 01.19.88v2.15a.45.45 0 00.12.34 1.25 1.25 0 00.33.2l-.61 1a1.25 1.25 0 01-.59-.2 1.15 1.15 0 01-.38-.43zm-1.23-1.63a.73.73 0 00-.4.17.46.46 0 00-.15.36.58.58 0 00.19.44.73.73 0 00.54.18.82.82 0 00.61-.22.8.8 0 00.22-.58v-.53zM28.07 90a.55.55 0 000 .18.42.42 0 00.09.14.45.45 0 00.17.1 1.12 1.12 0 00.29 0H29.31l.12 1.19h-.4a2.21 2.21 0 01-.39 0h-.43a1.69 1.69 0 01-1.09-.32 1.23 1.23 0 01-.39-1v-2.76h-.94v-1.17h.94v-1.48l1.35-.36v1.84h1.37v1.17h-1.38zM32.58 92.2a.63.63 0 00.34-.08.6.6 0 00.17-.27v-.16l-1.81-5.33h1.5l1 3.61.86-3.61h1.48l-1.76 5.88a1.56 1.56 0 01-.25.5 1.24 1.24 0 01-.37.35 1.5 1.5 0 01-.47.19 2 2 0 01-.56.07H31.77l-.3-.06.25-1.1h.49zM39.15 86.26a2.69 2.69 0 011.05.2 2.4 2.4 0 01.8.54 2.75 2.75 0 01.52.86 3.18 3.18 0 01.2 1.14 2.9 2.9 0 01-.19 1.07 2.57 2.57 0 01-.52.86 2.37 2.37 0 01-.81.57 2.59 2.59 0 01-1.05.21 2.54 2.54 0 01-1.87-.78 2.75 2.75 0 01-.52-.86 3.12 3.12 0 01-.18-1.07 3.18 3.18 0 01.18-1.08 2.57 2.57 0 01.52-.86 2.36 2.36 0 01.81-.58 2.78 2.78 0 011.06-.22zm0 4.18a1.19 1.19 0 00.51-.11A1 1 0 0040 90a1.37 1.37 0 00.23-.45 1.87 1.87 0 00.08-.59 1.87 1.87 0 00-.08-.59 1.28 1.28 0 00-.23-.45 1.12 1.12 0 00-.37-.31 1.35 1.35 0 00-1 0 1.12 1.12 0 00-.37.31 1.13 1.13 0 00-.23.45A1.87 1.87 0 0038 89a1.87 1.87 0 00.08.59 1.2 1.2 0 00.23.45 1 1 0 00.37.3 1.19 1.19 0 00.47.1zM47.06 91.59h-1.35v-.45l-.24.21-.29.17a1.9 1.9 0 01-.36.12 2 2 0 01-.44 0 2 2 0 01-.76-.14 1.54 1.54 0 01-.57-.38 1.68 1.68 0 01-.36-.57 2.08 2.08 0 01-.12-.71v-3.48h1.35v3a1.63 1.63 0 00.06.47.88.88 0 00.17.32.73.73 0 00.26.17.88.88 0 00.33.06.92.92 0 00.38-.08.68.68 0 00.31-.22 1 1 0 00.21-.37 1.7 1.7 0 00.07-.53v-2.82h1.35zM49.05 84.49a.91.91 0 01.41.09 1 1 0 01.32.24 1.33 1.33 0 01.2.35 1.56 1.56 0 01.07.44 2.08 2.08 0 01-.08.54 1.55 1.55 0 01-.28.52 1.39 1.39 0 01-.5.42 1.94 1.94 0 01-.79.23l-.17-.51h.14a1.66 1.66 0 00.42-.17 1.34 1.34 0 00.26-.19 1.05 1.05 0 00.14-.2.82.82 0 00.06-.19.4.4 0 01-.13.07h-.18a1 1 0 01-.3 0 .61.61 0 01-.24-.15.7.7 0 01-.17-.24.9.9 0 01-.06-.34.72.72 0 01.07-.33 1 1 0 01.19-.27.92.92 0 01.29-.17.72.72 0 01.33-.14zM51 84.59h1.35v5.57a.33.33 0 00.1.26.41.41 0 00.3.09h.35l.11 1.15h-.96a1.6 1.6 0 01-.51-.08.94.94 0 01-.65-.57 1.31 1.31 0 01-.09-.5zM54 84.59h1.35v5.57a.33.33 0 00.1.26.41.41 0 00.3.09h.35l.11 1.15h-.96a1.6 1.6 0 01-.51-.08.94.94 0 01-.65-.57 1.31 1.31 0 01-.09-.5zM63.46 89a3.49 3.49 0 01-.17 1.08 3 3 0 01-.48.86 2.23 2.23 0 01-1.69.77 2.72 2.72 0 01-.42 0 1.7 1.7 0 01-.34-.12l-.29-.17a2.5 2.5 0 01-.24-.22v.45h-1.34v-7h1.34v2.22a2.08 2.08 0 01.55-.39 1.67 1.67 0 01.78-.16 2.26 2.26 0 01.94.2 2.12 2.12 0 01.72.58 2.64 2.64 0 01.47.86 3.4 3.4 0 01.17 1.04zm-3.67.48a1 1 0 00.08.39.84.84 0 00.22.31.77.77 0 00.34.2 1.23 1.23 0 00.44.08 1.13 1.13 0 00.51-.11 1.1 1.1 0 00.38-.29 1.59 1.59 0 00.23-.45 2.15 2.15 0 00.07-.58V89a2.15 2.15 0 00-.07-.58 1.47 1.47 0 00-.23-.45 1.15 1.15 0 00-.38-.31 1.13 1.13 0 00-.51-.1 1.23 1.23 0 00-.44.07.89.89 0 00-.34.21.77.77 0 00-.22.31 1 1 0 00-.08.39zM65.48 89.44a1.46 1.46 0 00.15.43 1.37 1.37 0 00.29.34 1.78 1.78 0 00.41.22 1.57 1.57 0 00.49.08 1.94 1.94 0 00.64-.12 2.28 2.28 0 00.64-.33l.65.94a3.24 3.24 0 01-.9.5 3.53 3.53 0 01-1.13.19 2.7 2.7 0 01-1-.19 2.29 2.29 0 01-.83-.54 2.44 2.44 0 01-.57-.85 2.92 2.92 0 01-.24-1.11 3.18 3.18 0 01.18-1.08 2.75 2.75 0 01.52-.86 2.28 2.28 0 01.79-.58 2.53 2.53 0 011-.2 2.41 2.41 0 011.74.71 2.37 2.37 0 01.51.82 2.68 2.68 0 01.19 1v.61zm1.1-2a1 1 0 00-.74.29 1.17 1.17 0 00-.35.7h2.11a1 1 0 00-.3-.7 1 1 0 00-.72-.3zM7.49 100a2.24 2.24 0 00.07.51 1.62 1.62 0 00.21.46 1.2 1.2 0 00.37.34 1.06 1.06 0 00.53.13 1 1 0 00.36-.06.73.73 0 00.29-.15.8.8 0 00.23-.22 1.67 1.67 0 00.18-.28l1.18.61a2.19 2.19 0 01-.35.56 2.39 2.39 0 01-.52.42 2.23 2.23 0 01-.65.27 2.61 2.61 0 01-.75.1 2.45 2.45 0 01-1-.21 2.54 2.54 0 01-.8-.57 2.77 2.77 0 01-.53-.86A3.12 3.12 0 016.1 100a3.18 3.18 0 01.19-1.08 2.77 2.77 0 01.53-.92 2.42 2.42 0 01.8-.58 2.61 2.61 0 011-.2 3 3 0 01.75.09 2.55 2.55 0 01.65.28 2.13 2.13 0 01.52.42 2 2 0 01.35.56l-1.18.61a1.67 1.67 0 00-.18-.28 1 1 0 00-.23-.23 1.13 1.13 0 00-.3-.11 1.36 1.36 0 00-.36 0 1 1 0 00-.53.13 1.17 1.17 0 00-.37.33 1.82 1.82 0 00-.21.47 2.32 2.32 0 00-.07.52zM11.74 95.59h1.35v2.22l.24-.21a1.69 1.69 0 01.29-.17 1.91 1.91 0 01.38-.13 2 2 0 01.44 0 1.84 1.84 0 01.76.14 1.73 1.73 0 01.57.38 1.65 1.65 0 01.35.57 2.08 2.08 0 01.12.71v3.53h-1.36v-3a1.26 1.26 0 00-.07-.47.88.88 0 00-.17-.32.65.65 0 00-.26-.17.87.87 0 00-.32-.06 1 1 0 00-.39.08.81.81 0 00-.31.22 1.18 1.18 0 00-.2.37 1.7 1.7 0 00-.07.53v2.86h-1.35zM18.48 100.44a1.21 1.21 0 00.14.43 1.22 1.22 0 00.3.34 1.53 1.53 0 00.4.22 1.62 1.62 0 00.49.08 2 2 0 00.65-.12 2.36 2.36 0 00.63-.33l.65.94a3 3 0 01-.9.5 3.48 3.48 0 01-1.13.19 2.68 2.68 0 01-1-.19 2.33 2.33 0 01-.84-.54 2.44 2.44 0 01-.57-.85 2.92 2.92 0 01-.21-1.13 3.18 3.18 0 01.19-1.08 2.55 2.55 0 01.51-.86 2.28 2.28 0 01.79-.58 2.61 2.61 0 011-.2 2.38 2.38 0 011 .19 2.28 2.28 0 01.77.52 2.55 2.55 0 01.52.82 2.87 2.87 0 01.18 1v.61zm1.09-2a1.06 1.06 0 00-.74.29 1.11 1.11 0 00-.34.7h2.11a1 1 0 00-.31-.7 1 1 0 00-.72-.3zM24 100a2.24 2.24 0 00.07.51 1.62 1.62 0 00.21.46 1.2 1.2 0 00.37.34 1.06 1.06 0 00.53.13 1 1 0 00.36-.06.73.73 0 00.29-.15A1 1 0 0026 101a1.67 1.67 0 00.18-.28l1.18.61a2.19 2.19 0 01-.35.56 2.39 2.39 0 01-.52.42 2.23 2.23 0 01-.65.27 2.61 2.61 0 01-.75.1 2.45 2.45 0 01-1.82-.78 2.77 2.77 0 01-.53-.86 3.12 3.12 0 01-.19-1.07 3.18 3.18 0 01.19-1.08 2.77 2.77 0 01.53-.86 2.32 2.32 0 01.8-.58 2.61 2.61 0 011-.2 3 3 0 01.75.09 2.55 2.55 0 01.65.28 2.13 2.13 0 01.52.42 2 2 0 01.35.56l-1.18.61a1.67 1.67 0 00-.18-.28 1.25 1.25 0 00-.23-.23 1.13 1.13 0 00-.29-.15 1.36 1.36 0 00-.36 0 1 1 0 00-.53.13 1.17 1.17 0 00-.37.33 1.82 1.82 0 00-.21.47 2.32 2.32 0 00.01.52zM29.57 99.41l1.75-2H33l-1.89 2.09 1.94 3.09h-1.62l-1.3-2.13-.56.6v1.53h-1.34v-7h1.34zM33.5 96a.87.87 0 01.06-.32.76.76 0 01.43-.43.83.83 0 01.32-.06.81.81 0 01.31.06.78.78 0 01.26.17.9.9 0 01.17.26.77.77 0 010 .64.85.85 0 01-.17.25 1 1 0 01-.26.18.81.81 0 01-.31.06.83.83 0 01-.32-.06 1.2 1.2 0 01-.26-.18.85.85 0 01-.17-.25.87.87 0 01-.06-.32zm1.48 6.6h-1.34v-5.24H35zM36.15 97.36h1.34v.45l.25-.21a1.38 1.38 0 01.29-.17 1.91 1.91 0 01.36-.13 2 2 0 01.44 0 1.87 1.87 0 01.76.14 1.73 1.73 0 01.57.38 1.65 1.65 0 01.35.57 2.08 2.08 0 01.12.71v3.53h-1.34v-3a1.26 1.26 0 00-.07-.47.88.88 0 00-.17-.32.65.65 0 00-.26-.17.87.87 0 00-.32-.06 1 1 0 00-.39.08.74.74 0 00-.31.22 1 1 0 00-.2.37 1.69 1.69 0 00-.08.53v2.86h-1.34zM44.94 101.66a1.22 1.22 0 01-.51.35 1.83 1.83 0 01-.71.13 2.12 2.12 0 01-.93-.19 1.78 1.78 0 01-.69-.51 2.18 2.18 0 01-.43-.76 3.1 3.1 0 01-.15-1 3 3 0 01.15-1 2.27 2.27 0 01.43-.68 2 2 0 01.69-.51 2.27 2.27 0 01.93-.18 1.83 1.83 0 01.71.13 1.22 1.22 0 01.51.35v-.38h1.34v5.18a1.74 1.74 0 01-.18.82 1.59 1.59 0 01-.49.57 2.31 2.31 0 01-.73.32 4.16 4.16 0 01-.88.1 5.59 5.59 0 01-1.19-.14 5.67 5.67 0 01-1.07-.33l.38-1.09.34.12a3.68 3.68 0 00.43.13l.48.09a4 4 0 00.49 0 1.75 1.75 0 00.4 0 1 1 0 00.35-.13.82.82 0 00.24-.25.75.75 0 00.09-.39zm-2-1.94a1.86 1.86 0 00.06.48.83.83 0 00.18.39.76.76 0 00.31.25 1.14 1.14 0 00.48.09.87.87 0 00.78-.35 1.48 1.48 0 00.24-.86 1.86 1.86 0 00-.06-.48 1 1 0 00-.17-.39.8.8 0 00-.32-.25 1.09 1.09 0 00-.47-.09.87.87 0 00-.79.35 1.46 1.46 0 00-.24.86z"/><path class="cls-1" d="M73.18 78.83v101.36H2.53V78.83zm2-11H.53v114.36h74.65V67.83z"/><path class="cls-1" d="M5.8 111.51h30.67v1.25H5.8zM5.8 118.89h24.39v1.25H5.8zM5.8 126.27h31.6v1.25H5.8z"/><path class="cls-2" d="M5.77 134.56h18.5v8.02H5.77z"/><path class="cls-3" d="M5.77 141.78h18.5v.8H5.77z"/><path class="cls-1" d="M112.77 90.29h-2.6l-.39 1.3h-1.5l2.29-7h1.86l2.32 7h-1.58zM110.56 89h1.83l-.91-3zM118.6 90.66a1.22 1.22 0 01-.51.35 1.78 1.78 0 01-.7.13 2.16 2.16 0 01-.94-.19 1.94 1.94 0 01-.69-.51 2.18 2.18 0 01-.43-.76 3.1 3.1 0 01-.15-1 3 3 0 01.15-1 2.27 2.27 0 01.43-.78 2.21 2.21 0 01.69-.51 2.32 2.32 0 01.94-.18 1.78 1.78 0 01.7.13 1.22 1.22 0 01.51.35v-.38h1.4v5.18a1.63 1.63 0 01-.19.82 1.59 1.59 0 01-.49.57 2.31 2.31 0 01-.73.32 4.16 4.16 0 01-.88.1 5.59 5.59 0 01-1.19-.14 5.67 5.67 0 01-1.07-.33l.38-1.09.34.12a3.68 3.68 0 00.43.13l.48.09a4.22 4.22 0 00.49 0 1.75 1.75 0 00.4 0 1 1 0 00.35-.13.82.82 0 00.24-.25.75.75 0 00.09-.39zm-2-1.94a1.86 1.86 0 00.06.48.83.83 0 00.18.39.8.8 0 00.32.25 1.09 1.09 0 00.47.09.86.86 0 00.78-.35 1.48 1.48 0 00.24-.86 1.86 1.86 0 00-.06-.48 1 1 0 00-.17-.39.8.8 0 00-.32-.25 1.06 1.06 0 00-.47-.09.88.88 0 00-.79.35 1.46 1.46 0 00-.24.86zM122.24 89.44a1.21 1.21 0 00.14.43 1.22 1.22 0 00.3.34 1.53 1.53 0 00.4.22 1.57 1.57 0 00.49.08 2 2 0 00.65-.12 2.36 2.36 0 00.63-.33l.65.94a3 3 0 01-.9.5 3.48 3.48 0 01-1.13.19 2.68 2.68 0 01-1-.19 2.33 2.33 0 01-.84-.54 2.44 2.44 0 01-.57-.85 2.92 2.92 0 01-.21-1.13 3 3 0 01.15-1.08 2.55 2.55 0 01.51-.86 2.28 2.28 0 01.79-.58 2.58 2.58 0 011-.2 2.38 2.38 0 011 .19 2.28 2.28 0 01.77.52 2.37 2.37 0 01.51.82 2.68 2.68 0 01.19 1v.61zm1.09-2a1 1 0 00-.74.29 1.11 1.11 0 00-.34.7h2.1a.92.92 0 00-.3-.7 1 1 0 00-.72-.3zM131.79 91.14a2.5 2.5 0 01-.24.22 2 2 0 01-.29.17 1.6 1.6 0 01-.35.12 2.48 2.48 0 01-.41 0 2.23 2.23 0 01-1.69-.77 2.75 2.75 0 01-.47-.86 3.22 3.22 0 01-.17-1.08 3.4 3.4 0 01.16-1.08 2.64 2.64 0 01.47-.86 2.07 2.07 0 01.73-.58 2.2 2.2 0 01.94-.2 1.73 1.73 0 01.78.16 1.78 1.78 0 01.54.39v-.45h1.34v6.88h-1.34zm0-2.65a1 1 0 00-.08-.39.77.77 0 00-.22-.31.89.89 0 00-.34-.21 1.23 1.23 0 00-.44-.07 1.19 1.19 0 00-.51.1 1.12 1.12 0 00-.37.31 1.28 1.28 0 00-.23.45 2.14 2.14 0 00-.08.58V89a2.14 2.14 0 00.08.58 1.37 1.37 0 00.23.45 1.06 1.06 0 00.37.29 1.19 1.19 0 00.51.11 1.23 1.23 0 00.44-.08.77.77 0 00.34-.2.84.84 0 00.22-.31 1 1 0 00.08-.39zM138.74 91.59h-1.34v-.45l-.25.21a2 2 0 01-.29.17 1.9 1.9 0 01-.36.12 2 2 0 01-.44 0 2.06 2.06 0 01-.76-.14 1.73 1.73 0 01-.57-.38 1.65 1.65 0 01-.35-.57 2.08 2.08 0 01-.12-.71v-3.48h1.34v3a1.33 1.33 0 00.07.47.75.75 0 00.17.32.65.65 0 00.26.17.87.87 0 00.32.06 1 1 0 00.39-.08.74.74 0 00.31-.22 1 1 0 00.2-.37 1.69 1.69 0 00.08-.53v-2.82h1.34zM141 89.44a1.46 1.46 0 00.15.43 1.37 1.37 0 00.29.34 1.78 1.78 0 00.41.22 1.57 1.57 0 00.49.08 2 2 0 00.65-.12 2.36 2.36 0 00.63-.33l.65.94a3 3 0 01-.9.5 3.48 3.48 0 01-1.13.19 2.68 2.68 0 01-1-.19 2.33 2.33 0 01-.84-.54 2.44 2.44 0 01-.57-.85 2.92 2.92 0 01-.21-1.13 3 3 0 01.19-1.08 2.55 2.55 0 01.51-.86 2.28 2.28 0 01.79-.58 2.54 2.54 0 011-.2 2.32 2.32 0 012.24 1.53 2.68 2.68 0 01.19 1v.61zm1.1-2a1 1 0 00-.74.29 1.17 1.17 0 00-.35.7h2.11a.92.92 0 00-.3-.7 1 1 0 00-.69-.3zM145.79 89.92a3 3 0 00.69.44 1.85 1.85 0 00.81.19.8.8 0 00.47-.12.32.32 0 00.17-.29q0-.31-.66-.48l-.38-.1a4.23 4.23 0 01-.57-.19 2.17 2.17 0 01-.53-.31 1.65 1.65 0 01-.39-.48 1.47 1.47 0 01-.15-.69 1.32 1.32 0 01.15-.62 1.46 1.46 0 01.41-.52 2 2 0 01.64-.36 2.57 2.57 0 01.85-.13 3.19 3.19 0 012 .68l-.71.9a2.2 2.2 0 00-.59-.32 2 2 0 00-.68-.12.87.87 0 00-.49.11.34.34 0 00-.18.28.32.32 0 00.16.28 1.42 1.42 0 00.44.18l.57.16A2.38 2.38 0 01149 89a1.4 1.4 0 01.35 1 1.51 1.51 0 01-.13.63 1.58 1.58 0 01-.4.53 1.92 1.92 0 01-.66.37 2.68 2.68 0 01-.89.14 4 4 0 01-.71-.07 3.75 3.75 0 01-.62-.19 3.63 3.63 0 01-.52-.27 3.31 3.31 0 01-.39-.3zM152.16 90a.57.57 0 000 .18.29.29 0 00.08.14.5.5 0 00.18.1 1.09 1.09 0 00.28 0h.66l.12 1.19h-.39a2.38 2.38 0 01-.39 0h-.44a1.72 1.72 0 01-1.09-.32 1.23 1.23 0 01-.39-1v-2.76h-.94v-1.17h.94v-1.48l1.35-.36v1.84h1.37v1.17h-1.37zM154.24 85a.71.71 0 01.07-.32.9.9 0 01.17-.26.81.81 0 01.57-.23.87.87 0 01.32.06.76.76 0 01.43.43.88.88 0 010 .64.85.85 0 01-.17.25 1.2 1.2 0 01-.26.18.87.87 0 01-.32.06.78.78 0 01-.31-.06 1 1 0 01-.26-.18.85.85 0 01-.17-.25.71.71 0 01-.07-.32zm1.49 6.6h-1.35v-5.24h1.35zM159.19 86.26a2.78 2.78 0 011.06.2 2.46 2.46 0 01.81.58 2.57 2.57 0 01.52.86 3.18 3.18 0 01.18 1.08 3.12 3.12 0 01-.18 1.07 2.59 2.59 0 01-.53.86 2.37 2.37 0 01-.81.57 2.52 2.52 0 01-1.05.21 2.56 2.56 0 01-1.05-.21 2.37 2.37 0 01-.81-.57 2.42 2.42 0 01-.52-.86 2.9 2.9 0 01-.19-1.07 3.18 3.18 0 01.18-1.08 2.75 2.75 0 01.52-.86 2.4 2.4 0 01.82-.58 2.73 2.73 0 011.05-.2zm0 4.18a1.13 1.13 0 00.51-.11 1 1 0 00.38-.3 1.59 1.59 0 00.23-.45 2.22 2.22 0 00.07-.59 2.22 2.22 0 00-.07-.59 1.47 1.47 0 00-.23-.45 1.15 1.15 0 00-.38-.31 1.13 1.13 0 00-.51-.1 1.19 1.19 0 00-.51.1 1.23 1.23 0 00-.37.31 1.28 1.28 0 00-.23.45 2.21 2.21 0 00-.08.6 2.21 2.21 0 00.08.59 1.37 1.37 0 00.23.45 1.07 1.07 0 00.37.3 1.19 1.19 0 00.51.1zM162.66 86.36H164v.45l.24-.21a1.46 1.46 0 01.3-.17 1.91 1.91 0 01.36-.13 2 2 0 01.44 0 1.87 1.87 0 01.76.14 1.73 1.73 0 01.57.38 1.65 1.65 0 01.35.57 2.08 2.08 0 01.12.71v3.53h-1.35v-3a1.53 1.53 0 00-.06-.47.88.88 0 00-.17-.32.73.73 0 00-.26-.17.88.88 0 00-.33-.06 1 1 0 00-.38.08.74.74 0 00-.31.22.88.88 0 00-.2.37 1.69 1.69 0 00-.08.53v2.86h-1.34zM169.38 89.22v-.3a1.78 1.78 0 01.1-.59 2.17 2.17 0 01.25-.48 2.6 2.6 0 01.33-.4l.32-.35a2.39 2.39 0 00.25-.33.7.7 0 00.1-.34.54.54 0 00-.06-.25.9.9 0 00-.15-.19.55.55 0 00-.23-.11.82.82 0 00-.28 0 1.68 1.68 0 00-.4 0 1.6 1.6 0 00-.35.15 1.57 1.57 0 00-.3.2 1.75 1.75 0 00-.24.23l-.8-1a3.16 3.16 0 01.43-.38 3.07 3.07 0 01.53-.31 2.83 2.83 0 01.6-.21 3 3 0 01.68-.07 2.71 2.71 0 01.88.14 2.37 2.37 0 01.68.39 1.9 1.9 0 01.44.58 1.57 1.57 0 01.15.68 1.88 1.88 0 01-.06.49 1.57 1.57 0 01-.18.42 2.37 2.37 0 01-.28.39l-.39.4-.25.24a1.69 1.69 0 00-.2.25 1.28 1.28 0 00-.13.29 1 1 0 000 .35v.11zm-.24 1.54a.86.86 0 01.08-.36.93.93 0 01.2-.3 1.21 1.21 0 01.3-.2.87.87 0 01.73 0 1 1 0 01.29.2.79.79 0 01.2.3 1 1 0 010 .72.84.84 0 01-.2.29.72.72 0 01-.29.2.87.87 0 01-.73 0 .83.83 0 01-.3-.2 1 1 0 01-.2-.29.86.86 0 01-.08-.36z"/><path class="cls-1" d="M175.56 78.83v101.36h-70.64V78.83zm2-11h-74.64v114.36h74.64V67.83z"/><path class="cls-1" d="M124.44 104.44H156v1.25h-31.56z"/><path class="cls-2" d="M108.16 134.56h18.5v8.02h-18.5z"/><path class="cls-3" d="M108.16 141.78h18.5v.8h-18.5z"/><path class="cls-1" d="M114.16 99.66a5.4 5.4 0 11-5.4 5.4 5.4 5.4 0 015.4-5.4m0-.6a6 6 0 106 6 6 6 0 00-6-6zM124.44 122.19h24.71v1.25h-24.71zM114.16 117.41a5.4 5.4 0 11-5.4 5.4 5.4 5.4 0 015.4-5.4m0-.6a6 6 0 106 6 6 6 0 00-6-6zM620.82 84.59h4.72v1.28h-3.3v1.49h3v1.28h-3v1.67h3.49v1.28h-4.91zM626.67 84.59H628v5.57a.33.33 0 00.1.26.41.41 0 00.3.09h.35l.11 1.15h-.96a1.72 1.72 0 01-.52-.08 1 1 0 01-.39-.21 1 1 0 01-.25-.36 1.31 1.31 0 01-.09-.5zM629.48 85a.87.87 0 01.06-.32.93.93 0 01.18-.26.85.85 0 01.25-.17.88.88 0 01.64 0 .85.85 0 01.25.17.76.76 0 01.18.26.88.88 0 010 .64.72.72 0 01-.18.25 1.14 1.14 0 01-.25.18.88.88 0 01-.64 0 1.14 1.14 0 01-.25-.18.88.88 0 01-.18-.25.87.87 0 01-.06-.32zm1.49 6.6h-1.35v-5.24H631zM635.31 90.66a1.22 1.22 0 01-.51.35 1.78 1.78 0 01-.7.13 2.16 2.16 0 01-.94-.19 1.94 1.94 0 01-.69-.51 2.18 2.18 0 01-.43-.76 3.1 3.1 0 01-.15-1 3 3 0 01.15-1 2.27 2.27 0 01.43-.78 2.21 2.21 0 01.69-.51 2.32 2.32 0 01.94-.18 1.78 1.78 0 01.7.13 1.22 1.22 0 01.51.35v-.38h1.35v5.18a1.74 1.74 0 01-.18.82 1.61 1.61 0 01-.5.57 2.31 2.31 0 01-.73.32 4.09 4.09 0 01-.88.1 5.59 5.59 0 01-1.19-.14 5.91 5.91 0 01-1.07-.33l.38-1.09.34.12a4.38 4.38 0 00.43.13l.48.09a4.22 4.22 0 00.49 0 1.84 1.84 0 00.41 0A.93.93 0 00635 92a.82.82 0 00.24-.25.75.75 0 00.09-.39zm-2-1.94a1.86 1.86 0 00.06.48 1.08 1.08 0 00.18.39.8.8 0 00.32.25 1.13 1.13 0 00.47.09.89.89 0 00.79-.35 1.55 1.55 0 00.23-.86 2.44 2.44 0 00-.05-.48 1.17 1.17 0 00-.18-.39.84.84 0 00-.31-.25 1.14 1.14 0 00-.48-.09.89.89 0 00-.79.35 1.46 1.46 0 00-.24.86zM637.68 85a.87.87 0 01.06-.32.76.76 0 01.43-.43.83.83 0 01.32-.06.81.81 0 01.31.06.78.78 0 01.26.17.93.93 0 01.18.26.88.88 0 010 .64.88.88 0 01-.18.25 1 1 0 01-.26.18.81.81 0 01-.31.06.83.83 0 01-.32-.06 1.2 1.2 0 01-.26-.18.85.85 0 01-.17-.25.87.87 0 01-.06-.32zm1.49 6.6h-1.35v-5.24h1.35zM645.3 89a3.49 3.49 0 01-.17 1.08 2.58 2.58 0 01-.48.86 2 2 0 01-.74.56 2.09 2.09 0 01-.94.21 2.5 2.5 0 01-.42 0 1.8 1.8 0 01-.35-.12 1.89 1.89 0 01-.28-.17 1.7 1.7 0 01-.24-.22v.45h-1.35v-7h1.35v2.22a1.88 1.88 0 01.54-.39 1.67 1.67 0 01.78-.16 2.2 2.2 0 01.94.2 2.26 2.26 0 01.73.58 2.62 2.62 0 01.46.86 3.14 3.14 0 01.17 1.04zm-3.66.48a1 1 0 00.07.39 1 1 0 00.22.31.9.9 0 00.34.2 1.25 1.25 0 00.45.08 1.19 1.19 0 00.51-.11 1.06 1.06 0 00.37-.29 1.37 1.37 0 00.23-.45 2.14 2.14 0 00.08-.58V89a2.14 2.14 0 00-.08-.58 1.28 1.28 0 00-.23-.45 1.12 1.12 0 00-.37-.31 1.19 1.19 0 00-.51-.1 1.25 1.25 0 00-.45.07 1.08 1.08 0 00-.34.21.87.87 0 00-.22.31 1 1 0 00-.07.39zM646.18 84.59h1.35v5.57a.36.36 0 00.09.26.46.46 0 00.31.09h.35l.11 1.15h-.96a1.67 1.67 0 01-.52-.08 1 1 0 01-.39-.21 1 1 0 01-.25-.36 1.31 1.31 0 01-.09-.5zM650.26 89.44a1.22 1.22 0 00.44.77 1.53 1.53 0 00.4.22 1.62 1.62 0 00.49.08 2 2 0 00.65-.12 2.36 2.36 0 00.63-.33l.65.94a3 3 0 01-.9.5 3.48 3.48 0 01-1.13.19 2.68 2.68 0 01-1-.19 2.33 2.33 0 01-.84-.54 2.44 2.44 0 01-.57-.85 2.92 2.92 0 01-.21-1.13 3.18 3.18 0 01.13-1.08 2.55 2.55 0 01.51-.86 2.28 2.28 0 01.79-.58 2.61 2.61 0 011-.2 2.38 2.38 0 011 .19 2.28 2.28 0 01.77.52 2.55 2.55 0 01.52.82 2.87 2.87 0 01.18 1v.61zm1.09-2a1 1 0 00-.73.29 1.07 1.07 0 00-.35.7h2.11a1 1 0 00-.31-.7 1 1 0 00-.72-.3z"/><path class="cls-1" d="M687.47 78.83v101.36h-70.64V78.83zm2-11h-74.64v114.36h74.64V67.83z"/><path class="cls-2" d="M620.07 101.05h18.5v8.02h-18.5z"/><path class="cls-3" d="M620.07 108.27h18.5v.8h-18.5z"/><path class="cls-1" d="M829.37 88.62l.84-4h.61l-1.09 4.9h-.71l-1-4-1 4h-.72l-1.09-4.9h.61l.85 4 1.07-4h.58zM833.46 89.14a1.18 1.18 0 01-.41.3 1.44 1.44 0 01-.61.12 1.87 1.87 0 01-.49-.07 1.28 1.28 0 01-.38-.21 1.06 1.06 0 01-.26-.34 1 1 0 01-.09-.44.9.9 0 01.07-.37.81.81 0 01.48-.5 1.12 1.12 0 01.38-.11l1.23-.17v-.22a.83.83 0 00-.06-.34.58.58 0 00-.16-.21.71.71 0 00-.25-.11 1.06 1.06 0 00-.31 0 1.85 1.85 0 00-.54.08 2.45 2.45 0 00-.46.2l-.22-.46A2.44 2.44 0 01832 86a2.94 2.94 0 01.65-.07 1.44 1.44 0 011 .29 1 1 0 01.33.84v1.61a.52.52 0 00.02.33.44.44 0 00.21.19l-.32.41a.69.69 0 01-.28-.15.53.53 0 01-.17-.25zm-1-1.2h-.26a.93.93 0 00-.2.1.65.65 0 00-.13.16.53.53 0 000 .23.6.6 0 00.06.27.5.5 0 00.15.2.76.76 0 00.23.13 1.26 1.26 0 00.28 0 1.06 1.06 0 00.31-.05 1 1 0 00.28-.12.76.76 0 00.19-.21.5.5 0 00.07-.27v-.58zM834.89 85a.24.24 0 010-.15.57.57 0 01.08-.13.38.38 0 01.13-.09h.15a.41.41 0 01.16 0 .27.27 0 01.12.09.38.38 0 01.09.13.33.33 0 010 .15.45.45 0 010 .16.34.34 0 01-.09.12.27.27 0 01-.12.09.41.41 0 01-.16 0h-.15a.38.38 0 01-.13-.09.5.5 0 01-.08-.12.32.32 0 010-.16zm.68 4.5H835V86h.57zM837.53 88.62a.91.91 0 000 .17.22.22 0 00.06.13.34.34 0 00.13.1.78.78 0 00.24 0H838.4l.06.5h-.62a1.48 1.48 0 01-.38 0 .82.82 0 01-.28-.14.64.64 0 01-.18-.25 1.08 1.08 0 01-.06-.38V86.5h-.66V86h.72v-1.14l.58-.21V86h1v.5h-1zM839.1 85a.33.33 0 010-.15.6.6 0 01.09-.13.3.3 0 01.13-.09.37.37 0 01.15 0 .33.33 0 01.15 0 .38.38 0 01.13.09l.09.13a.33.33 0 010 .15.45.45 0 010 .16l-.09.12a.38.38 0 01-.13.09.33.33 0 01-.15 0 .37.37 0 01-.15 0 .3.3 0 01-.13-.09.54.54 0 01-.09-.12.45.45 0 010-.16zm.68 4.5h-.57V86h.57zM840.83 86h.57v.4a1.17 1.17 0 01.44-.36 1.59 1.59 0 01.59-.11 1.19 1.19 0 01.51.1 1.16 1.16 0 01.36.25 1.11 1.11 0 01.22.38 1.44 1.44 0 01.08.46v2.37h-.6V87.3a1.48 1.48 0 000-.39.61.61 0 00-.16-.26.51.51 0 00-.23-.15.85.85 0 00-.6 0 .88.88 0 00-.29.18 1 1 0 00-.21.3 1.14 1.14 0 00-.08.43v2.07h-.57zM844.42 87.55a1.91 1.91 0 01.1-.64 1.42 1.42 0 01.73-.86 1.37 1.37 0 01.58-.12 1.42 1.42 0 01.55.11 1 1 0 01.44.36V86h.58v3.49a1.15 1.15 0 01-.13.55 1.17 1.17 0 01-.35.35 1.46 1.46 0 01-.48.19 2.48 2.48 0 01-.54.06h-.32l-.34-.05a2 2 0 01-.33-.09 2 2 0 01-.31-.12l.21-.48.19.1a1.35 1.35 0 00.24.08l.28.07h.33a1.64 1.64 0 00.4 0 .87.87 0 00.29-.14.75.75 0 00.19-.24.91.91 0 00.06-.35v-.66a1.17 1.17 0 01-.44.36 1.42 1.42 0 01-.55.11 1.37 1.37 0 01-1-.47 1.53 1.53 0 01-.28-.52 1.87 1.87 0 01-.1-.69zm2.42 0a1.56 1.56 0 00-.06-.44.85.85 0 00-.43-.58 1 1 0 00-.41-.08 1 1 0 00-.41.08.76.76 0 00-.29.24 1 1 0 00-.17.35 1.49 1.49 0 00-.06.43 1.54 1.54 0 00.06.43 1 1 0 00.17.34.76.76 0 00.29.24.86.86 0 00.41.08.88.88 0 00.41-.08.75.75 0 00.27-.23.86.86 0 00.16-.35 1.49 1.49 0 00.06-.43zM850.61 88.62a.91.91 0 000 .17.31.31 0 00.06.13.45.45 0 00.13.1.81.81 0 00.25 0H851.48l.06.5h-.62a1.4 1.4 0 01-.37 0 .87.87 0 01-.29-.14.74.74 0 01-.17-.25 1.08 1.08 0 01-.06-.38V86.5h-.66V86h.63v-1.14l.57-.21V86h1v.5h-1zM852.18 85a.33.33 0 010-.15.57.57 0 01.08-.13.38.38 0 01.13-.09.4.4 0 01.15 0 .41.41 0 01.16 0 .27.27 0 01.12.09.38.38 0 01.09.13.33.33 0 010 .15.45.45 0 010 .16.34.34 0 01-.09.12.27.27 0 01-.12.09.41.41 0 01-.16 0 .4.4 0 01-.15 0 .38.38 0 01-.13-.09.5.5 0 01-.08-.12.47.47 0 010-.16zm.69 4.5h-.58V86h.58zM856.53 89.49H856v-2.2a1.14 1.14 0 00-.06-.39.81.81 0 00-.15-.26.52.52 0 00-.22-.14.86.86 0 00-.27 0 .67.67 0 00-.28.06.74.74 0 00-.25.17.92.92 0 00-.17.31 1.16 1.16 0 00-.07.44v2.06h-.58V86h.58v.4a1.13 1.13 0 01.4-.36 1.26 1.26 0 01.51-.11h.26a1.48 1.48 0 01.27.1 1.88 1.88 0 01.24.18 1.27 1.27 0 01.18.27 1 1 0 01.22-.27.87.87 0 01.26-.18 1 1 0 01.29-.1h.29a1.19 1.19 0 01.51.1 1.05 1.05 0 01.37.25 1.07 1.07 0 01.22.37 1.38 1.38 0 01.08.45v2.39H858v-2.2a1.14 1.14 0 00-.06-.39.68.68 0 00-.16-.26.55.55 0 00-.23-.14.81.81 0 00-.27 0 .71.71 0 00-.28.06 1 1 0 00-.25.17.92.92 0 00-.17.31 1.4 1.4 0 00-.07.44zM860 87.92a1.63 1.63 0 00.1.46 1.11 1.11 0 00.23.36.86.86 0 00.33.23 1 1 0 00.43.09 1.36 1.36 0 00.51-.1 1.8 1.8 0 00.4-.25l.3.42a2.25 2.25 0 01-.55.31 1.85 1.85 0 01-.69.12 1.74 1.74 0 01-.69-.14 1.5 1.5 0 01-.52-.37 1.44 1.44 0 01-.33-.58 2.09 2.09 0 01-.12-.72 2.5 2.5 0 01.11-.74 1.78 1.78 0 01.33-.57 1.45 1.45 0 01.5-.38 1.5 1.5 0 01.64-.13 1.36 1.36 0 011.1.51 1.72 1.72 0 01.3.57 2.48 2.48 0 01.1.73v.18zm1-1.49a.86.86 0 00-.39.09.8.8 0 00-.29.23 1.06 1.06 0 00-.19.33 1.23 1.23 0 00-.08.38h1.85a1.78 1.78 0 00-.07-.39 1.06 1.06 0 00-.18-.33.85.85 0 00-.28-.22.75.75 0 00-.37-.09zM865.62 88.52a.9.9 0 01-.11.44 1 1 0 01-.29.33 1.08 1.08 0 01-.4.2 1.59 1.59 0 01-.48.07 2 2 0 01-1.36-.51l.31-.41.19.15c.08.06.16.1.24.15l.29.11a1.15 1.15 0 00.33 0 1.09 1.09 0 00.26 0 .82.82 0 00.23-.11.61.61 0 00.15-.17.4.4 0 00.06-.22.41.41 0 00-.06-.23.66.66 0 00-.17-.16 1 1 0 00-.23-.11l-.29-.09-.22-.08a2.67 2.67 0 01-.36-.14 1.17 1.17 0 01-.3-.19.79.79 0 01-.21-.27.89.89 0 01-.07-.38.91.91 0 01.07-.35 1 1 0 01.23-.32 1.18 1.18 0 01.4-.22 1.57 1.57 0 01.56-.09 1.85 1.85 0 01.67.12 1.81 1.81 0 01.51.3l-.3.41a1.41 1.41 0 00-.18-.14l-.21-.11-.25-.08a1 1 0 00-.25 0 .93.93 0 00-.31 0 .68.68 0 00-.21.11.61.61 0 00-.12.16.45.45 0 000 .16.31.31 0 000 .2.44.44 0 00.13.14l.19.1.23.08.29.1.37.14a1.09 1.09 0 01.3.18 1 1 0 01.26.3.86.86 0 01.11.43zM866.5 86.4a.41.41 0 010-.16.53.53 0 01.21-.21.41.41 0 01.16 0 .4.4 0 01.15 0 .38.38 0 01.13.09.36.36 0 01.08.12.29.29 0 010 .16.28.28 0 010 .15.57.57 0 01-.08.13l-.13.09a.4.4 0 01-.15 0 .41.41 0 01-.16 0l-.12-.09a.38.38 0 01-.09-.13.4.4 0 010-.15zm0 2.76a.4.4 0 010-.15.38.38 0 01.09-.13.36.36 0 01.12-.08.29.29 0 01.16 0 .28.28 0 01.15 0 .33.33 0 01.21.21.28.28 0 010 .15.29.29 0 010 .16.5.5 0 01-.08.12.38.38 0 01-.13.09.4.4 0 01-.15 0 .41.41 0 01-.16 0 .27.27 0 01-.12-.09.34.34 0 01-.09-.12.41.41 0 010-.16z"/><path class="cls-1" d="M892.24 78.83v101.36h-70.65V78.83zm2-11h-74.65v114.36h74.65V67.83z"/><path class="cls-1" d="M830.73 101.22a5.62 5.62 0 01-.07.92 4.12 4.12 0 01-.23.87 3.34 3.34 0 01-.39.75 2.32 2.32 0 01-.58.59 2.43 2.43 0 01-.77.39 3 3 0 01-1 .14 2.73 2.73 0 01-.83-.11 2.4 2.4 0 01-.69-.3 1.92 1.92 0 01-.53-.45 2.23 2.23 0 01-.36-.56l1.31-.52a1.29 1.29 0 00.47.51 1.37 1.37 0 00.68.16 1.3 1.3 0 001.1-.53 1.84 1.84 0 00.28-.58 2.28 2.28 0 00.08-.7 1.64 1.64 0 01-.28.23 2.18 2.18 0 01-.37.2 2.83 2.83 0 01-.44.14 2.66 2.66 0 01-1.45-.12 2.31 2.31 0 01-.77-.47 2.43 2.43 0 01-.51-.71 2.27 2.27 0 01-.18-.91 2.63 2.63 0 01.18-1 2.31 2.31 0 01.54-.79 2.55 2.55 0 01.82-.52 3.14 3.14 0 011.08-.18 2.87 2.87 0 011.19.23 2.6 2.6 0 01.91.66 3.2 3.2 0 01.59 1.06 4.77 4.77 0 01.2 1.42zm-1.57-1.15a1.18 1.18 0 00-.09-.46 1.05 1.05 0 00-.25-.37 1.09 1.09 0 00-.4-.25 1.35 1.35 0 00-.5-.09 1.38 1.38 0 00-.52.09 1.14 1.14 0 00-.39.25 1.05 1.05 0 00-.25.37 1.17 1.17 0 00-.08.46 1.14 1.14 0 00.08.46 1.09 1.09 0 00.25.38 1.3 1.3 0 00.39.25 1.38 1.38 0 00.52.09 1.35 1.35 0 00.5-.09 1.24 1.24 0 00.4-.25 1.09 1.09 0 00.25-.38 1.14 1.14 0 00.09-.46zM838 103.08l.64-3.52h1.42l-1.2 5.23h-1.6l-.78-3.4-.83 3.4h-1.58l-1.21-5.23h1.47l.62 3.52.91-3.52h1.28zM842 102.64a1.57 1.57 0 00.15.43 1.32 1.32 0 00.29.33 1.25 1.25 0 00.41.22 1.33 1.33 0 00.49.08 2.33 2.33 0 00.65-.11 2.13 2.13 0 00.63-.34l.65.94a2.6 2.6 0 01-.9.5 3.23 3.23 0 01-1.13.19 2.88 2.88 0 01-1-.18 2.47 2.47 0 01-.84-.54 2.54 2.54 0 01-.57-.85 3 3 0 01-.21-1.14 2.9 2.9 0 01.19-1.07 2.55 2.55 0 01.51-.86 2.28 2.28 0 01.79-.58 2.38 2.38 0 011-.21 2.57 2.57 0 011 .19 2.35 2.35 0 011.28 1.34 2.76 2.76 0 01.19 1v.61zm1.1-2a1 1 0 00-.74.29 1.15 1.15 0 00-.35.7h2.11a1 1 0 00-.3-.71 1 1 0 00-.75-.29zM847.49 102.64a1.11 1.11 0 00.15.43 1.27 1.27 0 00.7.55 1.29 1.29 0 00.49.08 2.17 2.17 0 001.28-.45l.65.94a2.8 2.8 0 01-.9.5 3.29 3.29 0 01-1.14.19 2.88 2.88 0 01-1-.18 2.34 2.34 0 01-.83-.54 2.54 2.54 0 01-.57-.85 3 3 0 01-.21-1.14 3.12 3.12 0 01.18-1.07 2.75 2.75 0 01.52-.86 2.28 2.28 0 01.79-.58 2.37 2.37 0 011-.21 2.58 2.58 0 011 .19 2.35 2.35 0 011.28 1.34 3 3 0 01.19 1v.61zm1.1-2a1 1 0 00-.74.29 1.1 1.1 0 00-.35.7h2.11a1 1 0 00-.3-.71 1 1 0 00-.72-.29zM853.23 101.61l1.74-2h1.68l-1.89 2.13 2 3.1h-1.63l-1.3-2.13-.55.6v1.53h-1.35v-7h1.35zM857.66 103.11a2.42 2.42 0 00.69.45 2 2 0 00.81.19.8.8 0 00.47-.12.35.35 0 00.17-.29q0-.32-.66-.48l-.38-.11a3.13 3.13 0 01-.57-.18 2.2 2.2 0 01-.53-.32 1.61 1.61 0 01-.39-.47 1.48 1.48 0 01-.15-.7 1.51 1.51 0 01.14-.62 1.85 1.85 0 01.41-.52 1.93 1.93 0 01.65-.35 2.57 2.57 0 01.85-.14 3.21 3.21 0 011.2.21 2.73 2.73 0 01.82.48l-.7.89a2.72 2.72 0 00-.59-.31 1.79 1.79 0 00-.68-.13.84.84 0 00-.49.12.31.31 0 000 .55 2 2 0 00.45.19l.57.16a2.38 2.38 0 011.16.62 1.43 1.43 0 01.35 1 1.56 1.56 0 01-.13.64 1.72 1.72 0 01-.41.53 1.79 1.79 0 01-.65.37 2.73 2.73 0 01-.89.13 4 4 0 01-.71-.06 3.47 3.47 0 01-.62-.19 3.17 3.17 0 01-.52-.27 3.32 3.32 0 01-.39-.31z"/><path class="cls-2" d="M824.83 114.25h18.5v8.02h-18.5z"/><path class="cls-3" d="M824.83 121.47h18.5v.8h-18.5z"/><path class="cls-1" d="M211.29 84.69h2.8a2.55 2.55 0 011 .18 2.14 2.14 0 011.21 1.22 2.56 2.56 0 01.16.93 2.36 2.36 0 01-.18.92 2.21 2.21 0 01-.5.73 2.4 2.4 0 01-.78.49 2.69 2.69 0 01-1 .17h-1.27v2.36h-1.42zM215 87a1 1 0 00-.09-.44.9.9 0 00-.25-.33 1.27 1.27 0 00-.4-.21 1.74 1.74 0 00-.53-.07h-1v2.14h1a1.74 1.74 0 00.53-.07 1.08 1.08 0 00.4-.2 1 1 0 00.25-.33A1.06 1.06 0 00215 87zM220.1 91.2a1.88 1.88 0 01-.2.2 2 2 0 01-.28.19 1.77 1.77 0 01-.39.14 1.83 1.83 0 01-.49.06 2.09 2.09 0 01-.72-.12 2 2 0 01-.58-.35 1.62 1.62 0 01-.39-.52 1.55 1.55 0 01-.14-.65 1.44 1.44 0 01.39-1 1.88 1.88 0 011.08-.5l1.5-.22v-.1a.72.72 0 00-.21-.55 1 1 0 00-.7-.21 2 2 0 00-.41 0l-.39.1-.35.14-.28.13-.53-1a5.36 5.36 0 011-.41 4 4 0 011.14-.16 3.71 3.71 0 01.73.08 1.89 1.89 0 01.67.27 1.63 1.63 0 01.49.55 1.75 1.75 0 01.19.87v2.15a.44.44 0 00.12.34 1.25 1.25 0 00.33.2l-.61 1a1.37 1.37 0 01-.6-.19 1.29 1.29 0 01-.37-.44zm-1.22-1.63a.7.7 0 00-.4.17.47.47 0 00-.16.37.59.59 0 00.19.43.72.72 0 00.55.19.83.83 0 00.6-.22.78.78 0 00.22-.58v-.53zM222.72 90a3.16 3.16 0 00.69.45 2 2 0 00.81.18.88.88 0 00.47-.11.34.34 0 00.17-.3q0-.3-.66-.48l-.38-.1a3.18 3.18 0 01-.57-.19 2.17 2.17 0 01-.53-.31 1.53 1.53 0 01-.39-.48 1.41 1.41 0 01-.15-.69 1.35 1.35 0 01.15-.62 1.46 1.46 0 01.41-.52 2 2 0 01.64-.36 2.57 2.57 0 01.85-.13 3.21 3.21 0 011.2.21 3 3 0 01.82.47l-.7.9a2.19 2.19 0 00-.59-.31 1.79 1.79 0 00-.68-.13 1 1 0 00-.49.11.34.34 0 00-.18.28.31.31 0 00.16.28 1.42 1.42 0 00.44.18l.57.16a2.47 2.47 0 011.16.62 1.4 1.4 0 01.35 1 1.51 1.51 0 01-.13.63 1.9 1.9 0 01-.4.54 2.1 2.1 0 01-.66.37 2.69 2.69 0 01-.89.13 3.23 3.23 0 01-.71-.07 2.81 2.81 0 01-.62-.19 3.63 3.63 0 01-.52-.27A3.31 3.31 0 01222 91zM227.53 90a2.94 2.94 0 00.69.45 2 2 0 00.81.18.88.88 0 00.47-.11.36.36 0 00.17-.3q0-.3-.66-.48l-.38-.1a3.18 3.18 0 01-.57-.19 2.17 2.17 0 01-.53-.31 1.53 1.53 0 01-.39-.48A1.41 1.41 0 01227 88a1.35 1.35 0 01.15-.62 1.46 1.46 0 01.41-.52 2 2 0 01.64-.36 2.57 2.57 0 01.85-.13 3.21 3.21 0 011.2.21 3 3 0 01.82.47l-.7.9a2.35 2.35 0 00-.59-.31 1.79 1.79 0 00-.68-.13 1 1 0 00-.49.11.34.34 0 00-.18.28.31.31 0 00.16.28 1.42 1.42 0 00.44.18l.57.16a2.47 2.47 0 011.16.62 1.4 1.4 0 01.35 1 1.51 1.51 0 01-.13.63 1.9 1.9 0 01-.4.54 2.1 2.1 0 01-.66.37 2.73 2.73 0 01-.89.13 3.23 3.23 0 01-.71-.07 2.81 2.81 0 01-.62-.19 3.17 3.17 0 01-.52-.27 3.31 3.31 0 01-.39-.3zM233.1 89.54a1.1 1.1 0 00.15.44 1.27 1.27 0 00.7.55 1.51 1.51 0 00.48.08 2 2 0 00.65-.12 2.05 2.05 0 00.64-.33l.65.94a3 3 0 01-.9.5 3.33 3.33 0 01-1.14.19 2.88 2.88 0 01-1-.18 2.63 2.63 0 01-.84-.54 2.42 2.42 0 01-.56-.86 2.88 2.88 0 01-.21-1.13 3.12 3.12 0 01.18-1.07 2.77 2.77 0 01.51-.87 2.5 2.5 0 01.79-.57 2.45 2.45 0 011-.21 2.32 2.32 0 011 .19 2.21 2.21 0 01.78.53 2.38 2.38 0 01.51.81 2.91 2.91 0 01.19 1v.61zm1.09-2a1 1 0 00-.73.29 1.15 1.15 0 00-.35.7h2.11a1 1 0 00-1-1zM237.49 86.46h1.35v.45a1.59 1.59 0 01.24-.2 1.75 1.75 0 01.29-.18 1.9 1.9 0 01.36-.12 2 2 0 01.44 0 2 2 0 01.76.14 1.54 1.54 0 01.57.38 1.69 1.69 0 01.35.57 1.87 1.87 0 01.13.71v3.53h-1.35v-3a1.63 1.63 0 00-.06-.47.85.85 0 00-.18-.31.68.68 0 00-.26-.18.83.83 0 00-.32 0 .92.92 0 00-.38.07.77.77 0 00-.31.22 1 1 0 00-.21.37 1.7 1.7 0 00-.07.53v2.86h-1.35zM246.28 90.77a1.2 1.2 0 01-.51.34 1.78 1.78 0 01-.7.13 2.32 2.32 0 01-.94-.18 2.06 2.06 0 01-1.13-1.28 3.24 3.24 0 010-2 2.14 2.14 0 01.43-.77 1.94 1.94 0 01.69-.51 2.16 2.16 0 01.94-.19 1.78 1.78 0 01.7.13 1.32 1.32 0 01.51.35v-.38h1.35v5.18a1.78 1.78 0 01-.18.83 1.58 1.58 0 01-.5.56 2.11 2.11 0 01-.73.32 3.6 3.6 0 01-.88.1 5.55 5.55 0 01-1.19-.13 5.19 5.19 0 01-1.07-.34l.38-1.09.34.13a2.43 2.43 0 00.43.12 3.41 3.41 0 00.48.09 2.77 2.77 0 00.49 0 1.75 1.75 0 00.4 0 1.22 1.22 0 00.35-.14.64.64 0 00.24-.25.75.75 0 00.09-.39zm-2-2a1.93 1.93 0 00.06.49 1 1 0 00.18.38.8.8 0 00.32.25 1.13 1.13 0 00.47.09.84.84 0 00.78-.35 1.48 1.48 0 00.24-.86 1.86 1.86 0 00-.06-.48 1 1 0 00-.17-.39 1 1 0 00-.31-.25 1.14 1.14 0 00-.48-.09.9.9 0 00-.79.35 1.48 1.48 0 00-.24.86zM249.92 89.54a1.26 1.26 0 00.14.44 1.18 1.18 0 00.3.33 1.11 1.11 0 00.4.22 1.62 1.62 0 00.49.08 2 2 0 00.65-.12 1.9 1.9 0 00.63-.33l.65.94a2.77 2.77 0 01-.9.5 3.23 3.23 0 01-1.13.19 2.88 2.88 0 01-1-.18 2.63 2.63 0 01-.84-.54 2.59 2.59 0 01-.57-.86 2.88 2.88 0 01-.2-1.13 3.12 3.12 0 01.16-1.08 2.6 2.6 0 01.51-.87 2.39 2.39 0 01.79-.57 2.45 2.45 0 011-.21 2.38 2.38 0 011 .19 2.17 2.17 0 01.77.53 2.4 2.4 0 01.52.81 2.91 2.91 0 01.18 1v.61zm1.09-2a1 1 0 00-.74.29 1.13 1.13 0 00-.34.7H252a1 1 0 00-1-1zM257.25 87.77h-.15a2.51 2.51 0 00-.55.06 1.28 1.28 0 00-.46.21 1.18 1.18 0 00-.32.43 1.63 1.63 0 00-.12.68v2.54h-1.34v-5.23h1.34v.59a1.64 1.64 0 01.22-.25 1.89 1.89 0 01.31-.22 2 2 0 01.39-.15 1.86 1.86 0 01.48-.06h.2zM214.5 102.24a1.7 1.7 0 01-.24.22 1 1 0 01-.28.17 1.8 1.8 0 01-.35.12 1.87 1.87 0 01-.42 0 2.23 2.23 0 01-.94-.2 2.19 2.19 0 01-.74-.57 2.49 2.49 0 01-.48-.86 3.52 3.52 0 010-2.16 2.47 2.47 0 01.47-.86 2.22 2.22 0 01.72-.57 2.09 2.09 0 01.94-.21 1.67 1.67 0 01.78.16 2 2 0 01.54.39v-.45h1.35v6.88h-1.35zm0-2.65a.85.85 0 00-.08-.39 1 1 0 00-.21-.31 1.08 1.08 0 00-.34-.21 1.52 1.52 0 00-.45-.07 1.19 1.19 0 00-.51.11 1.07 1.07 0 00-.37.3 1.33 1.33 0 00-.23.46 2 2 0 00-.08.57v.06a2.14 2.14 0 00.08.58 1.37 1.37 0 00.23.45 1.07 1.07 0 00.37.3 1.19 1.19 0 00.51.1 1.25 1.25 0 00.45-.07 1.08 1.08 0 00.34-.21 1 1 0 00.21-.31.85.85 0 00.08-.39zM221.46 102.69h-1.35v-.45a1.64 1.64 0 01-.24.21 1.49 1.49 0 01-.3.18 1.6 1.6 0 01-.35.12 2.06 2.06 0 01-.44 0 2 2 0 01-.76-.14 1.54 1.54 0 01-.57-.38 1.68 1.68 0 01-.36-.57 2 2 0 01-.09-.66v-3.54h1.35v3a1.58 1.58 0 00.06.47.88.88 0 00.17.32.56.56 0 00.26.17.88.88 0 00.33.06 1 1 0 00.38-.07.87.87 0 00.31-.22 1.07 1.07 0 00.21-.38 1.66 1.66 0 00.07-.53v-2.82h1.35zM223.75 100.54a1.1 1.1 0 00.15.44 1 1 0 00.29.33 1.16 1.16 0 00.41.22 1.51 1.51 0 00.48.08 2 2 0 00.65-.12 2.05 2.05 0 00.64-.33l.65.94a3 3 0 01-.9.5 3.33 3.33 0 01-1.14.19 2.88 2.88 0 01-1-.18 2.63 2.63 0 01-.84-.54 2.42 2.42 0 01-.56-.86 2.88 2.88 0 01-.21-1.13 3.12 3.12 0 01.18-1.07 2.6 2.6 0 01.51-.87 2.5 2.5 0 01.79-.57 2.45 2.45 0 011-.21 2.32 2.32 0 011 .19 2.21 2.21 0 01.78.53 2.54 2.54 0 01.51.81 2.91 2.91 0 01.18 1v.61zm1.09-2a1 1 0 00-.73.29 1.15 1.15 0 00-.35.7h2.11a1 1 0 00-1-1zM228.51 101a2.94 2.94 0 00.69.45 2 2 0 00.81.18.91.91 0 00.47-.11.36.36 0 00.17-.3q0-.3-.66-.48l-.38-.1a3.18 3.18 0 01-.57-.19 2.17 2.17 0 01-.53-.31 1.53 1.53 0 01-.39-.48A1.41 1.41 0 01228 99a1.48 1.48 0 01.14-.62 1.72 1.72 0 01.41-.52 2.14 2.14 0 01.65-.36 2.53 2.53 0 01.85-.13 3.19 3.19 0 011.19.21 3 3 0 01.76.42l-.7.9a2.53 2.53 0 00-.59-.31 1.82 1.82 0 00-.68-.13 1 1 0 00-.5.11.35.35 0 00-.17.28.32.32 0 00.15.28 1.39 1.39 0 00.45.18l.57.16a2.52 2.52 0 011.16.62 1.44 1.44 0 01.35 1 1.52 1.52 0 01-.14.63 1.58 1.58 0 01-.4.54 1.94 1.94 0 01-.65.37 2.73 2.73 0 01-.89.13 3.38 3.38 0 01-.72-.07 3 3 0 01-.62-.19 3.05 3.05 0 01-.51-.27 3.31 3.31 0 01-.39-.3zM234.88 101.14a.88.88 0 000 .17.46.46 0 00.09.15.39.39 0 00.17.09 1.12 1.12 0 00.29 0h.66l.12 1.19H235a1.69 1.69 0 01-1.09-.32 1.23 1.23 0 01-.39-1v-2.78h-.94v-1.18h.94V96l1.35-.36v1.84h1.37v1.18h-1.37zM237 96.09a.81.81 0 01.06-.31.78.78 0 01.17-.26.93.93 0 01.26-.18.83.83 0 01.32-.06.81.81 0 01.31.06.81.81 0 01.26.18 1 1 0 01.18.26.81.81 0 01.06.31.83.83 0 01-.06.32 1.2 1.2 0 01-.18.26.78.78 0 01-.26.17.81.81 0 01-.31.06.83.83 0 01-.32-.06.76.76 0 01-.43-.43.83.83 0 01-.06-.32zm1.49 6.6h-1.39v-5.23h1.35zM241.91 97.36a2.52 2.52 0 011.05.21 2.37 2.37 0 01.81.57 2.46 2.46 0 01.52.87 2.9 2.9 0 01.19 1.07 3.14 3.14 0 01-.19 1.08 2.53 2.53 0 01-.52.85 2.43 2.43 0 01-.81.57 2.76 2.76 0 01-2.11 0 2.43 2.43 0 01-.85-.58 2.53 2.53 0 01-.52-.85 3.3 3.3 0 010-2.15 2.46 2.46 0 01.52-.87 2.37 2.37 0 01.81-.57 2.61 2.61 0 011.1-.2zm0 4.18a1.11 1.11 0 00.88-.4 1.33 1.33 0 00.23-.46 2.14 2.14 0 00.08-.58 2.08 2.08 0 00-.08-.58 1.33 1.33 0 00-.23-.46 1 1 0 00-.37-.3 1.24 1.24 0 00-1 0 1.1 1.1 0 00-.38.3 1.31 1.31 0 00-.22.46 1.77 1.77 0 00-.08.58 1.81 1.81 0 00.08.58 1.31 1.31 0 00.22.46 1.2 1.2 0 00.38.29 1.06 1.06 0 00.49.11zM245.37 97.46h1.35v.45a1.59 1.59 0 01.24-.2 1.49 1.49 0 01.3-.18 1.6 1.6 0 01.35-.12 2 2 0 01.44 0 2 2 0 01.76.14 1.54 1.54 0 01.57.38 1.9 1.9 0 01.36.57 2.08 2.08 0 01.12.71v3.53h-1.35v-3a1.63 1.63 0 00-.06-.47.85.85 0 00-.18-.31.68.68 0 00-.26-.18.8.8 0 00-.32 0 1 1 0 00-.38.07.77.77 0 00-.31.22 1 1 0 00-.21.37 1.7 1.7 0 00-.07.53v2.86h-1.35zM252.1 100.32V100a1.59 1.59 0 01.1-.59 2.73 2.73 0 01.25-.48 3.12 3.12 0 01.32-.4c.12-.12.22-.24.32-.35a2.39 2.39 0 00.25-.33.59.59 0 00.1-.34.6.6 0 00-.05-.24.49.49 0 00-.16-.19.66.66 0 00-.23-.08.86.86 0 00-.28 0 1.35 1.35 0 00-.41.06 1.51 1.51 0 00-.35.14 2.11 2.11 0 00-.29.2 2.66 2.66 0 00-.24.23l-.8-1a3.22 3.22 0 01.43-.39 3 3 0 01.52-.31 2.91 2.91 0 01.61-.2 3 3 0 01.68-.08 2.41 2.41 0 01.87.15 1.89 1.89 0 01.68.39 1.62 1.62 0 01.44.57 1.49 1.49 0 01.16.69 1.86 1.86 0 01-.06.48 1.57 1.57 0 01-.18.42 2.7 2.7 0 01-.29.4 3.59 3.59 0 01-.39.39l-.24.24a1.57 1.57 0 00-.2.25 1.55 1.55 0 00-.14.29 1.23 1.23 0 00-.05.35v.11zm-.24 1.54a1.15 1.15 0 01.07-.36 1.25 1.25 0 01.21-.3.93.93 0 01.3-.2.89.89 0 01.36-.07.86.86 0 01.36.07.92.92 0 01.5.5.92.92 0 01.07.36.86.86 0 01-.07.36.92.92 0 01-.5.5.86.86 0 01-.36.07.89.89 0 01-.36-.07.93.93 0 01-.3-.2 1.25 1.25 0 01-.21-.3 1 1 0 01-.07-.36z"/><path class="cls-1" d="M277.94 78.94v101.35H207.3V78.94zm2-11H205.3v114.35h74.64V67.94z"/><path class="cls-1" d="M226.83 117.48h31.56v1.25h-31.56z"/><path class="cls-2" d="M210.54 147.61h18.5v8.02h-18.5z"/><path class="cls-3" d="M210.54 154.82h18.5v.8h-18.5z"/><path class="cls-1" d="M216.54 112.71a5.4 5.4 0 11-5.4 5.4 5.4 5.4 0 015.4-5.4m0-.6a6 6 0 106 6 6 6 0 00-6-6zM226.83 135.23h24.71v1.25h-24.71zM216.54 130.46a5.4 5.4 0 11-5.4 5.4 5.4 5.4 0 015.4-5.4m0-.6a6 6 0 106 6 6 6 0 00-6-6zM319.37 89.53l1-4.84h1.53l-1.56 7h-1.74l-1.06-5-1 5h-1.73l-1.56-7h1.55l.91 4.84 1.07-4.84h1.59zM323.45 89.54a1.1 1.1 0 00.15.44 1.27 1.27 0 00.7.55 1.53 1.53 0 00.49.08 2.37 2.37 0 001.28-.45l.65.94a3 3 0 01-.9.5 3.33 3.33 0 01-1.14.19 2.88 2.88 0 01-1-.18 2.63 2.63 0 01-.84-.54 2.56 2.56 0 01-.56-.86 2.88 2.88 0 01-.21-1.13 3.12 3.12 0 01.18-1.07 2.8 2.8 0 01.52-.87 2.5 2.5 0 012.77-.59 2.35 2.35 0 011.28 1.34 2.91 2.91 0 01.19 1v.61zm1.09-2a1 1 0 00-.73.29 1.15 1.15 0 00-.35.7h2.11a1 1 0 00-1-1zM327.7 85.09a.81.81 0 01.06-.31.81.81 0 01.18-.26.76.76 0 01.25-.18.87.87 0 01.32-.06.78.78 0 01.31.06.88.88 0 01.44.44.81.81 0 01.06.31.83.83 0 01-.06.32.93.93 0 01-.18.26.81.81 0 01-.57.23.87.87 0 01-.32-.06.74.74 0 01-.25-.17.93.93 0 01-.18-.26.83.83 0 01-.06-.32zm1.49 6.6h-1.35v-5.23h1.35zM333.53 90.77a1.2 1.2 0 01-.51.34 1.78 1.78 0 01-.7.13 2.32 2.32 0 01-.94-.18 2.06 2.06 0 01-1.12-1.28 3.24 3.24 0 010-2 2.14 2.14 0 01.43-.77 1.94 1.94 0 01.69-.51 2.16 2.16 0 01.94-.19 1.78 1.78 0 01.7.13 1.32 1.32 0 01.51.35v-.38h1.35v5.18a1.78 1.78 0 01-.18.83 1.58 1.58 0 01-.5.56 2.11 2.11 0 01-.73.32 3.54 3.54 0 01-.88.1 5.55 5.55 0 01-1.19-.13 5.19 5.19 0 01-1.07-.34l.38-1.09.34.13a2.7 2.7 0 00.43.12 3.41 3.41 0 00.48.09 2.77 2.77 0 00.49 0 1.9 1.9 0 00.41 0 1.16 1.16 0 00.34-.14.64.64 0 00.24-.25.75.75 0 00.09-.39zm-2-2a1.93 1.93 0 00.06.49 1 1 0 00.18.38.8.8 0 00.32.25 1.13 1.13 0 00.47.09.84.84 0 00.78-.35 1.48 1.48 0 00.24-.86 2.44 2.44 0 00-.05-.48 1.17 1.17 0 00-.18-.39 1 1 0 00-.31-.25 1.14 1.14 0 00-.48-.09.9.9 0 00-.79.35 1.48 1.48 0 00-.24.86zM336 84.69h1.35v2.22a1.59 1.59 0 01.24-.2 1.75 1.75 0 01.29-.18 1.9 1.9 0 01.36-.12 2 2 0 01.44 0 2 2 0 01.76.14 1.54 1.54 0 01.57.38 1.89 1.89 0 01.48 1.28v3.53h-1.35v-3a1.63 1.63 0 00-.06-.47.85.85 0 00-.18-.31.68.68 0 00-.26-.18.83.83 0 00-.32 0 1 1 0 00-.39.07.93.93 0 00-.31.22 1.18 1.18 0 00-.2.37 1.7 1.7 0 00-.07.53v2.86H336zM343.58 90.14a.88.88 0 000 .17.46.46 0 00.09.15.39.39 0 00.17.09 1.17 1.17 0 00.29 0h.66l.12 1.19h-1.22a1.69 1.69 0 01-1.09-.32 1.23 1.23 0 01-.39-1v-2.78h-.94v-1.18h.94V85l1.35-.36v1.84H345v1.18h-1.37zM316.88 102.24a2.39 2.39 0 01-.23.22 1.22 1.22 0 01-.29.17 1.8 1.8 0 01-.35.12 1.76 1.76 0 01-.42 0 2.23 2.23 0 01-.94-.2 2.3 2.3 0 01-.74-.57 2.66 2.66 0 01-.48-.86 3.72 3.72 0 010-2.16 2.64 2.64 0 01.47-.86 2.22 2.22 0 01.72-.57 2.14 2.14 0 01.95-.21 1.65 1.65 0 01.77.16 1.88 1.88 0 01.54.39v-.45h1.35v6.88h-1.35zm0-2.65a1 1 0 00-.07-.39 1 1 0 00-.56-.52 1.5 1.5 0 00-.44-.07 1.13 1.13 0 00-.51.11 1 1 0 00-.38.3 1.31 1.31 0 00-.22.46 1.71 1.71 0 00-.08.57v.06a1.81 1.81 0 00.08.58 1.35 1.35 0 00.22.45 1 1 0 00.38.3 1.13 1.13 0 00.51.1 1.23 1.23 0 00.44-.07 1 1 0 00.56-.52 1 1 0 00.07-.39zM323.84 102.69h-1.35v-.45a1.64 1.64 0 01-.24.21 1.75 1.75 0 01-.29.18 1.9 1.9 0 01-.36.12 2 2 0 01-.44 0 2 2 0 01-.76-.14 1.63 1.63 0 01-.57-.38 1.65 1.65 0 01-.35-.57 1.83 1.83 0 01-.13-.71v-3.49h1.35v3a1.58 1.58 0 00.06.47.88.88 0 00.17.32.59.59 0 00.27.17.87.87 0 00.32.06 1 1 0 00.39-.07 1.1 1.1 0 00.31-.22 1.24 1.24 0 00.2-.38 1.66 1.66 0 00.07-.53v-2.82h1.35zM326.13 100.54a1.1 1.1 0 00.15.44 1.27 1.27 0 00.7.55 1.53 1.53 0 00.49.08 2.37 2.37 0 001.28-.45l.65.94a3 3 0 01-.9.5 3.27 3.27 0 01-1.13.19 2.9 2.9 0 01-1-.18 2.48 2.48 0 01-.83-.54 2.59 2.59 0 01-.57-.86 2.88 2.88 0 01-.21-1.13 3.12 3.12 0 01.18-1.07 2.8 2.8 0 01.52-.87 2.5 2.5 0 012.77-.59 2.35 2.35 0 011.28 1.34 2.91 2.91 0 01.19 1v.61zm1.1-2a1 1 0 00-.74.29 1.15 1.15 0 00-.35.7h2.11a1 1 0 00-1-1zM330.89 101a2.94 2.94 0 00.69.45 2 2 0 00.81.18.88.88 0 00.47-.11.36.36 0 00.17-.3q0-.3-.66-.48l-.38-.1a3.18 3.18 0 01-.57-.19 2.17 2.17 0 01-.53-.31 1.53 1.53 0 01-.39-.48 1.41 1.41 0 01-.15-.69 1.48 1.48 0 01.14-.62 1.72 1.72 0 01.41-.52 2.14 2.14 0 01.65-.36 2.57 2.57 0 01.85-.13 3.21 3.21 0 011.2.21 3 3 0 01.82.47l-.7.9a2.35 2.35 0 00-.59-.31 1.79 1.79 0 00-.68-.13.94.94 0 00-.49.11.34.34 0 00-.18.28.32.32 0 00.15.28 1.61 1.61 0 00.45.18l.57.16a2.47 2.47 0 011.16.62 1.44 1.44 0 01.35 1 1.51 1.51 0 01-.13.63 1.76 1.76 0 01-.41.54 1.94 1.94 0 01-.65.37 2.73 2.73 0 01-.89.13 3.23 3.23 0 01-.71-.07 2.81 2.81 0 01-.62-.19 3.17 3.17 0 01-.52-.27 3.31 3.31 0 01-.39-.3zM337.26 101.14a.88.88 0 000 .17.46.46 0 00.09.15.39.39 0 00.17.09 1.17 1.17 0 00.29 0h.68l.12 1.19h-1.22a1.7 1.7 0 01-1.09-.32 1.23 1.23 0 01-.39-1v-2.78H335v-1.18h.94V96l1.35-.36v1.84h1.37v1.18h-1.37zM339.34 96.09a.81.81 0 01.06-.31.81.81 0 01.18-.26.88.88 0 01.25-.18.88.88 0 01.64 0 .88.88 0 01.25.18.81.81 0 01.18.26.81.81 0 01.06.31.83.83 0 01-.06.32.93.93 0 01-.18.26.85.85 0 01-.25.17.88.88 0 01-.64 0 .85.85 0 01-.25-.17.93.93 0 01-.18-.26.83.83 0 01-.06-.32zm1.49 6.6h-1.35v-5.23h1.35zM344.29 97.36a2.5 2.5 0 011.87.78 2.8 2.8 0 01.52.87 3.12 3.12 0 01.18 1.07 2.92 2.92 0 01-.19 1.08 2.38 2.38 0 01-.52.85 2.24 2.24 0 01-.81.57 2.56 2.56 0 01-1 .21 2.52 2.52 0 01-1.05-.21 2.24 2.24 0 01-.81-.57 2.55 2.55 0 01-.53-.85 3.3 3.3 0 010-2.15 2.62 2.62 0 01.52-.87 2.5 2.5 0 011.87-.78zm0 4.18a1.11 1.11 0 00.88-.4 1.17 1.17 0 00.23-.46 1.81 1.81 0 00.08-.58 1.77 1.77 0 00-.08-.58 1.17 1.17 0 00-.23-.46 1 1 0 00-.37-.3 1.24 1.24 0 00-1 0 1 1 0 00-.37.3 1.33 1.33 0 00-.23.46 2.08 2.08 0 00-.08.58 2.14 2.14 0 00.08.58 1.33 1.33 0 00.23.46 1.11 1.11 0 00.88.4zM347.75 97.46h1.35v.45a1.59 1.59 0 01.24-.2 1.49 1.49 0 01.3-.18 1.69 1.69 0 01.36-.12 1.88 1.88 0 01.43 0 2.07 2.07 0 01.77.14 1.59 1.59 0 01.56.38 1.72 1.72 0 01.36.57 2.08 2.08 0 01.12.71v3.53h-1.35v-3a1.63 1.63 0 00-.06-.47.83.83 0 00-.17-.31.76.76 0 00-.26-.18.88.88 0 00-.33 0 1 1 0 00-.38.07.84.84 0 00-.31.22 1 1 0 00-.21.37 1.7 1.7 0 00-.07.53v2.86h-1.35zM354.48 100.32V100a1.59 1.59 0 01.1-.59 2.73 2.73 0 01.25-.48 4.31 4.31 0 01.32-.4c.12-.12.23-.24.32-.35a1.79 1.79 0 00.25-.33.59.59 0 00.1-.34.47.47 0 00-.05-.24.58.58 0 00-.15-.19.84.84 0 00-.23-.12.82.82 0 00-.28 0 1.35 1.35 0 00-.41.06 1.51 1.51 0 00-.35.14l-.29.2a2.66 2.66 0 00-.24.23l-.8-1a3.22 3.22 0 01.43-.39 3 3 0 01.52-.31 2.91 2.91 0 01.61-.2 3 3 0 01.68-.08 2.5 2.5 0 01.88.15 2 2 0 01.68.39 1.72 1.72 0 01.43.57 1.49 1.49 0 01.16.69 1.86 1.86 0 01-.06.48 1.57 1.57 0 01-.18.42 2.13 2.13 0 01-.29.4 3.59 3.59 0 01-.39.39l-.24.24a1.57 1.57 0 00-.2.25 1.55 1.55 0 00-.14.29 1.23 1.23 0 00-.05.35v.11zm-.24 1.54a.94.94 0 01.08-.36 1.21 1.21 0 01.2-.3.92.92 0 01.66-.27.86.86 0 01.36.07 1 1 0 01.3.2 1.21 1.21 0 01.2.3.92.92 0 01.07.36.86.86 0 01-.07.36 1.21 1.21 0 01-.2.3 1 1 0 01-.3.2.86.86 0 01-.36.07.92.92 0 01-.66-.27 1.21 1.21 0 01-.2-.3.86.86 0 01-.08-.36z"/><path class="cls-1" d="M380.33 78.94v101.35h-70.65V78.94zm2-11h-74.65v114.35h74.65V67.94z"/><path class="cls-1" d="M329.21 117.48h31.56v1.25h-31.56z"/><path class="cls-2" d="M312.92 147.61h18.5v8.02h-18.5z"/><path class="cls-3" d="M312.92 154.82h18.5v.8h-18.5z"/><path class="cls-1" d="M318.92 112.71a5.4 5.4 0 11-5.4 5.4 5.4 5.4 0 015.4-5.4m0-.6a6 6 0 106 6 6 6 0 00-6-6zM329.21 135.23h24.71v1.25h-24.71zM318.92 130.46a5.4 5.4 0 11-5.4 5.4 5.4 5.4 0 015.4-5.4m0-.6a6 6 0 106 6 6 6 0 00-6-6zM517.86 84.69h5.33V86h-2v5.69h-1.41V86h-2zM526.32 87.77h-.14a2.38 2.38 0 00-.55.06 1.26 1.26 0 00-.47.21 1.18 1.18 0 00-.32.43 1.8 1.8 0 00-.12.68v2.54h-1.34v-5.23h1.34v.59a1.64 1.64 0 01.22-.25 1.89 1.89 0 01.31-.22 2 2 0 01.39-.15 1.86 1.86 0 01.48-.06h.2zM530.07 91.2l-.21.2a1.52 1.52 0 01-.28.19 1.88 1.88 0 01-.38.14 1.9 1.9 0 01-.5.06 2.09 2.09 0 01-.72-.12 1.82 1.82 0 01-.57-.35 1.62 1.62 0 01-.39-.52 1.41 1.41 0 01-.15-.65 1.44 1.44 0 01.39-1 1.88 1.88 0 011.08-.5l1.51-.22v-.1a.73.73 0 00-.22-.55 1 1 0 00-.7-.21 1.9 1.9 0 00-.4 0l-.39.1a2.32 2.32 0 00-.35.14l-.29.13-.52-1a5.25 5.25 0 011-.41 4 4 0 011.14-.16 3.63 3.63 0 01.73.08 1.89 1.89 0 01.67.27 1.53 1.53 0 01.49.55 1.75 1.75 0 01.19.87v2.15a.44.44 0 00.12.34 1.25 1.25 0 00.33.2l-.61 1a1.37 1.37 0 01-.59-.19 1.18 1.18 0 01-.38-.44zm-1.23-1.63a.73.73 0 00-.4.17.47.47 0 00-.15.37.58.58 0 00.18.43.74.74 0 00.55.19.86.86 0 00.61-.22.82.82 0 00.22-.58v-.53zM532.32 86.46h1.35v.45a1.59 1.59 0 01.24-.2 1.75 1.75 0 01.29-.18 1.9 1.9 0 01.36-.12 2 2 0 01.44 0 2 2 0 01.76.14 1.73 1.73 0 01.57.38 1.87 1.87 0 01.35.57 2.08 2.08 0 01.13.71v3.53h-1.35v-3a1.33 1.33 0 00-.07-.47.83.83 0 00-.17-.31.68.68 0 00-.26-.18.86.86 0 00-.32 0 1 1 0 00-.39.07.93.93 0 00-.31.22 1.18 1.18 0 00-.2.37 1.7 1.7 0 00-.07.53v2.86h-1.35zM538.3 90a2.94 2.94 0 00.69.45 1.91 1.91 0 00.81.18.91.91 0 00.47-.11.36.36 0 00.17-.3q0-.3-.66-.48l-.38-.1a3.18 3.18 0 01-.57-.19 2 2 0 01-.53-.31 1.53 1.53 0 01-.39-.48 1.41 1.41 0 01-.15-.69 1.48 1.48 0 01.14-.62 1.58 1.58 0 01.41-.52 2 2 0 01.65-.36 2.53 2.53 0 01.85-.13 3.19 3.19 0 011.19.21 3 3 0 01.83.47l-.7.9a2.53 2.53 0 00-.59-.31 1.86 1.86 0 00-.68-.13 1 1 0 00-.5.11.35.35 0 00-.17.28.32.32 0 00.15.28 1.39 1.39 0 00.45.18l.56.16a2.56 2.56 0 011.17.62 1.44 1.44 0 01.35 1 1.52 1.52 0 01-.14.63 1.58 1.58 0 01-.4.54 1.94 1.94 0 01-.65.37 2.73 2.73 0 01-.89.13 3.32 3.32 0 01-.72-.07 3 3 0 01-.62-.19 3.05 3.05 0 01-.51-.27 2.2 2.2 0 01-.39-.3zM544.09 93.34h-1.35v-6.88h1.35v.45a1.88 1.88 0 01.54-.39 1.67 1.67 0 01.78-.16 2.09 2.09 0 01.94.21 2.22 2.22 0 01.72.57 2.64 2.64 0 01.47.86 3.52 3.52 0 010 2.16 2.86 2.86 0 01-.48.86 2.14 2.14 0 01-1.69.77 1.73 1.73 0 01-.41 0 1.8 1.8 0 01-.35-.12 1.22 1.22 0 01-.29-.17 2.39 2.39 0 01-.23-.22zm0-3.78a1 1 0 00.07.39.84.84 0 00.22.31 1 1 0 00.34.21 1.25 1.25 0 00.45.07 1.19 1.19 0 00.51-.1 1.07 1.07 0 00.37-.3 1.37 1.37 0 00.23-.45 2.14 2.14 0 00.08-.58v-.06a2 2 0 00-.08-.57A1.33 1.33 0 00546 88a1.07 1.07 0 00-.37-.3 1.19 1.19 0 00-.51-.11 1.52 1.52 0 00-.45.07 1 1 0 00-.34.21.84.84 0 00-.22.31 1 1 0 00-.07.39zM550.91 86.36a2.59 2.59 0 011.05.21 2.37 2.37 0 01.81.57 2.46 2.46 0 01.52.87 3.3 3.3 0 010 2.15 2.53 2.53 0 01-.52.85 2.43 2.43 0 01-.81.57 2.76 2.76 0 01-2.11 0A2.43 2.43 0 01549 91a2.53 2.53 0 01-.52-.85 3.14 3.14 0 010-2.15 2.46 2.46 0 01.52-.87 2.37 2.37 0 01.81-.57 2.61 2.61 0 011.1-.2zm0 4.18a1.06 1.06 0 00.51-.11 1.16 1.16 0 00.37-.29 1.33 1.33 0 00.23-.46 2.14 2.14 0 00.08-.58 2.08 2.08 0 00-.08-.58 1.33 1.33 0 00-.23-.46 1.07 1.07 0 00-.37-.3 1.19 1.19 0 00-.51-.11 1.13 1.13 0 00-.51.11 1 1 0 00-.38.3 1.53 1.53 0 00-.23.46 2.1 2.1 0 00-.07.58 2.15 2.15 0 00.07.58 1.53 1.53 0 00.23.46 1.1 1.1 0 00.38.29 1 1 0 00.51.11zM557.31 87.77h-.14a2.38 2.38 0 00-.55.06 1.14 1.14 0 00-.46.21 1.08 1.08 0 00-.32.43 1.63 1.63 0 00-.12.68v2.54h-1.35v-5.23h1.35v.59a1.16 1.16 0 01.21-.25 1.89 1.89 0 01.31-.22 2.26 2.26 0 01.39-.15 1.86 1.86 0 01.48-.06h.2zM560.08 90.14a.47.47 0 000 .17.46.46 0 00.09.15.34.34 0 00.17.09 1.12 1.12 0 00.29 0h.66l.12 1.19h-1.22a1.69 1.69 0 01-1.09-.32 1.23 1.23 0 01-.39-1v-2.78h-.94v-1.18h.94V85l1.35-.36v1.84h1.37v1.18h-1.37zM521.65 102.24a1.7 1.7 0 01-.24.22.92.92 0 01-.29.17 1.7 1.7 0 01-.34.12 1.87 1.87 0 01-.42 0 2.1 2.1 0 01-1.68-.77 2.49 2.49 0 01-.48-.86 3.52 3.52 0 010-2.16 2.62 2.62 0 01.46-.86 2.16 2.16 0 01.73-.57 2.06 2.06 0 01.94-.21 1.67 1.67 0 01.78.16 2.2 2.2 0 01.54.39v-.45H523v6.88h-1.35zm0-2.65a1 1 0 00-.08-.39.84.84 0 00-.22-.31.93.93 0 00-.33-.21 1.52 1.52 0 00-.45-.07 1.19 1.19 0 00-.51.11 1 1 0 00-.37.3 1.33 1.33 0 00-.23.46 2 2 0 00-.08.57v.06a2.14 2.14 0 00.08.58 1.37 1.37 0 00.23.45 1 1 0 00.37.3 1.19 1.19 0 00.51.1 1.25 1.25 0 00.45-.07.93.93 0 00.33-.21.84.84 0 00.22-.31 1 1 0 00.08-.39zM528.61 102.69h-1.35v-.45l-.24.21a1.49 1.49 0 01-.3.18 1.78 1.78 0 01-.79.16 2.07 2.07 0 01-.77-.14 1.59 1.59 0 01-.56-.38 1.54 1.54 0 01-.36-.57 2 2 0 01-.12-.71v-3.53h1.35v3a1.58 1.58 0 00.06.47.88.88 0 00.17.32.56.56 0 00.26.17.88.88 0 00.33.06 1 1 0 00.38-.07 1 1 0 00.31-.22 1.07 1.07 0 00.21-.38 2 2 0 00.07-.53v-2.82h1.35zM530.9 100.54a1.1 1.1 0 00.15.44 1 1 0 00.29.33 1.11 1.11 0 00.4.22 1.62 1.62 0 00.49.08 2 2 0 00.65-.12 1.9 1.9 0 00.63-.33l.65.94a2.77 2.77 0 01-.9.5 3.23 3.23 0 01-1.13.19 2.88 2.88 0 01-1-.18 2.63 2.63 0 01-.84-.54 2.59 2.59 0 01-.57-.86 2.88 2.88 0 01-.2-1.13 3.12 3.12 0 01.18-1.07 2.6 2.6 0 01.51-.87 2.5 2.5 0 01.79-.57 2.45 2.45 0 011-.21 2.38 2.38 0 011 .19 2.17 2.17 0 01.77.53 2.4 2.4 0 01.52.81 2.91 2.91 0 01.18 1v.61zm1.09-2a1 1 0 00-.73.29 1.15 1.15 0 00-.35.7H533a1 1 0 00-1-1zM535.66 101a2.94 2.94 0 00.69.45 1.91 1.91 0 00.81.18.93.93 0 00.47-.11.36.36 0 00.17-.3q0-.3-.66-.48l-.38-.1a3.56 3.56 0 01-.58-.19 2.37 2.37 0 01-.53-.31 1.39 1.39 0 01-.53-1.17 1.34 1.34 0 01.14-.62 1.58 1.58 0 01.41-.52 2 2 0 01.65-.36 2.49 2.49 0 01.85-.13 3.19 3.19 0 011.19.21 3 3 0 01.83.47l-.71.9a2.28 2.28 0 00-.58-.31 1.86 1.86 0 00-.68-.13 1 1 0 00-.5.11.33.33 0 000 .56 1.39 1.39 0 00.45.18l.56.16a2.56 2.56 0 011.17.62 1.44 1.44 0 01.35 1 1.52 1.52 0 01-.14.63 1.58 1.58 0 01-.4.54 2 2 0 01-.65.37 2.77 2.77 0 01-.89.13 3.26 3.26 0 01-.72-.07 3 3 0 01-.62-.19 3.05 3.05 0 01-.51-.27 2.2 2.2 0 01-.39-.3zM542 101.14a.47.47 0 000 .17.31.31 0 00.08.15.44.44 0 00.18.09 1.12 1.12 0 00.29 0h.66l.12 1.19h-1.22a1.69 1.69 0 01-1.09-.32 1.23 1.23 0 01-.39-1v-2.78h-.95v-1.18h.95V96l1.34-.36v1.84h1.38v1.18H542zM544.1 96.09a.82.82 0 01.07-.31.78.78 0 01.17-.26.81.81 0 01.26-.18.83.83 0 01.32-.06.81.81 0 01.31.06.81.81 0 01.26.18.78.78 0 01.17.26.74.74 0 010 .63.9.9 0 01-.17.26.78.78 0 01-.26.17.81.81 0 01-.31.06.83.83 0 01-.32-.06.78.78 0 01-.26-.17.9.9 0 01-.17-.26.83.83 0 01-.07-.32zm1.49 6.6h-1.34v-5.23h1.34zM549.06 97.36a2.59 2.59 0 011.05.21 2.37 2.37 0 01.81.57 2.46 2.46 0 01.52.87 3.3 3.3 0 010 2.15 2.7 2.7 0 01-.52.85 2.43 2.43 0 01-.81.57 2.76 2.76 0 01-2.11 0 2.33 2.33 0 01-.81-.57 2.53 2.53 0 01-.52-.85 3.14 3.14 0 010-2.15 2.46 2.46 0 01.52-.87 2.37 2.37 0 01.81-.57 2.61 2.61 0 011.06-.21zm0 4.18a1.06 1.06 0 00.51-.11 1.16 1.16 0 00.37-.29 1.33 1.33 0 00.23-.46 2.14 2.14 0 00.08-.58 2.08 2.08 0 00-.08-.58 1.33 1.33 0 00-.23-.46 1.07 1.07 0 00-.37-.3 1.19 1.19 0 00-.51-.11 1.13 1.13 0 00-.51.11 1 1 0 00-.38.3 1.33 1.33 0 00-.23.46 2.08 2.08 0 00-.08.58 2.14 2.14 0 00.08.58 1.33 1.33 0 00.23.46 1.1 1.1 0 00.38.29 1 1 0 00.51.11zM552.52 97.46h1.35v.45a1.59 1.59 0 01.24-.2 1.75 1.75 0 01.29-.18 1.9 1.9 0 01.36-.12 2 2 0 01.44 0 2 2 0 01.76.14 1.73 1.73 0 01.57.38 1.87 1.87 0 01.35.57 2.08 2.08 0 01.13.71v3.53h-1.35v-3a1.33 1.33 0 00-.07-.47.83.83 0 00-.17-.31.68.68 0 00-.26-.18.86.86 0 00-.32 0 1 1 0 00-.39.07.93.93 0 00-.31.22 1.18 1.18 0 00-.2.37 1.7 1.7 0 00-.07.53v2.86h-1.35zM559.25 100.32V100a1.59 1.59 0 01.1-.59 2.19 2.19 0 01.25-.48 2.44 2.44 0 01.32-.4l.32-.35a2.39 2.39 0 00.25-.33.59.59 0 00.1-.34.58.58 0 00-.21-.43.78.78 0 00-.22-.12.86.86 0 00-.28 0 1.31 1.31 0 00-.41.06 1.35 1.35 0 00-.35.14 2.23 2.23 0 00-.3.2 2.49 2.49 0 00-.23.23l-.8-1a2.7 2.7 0 01.43-.39 3 3 0 01.52-.31 3 3 0 01.6-.2 3.1 3.1 0 01.69-.08 2.41 2.41 0 01.87.15 1.89 1.89 0 01.68.39 1.68 1.68 0 01.6 1.26 1.51 1.51 0 01-.07.48 1.54 1.54 0 01-.17.42 2.7 2.7 0 01-.29.4l-.39.39a2.72 2.72 0 00-.24.24 1.16 1.16 0 00-.2.25 1.11 1.11 0 00-.14.29 1 1 0 000 .35v.11zm-.24 1.54a.92.92 0 01.07-.36 1 1 0 01.21-.3.93.93 0 01.3-.2 1 1 0 01.72 0 1 1 0 01.29.2.83.83 0 01.2.3.94.94 0 01.08.36.86.86 0 01-.08.36.83.83 0 01-.2.3 1 1 0 01-.29.2 1 1 0 01-.72 0 .93.93 0 01-.3-.2 1 1 0 01-.21-.3.86.86 0 01-.08-.36z"/><path class="cls-1" d="M585.09 78.94v101.35h-70.64V78.94zm2-11h-74.64v114.35h74.64V67.94z"/><path class="cls-1" d="M533.97 117.48h31.56v1.25h-31.56zM523.69 112.71a5.4 5.4 0 11-5.4 5.4 5.39 5.39 0 015.4-5.4m0-.6a6 6 0 106 6 6 6 0 00-6-6zM533.97 135.23h24.71v1.25h-24.71zM523.69 130.46a5.4 5.4 0 11-5.4 5.4 5.39 5.39 0 015.4-5.4m0-.6a6 6 0 106 6 6 6 0 00-6-6z"/><path class="cls-2" d="M517.69 165.36h18.5v8.02h-18.5z"/><path class="cls-3" d="M517.69 172.58h18.5v.8h-18.5z"/><path class="cls-1" d="M533.97 152.98h31.56v1.25h-31.56zM523.69 148.21a5.4 5.4 0 11-5.4 5.4 5.39 5.39 0 015.4-5.4m0-.6a6 6 0 106 6 6 6 0 00-6-6zM417.47 86.33v5.36h-1.41v-7h2l2.8 4.7v-4.7h1.41v7h-1.55zM428 91.69h-1.35v-.45a2.52 2.52 0 01-.25.21 1.19 1.19 0 01-.29.18 1.9 1.9 0 01-.36.12 2 2 0 01-.44 0 2.06 2.06 0 01-.76-.14 1.73 1.73 0 01-.57-.38 1.65 1.65 0 01-.35-.57 2 2 0 01-.12-.71v-3.49h1.35v3a1.58 1.58 0 00.14.54.75.75 0 00.17.32.56.56 0 00.26.17.88.88 0 00.33.06 1 1 0 00.38-.07 1 1 0 00.31-.22.92.92 0 00.2-.38 1.64 1.64 0 00.08-.53v-2.89H428zM433.6 91.69h-1.35v-3a1.63 1.63 0 00-.06-.47.71.71 0 00-.17-.31.56.56 0 00-.24-.17.81.81 0 00-.31 0 1.15 1.15 0 00-.37.06.77.77 0 00-.29.22 1 1 0 00-.19.37 1.73 1.73 0 00-.07.54v2.85h-1.35v-5.32h1.35v.46a1.56 1.56 0 01.6-.42 2 2 0 01.74-.14 1.72 1.72 0 01.75.17 1.33 1.33 0 01.59.54 1.44 1.44 0 01.32-.33 1.79 1.79 0 01.38-.22 3 3 0 01.43-.12 2.32 2.32 0 01.46 0 1.94 1.94 0 01.78.15 1.67 1.67 0 01.58.38 1.71 1.71 0 01.37.56 1.74 1.74 0 01.13.67v3.57h-1.36v-3a1.33 1.33 0 00-.07-.47.82.82 0 00-.16-.31.62.62 0 00-.26-.17.78.78 0 00-.31 0 1 1 0 00-.36.06.77.77 0 00-.29.22 1.18 1.18 0 00-.2.37 2.08 2.08 0 00-.07.54zM442.77 89.08a3.4 3.4 0 01-.17 1.08 2.86 2.86 0 01-.48.86 2.14 2.14 0 01-1.69.77 1.73 1.73 0 01-.41 0 1.8 1.8 0 01-.35-.12 1.22 1.22 0 01-.29-.17l-.24-.22v.45h-1.34v-7h1.34v2.22a2.08 2.08 0 01.55-.39 1.67 1.67 0 01.78-.16 2.09 2.09 0 01.94.21 2.22 2.22 0 01.72.57 2.64 2.64 0 01.47.86 3.4 3.4 0 01.17 1.04zm-3.67.48a1 1 0 00.08.39.84.84 0 00.22.31 1 1 0 00.34.21 1.23 1.23 0 00.44.07 1.13 1.13 0 00.51-.1 1 1 0 00.38-.3 1.37 1.37 0 00.23-.45 2.14 2.14 0 00.08-.58v-.06a2 2 0 00-.08-.57 1.33 1.33 0 00-.23-.46 1 1 0 00-.38-.3 1.13 1.13 0 00-.51-.11 1.5 1.5 0 00-.44.07 1 1 0 00-.34.21.84.84 0 00-.22.31 1 1 0 00-.08.39zM444.79 89.54a1.52 1.52 0 00.15.44 1.32 1.32 0 00.29.33 1.25 1.25 0 00.41.22 1.57 1.57 0 00.49.08 1.94 1.94 0 00.64-.12 1.86 1.86 0 00.64-.33l.65.94a2.77 2.77 0 01-.9.5 3.23 3.23 0 01-1.13.19 2.9 2.9 0 01-1-.18 2.7 2.7 0 01-.83-.54 2.59 2.59 0 01-.57-.86 3.13 3.13 0 010-2.2 2.6 2.6 0 01.51-.87 2.5 2.5 0 012.77-.59 2.35 2.35 0 011.28 1.34 2.71 2.71 0 01.19 1v.61zm1.1-2a1 1 0 00-.74.29 1.2 1.2 0 00-.35.7h2.11a.94.94 0 00-.3-.7 1 1 0 00-.72-.3zM452.12 87.77H452a2.51 2.51 0 00-.55.06 1.21 1.21 0 00-.45.17 1.18 1.18 0 00-.32.43 1.63 1.63 0 00-.12.68v2.54h-1.35v-5.19h1.35v.59a1.64 1.64 0 01.22-.25 1.79 1.79 0 01.3-.22 2.08 2.08 0 01.4-.15 1.78 1.78 0 01.47-.06h.2zM456.85 86.36a2.44 2.44 0 012.39 1.64 3.3 3.3 0 010 2.15 2.55 2.55 0 01-.53.85 2.24 2.24 0 01-.81.57 2.52 2.52 0 01-1 .21 2.59 2.59 0 01-1.05-.21A2.24 2.24 0 01455 91a2.38 2.38 0 01-.52-.85 2.92 2.92 0 01-.19-1.08 3.12 3.12 0 01.18-1.07 2.8 2.8 0 01.52-.87 2.52 2.52 0 01.82-.57 2.56 2.56 0 011.04-.2zm0 4.18a1 1 0 00.51-.11 1.1 1.1 0 00.38-.29 1.53 1.53 0 00.23-.46 2.14 2.14 0 00.08-.58 2.08 2.08 0 00-.08-.58 1.53 1.53 0 00-.23-.46 1 1 0 00-.38-.3 1.13 1.13 0 00-.51-.11 1.19 1.19 0 00-.51.11 1.07 1.07 0 00-.37.3 1.33 1.33 0 00-.23.46 2.08 2.08 0 00-.08.58 2.14 2.14 0 00.08.58 1.33 1.33 0 00.23.46 1.16 1.16 0 00.37.29 1.06 1.06 0 00.51.11zM462.12 86.46h1v1.18h-1v4h-1.35v-4h-.83v-1.18h.83v-.64a1.38 1.38 0 01.12-.59 1 1 0 01.33-.41 1.42 1.42 0 01.49-.25 2.63 2.63 0 01.65-.08h1.07l-.12 1.15h-.66a.65.65 0 00-.41.11.38.38 0 00-.12.28zM417 102.69l-1.61-5.23h1.51l.93 3.6 1-3.6h1.48l-1.6 5.23zM422.09 100.54a1.52 1.52 0 00.15.44 1.32 1.32 0 00.29.33 1.25 1.25 0 00.41.22 1.57 1.57 0 00.49.08 1.94 1.94 0 00.64-.12 1.86 1.86 0 00.64-.33l.65.94a2.77 2.77 0 01-.9.5 3.27 3.27 0 01-1.13.19 2.9 2.9 0 01-1-.18 2.7 2.7 0 01-.83-.54 2.59 2.59 0 01-.57-.86 2.88 2.88 0 01-.21-1.13 3.12 3.12 0 01.18-1.07 2.8 2.8 0 01.52-.87 2.5 2.5 0 012.77-.59 2.35 2.35 0 011.28 1.34 2.71 2.71 0 01.19 1v.61zm1.1-2a1 1 0 00-.74.29 1.2 1.2 0 00-.35.7h2.11a1 1 0 00-.3-.7 1 1 0 00-.72-.3zM426.48 95.69h1.35v2.22a1.59 1.59 0 01.24-.2 1.49 1.49 0 01.3-.18 1.52 1.52 0 01.36-.12 1.88 1.88 0 01.43 0 2.07 2.07 0 01.77.14 1.59 1.59 0 01.56.38 1.72 1.72 0 01.36.57 2.08 2.08 0 01.12.71v3.53h-1.35v-3a1.63 1.63 0 00-.06-.47.83.83 0 00-.17-.31.76.76 0 00-.26-.18.88.88 0 00-.33 0 1 1 0 00-.38.07.84.84 0 00-.31.22 1 1 0 00-.21.37 1.7 1.7 0 00-.07.53v2.86h-1.35zM432 96.09a.67.67 0 01.07-.31.78.78 0 01.17-.26.88.88 0 01.25-.18.88.88 0 01.64 0 .93.93 0 01.26.18.78.78 0 01.17.26.81.81 0 01.06.31.83.83 0 01-.06.32.76.76 0 01-.43.43.88.88 0 01-.64 0 .85.85 0 01-.25-.17.9.9 0 01-.17-.26.68.68 0 01-.07-.32zm1.49 6.6h-1.35v-5.23h1.35zM435.72 100.11a1.89 1.89 0 00.07.51 1.48 1.48 0 00.21.46 1.27 1.27 0 00.36.33 1 1 0 00.53.13 1.38 1.38 0 00.37-.05 1.32 1.32 0 00.29-.15 1.25 1.25 0 00.23-.23 1.31 1.31 0 00.17-.28l1.18.61a2 2 0 01-.34.56 1.92 1.92 0 01-.52.42 2.71 2.71 0 01-.65.28 3.1 3.1 0 01-.76.09 2.44 2.44 0 01-1-.21 2.29 2.29 0 01-.8-.57 2.55 2.55 0 01-.53-.85 3.14 3.14 0 010-2.15 2.64 2.64 0 01.53-.87 2.45 2.45 0 011.81-.78 2.68 2.68 0 01.76.1 2.35 2.35 0 01.65.27 2.17 2.17 0 01.52.43 2 2 0 01.34.55l-1.18.61a1.61 1.61 0 00-.17-.28 1.2 1.2 0 00-.23-.22 1 1 0 00-.29-.15 1.06 1.06 0 00-.37-.06 1 1 0 00-.53.13 1.17 1.17 0 00-.36.34 1.48 1.48 0 00-.21.46 1.91 1.91 0 00-.07.52zM439.94 95.69h1.35v5.58a.3.3 0 00.1.25.41.41 0 00.3.09h.35l.11 1.15h-.96a1.61 1.61 0 01-.51-.07 1 1 0 01-.4-.22 1.16 1.16 0 01-.25-.36 1.28 1.28 0 01-.09-.5zM444 100.54a1.1 1.1 0 00.15.44 1.27 1.27 0 00.7.55 1.53 1.53 0 00.49.08 2.37 2.37 0 001.28-.45l.65.94a3 3 0 01-.9.5 3.27 3.27 0 01-1.13.19 2.9 2.9 0 01-1-.18 2.48 2.48 0 01-.83-.54 2.59 2.59 0 01-.57-.86 2.88 2.88 0 01-.21-1.13 3.12 3.12 0 01.17-1.08 2.8 2.8 0 01.52-.87 2.5 2.5 0 012.77-.59 2.35 2.35 0 011.28 1.34 2.71 2.71 0 01.19 1v.61zm1.1-2a1 1 0 00-.74.29 1.15 1.15 0 00-.35.7h2.11a1 1 0 00-1-1zM448.78 101a2.94 2.94 0 00.69.45 2 2 0 00.81.18.88.88 0 00.47-.11.36.36 0 00.17-.3q0-.3-.66-.48l-.38-.1a3.18 3.18 0 01-.57-.19 2.17 2.17 0 01-.53-.31 1.53 1.53 0 01-.39-.48 1.41 1.41 0 01-.15-.69 1.48 1.48 0 01.14-.62 1.72 1.72 0 01.41-.52 2.14 2.14 0 01.65-.36 2.57 2.57 0 01.85-.13 3.21 3.21 0 011.2.21 3 3 0 01.82.47l-.7.9a2.35 2.35 0 00-.59-.31 1.79 1.79 0 00-.68-.13.94.94 0 00-.49.11.34.34 0 00-.18.28.31.31 0 00.16.28 1.42 1.42 0 00.44.18l.57.16a2.47 2.47 0 011.16.62 1.44 1.44 0 01.35 1 1.51 1.51 0 01-.13.63 1.76 1.76 0 01-.41.54 1.94 1.94 0 01-.65.37 2.73 2.73 0 01-.89.13 3.23 3.23 0 01-.71-.07 2.81 2.81 0 01-.62-.19 3.17 3.17 0 01-.52-.27 3.31 3.31 0 01-.39-.3zM454.34 100.32V100a1.59 1.59 0 01.1-.59 2.73 2.73 0 01.25-.48 3.12 3.12 0 01.32-.4c.12-.12.22-.24.32-.35a1.79 1.79 0 00.25-.33.59.59 0 00.1-.34.6.6 0 00-.05-.24.49.49 0 00-.16-.19.66.66 0 00-.22-.12.86.86 0 00-.28 0 1.35 1.35 0 00-.41.06 1.51 1.51 0 00-.35.14 2.11 2.11 0 00-.29.2 2.66 2.66 0 00-.24.23l-.8-1a3.22 3.22 0 01.43-.39 3 3 0 01.52-.31 2.91 2.91 0 01.61-.2 3 3 0 01.68-.08 2.41 2.41 0 01.87.15 1.89 1.89 0 01.68.39 1.62 1.62 0 01.44.57 1.49 1.49 0 01.16.69 1.86 1.86 0 01-.06.48 1.57 1.57 0 01-.18.42 2.13 2.13 0 01-.29.4 3.59 3.59 0 01-.39.39l-.24.24a1.57 1.57 0 00-.2.25 1.55 1.55 0 00-.14.29 1.23 1.23 0 000 .35v.11zm-.24 1.54a.94.94 0 01.08-.36 1 1 0 01.2-.3.93.93 0 01.3-.2.89.89 0 01.36-.07.86.86 0 01.36.07.92.92 0 01.5.5.92.92 0 01.07.36.86.86 0 01-.07.36.92.92 0 01-.5.5.86.86 0 01-.36.07.89.89 0 01-.36-.07.93.93 0 01-.3-.2 1 1 0 01-.2-.3.86.86 0 01-.08-.36z"/><path class="cls-1" d="M482.71 78.94v101.35h-70.65V78.94zm2-11h-74.65v114.35h74.65V67.94z"/><path class="cls-2" d="M415.3 131.85h18.5v8.02h-18.5z"/><path class="cls-3" d="M415.3 139.06h18.5v.8h-18.5z"/><path class="cls-1" d="M443.39 112.86v10.5h-27.77v-10.5h27.77m.75-.75h-29.27v12h29.27v-12zM722.85 88.08a4.34 4.34 0 01.23-1.41 3.36 3.36 0 01.65-1.14 3.13 3.13 0 011-.77 3.18 3.18 0 011.36-.28 3.64 3.64 0 011 .14 3 3 0 01.84.4 2.55 2.55 0 01.64.63 2.76 2.76 0 01.42.82l-1.36.45a1.76 1.76 0 00-.18-.4 1.48 1.48 0 00-.33-.38 2 2 0 00-.45-.28 1.59 1.59 0 00-.59-.1 1.54 1.54 0 00-.82.2 1.67 1.67 0 00-.57.52 2.42 2.42 0 00-.32.73 3.48 3.48 0 00-.11.85 3.34 3.34 0 00.11.84 2.48 2.48 0 00.32.74 1.78 1.78 0 00.57.52 1.63 1.63 0 00.82.2 1.59 1.59 0 00.59-.11 1.48 1.48 0 00.45-.28 1.44 1.44 0 00.33-.37 2 2 0 00.18-.4l1.36.45a3 3 0 01-.42.82 2.94 2.94 0 01-.64.63 3.26 3.26 0 01-.84.4 3.64 3.64 0 01-1 .14 3.34 3.34 0 01-1.36-.28 3.13 3.13 0 01-1-.77 3.56 3.56 0 01-.65-1.14 4.34 4.34 0 01-.23-1.37zM732.21 86.25a2.78 2.78 0 011.06.2 2.46 2.46 0 01.81.58 2.57 2.57 0 01.52.86 3.3 3.3 0 010 2.15 2.59 2.59 0 01-.53.86 2.37 2.37 0 01-.81.57 2.52 2.52 0 01-1 .21 2.56 2.56 0 01-1.05-.21 2.37 2.37 0 01-.81-.57 2.42 2.42 0 01-.52-.86 2.9 2.9 0 01-.19-1.07 3.14 3.14 0 01.18-1.08 2.75 2.75 0 01.52-.86 2.4 2.4 0 01.82-.58 2.73 2.73 0 011-.2zm0 4.18a1.13 1.13 0 00.51-.11 1 1 0 00.38-.3 1.53 1.53 0 00.23-.46 2.08 2.08 0 00.08-.58 2.16 2.16 0 00-.08-.59 1.65 1.65 0 00-.23-.46 1.07 1.07 0 00-.89-.4 1 1 0 00-.88.4 1.42 1.42 0 00-.23.46 2.16 2.16 0 00-.1.61 2.08 2.08 0 00.08.58 1.33 1.33 0 00.23.46 1.07 1.07 0 00.37.3 1.19 1.19 0 00.53.09zM736.05 89.91a2.63 2.63 0 00.69.44 1.78 1.78 0 00.81.19.78.78 0 00.46-.12.33.33 0 00.18-.29q0-.31-.66-.48l-.38-.1a4.89 4.89 0 01-.58-.19A2.41 2.41 0 01736 89a1.61 1.61 0 01-.39-.47 1.47 1.47 0 01-.15-.69 1.39 1.39 0 01.15-.63 1.68 1.68 0 01.41-.52 2 2 0 01.65-.35 2.49 2.49 0 01.85-.13 3.19 3.19 0 011.19.21 2.79 2.79 0 01.83.47l-.71.89a2.64 2.64 0 00-.58-.31 2.1 2.1 0 00-.69-.13.87.87 0 00-.49.12.32.32 0 00-.17.28.32.32 0 00.15.27 1.38 1.38 0 00.45.19l.56.16a2.38 2.38 0 011.16.62 1.4 1.4 0 01.36 1 1.52 1.52 0 01-.14.63 1.58 1.58 0 01-.4.53 1.92 1.92 0 01-.66.37 2.66 2.66 0 01-.88.14 4 4 0 01-.72-.07 3.75 3.75 0 01-.62-.19 3.05 3.05 0 01-.51-.27 2.77 2.77 0 01-.4-.3zM742.41 90a.57.57 0 000 .18.29.29 0 00.08.14.5.5 0 00.18.1 1.12 1.12 0 00.29 0h.65l.13 1.19h-1.22a1.69 1.69 0 01-1.09-.32 1.23 1.23 0 01-.39-1v-2.77h-1v-1.17h1v-1.48l1.34-.36v1.84h1.38v1.17h-1.38zM745 89.91a2.63 2.63 0 00.69.44 1.78 1.78 0 00.81.19.78.78 0 00.46-.12.33.33 0 00.18-.29q0-.31-.66-.48l-.38-.1a4.89 4.89 0 01-.58-.19A2.41 2.41 0 01745 89a1.61 1.61 0 01-.39-.47 1.47 1.47 0 01-.15-.69 1.39 1.39 0 01.15-.63 1.55 1.55 0 01.41-.52 2 2 0 01.65-.35 2.49 2.49 0 01.85-.13 3.19 3.19 0 011.19.21 2.79 2.79 0 01.83.47l-.71.89a2.64 2.64 0 00-.58-.31 2.1 2.1 0 00-.69-.13.87.87 0 00-.49.12.32.32 0 00-.17.28.32.32 0 00.15.27 1.38 1.38 0 00.45.19l.56.16a2.38 2.38 0 011.16.62 1.4 1.4 0 01.36 1 1.52 1.52 0 01-.14.63 1.58 1.58 0 01-.4.53 1.92 1.92 0 01-.66.37 2.66 2.66 0 01-.88.14 4 4 0 01-.72-.07 3.75 3.75 0 01-.62-.19 3.05 3.05 0 01-.51-.27 2.77 2.77 0 01-.4-.3z"/><path class="cls-1" d="M789.86 78.82v101.36h-70.65V78.82zm2-11h-74.65v114.36h74.65V67.82z"/><path class="cls-2" d="M722.45 134.79h18.5v8.02h-18.5z"/><path class="cls-3" d="M722.45 142.01h18.5v.8h-18.5z"/><path class="cls-1" d="M722.45 97.35h63.15v1.25h-63.15zM722.45 107.07h63.15v1.25h-63.15zM722.45 116.78h63.15v1.25h-63.15zM722.45 126.5h63.15v1.25h-63.15z"/><path class="cls-4" d="M722.47 102.18h12.73v.75h-12.73zM722.47 112.18h12.73v.75h-12.73zM722.47 121.89h12.73v.75h-12.73z"/><path class="cls-1" d="M772.87 102.18h12.73v.75h-12.73zM772.87 112.18h12.73v.75h-12.73zM772.87 121.89h12.73v.75h-12.73zM622.24 229v5.36h-1.42v-7h2l2.8 4.7v-4.7H627v7h-1.56zM630.65 229a2.6 2.6 0 011.06.2 2.46 2.46 0 01.81.58 2.75 2.75 0 01.52.86 3.14 3.14 0 01.18 1.08 2.9 2.9 0 01-.19 1.07 2.42 2.42 0 01-.52.86 2.37 2.37 0 01-.81.57 2.86 2.86 0 01-2.1 0 2.37 2.37 0 01-.81-.57 2.59 2.59 0 01-.53-.86 3.3 3.3 0 010-2.15 2.57 2.57 0 01.52-.86 2.46 2.46 0 01.81-.58 2.6 2.6 0 011.06-.2zm0 4.17a1.19 1.19 0 00.51-.1 1.1 1.1 0 00.38-.3 1.53 1.53 0 00.23-.46 2.1 2.1 0 00.07-.58 2.17 2.17 0 00-.07-.59 1.53 1.53 0 00-.23-.46 1.1 1.1 0 00-.38-.3 1.35 1.35 0 00-1 0 1 1 0 00-.37.3 1.33 1.33 0 00-.23.46 2.16 2.16 0 00-.08.59 2.08 2.08 0 00.08.58 1.33 1.33 0 00.23.46 1 1 0 00.37.3 1.19 1.19 0 00.49.14zM636 232.81a.57.57 0 000 .18.29.29 0 00.08.14.38.38 0 00.18.09.75.75 0 00.28 0h.66l.12 1.19h-1.22a1.67 1.67 0 01-1.08-.31 1.23 1.23 0 01-.4-1v-2.83h-.94v-1.17h.94v-1.48l1.35-.36v1.84h1.37v1.17H636zM641.19 232.22a1.46 1.46 0 00.15.43 1.58 1.58 0 00.29.34 1.44 1.44 0 00.41.21 1.33 1.33 0 00.49.08 2 2 0 00.65-.11 2.13 2.13 0 00.63-.34l.65.95a2.76 2.76 0 01-.9.49 3.23 3.23 0 01-1.13.19 2.84 2.84 0 01-1-.18 2.33 2.33 0 01-.84-.54 2.54 2.54 0 01-.57-.85 3 3 0 01-.21-1.13 2.92 2.92 0 01.19-1.08 2.55 2.55 0 01.51-.86 2.28 2.28 0 01.79-.58 2.37 2.37 0 011-.2 2.58 2.58 0 011 .18 2.35 2.35 0 011.28 1.34 2.76 2.76 0 01.19 1.05v.61zm1.1-2a1 1 0 00-.74.29 1.15 1.15 0 00-.35.7h2.11a.92.92 0 00-.3-.7 1 1 0 00-.72-.3zM645.56 227.37h1.35v5.57a.33.33 0 00.1.26.47.47 0 00.3.08h.35l.11 1.16h-.96a1.61 1.61 0 01-.51-.07 1 1 0 01-.4-.22.9.9 0 01-.25-.35 1.31 1.31 0 01-.09-.5zM648.37 227.77a.83.83 0 01.06-.32 1 1 0 01.18-.26.85.85 0 01.25-.17.88.88 0 01.64 0 .9.9 0 01.26.17.78.78 0 01.17.26.83.83 0 01.06.32.81.81 0 01-.23.57.9.9 0 01-.26.17.77.77 0 01-.64 0 .85.85 0 01-.25-.17 1 1 0 01-.18-.26.78.78 0 01-.06-.31zm1.49 6.6h-1.35v-5.23h1.35zM654.2 233.44a1.25 1.25 0 01-.5.35 1.87 1.87 0 01-.71.13 2.19 2.19 0 01-.94-.19 1.94 1.94 0 01-.69-.51 2.3 2.3 0 01-.43-.77 3 3 0 01-.15-1 3 3 0 01.15-1 2.45 2.45 0 01.43-.78 1.94 1.94 0 01.69-.51 2.35 2.35 0 01.95-.16 1.87 1.87 0 01.71.13 1.25 1.25 0 01.5.35v-.38h1.35v5.18a1.74 1.74 0 01-.18.82 1.61 1.61 0 01-.5.57 2.09 2.09 0 01-.73.31 3.53 3.53 0 01-.88.11 5.59 5.59 0 01-1.19-.14 5.91 5.91 0 01-1.07-.33l.38-1.1.34.13a4.38 4.38 0 00.43.13l.48.09h.49a1.84 1.84 0 00.41 0 1.15 1.15 0 00.34-.13.82.82 0 00.24-.25.78.78 0 00.09-.39zm-2-1.94a1.86 1.86 0 00.05.48 1.17 1.17 0 00.18.39.89.89 0 00.32.25 1.13 1.13 0 00.47.09.89.89 0 00.79-.35 1.55 1.55 0 00.23-.86 2.46 2.46 0 00-.05-.49 1.11 1.11 0 00-.18-.38.76.76 0 00-.31-.25 1.14 1.14 0 00-.48-.09.88.88 0 00-.78.34 1.49 1.49 0 00-.24.87zM656.57 227.77a.83.83 0 01.06-.32.81.81 0 01.18-.26.85.85 0 01.25-.17.88.88 0 01.64 0 .85.85 0 01.25.17.81.81 0 01.18.26.83.83 0 01.06.32.78.78 0 01-.06.31.81.81 0 01-.18.26.85.85 0 01-.25.17.77.77 0 01-.64 0 .85.85 0 01-.25-.17.81.81 0 01-.18-.26.78.78 0 01-.06-.31zm1.49 6.6h-1.35v-5.23h1.35zM664.19 231.76a3.38 3.38 0 01-.17 1.07 2.4 2.4 0 01-.48.86 2.26 2.26 0 01-.73.57 2.16 2.16 0 01-.95.2 1.82 1.82 0 01-.42 0 1.13 1.13 0 01-.34-.11 1.41 1.41 0 01-.29-.18 1.21 1.21 0 01-.24-.21v.45h-1.35v-7h1.35v2.22a1.78 1.78 0 01.54-.39 1.73 1.73 0 01.78-.16 2.06 2.06 0 01.94.2 2.26 2.26 0 01.73.57 2.9 2.9 0 01.47.87 3.4 3.4 0 01.16 1.04zm-3.66.48a1 1 0 00.08.39 1 1 0 00.21.31 1.27 1.27 0 00.34.2 1.25 1.25 0 00.45.07 1.19 1.19 0 00.51-.1 1 1 0 00.37-.3 1.2 1.2 0 00.23-.45 2 2 0 00.08-.57v-.06a2.14 2.14 0 00-.08-.58 1.33 1.33 0 00-.23-.46 1 1 0 00-.37-.3 1.19 1.19 0 00-.51-.1 1.25 1.25 0 00-.45.07 1.27 1.27 0 00-.34.2 1 1 0 00-.21.32 1 1 0 00-.08.39zM665.07 227.37h1.35v5.57a.36.36 0 00.09.26.52.52 0 00.31.08h.36l.11 1.16h-.96a1.72 1.72 0 01-.52-.07 1.07 1.07 0 01-.39-.22.9.9 0 01-.25-.35 1.31 1.31 0 01-.09-.5zM669.15 232.22a1.05 1.05 0 00.15.43 1.17 1.17 0 00.29.34 1.39 1.39 0 00.4.21 1.36 1.36 0 00.49.08 2 2 0 00.65-.11 2.32 2.32 0 00.64-.34l.64.95a2.81 2.81 0 01-.89.49 3.33 3.33 0 01-1.14.19 2.88 2.88 0 01-1-.18 2.33 2.33 0 01-.84-.54 2.54 2.54 0 01-.57-.85 3.31 3.31 0 010-2.21 2.55 2.55 0 01.51-.86 2.38 2.38 0 01.79-.58 2.44 2.44 0 011-.2 2.52 2.52 0 011 .18 2.21 2.21 0 01.77.53 2.62 2.62 0 01.52.81 3 3 0 01.18 1.05v.61zm1.09-2a1 1 0 00-.73.29 1.1 1.1 0 00-.35.7h2.11a1 1 0 00-.31-.7.94.94 0 00-.72-.3z"/><path class="cls-1" d="M687.47 221.61V323h-70.64V221.61zm2-11h-74.64V325h74.64V210.61z"/><path class="cls-1" d="M620.76 243.83h2.94v.52h-2.33V246h2.14v.52h-2.14v1.73h2.46v.52h-3.07zM625.48 246.89l-1.07-1.65h.66l.75 1.2.71-1.2h.67l-1.07 1.65 1.21 1.84h-.68l-.88-1.35-.79 1.35h-.68zM628.55 245.24v.4a1.17 1.17 0 01.42-.34 1.33 1.33 0 01.61-.13 1.36 1.36 0 01.61.13 1.48 1.48 0 01.76 1 2.38 2.38 0 01.11.73 2.43 2.43 0 01-.11.73 1.54 1.54 0 01-.29.57 1.43 1.43 0 01-.47.38 1.36 1.36 0 01-.61.13 1.33 1.33 0 01-.61-.13 1.07 1.07 0 01-.42-.34v1.47H628v-4.56zm1.91 1.73a2.1 2.1 0 00-.06-.51 1.29 1.29 0 00-.19-.41 1 1 0 00-.31-.27.88.88 0 00-.43-.1 1 1 0 00-.4.08.78.78 0 00-.29.21.88.88 0 00-.18.33 1.29 1.29 0 00-.06.4v.57a1.25 1.25 0 00.06.4.88.88 0 00.18.33.78.78 0 00.29.21 1 1 0 00.4.08.88.88 0 00.74-.37 1.29 1.29 0 00.19-.41 2.1 2.1 0 00.06-.51zM631.88 243.83h.58V248a.66.66 0 000 .15.24.24 0 00.06.11.26.26 0 00.1.07h.52l.06.48H632.62a.92.92 0 01-.29 0 .66.66 0 01-.24-.11.6.6 0 01-.16-.22.71.71 0 01-.06-.31zM635.74 248.38a1.18 1.18 0 01-.41.3 1.49 1.49 0 01-.62.12 1.51 1.51 0 01-.48-.07 1.22 1.22 0 01-.39-.21 1.2 1.2 0 01-.25-.34 1 1 0 01-.09-.44 1.1 1.1 0 01.06-.37 1.17 1.17 0 01.19-.3 1 1 0 01.29-.2 1.18 1.18 0 01.39-.11l1.23-.17v-.22a.83.83 0 00-.06-.34.51.51 0 00-.17-.21.66.66 0 00-.24-.11 1.06 1.06 0 00-.31 0 1.63 1.63 0 00-.55.09 2.11 2.11 0 00-.46.19l-.21-.46a2.41 2.41 0 01.63-.24 2.89 2.89 0 01.65-.08 1.46 1.46 0 011 .29 1.08 1.08 0 01.32.84v1.61a.59.59 0 00.07.29.52.52 0 00.22.19l-.32.41a.73.73 0 01-.29-.15.54.54 0 01-.16-.25zm-1-1.2h-.26a.55.55 0 00-.2.11.37.37 0 00-.13.15.52.52 0 000 .23.6.6 0 00.06.27.53.53 0 00.16.2.65.65 0 00.23.13 1.26 1.26 0 00.28 0 1.12 1.12 0 00.31-.05.83.83 0 00.27-.12.8.8 0 00.2-.21.5.5 0 00.07-.27V247zM637.17 244.23a.37.37 0 010-.15.38.38 0 01.09-.13.34.34 0 01.12-.09.45.45 0 01.16 0 .37.37 0 01.15 0 .38.38 0 01.13.09.57.57 0 01.08.13.26.26 0 010 .15.29.29 0 010 .16.5.5 0 01-.08.12.38.38 0 01-.13.09.37.37 0 01-.15 0 .45.45 0 01-.16 0 .53.53 0 01-.21-.21.41.41 0 010-.16zm.68 4.5h-.57v-3.49h.57zM638.9 245.24h.57v.4a1.17 1.17 0 01.44-.36 1.59 1.59 0 01.59-.11 1.19 1.19 0 01.51.1 1 1 0 01.36.26 1 1 0 01.22.38 1.33 1.33 0 01.07.45v2.37h-.57v-2.19a1.14 1.14 0 00-.06-.39.62.62 0 00-.38-.41.85.85 0 00-.6 0 .88.88 0 00-.29.18.81.81 0 00-.21.3 1.14 1.14 0 00-.08.43v2.07h-.57zM647 248.05l.64-2.81h.6l-.85 3.49h-.74l-.7-2.8-.72 2.8h-.71l-.85-3.49h.62l.61 2.81.73-2.81h.65zM649 243.83h.57v1.81a1.1 1.1 0 01.44-.36 1.54 1.54 0 01.58-.11 1.16 1.16 0 01.51.1 1 1 0 01.37.26 1.09 1.09 0 01.22.38 1.33 1.33 0 01.07.45v2.37h-.57v-2.19a1.14 1.14 0 00-.06-.39.71.71 0 00-.15-.26.65.65 0 00-.23-.15.88.88 0 00-.29-.05 1 1 0 00-.32.06.88.88 0 00-.29.18.93.93 0 00-.2.3 1.14 1.14 0 00-.08.43v2.07H649zM652.32 245.24h.68l.86 2.88.82-2.88h.64l-1.27 4a1.05 1.05 0 01-.15.3.76.76 0 01-.21.19.82.82 0 01-.26.1H652.5l.09-.51H653a.5.5 0 00.29-.08.51.51 0 00.15-.27v-.16zM658 247.86v.17a.26.26 0 00.06.13.39.39 0 00.14.1.78.78 0 00.24 0H658.87l.07.5h-.63a1.4 1.4 0 01-.37 0 .74.74 0 01-.28-.14.64.64 0 01-.18-.25 1.08 1.08 0 01-.06-.38v-2.25h-.66v-.5h.66v-1.14l.57-.2v1.34h1v.5h-1zM659.66 243.83h.58v1.81a1.1 1.1 0 01.44-.36 1.54 1.54 0 01.58-.11 1.19 1.19 0 01.51.1 1 1 0 01.37.26 1.09 1.09 0 01.22.38 1.63 1.63 0 01.07.45v2.37h-.58v-2.19a1.15 1.15 0 00-.05-.39.61.61 0 00-.16-.26.54.54 0 00-.22-.15.93.93 0 00-.29-.05.91.91 0 00-.32.06.88.88 0 00-.29.18.93.93 0 00-.2.3 1 1 0 00-.08.43v2.07h-.58zM663.84 247.16a1.63 1.63 0 00.1.46 1.09 1.09 0 00.22.36 1 1 0 00.34.23 1 1 0 00.43.09 1.36 1.36 0 00.51-.1 2.23 2.23 0 00.4-.24l.3.41a2 2 0 01-.55.31 1.85 1.85 0 01-.69.12 1.73 1.73 0 01-.69-.13 1.52 1.52 0 01-.52-.38 1.44 1.44 0 01-.33-.58 2.09 2.09 0 01-.12-.72 2.38 2.38 0 01.11-.73 1.72 1.72 0 01.33-.58 1.58 1.58 0 01.5-.38 1.47 1.47 0 01.64-.13 1.38 1.38 0 01.62.13 1.5 1.5 0 01.48.38 1.66 1.66 0 01.29.58 2.36 2.36 0 01.11.72v.18zm1-1.49a.86.86 0 00-.39.09.92.92 0 00-.29.23.89.89 0 00-.19.33 1 1 0 00-.08.38h1.85a1.78 1.78 0 00-.07-.39 1.11 1.11 0 00-.18-.32.89.89 0 00-.28-.23.75.75 0 00-.41-.09zM666.69 245.24h.65l.86 2.88.82-2.88h.64l-1.27 4a1.05 1.05 0 01-.15.3.76.76 0 01-.21.19.74.74 0 01-.26.1H666.85l.08-.51H667.39a.48.48 0 00.29-.08.51.51 0 00.15-.27v-.16zM670.74 243.77a.34.34 0 01.18 0 .4.4 0 01.15.1.57.57 0 01.11.16.76.76 0 010 .21.73.73 0 010 .25.89.89 0 01-.14.25.93.93 0 01-.23.21.84.84 0 01-.33.15h-.08l-.07-.23a.92.92 0 00.27-.16.55.55 0 00.17-.21h-.08a.4.4 0 01-.15 0l-.12-.08a.35.35 0 01-.08-.13.33.33 0 010-.15.4.4 0 010-.15.35.35 0 01.08-.13.57.57 0 01.13-.08.4.4 0 01.19-.01zM674 245.75h-.09a1.86 1.86 0 00-.42.05.89.89 0 00-.36.19 1 1 0 00-.24.36 1.45 1.45 0 00-.1.59v1.79h-.57v-3.49h.57v.55a1 1 0 01.18-.27.79.79 0 01.25-.19 1.48 1.48 0 01.29-.12 1.84 1.84 0 01.33 0h.16zM675 247.16a1.63 1.63 0 00.1.46 1.09 1.09 0 00.22.36 1 1 0 00.34.23 1 1 0 00.43.09 1.36 1.36 0 00.51-.1 2.23 2.23 0 00.4-.24l.3.41a2 2 0 01-.55.31 1.85 1.85 0 01-.69.12 1.73 1.73 0 01-.69-.13 1.52 1.52 0 01-.52-.38 1.44 1.44 0 01-.33-.58 2.09 2.09 0 01-.12-.72 2.38 2.38 0 01.11-.73 1.72 1.72 0 01.33-.58 1.58 1.58 0 01.5-.38 1.47 1.47 0 01.64-.13 1.38 1.38 0 01.62.13 1.5 1.5 0 01.48.38 1.66 1.66 0 01.29.58 2.36 2.36 0 01.11.72v.18zm1-1.49a.86.86 0 00-.39.09.92.92 0 00-.29.23.89.89 0 00-.19.33 1 1 0 00-.08.38h1.85a1.78 1.78 0 00-.07-.39 1.11 1.11 0 00-.18-.32.89.89 0 00-.28-.23.75.75 0 00-.37-.09zM620.62 253.24h.57v.4a1.17 1.17 0 01.44-.36 1.54 1.54 0 01.58-.11 1.13 1.13 0 01.51.1 1 1 0 01.37.26 1 1 0 01.22.38 1.33 1.33 0 01.07.45v2.37h-.57v-2.19a1.14 1.14 0 00-.06-.39.71.71 0 00-.15-.26.57.57 0 00-.23-.15.87.87 0 00-.28-.05 1 1 0 00-.33.06.84.84 0 00-.28.18.81.81 0 00-.21.3 1.14 1.14 0 00-.08.43v2.07h-.57zM625.8 253.17a1.59 1.59 0 01.66.13 1.62 1.62 0 01.51.38 1.72 1.72 0 01.33.58 2.44 2.44 0 010 1.45 1.72 1.72 0 01-.33.58 1.48 1.48 0 01-.51.38 1.74 1.74 0 01-1.32 0 1.55 1.55 0 01-.5-.38 1.72 1.72 0 01-.33-.58 2.25 2.25 0 010-1.45 1.72 1.72 0 01.33-.58 1.7 1.7 0 01.5-.38 1.59 1.59 0 01.66-.13zm0 3.13a.87.87 0 00.44-.11 1 1 0 00.32-.28 1.29 1.29 0 00.19-.41 1.61 1.61 0 00.07-.49 1.63 1.63 0 00-.07-.5 1.2 1.2 0 00-.19-.41 1 1 0 00-.32-.28.87.87 0 00-.44-.11.93.93 0 00-.44.11 1.06 1.06 0 00-.32.28 1.42 1.42 0 00-.19.41 2 2 0 00-.06.5 2 2 0 00.06.49 1.55 1.55 0 00.19.41 1.06 1.06 0 00.32.28.93.93 0 00.44.11zM629.1 255.86a.91.91 0 000 .17.26.26 0 00.06.13.39.39 0 00.14.1.74.74 0 00.24 0H629.97l.06.5h-.62a1.4 1.4 0 01-.37 0 .74.74 0 01-.28-.14.64.64 0 01-.18-.25 1.08 1.08 0 01-.06-.38v-2.25h-.66v-.5h.66v-1.14l.57-.2v1.34h1v.5h-1zM632.57 255.16a1.63 1.63 0 00.1.46 1.11 1.11 0 00.23.36.86.86 0 00.33.23 1 1 0 00.43.09 1.36 1.36 0 00.51-.1 2.75 2.75 0 00.41-.24l.29.41a2.05 2.05 0 01-.54.31 1.94 1.94 0 01-.7.12 1.65 1.65 0 01-.68-.13 1.56 1.56 0 01-.53-.38 1.72 1.72 0 01-.33-.58 2.25 2.25 0 010-1.45 1.55 1.55 0 01.32-.58 1.58 1.58 0 01.5-.38 1.5 1.5 0 01.64-.13 1.45 1.45 0 01.63.13 1.57 1.57 0 01.47.38 1.68 1.68 0 01.3.58 2.37 2.37 0 01.1.72v.18zm1-1.49a.86.86 0 00-.39.09.92.92 0 00-.29.23 1.06 1.06 0 00-.19.33 1.23 1.23 0 00-.08.38h1.85a1.78 1.78 0 00-.07-.39.92.92 0 00-.18-.32.89.89 0 00-.28-.23.72.72 0 00-.41-.09zM635.83 251.83h.57V256a.61.61 0 000 .15.22.22 0 00.05.11.26.26 0 00.1.07h.53v.48H636.5a.92.92 0 01-.29 0 .66.66 0 01-.24-.11.57.57 0 01-.15-.22.71.71 0 01-.06-.31zM637.59 252.23a.26.26 0 010-.15.57.57 0 01.08-.13.38.38 0 01.13-.09.4.4 0 01.15 0 .41.41 0 01.16 0 .27.27 0 01.12.09.38.38 0 01.09.13.37.37 0 010 .15.41.41 0 010 .16.34.34 0 01-.09.12.27.27 0 01-.12.09.41.41 0 01-.16 0 .4.4 0 01-.15 0 .38.38 0 01-.13-.09.5.5 0 01-.08-.12.29.29 0 010-.16zm.68 4.5h-.57v-3.49h.57zM639.13 254.79a2.2 2.2 0 01.09-.64 1.58 1.58 0 01.29-.51 1.22 1.22 0 01.44-.34 1.28 1.28 0 01.59-.13 1.5 1.5 0 01.55.11 1.08 1.08 0 01.44.36v-.4h.57v3.49a1 1 0 01-.13.55 1.14 1.14 0 01-.34.35 1.46 1.46 0 01-.48.19 2.51 2.51 0 01-.55.06h-.32a1.88 1.88 0 01-.33-.05l-.33-.09a1.66 1.66 0 01-.31-.12l.21-.48.21.09.25.09.28.06h.33a1.56 1.56 0 00.39 0 .83.83 0 00.3-.14.55.55 0 00.18-.24.75.75 0 00.07-.35V256a1.17 1.17 0 01-.44.36 1.5 1.5 0 01-.55.11 1.28 1.28 0 01-.59-.13 1.34 1.34 0 01-.44-.34 1.75 1.75 0 01-.29-.52 2.15 2.15 0 01-.09-.69zm2.41 0a2 2 0 000-.44.89.89 0 00-.16-.34.81.81 0 00-.28-.24 1 1 0 00-.4-.08 1.08 1.08 0 00-.42.08 1 1 0 00-.29.24 1.14 1.14 0 00-.17.35 2 2 0 000 .43 2 2 0 000 .43 1.27 1.27 0 00.17.35 1.09 1.09 0 00.29.23.93.93 0 00.42.08.84.84 0 00.4-.08.79.79 0 00.28-.23.94.94 0 00.16-.35 2 2 0 000-.43zM643.05 252.23a.37.37 0 010-.15.57.57 0 01.08-.13.38.38 0 01.13-.09.41.41 0 01.16 0h.15a.27.27 0 01.12.09.38.38 0 01.09.13.37.37 0 010 .15.41.41 0 010 .16.34.34 0 01-.09.12.27.27 0 01-.12.09h-.15a.41.41 0 01-.16 0 .38.38 0 01-.13-.09.5.5 0 01-.08-.12.41.41 0 010-.16zm.68 4.5h-.58v-3.49h.58zM645.35 256.73h-.57v-4.9h.57v1.81a1 1 0 01.42-.34 1.26 1.26 0 01.6-.13 1.33 1.33 0 01.61.13 1.46 1.46 0 01.47.38 1.77 1.77 0 01.3.58 2.39 2.39 0 01.1.73 2.43 2.43 0 01-.1.73 1.72 1.72 0 01-.3.57 1.32 1.32 0 01-1.08.51 1.26 1.26 0 01-.6-.13 1 1 0 01-.42-.34zm1.91-1.76a2.1 2.1 0 00-.06-.51 1.31 1.31 0 00-.2-.41.88.88 0 00-.73-.37 1 1 0 00-.41.08.74.74 0 00-.28.21.88.88 0 00-.18.33 1.29 1.29 0 00-.06.4v.57a1.25 1.25 0 00.06.4.88.88 0 00.18.33.74.74 0 00.28.21 1 1 0 00.41.08.82.82 0 00.42-.1.74.74 0 00.31-.27 1.31 1.31 0 00.2-.41 2.1 2.1 0 00.06-.51zM648.68 251.83h.57V256a.61.61 0 000 .15.37.37 0 00.05.11.3.3 0 00.11.07h.59v.48H649.42a.92.92 0 01-.29 0 .55.55 0 01-.23-.11.6.6 0 01-.16-.22.71.71 0 01-.06-.31zM650.94 255.16a1.63 1.63 0 00.1.46 1.28 1.28 0 00.22.36 1 1 0 00.34.23 1 1 0 00.43.09 1.36 1.36 0 00.51-.1 2.23 2.23 0 00.4-.24l.3.41a2 2 0 01-.55.31 1.85 1.85 0 01-.69.12 1.73 1.73 0 01-.69-.13 1.52 1.52 0 01-.52-.38 1.44 1.44 0 01-.33-.58 2.09 2.09 0 01-.12-.72 2.38 2.38 0 01.11-.73 1.72 1.72 0 01.33-.58 1.58 1.58 0 01.5-.38 1.5 1.5 0 01.64-.13 1.38 1.38 0 01.62.13 1.5 1.5 0 01.48.38 1.68 1.68 0 01.3.58 2.72 2.72 0 01.1.72v.18zm1-1.49a.86.86 0 00-.39.09.92.92 0 00-.29.23 1.06 1.06 0 00-.19.33 1 1 0 00-.08.38h1.85a1.78 1.78 0 00-.07-.39 1.11 1.11 0 00-.18-.32.89.89 0 00-.28-.23.75.75 0 00-.41-.09z"/><path class="cls-5" d="M75.16 38.51h-1V20.99H1.49v17.52h-1V19.99h74.67v18.52zM587.07 38.51h-1V20.99H103.9v17.52h-1V19.99h484.17v18.52zM894.24 38.51h-1V20.99H615.83v17.52h-1V19.99h279.41v18.52z"/><path class="cls-1" d="M75.18 124.39h27.74v1.25H75.18zM177.56 124.39h27.74v1.25h-27.74zM615.33 268.36H139.61v-86.07h1.25v84.82h474.47v1.25zM279.94 124.39h27.74v1.25h-27.74zM382.33 124.39h27.74v1.25h-27.74zM484.71 124.39h27.74v1.25h-27.74zM587.09 124.39h27.74v1.25h-27.74zM689.47 124.39h27.74v1.25h-27.74zM791.86 124.39h27.74v1.25h-27.74z"/><path class="cls-1" d="M242 182.29h1.25v85.44H242zM344.38 182.29h1.25v85.44h-1.25z"/></svg>