<svg fill="none" height="310" viewBox="0 0 465 310" width="465" xmlns="http://www.w3.org/2000/svg"><path d="m0 0h465v310h-465z" fill="#912b88"/><rect fill="#3f133c" height="223" rx="4" width="309" x="74" y="42"/><path d="m74 46c0-2.2091 1.7909-4 4-4h301c2.209 0 4 1.7909 4 4v19h-309z" fill="#2f0e2d"/><circle cx="83.5" cy="53.5" fill="#d4351c" r="3.5"/><circle cx="95.5" cy="53.5" fill="#fd0" r="3.5"/><circle cx="107.5" cy="53.5" fill="#00703c" r="3.5"/><path d="m141 65h242v196c0 2.209-1.791 4-4 4h-238z" fill="#fff"/><path d="m163 212h88v12h-88z" fill="#d9d9d9"/><path d="m141 96h242" stroke="#f5f5f5" stroke-linejoin="round" stroke-miterlimit="1.30541" stroke-width="2"/><rect fill="#0b0c0c" height="30" rx="6" width="30" x="92" y="77"/><rect fill="#5694ca" height="30" rx="6" width="30" x="92" y="128"/><rect fill="#4c2c92" height="29" rx="4" width="29" x="154" y="107"/><rect fill="#f47738" height="18" rx="2" width="18" x="154" y="72"/><rect fill="#f47738" height="18" rx="2" width="18" x="198" y="177"/><rect height="37" rx="8.5" stroke="#fff" stroke-width="3" width="37" x="88.5" y="73.5"/><path d="m107 177v14" stroke="#b1b4b6" stroke-linecap="round" stroke-linejoin="round" stroke-miterlimit="1.30541" stroke-width="2"/><path d="m100 184h14" stroke="#b1b4b6" stroke-linecap="round" stroke-linejoin="round" stroke-miterlimit="1.30541" stroke-width="2"/><path d="m183 77h68v8h-68z" fill="#0b0c0c"/><circle cx="170" cy="88" fill="#00703c" r="3.5" stroke="#fff"/><path d="m198 107h74v12h-74z" fill="#0b0c0c"/><g fill="#b1b4b6"><path d="m198 141h128v12h-128z"/><path d="m198 124h128v12h-128z"/><path d="m198 158h88v12h-88z"/><path d="m154 252h43v4h-43z"/></g><rect height="39" rx="1" stroke="#d9d9d9" stroke-width="2" width="215" x="155" y="204"/><path clip-rule="evenodd" d="m98.9212 87.9474c.6892.2954 1.5168-.0394 1.7918-.7287.296-.7089-.039-1.5361-.7678-1.8118-.7089-.2757-1.4967.0591-1.7921.7681-.2757.6892.0591 1.477.7681 1.7724zm-3.151 1.8315c.709.2954 1.5361-.0394 1.8118-.7287.2954-.709-.0394-1.5361-.768-1.7921-.709-.2954-1.4967.0394-1.7921.7484-.2757.6892.0591 1.477.7483 1.7724zm-.9059 3.4857c.6893.2954 1.5164-.0394 1.7921-.7484.2954-.7089-.0394-1.5164-.768-1.7921-.6893-.2954-1.4967.0591-1.7921.7484-.2757.6892.0591 1.4967.768 1.7921zm7.5427-4.2144c.689.2954 1.516-.0394 1.792-.7483.295-.709-.039-1.5164-.768-1.7921-.709-.2954-1.497.059-1.792.7483-.256.709.079 1.5164.768 1.7921zm12.682-1.1028c-.709.2954-1.536-.0394-1.792-.7287-.295-.7089.04-1.5361.749-1.8118s1.516.0591 1.811.7681c.256.6892-.078 1.477-.768 1.7724zm3.132 1.8315c-.709.2954-1.517-.0394-1.792-.7287-.296-.709.039-1.5361.728-1.7921.709-.2954 1.517.0394 1.812.7484.295.6892-.059 1.477-.748 1.7724zm.925 3.4857c-.709.2954-1.536-.0394-1.812-.7484-.295-.7089.04-1.5164.768-1.7921.709-.2954 1.517.0591 1.812.7484.256.6892-.079 1.4967-.768 1.7921zm-7.562-4.2144c-.709.2954-1.536-.0394-1.812-.7483-.276-.709.04-1.5164.768-1.7921.709-.2954 1.517.059 1.812.7483.276.709-.059 1.5164-.768 1.7921zm-3.86-3.5645 1.753.9256v-2.5798l-1.753.5514c-.039-.0591-.098-.1182-.177-.1773l.709-2.2056h-2.521l.689 2.2056c-.059.0591-.118.0985-.177.1773l-1.733-.5514v2.5798l1.733-.9256c.059.0591.118.1379.177.1773l-.984 3.0327v.0197c-.04.1576-.079.3151-.079.4727 0 .8074.61 1.477 1.378 1.5951h.04c.059 0 .138.0197.197.0197.078 0 .138 0 .197-.0197h.039c.788-.1181 1.398-.8074 1.398-1.5951 0-.1576-.019-.3348-.079-.4727v-.0197l-1.004-3.0327c.079-.0394.138-.1182.197-.1773zm-.729 14.7893c3.329 0 6.46.217 9.276.631.788-3.3286 1.753-5.2585 2.757-6.5977l-1.891-.6696c.197.965.217 1.418 0 2.0088-.295-.2757-.59-.8469-.827-1.7134l-.925 3.0328c.551-.3939.984-.6302 1.477-.6499-.867 1.8512-1.97 2.3435-2.679 2.2057-.846-.1576-1.24-.9059-1.102-1.5558.197-.9256 1.122-1.1619 1.575-.0985.847-1.7133-.591-2.245-1.497-1.733 1.399-1.4179 1.556-2.6586.414-4.1553-1.575 1.2013-1.595 2.4223-.886 4.0963-.926-1.0635-2.383-.4924-1.871 1.2209.669-1.024 1.556-.3938 1.418.6105-.118.8468-1.261 1.5361-2.659 1.4179-2.028-.1772-2.146-1.5754-2.205-2.7176.492-.0985 1.398.3545 2.166 1.4376l.256-3.2297c-.808.8665-1.576 1.0437-2.422 1.0634.275-.8665 1.575-2.2844 1.575-2.2844h-4.017s1.26 1.4179 1.555 2.2844c-.827-.0197-1.575-.1969-2.422-1.0634l.276 3.2297c.768-1.0831 1.674-1.5164 2.146-1.4376-.059 1.1422-.177 2.5207-2.186 2.7176-1.417.1182-2.54-.5711-2.658-1.4179-.138-.9846.748-1.6345 1.398-.6105.532-1.7133-.906-2.2844-1.851-1.2209.729-1.674.709-2.895-.906-4.0963-1.1422 1.4967-.9847 2.7374.433 4.1553-.9253-.512-2.3433.0197-1.5161 1.733.4529-1.0831 1.3981-.8271 1.5951.0985.138.6499-.256 1.3982-1.1225 1.5558-.6893.1378-1.7724-.3545-2.6586-2.2057.4923.0197.9256.256 1.477.6499l-.9256-3.0328c-.2363.8665-.5317 1.418-.8468 1.7134-.2166-.5908-.1772-1.0438 0-2.0088l-1.8709.6696c.9847 1.3589 1.9497 3.2888 2.7571 6.5977 2.9143-.414 6.0653-.631 9.3933-.631z" fill="#fff" fill-rule="evenodd"/></svg>