<svg width="654" height="342" viewBox="0 0 654 342" fill="none" xmlns="http://www.w3.org/2000/svg">
<rect width="654" height="342" fill="white"/>
<rect width="654" height="342" fill="#4C2C92"/>
<rect x="203.115" y="71" width="178.857" height="60.5361" fill="#0D0F0E"/>
<rect x="259.523" y="140.708" width="192.156" height="60.5361" fill="#0E0E0F"/>
<rect x="203.115" y="210.417" width="105.021" height="60.5361" fill="#0E0F0E"/>
<rect x="391.143" y="210.464" width="60.5361" height="60.5361" fill="#0E0F0F"/>
<path d="M241.454 101.814C241.454 103.929 241.165 105.861 240.587 107.608C240.022 109.342 239.168 110.826 238.025 112.061C236.895 113.296 235.477 114.255 233.769 114.938C232.061 115.608 230.064 115.943 227.778 115.943H217.374V87.6854H227.778C230.064 87.6854 232.061 88.0269 233.769 88.7101C235.477 89.3801 236.895 90.3325 238.025 91.5674C239.168 92.8023 240.022 94.2934 240.587 96.0406C241.165 97.7747 241.454 99.6993 241.454 101.814ZM235.523 101.263C235.523 100.067 235.371 98.9571 235.069 97.9324C234.78 96.8945 234.307 95.9946 233.65 95.2327C233.007 94.4707 232.166 93.873 231.128 93.4395C230.09 92.9928 228.836 92.7695 227.364 92.7695H223.088V110.859H227.364C228.823 110.859 230.071 110.643 231.108 110.209C232.146 109.762 232.987 109.158 233.631 108.396C234.288 107.621 234.767 106.715 235.069 105.677C235.371 104.639 235.523 103.529 235.523 102.346V101.263Z" fill="white"/>
<path d="M247.276 87.6854H266.312V92.868H252.991V98.8782H265.267V104.041H252.991V110.781H267.08V115.943H247.276V87.6854Z" fill="white"/>
<path d="M274.695 108.002C275.063 108.422 275.51 108.836 276.035 109.243C276.561 109.651 277.139 110.019 277.769 110.347C278.413 110.662 279.109 110.918 279.858 111.116C280.607 111.299 281.415 111.391 282.282 111.391C283.898 111.391 285.133 111.056 285.987 110.386C286.854 109.703 287.287 108.876 287.287 107.903C287.287 106.892 286.906 106.123 286.144 105.598C285.395 105.072 284.2 104.659 282.558 104.356L281.671 104.199C280.489 103.989 279.313 103.713 278.144 103.371C276.975 103.03 275.917 102.537 274.971 101.893C274.025 101.25 273.257 100.428 272.666 99.43C272.074 98.4184 271.779 97.1441 271.779 95.6071C271.779 94.7138 271.976 93.781 272.37 92.8089C272.764 91.8236 273.388 90.9237 274.242 90.1092C275.109 89.2815 276.219 88.605 277.572 88.0795C278.939 87.554 280.587 87.2913 282.518 87.2913C284.804 87.2913 286.841 87.6722 288.627 88.4342C290.427 89.183 291.879 90.1749 292.982 91.4098L289.179 94.9568C288.404 94.1029 287.405 93.4329 286.184 92.9468C284.975 92.4607 283.727 92.2177 282.44 92.2177C280.955 92.2177 279.792 92.5001 278.952 93.065C278.124 93.6299 277.71 94.3656 277.71 95.2721C277.71 95.8633 277.842 96.3559 278.104 96.75C278.38 97.1441 278.761 97.4726 279.247 97.7353C279.733 97.9849 280.318 98.1951 281.001 98.3659C281.684 98.5367 282.446 98.7075 283.287 98.8782L283.74 98.9571C284.87 99.1673 285.993 99.4366 287.11 99.765C288.227 100.08 289.238 100.553 290.145 101.184C291.064 101.801 291.806 102.616 292.371 103.627C292.936 104.626 293.219 105.907 293.219 107.47C293.219 108.889 292.923 110.143 292.332 111.234C291.741 112.324 290.959 113.257 289.987 114.032C289.015 114.794 287.892 115.372 286.617 115.766C285.343 116.147 284.016 116.338 282.637 116.338C281.244 116.338 279.95 116.219 278.755 115.983C277.572 115.746 276.495 115.411 275.523 114.978C274.564 114.544 273.703 114.058 272.941 113.52C272.193 112.981 271.536 112.403 270.971 111.786L274.695 108.002Z" fill="white"/>
<path d="M299.277 87.6854H304.992V115.943H299.277V87.6854Z" fill="white"/>
<path d="M316.587 101.893C316.587 103.102 316.738 104.264 317.041 105.381C317.343 106.498 317.802 107.483 318.42 108.337C319.037 109.191 319.826 109.881 320.785 110.406C321.744 110.918 322.887 111.175 324.213 111.175C325.488 111.175 326.545 110.971 327.386 110.564C328.24 110.157 328.917 109.651 329.416 109.046C329.928 108.429 330.283 107.766 330.48 107.056C330.69 106.347 330.795 105.69 330.795 105.086V104.81H323.563V100.455H336.352V115.943H331.347V112.633C330.992 113.185 330.552 113.69 330.027 114.15C329.501 114.597 328.91 114.984 328.253 115.313C327.596 115.628 326.874 115.878 326.085 116.062C325.31 116.246 324.483 116.338 323.603 116.338C321.54 116.338 319.707 115.963 318.105 115.214C316.502 114.465 315.149 113.434 314.045 112.121C312.955 110.807 312.121 109.27 311.543 107.509C310.978 105.749 310.695 103.851 310.695 101.814C310.695 99.7913 311.011 97.8995 311.641 96.1391C312.285 94.3656 313.191 92.8286 314.361 91.528C315.543 90.2143 316.962 89.183 318.617 88.4342C320.285 87.6722 322.151 87.2913 324.213 87.2913C325.553 87.2913 326.821 87.4489 328.017 87.7642C329.225 88.0664 330.322 88.5064 331.307 89.0845C332.306 89.6494 333.186 90.3391 333.948 91.1536C334.71 91.955 335.327 92.8483 335.8 93.8336L330.795 96.6515C330.493 96.0472 330.138 95.4889 329.731 94.9765C329.324 94.451 328.851 94.0044 328.312 93.6365C327.787 93.2555 327.182 92.9599 326.499 92.7498C325.816 92.5264 325.054 92.4148 324.213 92.4148C322.887 92.4148 321.744 92.6775 320.785 93.203C319.826 93.7153 319.037 94.3985 318.42 95.2524C317.802 96.1063 317.343 97.0982 317.041 98.228C316.738 99.3446 316.587 100.501 316.587 101.696V101.893Z" fill="white"/>
<path d="M348.322 94.3065V115.943H342.608V87.6854H350.667L361.978 106.662V87.6854H367.693V115.943H361.407L348.322 94.3065Z" fill="white"/>
<path d="M279.663 177.71C280.031 178.131 280.478 178.544 281.003 178.952C281.529 179.359 282.107 179.727 282.737 180.055C283.381 180.371 284.077 180.627 284.826 180.824C285.575 181.008 286.383 181.1 287.25 181.1C288.866 181.1 290.101 180.765 290.955 180.095C291.822 179.412 292.255 178.584 292.255 177.612C292.255 176.6 291.874 175.832 291.112 175.306C290.364 174.781 289.168 174.367 287.526 174.065L286.639 173.907C285.457 173.697 284.281 173.421 283.112 173.079C281.943 172.738 280.885 172.245 279.939 171.601C278.993 170.958 278.225 170.137 277.634 169.138C277.042 168.127 276.747 166.852 276.747 165.315C276.747 164.422 276.944 163.489 277.338 162.517C277.732 161.532 278.356 160.632 279.21 159.817C280.077 158.99 281.187 158.313 282.54 157.788C283.907 157.262 285.555 157 287.487 157C289.772 157 291.809 157.38 293.595 158.142C295.395 158.891 296.847 159.883 297.95 161.118L294.147 164.665C293.372 163.811 292.374 163.141 291.152 162.655C289.943 162.169 288.695 161.926 287.408 161.926C285.923 161.926 284.761 162.208 283.92 162.773C283.092 163.338 282.678 164.074 282.678 164.98C282.678 165.572 282.81 166.064 283.072 166.458C283.348 166.852 283.729 167.181 284.215 167.444C284.701 167.693 285.286 167.903 285.969 168.074C286.652 168.245 287.414 168.416 288.255 168.586L288.708 168.665C289.838 168.876 290.961 169.145 292.078 169.473C293.195 169.789 294.206 170.261 295.113 170.892C296.032 171.51 296.775 172.324 297.339 173.336C297.904 174.334 298.187 175.615 298.187 177.178C298.187 178.597 297.891 179.852 297.3 180.942C296.709 182.032 295.927 182.965 294.955 183.74C293.983 184.502 292.86 185.08 291.585 185.474C290.311 185.855 288.984 186.046 287.605 186.046C286.212 186.046 284.918 185.928 283.723 185.691C282.54 185.455 281.463 185.12 280.491 184.686C279.532 184.253 278.671 183.766 277.91 183.228C277.161 182.689 276.504 182.111 275.939 181.494L279.663 177.71Z" fill="white"/>
<path d="M307.871 157.394L313.605 168.291H313.684L319.537 157.394H325.941L316.502 174.144V185.652H310.728V174.144L301.289 157.394H307.871Z" fill="white"/>
<path d="M330.994 177.71C331.362 178.131 331.809 178.544 332.334 178.952C332.86 179.359 333.438 179.727 334.069 180.055C334.712 180.371 335.409 180.627 336.157 180.824C336.906 181.008 337.714 181.1 338.581 181.1C340.197 181.1 341.432 180.765 342.286 180.095C343.153 179.412 343.586 178.584 343.586 177.612C343.586 176.6 343.205 175.832 342.444 175.306C341.695 174.781 340.499 174.367 338.857 174.065L337.97 173.907C336.788 173.697 335.612 173.421 334.443 173.079C333.274 172.738 332.216 172.245 331.27 171.601C330.324 170.958 329.556 170.137 328.965 169.138C328.374 168.127 328.078 166.852 328.078 165.315C328.078 164.422 328.275 163.489 328.669 162.517C329.063 161.532 329.687 160.632 330.541 159.817C331.408 158.99 332.518 158.313 333.872 157.788C335.238 157.262 336.887 157 338.818 157C341.104 157 343.14 157.38 344.926 158.142C346.726 158.891 348.178 159.883 349.281 161.118L345.478 164.665C344.703 163.811 343.705 163.141 342.483 162.655C341.274 162.169 340.026 161.926 338.739 161.926C337.254 161.926 336.092 162.208 335.251 162.773C334.423 163.338 334.009 164.074 334.009 164.98C334.009 165.572 334.141 166.064 334.404 166.458C334.679 166.852 335.06 167.181 335.547 167.444C336.033 167.693 336.617 167.903 337.3 168.074C337.983 168.245 338.745 168.416 339.586 168.586L340.039 168.665C341.169 168.876 342.292 169.145 343.409 169.473C344.526 169.789 345.537 170.261 346.444 170.892C347.363 171.51 348.106 172.324 348.671 173.336C349.235 174.334 349.518 175.615 349.518 177.178C349.518 178.597 349.222 179.852 348.631 180.942C348.04 182.032 347.258 182.965 346.286 183.74C345.314 184.502 344.191 185.08 342.916 185.474C341.642 185.855 340.315 186.046 338.936 186.046C337.543 186.046 336.249 185.928 335.054 185.691C333.872 185.455 332.794 185.12 331.822 184.686C330.863 184.253 330.003 183.766 329.241 183.228C328.492 182.689 327.835 182.111 327.27 181.494L330.994 177.71Z" fill="white"/>
<path d="M353.231 157.394H374.77V162.694H366.868V185.652H361.133V162.694H353.231V157.394Z" fill="white"/>
<path d="M379.567 157.394H398.603V162.576H385.281V168.586H397.558V173.749H385.281V180.489H399.371V185.652H379.567V157.394Z" fill="white"/>
<path d="M419.164 176.528L410.809 166.084V185.652H405.094V157.394H410.888L419.243 168.429L427.855 157.394H433.412V185.652H427.677V166.084L419.361 176.528H419.164Z" fill="white"/>
<path d="M241.532 241.231C241.532 243.346 241.243 245.277 240.665 247.024C240.1 248.759 239.246 250.243 238.103 251.478C236.973 252.713 235.554 253.672 233.846 254.355C232.139 255.025 230.142 255.36 227.856 255.36H217.451V227.102H227.856C230.142 227.102 232.139 227.443 233.846 228.127C235.554 228.797 236.973 229.749 238.103 230.984C239.246 232.219 240.1 233.71 240.665 235.457C241.243 237.191 241.532 239.116 241.532 241.231ZM235.6 240.679C235.6 239.484 235.449 238.374 235.147 237.349C234.858 236.311 234.385 235.411 233.728 234.649C233.084 233.887 232.244 233.29 231.206 232.856C230.168 232.409 228.913 232.186 227.442 232.186H223.166V250.276H227.442C228.9 250.276 230.148 250.059 231.186 249.626C232.224 249.179 233.065 248.575 233.708 247.813C234.365 247.038 234.845 246.131 235.147 245.093C235.449 244.055 235.6 242.945 235.6 241.763V240.679Z" fill="white"/>
<path d="M262.921 250.118H252.457L250.861 255.36H244.792L254.034 227.102H261.542L270.922 255.36H264.537L262.921 250.118ZM253.994 245.074H261.384L257.719 233.132H257.64L253.994 245.074Z" fill="white"/>
<path d="M278.665 227.102L284.4 237.999H284.478L290.331 227.102H296.735L287.296 243.852V255.36H281.522V243.852L272.083 227.102H278.665Z" fill="white"/>
<path d="M413.845 223.737C413.405 223.737 413.021 223.808 412.692 223.949C412.364 224.091 412.091 224.289 411.875 224.543C411.658 224.797 411.498 225.095 411.393 225.439C411.289 225.774 411.237 226.14 411.237 226.536L407.911 226.234C407.919 225.353 408.076 224.573 408.382 223.893C408.688 223.207 409.106 222.632 409.636 222.169C410.166 221.699 410.789 221.344 411.505 221.106C412.229 220.859 413.017 220.736 413.868 220.736C414.756 220.736 415.566 220.87 416.298 221.139C417.036 221.4 417.667 221.77 418.19 222.248C418.712 222.725 419.115 223.3 419.399 223.972C419.69 224.636 419.836 225.368 419.836 226.166C419.836 227.04 419.66 227.857 419.309 228.618C418.966 229.372 418.507 230.074 417.932 230.723C417.357 231.365 416.697 231.955 415.95 232.492C415.204 233.022 414.435 233.5 413.644 233.926L413.342 234.082H420.037V237.016H408.326V234.105C408.93 233.776 409.546 233.425 410.173 233.052C410.808 232.679 411.42 232.291 412.009 231.888C412.606 231.477 413.17 231.052 413.7 230.611C414.23 230.171 414.689 229.716 415.077 229.245C415.473 228.768 415.786 228.279 416.018 227.779C416.249 227.271 416.365 226.749 416.365 226.211C416.365 225.905 416.312 225.603 416.208 225.304C416.103 225.006 415.947 224.741 415.738 224.509C415.536 224.278 415.275 224.091 414.954 223.949C414.64 223.808 414.271 223.737 413.845 223.737Z" fill="white"/>
<path d="M426.211 229.223C426.211 229.902 426.264 230.552 426.368 231.171C426.473 231.783 426.641 232.324 426.872 232.795C427.111 233.265 427.424 233.638 427.812 233.914C428.201 234.19 428.682 234.329 429.257 234.329C429.831 234.329 430.313 234.19 430.701 233.914C431.089 233.638 431.399 233.265 431.63 232.795C431.869 232.324 432.037 231.783 432.134 231.171C432.239 230.552 432.291 229.902 432.291 229.223V228.786C432.291 228.107 432.239 227.458 432.134 226.838C432.037 226.219 431.869 225.674 431.63 225.203C431.399 224.733 431.089 224.36 430.701 224.084C430.313 223.808 429.831 223.67 429.257 223.67C428.682 223.67 428.201 223.808 427.812 224.084C427.424 224.36 427.111 224.733 426.872 225.203C426.641 225.674 426.473 226.219 426.368 226.838C426.264 227.458 426.211 228.107 426.211 228.786V229.223ZM435.684 229.01C435.684 229.667 435.635 230.328 435.538 230.992C435.448 231.656 435.299 232.295 435.09 232.907C434.889 233.519 434.624 234.093 434.295 234.631C433.967 235.161 433.564 235.624 433.086 236.019C432.608 236.407 432.052 236.713 431.418 236.937C430.791 237.161 430.07 237.273 429.257 237.273C428.451 237.273 427.73 237.161 427.096 236.937C426.461 236.713 425.905 236.407 425.428 236.019C424.957 235.624 424.558 235.161 424.23 234.631C423.901 234.101 423.632 233.53 423.423 232.918C423.222 232.306 423.073 231.668 422.976 231.003C422.886 230.339 422.841 229.675 422.841 229.01C422.841 228.353 422.886 227.693 422.976 227.028C423.073 226.364 423.222 225.726 423.423 225.114C423.632 224.502 423.901 223.931 424.23 223.401C424.558 222.863 424.957 222.401 425.428 222.012C425.905 221.617 426.458 221.307 427.085 221.083C427.719 220.852 428.443 220.736 429.257 220.736C430.07 220.736 430.791 220.852 431.418 221.083C432.052 221.307 432.608 221.617 433.086 222.012C433.564 222.401 433.967 222.863 434.295 223.401C434.624 223.931 434.889 224.502 435.09 225.114C435.299 225.726 435.448 226.364 435.538 227.028C435.635 227.693 435.684 228.353 435.684 229.01Z" fill="white"/>
<path d="M414.137 246.667C413.696 246.667 413.312 246.738 412.983 246.88C412.655 247.022 412.382 247.219 412.166 247.473C411.95 247.727 411.789 248.026 411.685 248.369C411.58 248.705 411.528 249.071 411.528 249.466L408.202 249.164C408.21 248.283 408.367 247.503 408.673 246.824C408.979 246.137 409.397 245.562 409.927 245.1C410.457 244.629 411.08 244.275 411.797 244.036C412.521 243.79 413.308 243.666 414.159 243.666C415.047 243.666 415.857 243.801 416.589 244.069C417.328 244.331 417.958 244.7 418.481 245.178C419.003 245.656 419.406 246.23 419.69 246.902C419.981 247.567 420.127 248.298 420.127 249.097C420.127 249.97 419.951 250.787 419.6 251.549C419.257 252.303 418.798 253.004 418.223 253.654C417.649 254.296 416.988 254.885 416.242 255.423C415.495 255.953 414.726 256.43 413.935 256.856L413.633 257.013H420.328V259.946H408.617V257.035C409.221 256.707 409.837 256.356 410.464 255.983C411.099 255.609 411.711 255.221 412.3 254.818C412.898 254.408 413.461 253.982 413.991 253.542C414.521 253.101 414.98 252.646 415.368 252.176C415.764 251.698 416.077 251.209 416.309 250.709C416.54 250.201 416.656 249.679 416.656 249.141C416.656 248.835 416.604 248.533 416.499 248.235C416.395 247.936 416.238 247.671 416.029 247.44C415.827 247.208 415.566 247.022 415.245 246.88C414.932 246.738 414.562 246.667 414.137 246.667Z" fill="white"/>
<path d="M425.999 255.042C426.118 255.423 426.286 255.755 426.502 256.038C426.719 256.315 426.969 256.546 427.253 256.733C427.544 256.912 427.857 257.046 428.193 257.136C428.536 257.218 428.891 257.259 429.257 257.259C429.764 257.259 430.194 257.199 430.544 257.08C430.903 256.953 431.19 256.792 431.406 256.598C431.63 256.397 431.791 256.173 431.888 255.927C431.985 255.673 432.033 255.415 432.033 255.154C432.033 254.52 431.768 254.019 431.239 253.654C430.716 253.28 429.91 253.094 428.82 253.094H427.924V250.384H428.607C429.593 250.384 430.361 250.224 430.914 249.903C431.474 249.582 431.754 249.093 431.754 248.436C431.754 248.152 431.69 247.899 431.563 247.675C431.436 247.443 431.261 247.249 431.037 247.093C430.821 246.936 430.559 246.816 430.253 246.734C429.955 246.645 429.63 246.6 429.279 246.6C428.876 246.6 428.507 246.656 428.171 246.768C427.842 246.88 427.547 247.033 427.286 247.227C427.025 247.421 426.797 247.649 426.603 247.91C426.417 248.171 426.267 248.447 426.155 248.738L423.289 247.585C423.461 246.958 423.744 246.402 424.14 245.917C424.536 245.432 424.998 245.025 425.528 244.696C426.066 244.361 426.655 244.107 427.297 243.935C427.939 243.756 428.592 243.666 429.257 243.666C430.085 243.666 430.854 243.767 431.563 243.969C432.272 244.17 432.888 244.465 433.411 244.853C433.941 245.234 434.355 245.704 434.653 246.264C434.952 246.824 435.101 247.462 435.101 248.179C435.101 248.604 435.03 249.003 434.889 249.377C434.754 249.742 434.568 250.075 434.329 250.373C434.097 250.664 433.821 250.914 433.5 251.123C433.179 251.332 432.836 251.493 432.47 251.605C432.881 251.694 433.265 251.844 433.623 252.053C433.982 252.262 434.295 252.523 434.564 252.836C434.833 253.15 435.042 253.512 435.191 253.922C435.348 254.333 435.426 254.781 435.426 255.266C435.426 256.005 435.266 256.677 434.945 257.281C434.631 257.886 434.198 258.401 433.646 258.826C433.093 259.252 432.44 259.584 431.686 259.823C430.94 260.054 430.13 260.17 429.257 260.17C428.488 260.17 427.749 260.073 427.04 259.879C426.331 259.677 425.693 259.394 425.125 259.028C424.558 258.655 424.08 258.203 423.692 257.673C423.304 257.136 423.043 256.531 422.908 255.859L425.999 255.042Z" fill="white"/>
<circle cx="421.87" cy="101.727" r="29.8094" fill="#28A197"/>
<path d="M349.892 211.792L318.684 234.371L330.581 270.952H369.157L381.054 234.371L349.892 211.792Z" fill="#F47738"/>
<path d="M254.937 170.976L203 200.764L203 141.189L254.937 170.976Z" fill="#D2301F"/>
</svg>
