<svg fill="none" height="342" viewBox="0 0 654 342" width="654" xmlns="http://www.w3.org/2000/svg"><path d="m0 0h654v342h-654z" fill="#fff"/><path d="m0 0h654v342h-654z" fill="#4c2c92"/><path d="m203.115 71h178.857v60.5361h-178.857z" fill="#0d0f0e"/><path d="m259.523 140.708h192.156v60.5361h-192.156z" fill="#0e0e0f"/><path d="m203.115 210.417h105.021v60.5361h-105.021z" fill="#0e0f0e"/><path d="m391.143 210.464h60.5361v60.5361h-60.5361z" fill="#0e0f0f"/><g fill="#fff"><path d="m241.454 101.814c0 2.115-.289 4.047-.867 5.794-.565 1.734-1.419 3.218-2.562 4.453-1.13 1.235-2.548 2.194-4.256 2.877-1.708.67-3.705 1.005-5.991 1.005h-10.404v-28.2576h10.404c2.286 0 4.283.3415 5.991 1.0247 1.708.67 3.126 1.6224 4.256 2.8573 1.143 1.2349 1.997 2.726 2.562 4.4732.578 1.7341.867 3.6587.867 5.7734zm-5.931-.551c0-1.196-.152-2.3059-.454-3.3306-.289-1.0379-.762-1.9378-1.419-2.6997-.643-.762-1.484-1.3597-2.522-1.7932-1.038-.4467-2.292-.67-3.764-.67h-4.276v18.0895h4.276c1.459 0 2.707-.216 3.744-.65 1.038-.447 1.879-1.051 2.523-1.813.657-.775 1.136-1.681 1.438-2.719s.454-2.148.454-3.331z"/><path d="m247.276 87.6854h19.036v5.1826h-13.321v6.0102h12.276v5.1628h-12.276v6.74h14.089v5.162h-19.804z"/><path d="m274.695 108.002c.368.42.815.834 1.34 1.241.526.408 1.104.776 1.734 1.104.644.315 1.34.571 2.089.769.749.183 1.557.275 2.424.275 1.616 0 2.851-.335 3.705-1.005.867-.683 1.3-1.51 1.3-2.483 0-1.011-.381-1.78-1.143-2.305-.749-.526-1.944-.939-3.586-1.242l-.887-.157c-1.182-.21-2.358-.486-3.527-.828-1.169-.341-2.227-.834-3.173-1.478-.946-.643-1.714-1.465-2.305-2.463-.592-1.0116-.887-2.2859-.887-3.8229 0-.8933.197-1.8261.591-2.7982.394-.9853 1.018-1.8852 1.872-2.6997.867-.8277 1.977-1.5042 3.33-2.0297 1.367-.5255 3.015-.7882 4.946-.7882 2.286 0 4.323.3809 6.109 1.1429 1.8.7488 3.252 1.7407 4.355 2.9756l-3.803 3.547c-.775-.8539-1.774-1.5239-2.995-2.01-1.209-.4861-2.457-.7291-3.744-.7291-1.485 0-2.648.2824-3.488.8473-.828.5649-1.242 1.3006-1.242 2.2071 0 .5912.132 1.0838.394 1.4779.276.3941.657.7226 1.143.9853.486.2496 1.071.4598 1.754.6306s1.445.3416 2.286.5123l.453.0789c1.13.2102 2.253.4795 3.37.8079 1.117.315 2.128.788 3.035 1.419.919.617 1.661 1.432 2.226 2.443.565.999.848 2.28.848 3.843 0 1.419-.296 2.673-.887 3.764-.591 1.09-1.373 2.023-2.345 2.798-.972.762-2.095 1.34-3.37 1.734-1.274.381-2.601.572-3.98.572-1.393 0-2.687-.119-3.882-.355-1.183-.237-2.26-.572-3.232-1.005-.959-.434-1.82-.92-2.582-1.458-.748-.539-1.405-1.117-1.97-1.734z"/><path d="m299.277 87.6854h5.715v28.2576h-5.715z"/><path d="m316.587 101.893c0 1.209.151 2.371.454 3.488.302 1.117.761 2.102 1.379 2.956.617.854 1.406 1.544 2.365 2.069.959.512 2.102.769 3.428.769 1.275 0 2.332-.204 3.173-.611.854-.407 1.531-.913 2.03-1.518.512-.617.867-1.28 1.064-1.99.21-.709.315-1.366.315-1.97v-.276h-7.232v-4.355h12.789v15.488h-5.005v-3.31c-.355.552-.795 1.057-1.32 1.517-.526.447-1.117.834-1.774 1.163-.657.315-1.379.565-2.168.749-.775.184-1.602.276-2.482.276-2.063 0-3.896-.375-5.498-1.124-1.603-.749-2.956-1.78-4.06-3.093-1.09-1.314-1.924-2.851-2.502-4.612-.565-1.76-.848-3.658-.848-5.695 0-2.0227.316-3.9145.946-5.6749.644-1.7735 1.55-3.3105 2.72-4.6111 1.182-1.3137 2.601-2.345 4.256-3.0938 1.668-.762 3.534-1.1429 5.596-1.1429 1.34 0 2.608.1576 3.804.4729 1.208.3022 2.305.7422 3.29 1.3203.999.5649 1.879 1.2546 2.641 2.0691.762.8014 1.379 1.6947 1.852 2.68l-5.005 2.8179c-.302-.6043-.657-1.1626-1.064-1.675-.407-.5255-.88-.9721-1.419-1.34-.525-.381-1.13-.6766-1.813-.8867-.683-.2234-1.445-.335-2.286-.335-1.326 0-2.469.2627-3.428.7882-.959.5123-1.748 1.1955-2.365 2.0494-.618.8539-1.077 1.8458-1.379 2.9756-.303 1.1166-.454 2.273-.454 3.468z"/><path d="m348.322 94.3065v21.6365h-5.714v-28.2576h8.059l11.311 18.9766v-18.9766h5.715v28.2576h-6.286z"/><path d="m279.663 177.71c.368.421.815.834 1.34 1.242.526.407 1.104.775 1.734 1.103.644.316 1.34.572 2.089.769.749.184 1.557.276 2.424.276 1.616 0 2.851-.335 3.705-1.005.867-.683 1.3-1.511 1.3-2.483 0-1.012-.381-1.78-1.143-2.306-.748-.525-1.944-.939-3.586-1.241l-.887-.158c-1.182-.21-2.358-.486-3.527-.828-1.169-.341-2.227-.834-3.173-1.478-.946-.643-1.714-1.464-2.305-2.463-.592-1.011-.887-2.286-.887-3.823 0-.893.197-1.826.591-2.798.394-.985 1.018-1.885 1.872-2.7.867-.827 1.977-1.504 3.33-2.029 1.367-.526 3.015-.788 4.947-.788 2.285 0 4.322.38 6.108 1.142 1.8.749 3.252 1.741 4.355 2.976l-3.803 3.547c-.775-.854-1.773-1.524-2.995-2.01-1.209-.486-2.457-.729-3.744-.729-1.485 0-2.647.282-3.488.847-.828.565-1.242 1.301-1.242 2.207 0 .592.132 1.084.394 1.478.276.394.657.723 1.143.986.486.249 1.071.459 1.754.63s1.445.342 2.286.512l.453.079c1.13.211 2.253.48 3.37.808 1.117.316 2.128.788 3.035 1.419.919.618 1.662 1.432 2.226 2.444.565.998.848 2.279.848 3.842 0 1.419-.296 2.674-.887 3.764s-1.373 2.023-2.345 2.798c-.972.762-2.095 1.34-3.37 1.734-1.274.381-2.601.572-3.98.572-1.393 0-2.687-.118-3.882-.355-1.183-.236-2.26-.571-3.232-1.005-.959-.433-1.82-.92-2.581-1.458-.749-.539-1.406-1.117-1.971-1.734z"/><path d="m307.871 157.394 5.734 10.897h.079l5.853-10.897h6.404l-9.439 16.75v11.508h-5.774v-11.508l-9.439-16.75z"/><path d="m330.994 177.71c.368.421.815.834 1.34 1.242.526.407 1.104.775 1.735 1.103.643.316 1.34.572 2.088.769.749.184 1.557.276 2.424.276 1.616 0 2.851-.335 3.705-1.005.867-.683 1.3-1.511 1.3-2.483 0-1.012-.381-1.78-1.142-2.306-.749-.525-1.945-.939-3.587-1.241l-.887-.158c-1.182-.21-2.358-.486-3.527-.828-1.169-.341-2.227-.834-3.173-1.478-.946-.643-1.714-1.464-2.305-2.463-.591-1.011-.887-2.286-.887-3.823 0-.893.197-1.826.591-2.798.394-.985 1.018-1.885 1.872-2.7.867-.827 1.977-1.504 3.331-2.029 1.366-.526 3.015-.788 4.946-.788 2.286 0 4.322.38 6.108 1.142 1.8.749 3.252 1.741 4.355 2.976l-3.803 3.547c-.775-.854-1.773-1.524-2.995-2.01-1.209-.486-2.457-.729-3.744-.729-1.485 0-2.647.282-3.488.847-.828.565-1.242 1.301-1.242 2.207 0 .592.132 1.084.395 1.478.275.394.656.723 1.143.986.486.249 1.07.459 1.753.63s1.445.342 2.286.512l.453.079c1.13.211 2.253.48 3.37.808 1.117.316 2.128.788 3.035 1.419.919.618 1.662 1.432 2.227 2.444.564.998.847 2.279.847 3.842 0 1.419-.296 2.674-.887 3.764s-1.373 2.023-2.345 2.798c-.972.762-2.095 1.34-3.37 1.734-1.274.381-2.601.572-3.98.572-1.393 0-2.687-.118-3.882-.355-1.182-.236-2.26-.571-3.232-1.005-.959-.433-1.819-.92-2.581-1.458-.749-.539-1.406-1.117-1.971-1.734z"/><path d="m353.231 157.394h21.539v5.3h-7.902v22.958h-5.735v-22.958h-7.902z"/><path d="m379.567 157.394h19.036v5.182h-13.322v6.01h12.277v5.163h-12.277v6.74h14.09v5.163h-19.804z"/><path d="m419.164 176.528-8.355-10.444v19.568h-5.715v-28.258h5.794l8.355 11.035 8.612-11.035h5.557v28.258h-5.735v-19.568l-8.316 10.444z"/><path d="m241.532 241.231c0 2.115-.289 4.046-.867 5.793-.565 1.735-1.419 3.219-2.562 4.454-1.13 1.235-2.549 2.194-4.257 2.877-1.707.67-3.704 1.005-5.99 1.005h-10.405v-28.258h10.405c2.286 0 4.283.341 5.99 1.025 1.708.67 3.127 1.622 4.257 2.857 1.143 1.235 1.997 2.726 2.562 4.473.578 1.734.867 3.659.867 5.774zm-5.932-.552c0-1.195-.151-2.305-.453-3.33-.289-1.038-.762-1.938-1.419-2.7-.644-.762-1.484-1.359-2.522-1.793-1.038-.447-2.293-.67-3.764-.67h-4.276v18.09h4.276c1.458 0 2.706-.217 3.744-.65 1.038-.447 1.879-1.051 2.522-1.813.657-.775 1.137-1.682 1.439-2.72s.453-2.148.453-3.33z"/><path d="m262.921 250.118h-10.464l-1.596 5.242h-6.069l9.242-28.258h7.508l9.38 28.258h-6.385zm-8.927-5.044h7.39l-3.665-11.942h-.079z"/><path d="m278.665 227.102 5.735 10.897h.078l5.853-10.897h6.404l-9.439 16.75v11.508h-5.774v-11.508l-9.439-16.75z"/><path d="m413.845 223.737c-.44 0-.824.071-1.153.212-.328.142-.601.34-.817.594-.217.254-.377.552-.482.896-.104.335-.156.701-.156 1.097l-3.326-.302c.008-.881.165-1.661.471-2.341.306-.686.724-1.261 1.254-1.724.53-.47 1.153-.825 1.869-1.063.724-.247 1.512-.37 2.363-.37.888 0 1.698.134 2.43.403.738.261 1.369.631 1.892 1.109.522.477.925 1.052 1.209 1.724.291.664.437 1.396.437 2.194 0 .874-.176 1.691-.527 2.452-.343.754-.802 1.456-1.377 2.105-.575.642-1.235 1.232-1.982 1.769-.746.53-1.515 1.008-2.306 1.434l-.302.156h6.695v2.934h-11.711v-2.911c.604-.329 1.22-.68 1.847-1.053.635-.373 1.247-.761 1.836-1.164.597-.411 1.161-.836 1.691-1.277.53-.44.989-.895 1.377-1.366.396-.477.709-.966.941-1.466.231-.508.347-1.03.347-1.568 0-.306-.053-.608-.157-.907-.105-.298-.261-.563-.47-.795-.202-.231-.463-.418-.784-.56-.314-.141-.683-.212-1.109-.212z"/><path d="m426.211 229.223c0 .679.053 1.329.157 1.948.105.612.273 1.153.504 1.624.239.47.552.843.94 1.119.389.276.87.415 1.445.415.574 0 1.056-.139 1.444-.415s.698-.649.929-1.119c.239-.471.407-1.012.504-1.624.105-.619.157-1.269.157-1.948v-.437c0-.679-.052-1.328-.157-1.948-.097-.619-.265-1.164-.504-1.635-.231-.47-.541-.843-.929-1.119s-.87-.414-1.444-.414c-.575 0-1.056.138-1.445.414-.388.276-.701.649-.94 1.119-.231.471-.399 1.016-.504 1.635-.104.62-.157 1.269-.157 1.948zm9.473-.213c0 .657-.049 1.318-.146 1.982-.09.664-.239 1.303-.448 1.915-.201.612-.466 1.186-.795 1.724-.328.53-.731.993-1.209 1.388-.478.388-1.034.694-1.668.918-.627.224-1.348.336-2.161.336-.806 0-1.527-.112-2.161-.336-.635-.224-1.191-.53-1.668-.918-.471-.395-.87-.858-1.198-1.388-.329-.53-.598-1.101-.807-1.713-.201-.612-.35-1.25-.447-1.915-.09-.664-.135-1.328-.135-1.993 0-.657.045-1.317.135-1.982.097-.664.246-1.302.447-1.914.209-.612.478-1.183.807-1.713.328-.538.727-1 1.198-1.389.477-.395 1.03-.705 1.657-.929.634-.231 1.358-.347 2.172-.347.813 0 1.534.116 2.161.347.634.224 1.19.534 1.668.929.478.389.881.851 1.209 1.389.329.53.594 1.101.795 1.713.209.612.358 1.25.448 1.914.097.665.146 1.325.146 1.982z"/><path d="m414.137 246.667c-.441 0-.825.071-1.154.213-.328.142-.601.339-.817.593s-.377.553-.481.896c-.105.336-.157.702-.157 1.097l-3.326-.302c.008-.881.165-1.661.471-2.34.306-.687.724-1.262 1.254-1.724.53-.471 1.153-.825 1.87-1.064.724-.246 1.511-.37 2.362-.37.888 0 1.698.135 2.43.403.739.262 1.369.631 1.892 1.109.522.478.925 1.052 1.209 1.724.291.665.437 1.396.437 2.195 0 .873-.176 1.69-.527 2.452-.343.754-.802 1.455-1.377 2.105-.574.642-1.235 1.231-1.981 1.769-.747.53-1.516 1.007-2.307 1.433l-.302.157h6.695v2.933h-11.711v-2.911c.604-.328 1.22-.679 1.847-1.052.635-.374 1.247-.762 1.836-1.165.598-.41 1.161-.836 1.691-1.276.53-.441.989-.896 1.377-1.366.396-.478.709-.967.941-1.467.231-.508.347-1.03.347-1.568 0-.306-.052-.608-.157-.906-.104-.299-.261-.564-.47-.795-.202-.232-.463-.418-.784-.56-.313-.142-.683-.213-1.108-.213z"/><path d="m425.999 255.042c.119.381.287.713.503.996.217.277.467.508.751.695.291.179.604.313.94.403.343.082.698.123 1.064.123.507 0 .937-.06 1.287-.179.359-.127.646-.288.862-.482.224-.201.385-.425.482-.671.097-.254.145-.512.145-.773 0-.634-.265-1.135-.794-1.5-.523-.374-1.329-.56-2.419-.56h-.896v-2.71h.683c.986 0 1.754-.16 2.307-.481.56-.321.84-.81.84-1.467 0-.284-.064-.537-.191-.761-.127-.232-.302-.426-.526-.582-.216-.157-.478-.277-.784-.359-.298-.089-.623-.134-.974-.134-.403 0-.772.056-1.108.168-.329.112-.624.265-.885.459s-.489.422-.683.683c-.186.261-.336.537-.448.828l-2.866-1.153c.172-.627.455-1.183.851-1.668s.858-.892 1.388-1.221c.538-.335 1.127-.589 1.769-.761.642-.179 1.295-.269 1.96-.269.828 0 1.597.101 2.306.303.709.201 1.325.496 1.848.884.53.381.944.851 1.242 1.411.299.56.448 1.198.448 1.915 0 .425-.071.824-.212 1.198-.135.365-.321.698-.56.996-.232.291-.508.541-.829.75s-.664.37-1.03.482c.411.089.795.239 1.153.448.359.209.672.47.941.783.269.314.478.676.627 1.086.157.411.235.859.235 1.344 0 .739-.16 1.411-.481 2.015-.314.605-.747 1.12-1.299 1.545-.553.426-1.206.758-1.96.997-.746.231-1.556.347-2.429.347-.769 0-1.508-.097-2.217-.291-.709-.202-1.347-.485-1.915-.851-.567-.373-1.045-.825-1.433-1.355-.388-.537-.649-1.142-.784-1.814z"/></g><circle cx="421.87" cy="101.727" fill="#28a197" r="29.8094"/><path d="m349.892 211.792-31.208 22.579 11.897 36.581h38.576l11.897-36.581z" fill="#f47738"/><path d="m254.937 170.976-51.937 29.788v-59.575z" fill="#d2301f"/></svg>