<svg xmlns="http://www.w3.org/2000/svg" xmlns:xlink="http://www.w3.org/1999/xlink" width="960" height="640" fill="none">
  <defs>
    <path id="reuse-0" fill="#fff" d="M0 0h960v640H0z"/>
  </defs>
  <g clip-path="url(#a)">
    <use xlink:href="#reuse-0"/>
    <path fill="#4C2C92" d="M0 0h960v640H0z"/>
    <path fill="#0D0F0E" d="M210.249 103H598.63v131.452H210.249z"/>
    <path fill="#0E0E0F" d="M332.739 254.369H750v131.452H332.739z"/>
    <path fill="#0E0F0E" d="M210.249 405.738h228.05V537.19h-228.05z"/>
    <path fill="#0E0F0F" d="M618.548 405.841H750v131.452H618.548z"/>
    <path fill="#fff" d="M293.502 169.913c0 4.592-.628 8.786-1.883 12.58-1.227 3.766-3.081 6.989-5.563 9.671-2.453 2.681-5.534 4.764-9.242 6.247-3.709 1.455-8.045 2.182-13.009 2.182h-22.593v-61.361h22.593c4.964 0 9.3.742 13.009 2.225 3.708 1.455 6.789 3.523 9.242 6.205 2.482 2.681 4.336 5.919 5.563 9.713 1.255 3.766 1.883 7.945 1.883 12.538Zm-12.88-1.199c0-2.595-.328-5.006-.984-7.231-.628-2.254-1.655-4.208-3.081-5.862-1.398-1.655-3.224-2.953-5.477-3.894-2.254-.97-4.978-1.455-8.173-1.455h-9.286v39.281h9.286c3.166 0 5.876-.47 8.13-1.412 2.253-.97 4.079-2.282 5.477-3.936 1.426-1.683 2.468-3.652 3.124-5.905.656-2.254.984-4.665.984-7.232v-2.354ZM306.144 139.232h41.335v11.254h-28.926v13.051h26.658v11.211h-26.658v14.634h30.595v11.211h-43.004v-61.361ZM365.684 183.349c.799.913 1.769 1.811 2.91 2.696a24.937 24.937 0 0 0 3.765 2.396 24.391 24.391 0 0 0 4.536 1.669c1.626.399 3.381.599 5.263.599 3.509 0 6.191-.728 8.045-2.183 1.883-1.483 2.824-3.28 2.824-5.391 0-2.197-.827-3.866-2.482-5.007-1.626-1.141-4.222-2.039-7.788-2.695l-1.925-.343a72.498 72.498 0 0 1-7.66-1.797c-2.538-.742-4.835-1.811-6.889-3.209a16.631 16.631 0 0 1-5.006-5.349c-1.284-2.197-1.926-4.964-1.926-8.301 0-1.94.428-3.966 1.284-6.077.856-2.139 2.211-4.093 4.065-5.862 1.883-1.797 4.293-3.266 7.232-4.407 2.966-1.141 6.546-1.712 10.74-1.712 4.964 0 9.385.827 13.265 2.482 3.908 1.626 7.06 3.78 9.457 6.461l-8.259 7.703c-1.683-1.855-3.851-3.31-6.504-4.365a21.591 21.591 0 0 0-8.13-1.583c-3.224 0-5.748.613-7.574 1.84-1.797 1.226-2.696 2.824-2.696 4.792 0 1.284.285 2.354.856 3.209.599.856 1.426 1.569 2.482 2.14 1.055.542 2.325.998 3.808 1.369 1.483.371 3.138.742 4.964 1.113l.984.171a73.636 73.636 0 0 1 7.317 1.754c2.425.685 4.621 1.712 6.59 3.081 1.997 1.341 3.608 3.11 4.835 5.306 1.227 2.168 1.84 4.95 1.84 8.344 0 3.081-.642 5.806-1.925 8.173a19.717 19.717 0 0 1-5.093 6.077c-2.111 1.654-4.55 2.909-7.317 3.765-2.767.828-5.648 1.241-8.643 1.241-3.024 0-5.834-.257-8.43-.77-2.567-.514-4.907-1.241-7.018-2.182-2.082-.942-3.951-1.997-5.605-3.167-1.626-1.169-3.053-2.425-4.279-3.765l8.087-8.216ZM419.063 139.232h12.409v61.361h-12.409v-61.361ZM456.651 170.084c0 2.624.328 5.149.985 7.574.656 2.424 1.654 4.564 2.995 6.418 1.341 1.854 3.052 3.352 5.135 4.493 2.082 1.113 4.564 1.669 7.445 1.669 2.767 0 5.064-.442 6.89-1.326 1.854-.885 3.323-1.983 4.407-3.295 1.113-1.341 1.883-2.782 2.311-4.322.456-1.541.684-2.967.684-4.279v-.599h-15.704v-9.457h27.771v33.633h-10.869v-7.188a15.506 15.506 0 0 1-2.867 3.294 19.08 19.08 0 0 1-3.851 2.525c-1.426.685-2.995 1.227-4.707 1.626-1.683.399-3.48.599-5.391.599-4.479 0-8.458-.813-11.939-2.439-3.48-1.626-6.418-3.865-8.815-6.718-2.367-2.853-4.179-6.19-5.434-10.013-1.227-3.823-1.84-7.945-1.84-12.366 0-4.394.685-8.501 2.054-12.324 1.398-3.851 3.366-7.189 5.905-10.013 2.568-2.853 5.648-5.092 9.243-6.718 3.623-1.655 7.674-2.482 12.152-2.482 2.91 0 5.663.342 8.259 1.027 2.624.656 5.006 1.612 7.146 2.867a23.944 23.944 0 0 1 5.734 4.493 22.598 22.598 0 0 1 4.022 5.819l-10.869 6.12a20.711 20.711 0 0 0-2.31-3.638 13.551 13.551 0 0 0-3.081-2.909c-1.141-.828-2.454-1.47-3.937-1.926-1.483-.485-3.138-.727-4.964-.727-2.881 0-5.363.57-7.445 1.711-2.083 1.113-3.794 2.596-5.135 4.45-1.341 1.855-2.339 4.008-2.995 6.462a28.67 28.67 0 0 0-.985 7.531v.428ZM525.563 153.609v46.984h-12.409v-61.361h17.501l24.562 41.207v-41.207h12.409v61.361h-13.65l-28.413-46.984ZM376.472 334.718c.799.913 1.769 1.811 2.91 2.696a24.937 24.937 0 0 0 3.765 2.396 24.391 24.391 0 0 0 4.536 1.669c1.626.399 3.38.599 5.263.599 3.509 0 6.191-.728 8.045-2.182 1.883-1.484 2.824-3.281 2.824-5.392 0-2.197-.827-3.865-2.482-5.006-1.626-1.142-4.222-2.04-7.788-2.696l-1.925-.343a72.44 72.44 0 0 1-7.66-1.797c-2.539-.741-4.835-1.811-6.889-3.209a16.645 16.645 0 0 1-5.007-5.349c-1.283-2.196-1.925-4.964-1.925-8.301 0-1.94.428-3.965 1.284-6.076.855-2.14 2.21-4.094 4.065-5.863 1.883-1.797 4.293-3.266 7.231-4.407 2.967-1.141 6.547-1.712 10.741-1.712 4.963 0 9.385.828 13.265 2.482 3.908 1.626 7.06 3.78 9.456 6.461l-8.258 7.703c-1.683-1.855-3.851-3.309-6.504-4.365a21.61 21.61 0 0 0-8.13-1.583c-3.224 0-5.749.613-7.574 1.84-1.798 1.226-2.696 2.824-2.696 4.792 0 1.284.285 2.354.856 3.21.599.855 1.426 1.569 2.481 2.139 1.056.542 2.325.999 3.809 1.369 1.483.371 3.138.742 4.964 1.113l.984.171a73.642 73.642 0 0 1 7.317 1.755c2.425.684 4.621 1.711 6.59 3.08 1.996 1.341 3.608 3.11 4.835 5.306 1.227 2.169 1.84 4.95 1.84 8.345 0 3.081-.642 5.805-1.926 8.173a19.707 19.707 0 0 1-5.092 6.076c-2.111 1.654-4.55 2.91-7.317 3.765-2.767.828-5.648 1.241-8.644 1.241-3.023 0-5.833-.256-8.429-.77-2.568-.513-4.907-1.241-7.018-2.182-2.082-.942-3.951-1.997-5.605-3.167-1.626-1.169-3.053-2.425-4.279-3.765l8.087-8.216ZM437.724 290.601l12.452 23.663h.171l12.709-23.663h13.907l-20.497 36.372v24.99h-12.538v-24.99l-20.496-36.372h14.292ZM487.936 334.718c.799.913 1.768 1.811 2.91 2.696a24.937 24.937 0 0 0 3.765 2.396 24.391 24.391 0 0 0 4.536 1.669c1.626.399 3.38.599 5.263.599 3.509 0 6.19-.728 8.045-2.182 1.883-1.484 2.824-3.281 2.824-5.392 0-2.197-.827-3.865-2.482-5.006-1.626-1.142-4.222-2.04-7.788-2.696l-1.925-.343a72.44 72.44 0 0 1-7.66-1.797c-2.539-.741-4.835-1.811-6.889-3.209a16.645 16.645 0 0 1-5.007-5.349c-1.283-2.196-1.925-4.964-1.925-8.301 0-1.94.428-3.965 1.284-6.076.855-2.14 2.21-4.094 4.065-5.863 1.882-1.797 4.293-3.266 7.231-4.407 2.967-1.141 6.547-1.712 10.741-1.712 4.963 0 9.385.828 13.265 2.482 3.908 1.626 7.06 3.78 9.456 6.461l-8.258 7.703c-1.683-1.855-3.851-3.309-6.504-4.365a21.612 21.612 0 0 0-8.131-1.583c-3.223 0-5.748.613-7.573 1.84-1.798 1.226-2.696 2.824-2.696 4.792 0 1.284.285 2.354.856 3.21.599.855 1.426 1.569 2.481 2.139 1.056.542 2.325.999 3.809 1.369 1.483.371 3.138.742 4.963 1.113l.985.171a73.642 73.642 0 0 1 7.317 1.755c2.425.684 4.621 1.711 6.59 3.08 1.996 1.341 3.608 3.11 4.835 5.306 1.226 2.169 1.84 4.95 1.84 8.345 0 3.081-.642 5.805-1.926 8.173a19.707 19.707 0 0 1-5.092 6.076c-2.111 1.654-4.55 2.91-7.317 3.765-2.767.828-5.648 1.241-8.644 1.241-3.023 0-5.833-.256-8.429-.77-2.568-.513-4.907-1.241-7.018-2.182-2.082-.942-3.951-1.997-5.606-3.167-1.626-1.169-3.052-2.425-4.279-3.765l8.088-8.216ZM536.222 290.601h46.77v11.511h-17.159v49.851h-12.452v-49.851h-17.159v-11.511ZM593.409 290.601h41.336v11.254h-28.927v13.051h26.659v11.211h-26.659v14.634h30.595v11.212h-43.004v-61.362ZM679.394 332.151l-18.143-22.679v42.491h-12.409v-61.362h12.58l18.143 23.963 18.699-23.963h12.067v61.362h-12.452v-42.491l-18.057 22.679h-.428ZM293.671 472.651c0 4.593-.628 8.786-1.883 12.58-1.227 3.766-3.081 6.989-5.563 9.671-2.453 2.681-5.534 4.764-9.243 6.247-3.708 1.455-8.044 2.183-13.008 2.183h-22.593V441.97h22.593c4.964 0 9.3.742 13.008 2.225 3.709 1.455 6.79 3.523 9.243 6.205 2.482 2.681 4.336 5.919 5.563 9.713 1.255 3.766 1.883 7.945 1.883 12.538Zm-12.88-1.198c0-2.596-.328-5.007-.985-7.232-.627-2.254-1.654-4.208-3.08-5.862-1.398-1.655-3.224-2.953-5.478-3.894-2.253-.97-4.978-1.455-8.173-1.455h-9.285v39.282h9.285c3.167 0 5.877-.471 8.131-1.413 2.253-.969 4.079-2.282 5.477-3.936 1.426-1.683 2.467-3.652 3.123-5.905.657-2.254.985-4.664.985-7.232v-2.353ZM340.117 491.949h-22.722l-3.466 11.383H300.75l20.068-61.362h16.304l20.368 61.362h-13.864l-3.509-11.383Zm-19.384-10.954h16.046l-7.959-25.931h-.171l-7.916 25.931ZM374.305 441.97l12.452 23.663h.171l12.709-23.663h13.907l-20.497 36.372v24.99h-12.538v-24.99l-20.496-36.372h14.292ZM667.844 434.663c-.956 0-1.791.154-2.504.462a4.786 4.786 0 0 0-1.775 1.288c-.47.552-.818 1.2-1.045 1.945a7.988 7.988 0 0 0-.341 2.383l-7.221-.656c.017-1.913.357-3.607 1.022-5.082.664-1.491 1.572-2.739 2.723-3.744 1.15-1.021 2.504-1.791 4.06-2.31 1.572-.534 3.282-.802 5.13-.802 1.929 0 3.687.292 5.276.875 1.604.568 2.974 1.37 4.109 2.407a10.6 10.6 0 0 1 2.625 3.744c.632 1.443.949 3.031.949 4.766 0 1.896-.381 3.671-1.143 5.324a18.372 18.372 0 0 1-2.991 4.571 26.618 26.618 0 0 1-4.303 3.841 47.546 47.546 0 0 1-5.008 3.113l-.657.34h14.539v6.37h-25.431v-6.321a118.4 118.4 0 0 0 4.012-2.286 69.902 69.902 0 0 0 3.987-2.528 50.742 50.742 0 0 0 3.671-2.772 22.514 22.514 0 0 0 2.991-2.966c.859-1.038 1.539-2.099 2.042-3.185a8.13 8.13 0 0 0 .754-3.404c0-.665-.114-1.321-.341-1.969a5.025 5.025 0 0 0-1.021-1.727c-.438-.502-1.005-.907-1.702-1.215-.681-.308-1.483-.462-2.407-.462ZM694.696 446.576c0 1.475.114 2.885.341 4.231.227 1.329.591 2.504 1.094 3.525.518 1.021 1.199 1.831 2.042 2.431.843.6 1.888.9 3.136.9 1.248 0 2.294-.3 3.137-.9.842-.6 1.515-1.41 2.018-2.431.518-1.021.883-2.196 1.094-3.525.227-1.346.34-2.756.34-4.231v-.948c0-1.475-.113-2.885-.34-4.23-.211-1.346-.576-2.529-1.094-3.55-.503-1.021-1.176-1.832-2.018-2.431-.843-.6-1.889-.9-3.137-.9s-2.293.3-3.136.9c-.843.599-1.524 1.41-2.042 2.431-.503 1.021-.867 2.204-1.094 3.55a25.395 25.395 0 0 0-.341 4.23v.948Zm20.569-.462c0 1.427-.106 2.861-.316 4.304a21.91 21.91 0 0 1-.973 4.157 17.849 17.849 0 0 1-1.726 3.744 12.28 12.28 0 0 1-2.626 3.015c-1.037.843-2.245 1.507-3.622 1.994-1.362.486-2.926.729-4.693.729-1.75 0-3.314-.243-4.692-.729-1.378-.487-2.585-1.151-3.623-1.994a12.546 12.546 0 0 1-2.601-3.015 18.225 18.225 0 0 1-1.751-3.72 24.76 24.76 0 0 1-.972-4.157 32.084 32.084 0 0 1 0-8.631c.211-1.443.535-2.829.972-4.158a18.192 18.192 0 0 1 1.751-3.719 11.963 11.963 0 0 1 2.601-3.015c1.038-.859 2.237-1.532 3.599-2.018 1.377-.503 2.95-.754 4.716-.754 1.767 0 3.331.251 4.693.754 1.377.486 2.585 1.159 3.622 2.018a11.723 11.723 0 0 1 2.626 3.015 17.264 17.264 0 0 1 1.726 3.719c.454 1.329.778 2.715.973 4.158.21 1.442.316 2.877.316 4.303ZM668.476 484.455c-.956 0-1.791.154-2.504.462a4.788 4.788 0 0 0-1.775 1.289 5.36 5.36 0 0 0-1.045 1.945 7.984 7.984 0 0 0-.34 2.383l-7.221-.657c.016-1.912.356-3.606 1.021-5.081.664-1.491 1.572-2.739 2.723-3.744 1.151-1.022 2.504-1.791 4.06-2.31 1.572-.535 3.282-.802 5.13-.802 1.929 0 3.687.291 5.276.875 1.605.567 2.974 1.369 4.109 2.407a10.57 10.57 0 0 1 2.625 3.744c.633 1.443.949 3.031.949 4.765 0 1.897-.381 3.671-1.143 5.325a18.386 18.386 0 0 1-2.99 4.571 26.716 26.716 0 0 1-4.304 3.841 47.537 47.537 0 0 1-5.008 3.112l-.657.34h14.539v6.37H656.49v-6.321a118.34 118.34 0 0 0 4.012-2.285 69.763 69.763 0 0 0 3.987-2.529 49.953 49.953 0 0 0 3.671-2.772 22.514 22.514 0 0 0 2.991-2.966c.859-1.037 1.54-2.099 2.042-3.185a8.11 8.11 0 0 0 .754-3.403c0-.665-.114-1.321-.341-1.97a5.02 5.02 0 0 0-1.021-1.726c-.437-.502-1.005-.908-1.702-1.216-.68-.308-1.483-.462-2.407-.462ZM694.234 502.641c.26.827.624 1.548 1.094 2.164.47.6 1.013 1.102 1.629 1.508.632.389 1.313.68 2.043.875a9.904 9.904 0 0 0 2.309.267c1.102 0 2.034-.129 2.796-.389.778-.275 1.402-.624 1.872-1.045.487-.438.835-.924 1.046-1.459.21-.551.316-1.11.316-1.678 0-1.377-.576-2.463-1.726-3.257-1.135-.811-2.885-1.216-5.252-1.216h-1.945v-5.884h1.483c2.14 0 3.809-.348 5.009-1.045 1.215-.697 1.823-1.759 1.823-3.185 0-.616-.138-1.167-.413-1.653a3.713 3.713 0 0 0-1.143-1.265c-.47-.34-1.037-.599-1.702-.778a7.346 7.346 0 0 0-2.115-.291c-.875 0-1.678.121-2.407.364a6.987 6.987 0 0 0-3.404 2.48 8.069 8.069 0 0 0-.972 1.799l-6.224-2.504a9.722 9.722 0 0 1 1.847-3.623 12.089 12.089 0 0 1 3.015-2.65 14.069 14.069 0 0 1 3.842-1.653 15.749 15.749 0 0 1 4.254-.583c1.799 0 3.469.218 5.009.656 1.54.438 2.877 1.078 4.011 1.921a8.873 8.873 0 0 1 2.699 3.063c.648 1.216.973 2.602.973 4.158 0 .924-.154 1.791-.462 2.601a7.674 7.674 0 0 1-1.216 2.164 7.538 7.538 0 0 1-1.799 1.629 8.794 8.794 0 0 1-2.237 1.045 8.573 8.573 0 0 1 2.504.973 7.95 7.95 0 0 1 2.043 1.702 7.552 7.552 0 0 1 1.361 2.358c.34.892.511 1.864.511 2.918 0 1.604-.349 3.063-1.046 4.376a10.02 10.02 0 0 1-2.82 3.355c-1.2.924-2.618 1.645-4.255 2.164-1.621.502-3.379.754-5.276.754-1.669 0-3.274-.211-4.814-.633-1.539-.437-2.925-1.053-4.157-1.847a11.982 11.982 0 0 1-3.112-2.942 9.99 9.99 0 0 1-1.702-3.939l6.71-1.775Z"/>
    <circle cx="685.27" cy="169.722" r="64.73" fill="#28A197"/>
    <path fill="#F47738" d="m528.971 408.726-67.768 49.028 25.835 79.437h83.766l25.835-79.437-67.668-49.028Z"/>
    <path fill="#D2301F" d="M322.78 321.336 210 386.019V256.654l112.78 64.682Z"/>
  </g>
  <defs>
    <clipPath id="a">
      <use xlink:href="#reuse-0"/>
    </clipPath>
  </defs>
</svg>
