<svg width="960" height="640" viewBox="0 0 960 640" fill="none" xmlns="http://www.w3.org/2000/svg">
<g clip-path="url(#clip0_413_3)">
<rect width="960" height="640" fill="white"/>
<rect width="960" height="640" fill="#FFDA2F"/>
<rect x="215" y="102" width="390" height="132" fill="#0D0F0E"/>
<rect x="338" y="254" width="419" height="132" fill="#0E0E0F"/>
<rect x="215" y="406" width="229" height="132" fill="#0E0F0E"/>
<rect x="625" y="406.104" width="132" height="132" fill="#0E0F0F"/>
<rect x="464" y="406" width="141" height="32" fill="#4988C0"/>
<rect x="464" y="456" width="141" height="32" fill="#4989C0"/>
<rect x="464" y="505" width="141" height="32" fill="#4988C0"/>
<path d="M298.599 169.191C298.599 173.803 297.969 178.014 296.709 181.824C295.477 185.605 293.615 188.842 291.123 191.535C288.659 194.228 285.565 196.319 281.842 197.809C278.118 199.27 273.763 200 268.779 200H246.092V138.383H268.779C273.763 138.383 278.118 139.128 281.842 140.617C285.565 142.078 288.659 144.155 291.123 146.848C293.615 149.54 295.477 152.792 296.709 156.602C297.969 160.383 298.599 164.579 298.599 169.191ZM285.666 167.988C285.666 165.382 285.336 162.961 284.677 160.727C284.047 158.464 283.016 156.501 281.584 154.84C280.18 153.178 278.347 151.875 276.084 150.93C273.821 149.956 271.085 149.469 267.877 149.469H258.552V188.914H267.877C271.056 188.914 273.778 188.441 276.041 187.496C278.304 186.522 280.137 185.204 281.541 183.543C282.973 181.853 284.019 179.876 284.677 177.613C285.336 175.35 285.666 172.93 285.666 170.352V167.988Z" fill="white"/>
<path d="M311.294 138.383H352.802V149.684H323.755V162.789H350.524V174.047H323.755V188.742H354.478V200H311.294V138.383Z" fill="white"/>
<path d="M371.082 182.684C371.885 183.6 372.859 184.503 374.004 185.391C375.15 186.279 376.411 187.081 377.786 187.797C379.189 188.484 380.707 189.043 382.34 189.473C383.973 189.874 385.735 190.074 387.625 190.074C391.149 190.074 393.842 189.344 395.704 187.883C397.594 186.393 398.539 184.589 398.539 182.469C398.539 180.263 397.709 178.587 396.047 177.441C394.414 176.296 391.808 175.393 388.227 174.734L386.293 174.391C383.715 173.932 381.151 173.331 378.602 172.586C376.053 171.841 373.747 170.767 371.684 169.363C369.622 167.96 367.946 166.169 366.657 163.992C365.368 161.786 364.723 159.008 364.723 155.656C364.723 153.708 365.153 151.674 366.012 149.555C366.872 147.406 368.232 145.444 370.094 143.668C371.985 141.863 374.405 140.388 377.356 139.242C380.335 138.096 383.93 137.523 388.141 137.523C393.125 137.523 397.566 138.354 401.461 140.016C405.386 141.648 408.551 143.811 410.957 146.504L402.664 154.238C400.974 152.376 398.797 150.915 396.133 149.855C393.498 148.796 390.776 148.266 387.969 148.266C384.732 148.266 382.197 148.882 380.364 150.113C378.559 151.345 377.657 152.949 377.657 154.926C377.657 156.215 377.943 157.289 378.516 158.148C379.118 159.008 379.948 159.724 381.008 160.297C382.068 160.841 383.343 161.299 384.832 161.672C386.322 162.044 387.984 162.417 389.817 162.789L390.805 162.961C393.269 163.419 395.718 164.007 398.153 164.723C400.588 165.41 402.793 166.441 404.77 167.816C406.775 169.163 408.394 170.939 409.625 173.145C410.857 175.322 411.473 178.115 411.473 181.523C411.473 184.617 410.829 187.353 409.539 189.73C408.25 192.108 406.546 194.142 404.426 195.832C402.306 197.493 399.857 198.754 397.079 199.613C394.3 200.444 391.407 200.859 388.399 200.859C385.362 200.859 382.541 200.602 379.934 200.086C377.356 199.57 375.007 198.84 372.887 197.895C370.796 196.949 368.92 195.889 367.258 194.715C365.625 193.54 364.193 192.28 362.961 190.934L371.082 182.684Z" fill="white"/>
<path d="M424.683 138.383H437.144V200H424.683V138.383Z" fill="white"/>
<path d="M462.429 169.363C462.429 171.999 462.758 174.534 463.417 176.969C464.076 179.404 465.079 181.552 466.425 183.414C467.771 185.276 469.49 186.78 471.581 187.926C473.672 189.043 476.165 189.602 479.058 189.602C481.836 189.602 484.142 189.158 485.976 188.27C487.838 187.382 489.313 186.279 490.402 184.961C491.519 183.615 492.292 182.168 492.722 180.621C493.18 179.074 493.409 177.642 493.409 176.324V175.723H477.64V166.227H505.527V200H494.612V192.781C493.839 193.984 492.879 195.087 491.734 196.09C490.588 197.064 489.299 197.909 487.866 198.625C486.434 199.312 484.859 199.857 483.14 200.258C481.45 200.659 479.645 200.859 477.726 200.859C473.228 200.859 469.232 200.043 465.737 198.41C462.243 196.777 459.292 194.529 456.886 191.664C454.508 188.799 452.689 185.448 451.429 181.609C450.197 177.771 449.581 173.632 449.581 169.191C449.581 164.78 450.269 160.655 451.644 156.816C453.047 152.949 455.024 149.598 457.573 146.762C460.152 143.897 463.245 141.648 466.855 140.016C470.493 138.354 474.56 137.523 479.058 137.523C481.98 137.523 484.744 137.867 487.351 138.555C489.986 139.214 492.378 140.173 494.527 141.434C496.704 142.665 498.623 144.169 500.284 145.945C501.946 147.693 503.292 149.641 504.323 151.789L493.409 157.934C492.75 156.616 491.977 155.398 491.089 154.281C490.201 153.135 489.17 152.161 487.995 151.359C486.849 150.529 485.532 149.884 484.042 149.426C482.553 148.939 480.891 148.695 479.058 148.695C476.165 148.695 473.672 149.268 471.581 150.414C469.49 151.531 467.771 153.021 466.425 154.883C465.079 156.745 464.076 158.908 463.417 161.371C462.758 163.806 462.429 166.327 462.429 168.934V169.363Z" fill="white"/>
<path d="M531.627 152.82V200H519.167V138.383H536.741L561.405 179.762V138.383H573.866V200H560.159L531.627 152.82Z" fill="white"/>
<path d="M381.916 334.684C382.718 335.6 383.692 336.503 384.837 337.391C385.983 338.279 387.244 339.081 388.619 339.797C390.022 340.484 391.541 341.043 393.173 341.473C394.806 341.874 396.568 342.074 398.459 342.074C401.982 342.074 404.675 341.344 406.537 339.883C408.427 338.393 409.373 336.589 409.373 334.469C409.373 332.263 408.542 330.587 406.88 329.441C405.248 328.296 402.641 327.393 399.06 326.734L397.127 326.391C394.548 325.932 391.985 325.331 389.435 324.586C386.886 323.841 384.58 322.767 382.517 321.363C380.455 319.96 378.779 318.169 377.49 315.992C376.201 313.786 375.556 311.008 375.556 307.656C375.556 305.708 375.986 303.674 376.845 301.555C377.705 299.406 379.065 297.444 380.927 295.668C382.818 293.863 385.239 292.388 388.189 291.242C391.168 290.096 394.763 289.523 398.974 289.523C403.959 289.523 408.399 290.354 412.295 292.016C416.219 293.648 419.384 295.811 421.791 298.504L413.498 306.238C411.808 304.376 409.63 302.915 406.966 301.855C404.331 300.796 401.61 300.266 398.802 300.266C395.565 300.266 393.03 300.882 391.197 302.113C389.392 303.345 388.49 304.949 388.49 306.926C388.49 308.215 388.776 309.289 389.349 310.148C389.951 311.008 390.782 311.724 391.841 312.297C392.901 312.841 394.176 313.299 395.666 313.672C397.155 314.044 398.817 314.417 400.65 314.789L401.638 314.961C404.102 315.419 406.551 316.007 408.986 316.723C411.421 317.41 413.627 318.441 415.603 319.816C417.608 321.163 419.227 322.939 420.459 325.145C421.69 327.322 422.306 330.115 422.306 333.523C422.306 336.617 421.662 339.353 420.373 341.73C419.084 344.108 417.379 346.142 415.259 347.832C413.14 349.493 410.69 350.754 407.912 351.613C405.133 352.444 402.24 352.859 399.232 352.859C396.196 352.859 393.374 352.602 390.767 352.086C388.189 351.57 385.84 350.84 383.72 349.895C381.629 348.949 379.753 347.889 378.091 346.715C376.459 345.54 375.026 344.28 373.795 342.934L381.916 334.684Z" fill="white"/>
<path d="M443.423 290.383L455.927 314.145H456.099L468.86 290.383H482.825L462.243 326.906V352H449.653V326.906L429.071 290.383H443.423Z" fill="white"/>
<path d="M493.844 334.684C494.646 335.6 495.62 336.503 496.766 337.391C497.912 338.279 499.172 339.081 500.547 339.797C501.951 340.484 503.469 341.043 505.102 341.473C506.735 341.874 508.496 342.074 510.387 342.074C513.91 342.074 516.603 341.344 518.465 339.883C520.356 338.393 521.301 336.589 521.301 334.469C521.301 332.263 520.47 330.587 518.809 329.441C517.176 328.296 514.569 327.393 510.989 326.734L509.055 326.391C506.477 325.932 503.913 325.331 501.364 324.586C498.814 323.841 496.508 322.767 494.446 321.363C492.383 319.96 490.707 318.169 489.418 315.992C488.129 313.786 487.485 311.008 487.485 307.656C487.485 305.708 487.914 303.674 488.774 301.555C489.633 299.406 490.994 297.444 492.856 295.668C494.746 293.863 497.167 292.388 500.117 291.242C503.097 290.096 506.692 289.523 510.903 289.523C515.887 289.523 520.327 290.354 524.223 292.016C528.147 293.648 531.313 295.811 533.719 298.504L525.426 306.238C523.736 304.376 521.559 302.915 518.895 301.855C516.259 300.796 513.538 300.266 510.731 300.266C507.494 300.266 504.959 300.882 503.125 302.113C501.321 303.345 500.418 304.949 500.418 306.926C500.418 308.215 500.705 309.289 501.278 310.148C501.879 311.008 502.71 311.724 503.77 312.297C504.83 312.841 506.104 313.299 507.594 313.672C509.084 314.044 510.745 314.417 512.578 314.789L513.567 314.961C516.03 315.419 518.479 316.007 520.914 316.723C523.349 317.41 525.555 318.441 527.532 319.816C529.537 321.163 531.155 322.939 532.387 325.145C533.619 327.322 534.235 330.115 534.235 333.523C534.235 336.617 533.59 339.353 532.301 341.73C531.012 344.108 529.308 346.142 527.188 347.832C525.068 349.493 522.619 350.754 519.84 351.613C517.062 352.444 514.168 352.859 511.16 352.859C508.124 352.859 505.302 352.602 502.696 352.086C500.117 351.57 497.769 350.84 495.649 349.895C493.558 348.949 491.681 347.889 490.02 346.715C488.387 345.54 486.955 344.28 485.723 342.934L493.844 334.684Z" fill="white"/>
<path d="M542.332 290.383H589.297V301.941H572.066V352H559.562V301.941H542.332V290.383Z" fill="white"/>
<path d="M599.757 290.383H641.265V301.684H612.218V314.789H638.987V326.047H612.218V340.742H642.94V352H599.757V290.383Z" fill="white"/>
<path d="M686.1 332.105L667.881 309.332V352H655.42V290.383H668.053L686.272 314.445L705.049 290.383H717.166V352H704.663V309.332L686.53 332.105H686.1Z" fill="white"/>
<path d="M298.769 473.191C298.769 477.803 298.139 482.014 296.878 485.824C295.646 489.605 293.785 492.842 291.292 495.535C288.829 498.228 285.735 500.319 282.011 501.809C278.287 503.27 273.933 504 268.949 504H246.261V442.383H268.949C273.933 442.383 278.287 443.128 282.011 444.617C285.735 446.078 288.829 448.155 291.292 450.848C293.785 453.54 295.646 456.792 296.878 460.602C298.139 464.383 298.769 468.579 298.769 473.191ZM285.835 471.988C285.835 469.382 285.506 466.961 284.847 464.727C284.217 462.464 283.186 460.501 281.753 458.84C280.35 457.178 278.516 455.875 276.253 454.93C273.99 453.956 271.255 453.469 268.046 453.469H258.722V492.914H268.046C271.226 492.914 273.947 492.441 276.21 491.496C278.473 490.522 280.307 489.204 281.71 487.543C283.143 485.853 284.188 483.876 284.847 481.613C285.506 479.35 285.835 476.93 285.835 474.352V471.988Z" fill="white"/>
<path d="M345.409 492.57H322.592L319.112 504H305.878L326.03 442.383H342.401L362.854 504H348.932L345.409 492.57ZM325.944 481.57H342.057L334.065 455.531H333.893L325.944 481.57Z" fill="white"/>
<path d="M379.739 442.383L392.243 466.145H392.415L405.177 442.383H419.142L398.56 478.906V504H385.97V478.906L365.388 442.383H379.739Z" fill="white"/>
<path d="M674.502 435.045C673.542 435.045 672.703 435.2 671.987 435.509C671.271 435.818 670.677 436.249 670.205 436.803C669.733 437.356 669.383 438.007 669.155 438.756C668.927 439.488 668.813 440.286 668.813 441.148L661.562 440.489C661.579 438.569 661.921 436.868 662.588 435.387C663.255 433.889 664.167 432.636 665.322 431.627C666.478 430.602 667.837 429.828 669.399 429.308C670.978 428.771 672.695 428.502 674.551 428.502C676.488 428.502 678.254 428.795 679.849 429.381C681.46 429.951 682.835 430.756 683.975 431.798C685.114 432.84 685.993 434.093 686.611 435.558C687.246 437.006 687.563 438.601 687.563 440.343C687.563 442.247 687.181 444.029 686.416 445.689C685.667 447.333 684.666 448.863 683.413 450.279C682.16 451.679 680.719 452.965 679.092 454.137C677.464 455.292 675.788 456.334 674.062 457.262L673.403 457.604H688.003V464H662.466V457.652C663.784 456.936 665.127 456.171 666.494 455.357C667.878 454.544 669.212 453.697 670.498 452.818C671.8 451.923 673.029 450.995 674.185 450.035C675.34 449.075 676.341 448.082 677.188 447.057C678.05 446.015 678.734 444.949 679.238 443.858C679.743 442.752 679.995 441.612 679.995 440.44C679.995 439.773 679.881 439.114 679.653 438.463C679.425 437.812 679.084 437.234 678.628 436.729C678.188 436.225 677.619 435.818 676.919 435.509C676.235 435.2 675.43 435.045 674.502 435.045Z" fill="white"/>
<path d="M701.466 447.008C701.466 448.489 701.58 449.905 701.808 451.256C702.035 452.59 702.402 453.771 702.906 454.796C703.427 455.821 704.111 456.635 704.957 457.237C705.803 457.84 706.853 458.141 708.106 458.141C709.36 458.141 710.41 457.84 711.256 457.237C712.102 456.635 712.778 455.821 713.282 454.796C713.803 453.771 714.169 452.59 714.381 451.256C714.609 449.905 714.723 448.489 714.723 447.008V446.056C714.723 444.575 714.609 443.159 714.381 441.808C714.169 440.457 713.803 439.269 713.282 438.243C712.778 437.218 712.102 436.404 711.256 435.802C710.41 435.2 709.36 434.898 708.106 434.898C706.853 434.898 705.803 435.2 704.957 435.802C704.111 436.404 703.427 437.218 702.906 438.243C702.402 439.269 702.035 440.457 701.808 441.808C701.58 443.159 701.466 444.575 701.466 446.056V447.008ZM722.12 446.544C722.12 447.976 722.014 449.417 721.803 450.865C721.607 452.314 721.282 453.705 720.826 455.04C720.387 456.375 719.809 457.628 719.093 458.8C718.377 459.955 717.498 460.965 716.456 461.827C715.414 462.674 714.202 463.341 712.818 463.829C711.451 464.317 709.881 464.562 708.106 464.562C706.349 464.562 704.778 464.317 703.395 463.829C702.011 463.341 700.799 462.674 699.757 461.827C698.731 460.965 697.861 459.955 697.145 458.8C696.428 457.644 695.842 456.399 695.387 455.064C694.947 453.73 694.622 452.338 694.41 450.89C694.215 449.441 694.117 447.993 694.117 446.544C694.117 445.112 694.215 443.671 694.41 442.223C694.622 440.774 694.947 439.382 695.387 438.048C695.842 436.713 696.428 435.468 697.145 434.312C697.861 433.141 698.731 432.132 699.757 431.285C700.799 430.423 702.003 429.747 703.37 429.259C704.754 428.754 706.332 428.502 708.106 428.502C709.881 428.502 711.451 428.754 712.818 429.259C714.202 429.747 715.414 430.423 716.456 431.285C717.498 432.132 718.377 433.141 719.093 434.312C719.809 435.468 720.387 436.713 720.826 438.048C721.282 439.382 721.607 440.774 721.803 442.223C722.014 443.671 722.12 445.112 722.12 446.544Z" fill="white"/>
<path d="M675.234 485.045C674.274 485.045 673.436 485.2 672.72 485.509C672.004 485.818 671.41 486.249 670.938 486.803C670.465 487.356 670.116 488.007 669.888 488.756C669.66 489.488 669.546 490.286 669.546 491.148L662.295 490.489C662.311 488.569 662.653 486.868 663.32 485.387C663.988 483.889 664.899 482.636 666.055 481.627C667.21 480.602 668.569 479.828 670.132 479.308C671.711 478.771 673.428 478.502 675.283 478.502C677.22 478.502 678.986 478.795 680.581 479.381C682.192 479.951 683.568 480.756 684.707 481.798C685.846 482.84 686.725 484.093 687.344 485.558C687.979 487.006 688.296 488.601 688.296 490.343C688.296 492.247 687.913 494.029 687.148 495.689C686.4 497.333 685.399 498.863 684.146 500.279C682.892 501.679 681.452 502.965 679.824 504.137C678.197 505.292 676.52 506.334 674.795 507.262L674.136 507.604H688.735V514H663.198V507.652C664.517 506.936 665.859 506.171 667.227 505.357C668.61 504.544 669.945 503.697 671.23 502.818C672.533 501.923 673.761 500.995 674.917 500.035C676.073 499.075 677.074 498.082 677.92 497.057C678.783 496.015 679.466 494.949 679.971 493.858C680.475 492.752 680.728 491.612 680.728 490.44C680.728 489.773 680.614 489.114 680.386 488.463C680.158 487.812 679.816 487.234 679.36 486.729C678.921 486.225 678.351 485.818 677.651 485.509C676.968 485.2 676.162 485.045 675.234 485.045Z" fill="white"/>
<path d="M707.496 485.045C706.536 485.045 705.698 485.2 704.981 485.509C704.265 485.818 703.671 486.249 703.199 486.803C702.727 487.356 702.377 488.007 702.149 488.756C701.922 489.488 701.808 490.286 701.808 491.148L694.557 490.489C694.573 488.569 694.915 486.868 695.582 485.387C696.249 483.889 697.161 482.636 698.316 481.627C699.472 480.602 700.831 479.828 702.394 479.308C703.972 478.771 705.689 478.502 707.545 478.502C709.482 478.502 711.248 478.795 712.843 479.381C714.454 479.951 715.829 480.756 716.969 481.798C718.108 482.84 718.987 484.093 719.605 485.558C720.24 487.006 720.558 488.601 720.558 490.343C720.558 492.247 720.175 494.029 719.41 495.689C718.661 497.333 717.66 498.863 716.407 500.279C715.154 501.679 713.714 502.965 712.086 504.137C710.458 505.292 708.782 506.334 707.057 507.262L706.397 507.604H720.997V514H695.46V507.652C696.778 506.936 698.121 506.171 699.488 505.357C700.872 504.544 702.206 503.697 703.492 502.818C704.794 501.923 706.023 500.995 707.179 500.035C708.334 499.075 709.335 498.082 710.182 497.057C711.044 496.015 711.728 494.949 712.232 493.858C712.737 492.752 712.989 491.612 712.989 490.44C712.989 489.773 712.875 489.114 712.647 488.463C712.42 487.812 712.078 487.234 711.622 486.729C711.183 486.225 710.613 485.818 709.913 485.509C709.229 485.2 708.424 485.045 707.496 485.045Z" fill="white"/>
<circle cx="692" cy="169" r="65" fill="#16978C"/>
<path d="M328 320L214.75 384.952L214.75 255.048L328 320Z" fill="#D2301F"/>
</g>
<defs>
<clipPath id="clip0_413_3">
<rect width="960" height="640" fill="white"/>
</clipPath>
</defs>
</svg>
