<svg fill="none" height="310" viewBox="0 0 465 310" width="465" xmlns="http://www.w3.org/2000/svg"><path d="m0 0h465v310h-465z" fill="#6f72af"/><rect fill="#fff" height="248" rx="4" width="384" x="41" y="28"/><path d="m41 32c0-2.2091 1.7909-4 4-4h376c2.209 0 4 1.7909 4 4v19h-384z" fill="#f3f2f1"/><circle cx="50.5" cy="39.5" fill="#d4351c" r="3.5"/><circle cx="62.5" cy="39.5" fill="#fd0" r="3.5"/><circle cx="74.5" cy="39.5" fill="#00703c" r="3.5"/><rect fill="#fff" height="185" rx="1" stroke="#d9d9d9" stroke-width="2" width="339" x="56" y="68"/><rect fill="#fff" height="110" rx="1" stroke="#d9d9d9" stroke-width="2" width="279" x="108" y="97"/><path d="m113 105h67v12h-67z" fill="#d9d9d9"/><rect fill="#f3f2f1" height="14" rx="1" stroke="#d9d9d9" stroke-width="2" width="65" x="241" y="187"/><rect fill="#f3f2f1" height="14" rx="1" stroke="#d9d9d9" stroke-width="2" width="65" x="314" y="187"/><circle cx="365" cy="81" r="5" stroke="#b1b4b6"/><circle cx="363.125" cy="80.375" fill="#b1b4b6" r=".625"/><circle cx="366.875" cy="80.375" fill="#b1b4b6" r=".625"/><path d="m362.5 82.25s.625 1.25 2.5 1.25 2.5-1.25 2.5-1.25" stroke="#b1b4b6" stroke-linecap="round"/><g fill="#b1b4b6"><circle cx="376" cy="81" r="1"/><circle cx="380" cy="81" r="1"/><circle cx="384" cy="81" r="1"/></g><path d="m113 76h40v12h-40z" fill="#0b0c0c"/><path d="m159 76h21v12h-21z" fill="#b1b4b6"/><path d="m186 76h36v12h-36z" fill="#d9d9d9"/><rect fill="#4c2c92" height="30" rx="4" width="30" x="66" y="76"/><path d="m109 126h277v28h-277z" fill="#fadfdb"/><path d="m109 154h277v28h-277z" fill="#d6ffeb"/><g stroke="#0b0c0c" stroke-linecap="round" stroke-linejoin="round" stroke-miterlimit="1.30541" stroke-width="2"><path d="m152.5 159v7"/><path d="m149 162.5h7"/><path d="m149 134.5h7"/></g><path d="m109 126h34v28h-34z" fill="#f5bfb7"/><path d="m109 154h34v28h-34z" fill="#adffd8"/><path d="m132 159h7v7h-7z" fill="#d9d9d9"/><path d="m132 131h7v7h-7z" fill="#d9d9d9"/><path d="m57 216h337v36h-337z" fill="#f3f2f1"/><rect fill="#4c2c92" height="30" rx="4" width="30" x="66" y="220"/><rect fill="#fff" height="20" rx="1" stroke="#d9d9d9" stroke-width="2" width="279" x="108" y="225"/><path d="m57 216h337" stroke="#d9d9d9" stroke-width="2"/></svg>