<svg width="465" height="310" viewBox="0 0 465 310" fill="none" xmlns="http://www.w3.org/2000/svg">
<rect width="465" height="310" fill="#1D70B8"/>
<rect x="41" y="28" width="384" height="248" rx="4" fill="white"/>
<path d="M41 33C41 30.7909 42.7909 29 45 29H421C423.209 29 425 30.7909 425 33V52H41V33Z" fill="#F3F2F1"/>
<circle cx="50.5" cy="40.5" r="3.5" fill="#D4351C"/>
<circle cx="62.5" cy="40.5" r="3.5" fill="#FFDD00"/>
<circle cx="74.5" cy="40.5" r="3.5" fill="#00703C"/>
<circle cx="365" cy="82" r="5" stroke="#B1B4B6"/>
<circle cx="363.125" cy="81.375" r="0.625" fill="#B1B4B6"/>
<circle cx="366.875" cy="81.375" r="0.625" fill="#B1B4B6"/>
<path d="M362.5 83.25C362.5 83.25 363.125 84.5 365 84.5C366.875 84.5 367.5 83.25 367.5 83.25" stroke="#B1B4B6" stroke-linecap="round"/>
<circle cx="376" cy="82" r="1" fill="#B1B4B6"/>
<circle cx="380" cy="82" r="1" fill="#B1B4B6"/>
<circle cx="384" cy="82" r="1" fill="#B1B4B6"/>
<rect x="113" y="77" width="40" height="12" fill="#0B0C0C"/>
<rect x="159" y="77" width="66" height="12" fill="#B1B4B6"/>
<rect x="41" y="52" width="384" height="40" fill="#F3F2F1"/>
<rect x="41" y="52" width="384" height="22" fill="#1D70B8"/>
<rect x="41" y="52" width="384" height="18" fill="#0B0C0C"/>
<rect x="196" y="89" width="34" height="3" fill="#1D70B8"/>
<rect x="153" y="109" width="58" height="8" fill="#B1B4B6"/>
<rect x="153" y="123" width="132" height="14" fill="#0B0C0C"/>
<rect x="77" y="109" width="47" height="6" fill="#B1B4B6"/>
<rect x="77" y="146" width="39" height="6" fill="#B1B4B6"/>
<rect x="77" y="183" width="45" height="6" fill="#B1B4B6"/>
<rect x="77" y="220" width="24" height="6" fill="#B1B4B6"/>
<rect x="77" y="123" width="54" height="6" fill="#1D70B8"/>
<rect x="77" y="160" width="54" height="6" fill="#1D70B8"/>
<rect x="77" y="197" width="54" height="6" fill="#1D70B8"/>
<rect x="77" y="234" width="39" height="6" fill="#1D70B8"/>
<rect x="153" y="144" width="199" height="4" fill="#505A5F"/>
<rect x="153" y="154" width="57" height="4" fill="#505A5F"/>
<rect x="71" y="123" width="3" height="6" fill="#1D70B8"/>
<rect x="153" y="178" width="83" height="12" fill="#0B0C0C"/>
<rect x="153" y="197" width="199" height="4" fill="#505A5F"/>
<rect x="153" y="218" width="34" height="6" fill="#0B0C0C"/>
<rect x="153" y="237" width="16" height="6" fill="#0B0C0C"/>
<rect x="153" y="256" width="42" height="6" fill="#0B0C0C"/>
<rect x="219" y="219" width="93" height="4" fill="#505A5F"/>
<rect x="219" y="238" width="108" height="4" fill="#505A5F"/>
<rect x="219" y="257" width="108" height="4" fill="#505A5F"/>
<rect x="339" y="219" width="38" height="4" fill="#1D70B8"/>
<rect x="339" y="238" width="38" height="4" fill="#1D70B8"/>
<rect x="339" y="257" width="38" height="4" fill="#1D70B8"/>
</svg>
