<?xml version="1.0" standalone="no"?>
<!DOCTYPE svg PUBLIC "-//W3C//DTD SVG 20010904//EN"
 "http://www.w3.org/TR/2001/REC-SVG-20010904/DTD/svg10.dtd">
<svg version="1.0" xmlns="http://www.w3.org/2000/svg"
 width="200.000000pt" height="200.000000pt" viewBox="0 0 200.000000 200.000000"
 preserveAspectRatio="xMidYMid meet">
<metadata>
Created by potrace 1.14, written by Peter Selinger 2001-2017
</metadata>
<g transform="translate(0.000000,200.000000) scale(0.100000,-0.100000)"
fill="#000000" stroke="none">
<path d="M624 1780 l-39 -70 -85 0 -85 0 -39 -72 -38 -73 40 -68 40 -68 -42
-72 -43 -72 -83 -5 -84 -5 -38 -66 -38 -67 41 -71 41 -72 -41 -70 -41 -71 40
-69 40 -68 82 -3 82 -3 43 -72 42 -72 -41 -70 -40 -70 39 -68 39 -68 84 -5 85
-5 39 -67 38 -68 83 0 83 0 39 68 39 67 85 3 85 3 39 -71 40 -71 85 3 84 3 39
68 39 67 82 0 82 0 37 65 c20 35 37 69 37 75 0 7 -16 39 -35 71 -19 33 -35 64
-35 69 0 4 18 40 41 79 l41 71 81 0 82 0 38 66 c20 36 37 69 37 73 0 3 -18 35
-39 71 l-38 65 40 75 40 75 -39 68 -38 67 -82 0 -82 0 -42 73 -42 72 38 73 39
73 -37 67 -37 67 -85 3 -86 3 -40 69 -41 70 -82 0 -82 0 -38 -70 -38 -70 -87
0 -87 0 -38 70 -38 70 -83 0 -82 0 -40 -70z m241 -277 c21 -38 38 -72 38 -78
0 -6 -17 -41 -39 -78 l-39 -68 -79 3 -80 3 -43 72 -42 72 41 71 41 70 81 0 82
0 39 -67z m498 -6 l39 -68 -43 -75 -43 -75 -80 3 -80 3 -39 68 c-39 68 -40 69
-24 103 9 18 28 52 42 74 l26 41 81 -3 82 -3 39 -68z m-245 -424 l43 -71 -44
-74 -43 -73 -81 -3 -81 -3 -41 71 c-23 40 -41 76 -41 82 0 14 70 131 84 141 6
4 45 6 86 5 l75 -3 43 -72z m-494 -1 l38 -67 -38 -72 -39 -73 -87 0 -86 0 -36
64 c-20 35 -36 69 -36 76 0 6 17 40 37 75 l37 65 86 0 85 0 39 -68z m986 -3
l42 -70 -42 -70 -41 -69 -84 0 -83 0 -41 71 -41 71 40 69 41 69 84 0 84 0 41
-71z m-740 -424 l39 -70 -42 -73 -41 -72 -82 0 -82 0 -41 70 -40 70 36 63 c54
93 47 88 135 85 l79 -3 39 -70z m490 0 l41 -75 -38 -70 -38 -70 -85 2 -84 3
-39 68 c-39 68 -40 69 -24 103 9 18 28 52 42 74 l25 40 79 0 80 0 41 -75z"/>
</g>
</svg>
