<svg width="411" height="265" viewBox="0 0 411 265" fill="none" xmlns="http://www.w3.org/2000/svg">
<rect x="58.8931" y="147" width="146" height="58" transform="rotate(-90 58.8931 147)" fill="#0C4A92" stroke="#CFD5DF" stroke-width="2"/>
<rect x="58.8931" y="59.4219" width="58.4224" height="58.4224" transform="rotate(-90 58.8931 59.4219)" fill="#003078" stroke="#CFD5DF" stroke-width="2"/>
<circle cx="88.1042" cy="117.945" r="29.2112" transform="rotate(-90 88.1042 117.945)" stroke="#CFD5DF" stroke-width="2"/>
<path fill-rule="evenodd" clip-rule="evenodd" d="M58.8932 59.4223C58.8931 59.4553 58.8931 59.4883 58.8931 59.5212C58.8931 75.6541 71.9714 88.7324 88.1042 88.7324C104.237 88.7324 117.315 75.6541 117.315 59.5212C117.315 59.4883 117.315 59.4553 117.315 59.4223L58.8932 59.4223Z" fill="#1F70B8"/>
<path d="M58.8932 59.4223L58.8932 58.4223L57.8965 58.4223L57.8932 59.419L58.8932 59.4223ZM117.315 59.4223L118.315 59.419L118.312 58.4223L117.315 58.4223L117.315 59.4223ZM59.8931 59.5212C59.8931 59.4894 59.8931 59.4575 59.8932 59.4256L57.8932 59.419C57.8931 59.4531 57.8931 59.4871 57.8931 59.5212L59.8931 59.5212ZM88.1042 87.7324C72.5236 87.7324 59.8931 75.1018 59.8931 59.5212L57.8931 59.5212C57.8931 76.2064 71.4191 89.7324 88.1042 89.7324L88.1042 87.7324ZM116.315 59.5212C116.315 75.1018 103.685 87.7324 88.1042 87.7324L88.1042 89.7324C104.789 89.7324 118.315 76.2064 118.315 59.5212L116.315 59.5212ZM116.315 59.4257C116.315 59.4575 116.315 59.4893 116.315 59.5212L118.315 59.5212C118.315 59.4872 118.315 59.4531 118.315 59.419L116.315 59.4257ZM117.315 58.4223L58.8932 58.4223L58.8932 60.4223L117.315 60.4223L117.315 58.4223Z" fill="#CFD5DF"/>
<rect x="409" y="205.771" width="146" height="58" transform="rotate(180 409 205.771)" fill="#0C4A92" stroke="#CFD5DF" stroke-width="2"/>
<rect x="321.422" y="205.771" width="58.4224" height="58.4224" transform="rotate(180 321.422 205.771)" fill="#003078" stroke="#CFD5DF" stroke-width="2"/>
<circle cx="379.944" cy="176.56" r="29.2112" transform="rotate(180 379.944 176.56)" stroke="#CFD5DF" stroke-width="2"/>
<path fill-rule="evenodd" clip-rule="evenodd" d="M321.422 205.771C321.455 205.771 321.488 205.771 321.521 205.771C337.654 205.771 350.732 192.693 350.732 176.56C350.732 160.427 337.654 147.349 321.521 147.349C321.488 147.349 321.455 147.349 321.422 147.349L321.422 205.771Z" fill="#1F70B8"/>
<path d="M321.422 205.771L320.422 205.771L320.422 206.768L321.419 206.771L321.422 205.771ZM321.422 147.349L321.419 146.349L320.422 146.353L320.422 147.349L321.422 147.349ZM321.521 204.771C321.489 204.771 321.457 204.771 321.426 204.771L321.419 206.771C321.453 206.771 321.487 206.771 321.521 206.771L321.521 204.771ZM349.732 176.56C349.732 192.141 337.102 204.771 321.521 204.771L321.521 206.771C338.206 206.771 351.732 193.245 351.732 176.56L349.732 176.56ZM321.521 148.349C337.102 148.349 349.732 160.98 349.732 176.56L351.732 176.56C351.732 159.875 338.206 146.349 321.521 146.349L321.521 148.349ZM321.426 148.349C321.457 148.349 321.489 148.349 321.521 148.349L321.521 146.349C321.487 146.349 321.453 146.349 321.419 146.349L321.426 148.349ZM320.422 147.349L320.422 205.771L322.422 205.771L322.422 147.349L320.422 147.349Z" fill="#CFD5DF"/>
<rect x="59.4375" y="205.227" width="58.2262" height="58.2262" fill="#1F70B8" stroke="#CFD5DF" stroke-width="2"/>
<rect x="59.4375" y="147" width="58.2262" height="58.2262" fill="#074088" stroke="#CFD5DF" stroke-width="2"/>
<circle cx="30.1131" cy="234.34" r="29.1131" fill="#1F70B8" fill-opacity="0.6" stroke="#CFD5DF" stroke-width="2"/>
<mask id="mask0_416_116" style="mask-type:alpha" maskUnits="userSpaceOnUse" x="30" y="205" width="59" height="59">
<circle cx="59.3382" cy="234.34" r="29.1131" fill="#D9D9D9"/>
</mask>
<g mask="url(#mask0_416_116)">
<rect x="59.4375" y="199.542" width="42.5424" height="69.793" fill="#003078"/>
</g>
<rect x="264" y="59" width="147" height="58" transform="rotate(-180 264 59)" fill="#0C4A92" stroke="#CFD5DF" stroke-width="2"/>
<rect x="176.098" y="59.2246" width="58.2242" height="58.2242" transform="rotate(-180 176.098 59.2246)" fill="#1F70B8" stroke="#CFD5DF" stroke-width="2"/>
<rect x="409" y="147" width="145" height="146" transform="rotate(-180 409 147)" fill="#1F70B8" stroke="#CFD5DF" stroke-width="2"/>
<circle cx="234.422" cy="30.1125" r="29.1121" transform="rotate(-180 234.422 30.1125)" fill="#1F70B8" fill-opacity="0.9" stroke="#CFD5DF" stroke-width="2"/>
<path fill-rule="evenodd" clip-rule="evenodd" d="M176.099 59.2244C176.132 59.2246 176.164 59.2246 176.197 59.2246C192.275 59.2246 205.309 46.1907 205.309 30.1125C205.309 14.0343 192.275 1.00041 176.197 1.00041C176.164 1.00041 176.132 1.00046 176.099 1.00057L176.099 59.2244Z" fill="#003078"/>
<path d="M176.099 59.2244L175.099 59.2244L175.099 60.2212L176.096 60.2244L176.099 59.2244ZM176.099 1.00057L176.096 0.000575022L175.099 0.00384192L175.099 1.00057L176.099 1.00057ZM176.197 58.2246C176.165 58.2246 176.134 58.2246 176.102 58.2245L176.096 60.2244C176.13 60.2246 176.163 60.2246 176.197 60.2246L176.197 58.2246ZM204.309 30.1125C204.309 45.6384 191.723 58.2246 176.197 58.2246L176.197 60.2246C192.827 60.2246 206.309 46.743 206.309 30.1125L204.309 30.1125ZM176.197 2.00041C191.723 2.00041 204.309 14.5866 204.309 30.1125L206.309 30.1125C206.309 13.4821 192.827 0.000410896 176.197 0.000409442L176.197 2.00041ZM176.102 2.00056C176.134 2.00046 176.165 2.00041 176.197 2.00041L176.197 0.000409442C176.163 0.000409439 176.13 0.00046463 176.096 0.000575022L176.102 2.00056ZM175.099 1.00057L175.099 59.2244L177.099 59.2244L177.099 1.00057L175.099 1.00057Z" fill="#CFD5DF"/>
<rect x="263.501" y="263.268" width="146.501" height="57.8033" transform="rotate(-180 263.501 263.268)" fill="#0C4A92" stroke="#CFD5DF" stroke-width="2"/>
<rect x="175.646" y="263.225" width="58.2242" height="58.2242" transform="rotate(-180 175.646 263.225)" fill="#1F70B8" stroke="#CFD5DF" stroke-width="2"/>
<circle cx="233.969" cy="234.113" r="29.1121" transform="rotate(-180 233.969 234.113)" fill="#1F70B8" fill-opacity="0.9" stroke="#CFD5DF" stroke-width="2"/>
<path fill-rule="evenodd" clip-rule="evenodd" d="M175.647 263.224C175.679 263.225 175.712 263.225 175.744 263.225C191.823 263.225 204.856 250.191 204.856 234.113C204.856 218.034 191.823 205 175.744 205C175.712 205 175.679 205 175.647 205.001L175.647 263.224Z" fill="#003078"/>
<path d="M175.647 263.224L174.647 263.224L174.647 264.221L175.643 264.224L175.647 263.224ZM175.647 205.001L175.643 204.001L174.647 204.004L174.647 205.001L175.647 205.001ZM175.744 262.225C175.713 262.225 175.681 262.225 175.65 262.224L175.643 264.224C175.677 264.225 175.711 264.225 175.744 264.225L175.744 262.225ZM203.856 234.113C203.856 249.638 191.27 262.225 175.744 262.225L175.744 264.225C192.375 264.225 205.856 250.743 205.856 234.113L203.856 234.113ZM175.744 206C191.27 206 203.856 218.587 203.856 234.113L205.856 234.113C205.856 217.482 192.375 204 175.744 204L175.744 206ZM175.65 206.001C175.681 206 175.713 206 175.744 206L175.744 204C175.711 204 175.677 204 175.643 204.001L175.65 206.001ZM174.647 205.001L174.647 263.224L176.647 263.224L176.647 205.001L174.647 205.001Z" fill="#CFD5DF"/>
<rect x="117.506" y="59.2266" width="146.448" height="146.448" fill="#074088" stroke="#D9D9D9" stroke-width="2"/>
<rect x="118.378" y="60.1494" width="144.673" height="68.3423" fill="#1D6CB4"/>
<path d="M160.518 157.531L160.804 158.443C161.794 161.596 163.178 164.327 164.948 166.648C166.73 168.92 168.782 170.819 171.106 172.35C173.503 173.823 176.084 174.93 178.853 175.669C181.705 176.35 184.654 176.692 187.7 176.692C191.964 176.692 195.515 176.189 198.379 175.216C201.351 174.162 203.681 172.849 205.408 171.3C207.221 169.669 208.493 167.881 209.259 165.941C210.045 163.883 210.435 161.804 210.435 159.699C210.435 154.61 208.336 150.641 204.072 147.698L204.065 147.693L204.059 147.688C199.844 144.678 193.205 143.089 183.968 143.089H176.311H175.311V142.089V118.929V117.929H176.311H182.149C190.483 117.929 196.855 116.568 201.362 113.949L201.367 113.946C205.835 111.385 208.042 107.54 208.042 102.276C208.042 100.006 207.536 98.01 206.545 96.2612L206.539 96.2491L206.539 96.2491C205.53 94.4106 204.137 92.8659 202.344 91.6108L202.337 91.6062L202.331 91.6015C200.596 90.345 198.478 89.3708 195.959 88.6949L195.945 88.6911L195.931 88.6868C193.483 87.9524 190.805 87.5805 187.892 87.5805C184.54 87.5805 181.492 88.0457 178.736 88.9638C176.022 89.8895 173.596 91.1503 171.452 92.7428C169.3 94.3415 167.426 96.2154 165.826 98.3669C164.282 100.531 163.048 102.815 162.123 105.219L161.759 106.167L160.817 105.788L136.316 95.9303L135.49 95.5978L135.725 94.7385C137.228 89.2498 139.715 84.3701 143.188 80.1106C146.639 75.8783 150.678 72.3275 155.302 69.4617C159.982 66.5368 165.113 64.3298 170.688 62.8381C176.261 61.2835 181.932 60.5059 187.7 60.5059C194.864 60.5059 201.528 61.3771 207.689 63.128C213.848 64.8786 219.223 67.4465 223.796 70.8429C228.444 74.1829 232.087 78.3166 234.712 83.2388C237.351 88.1868 238.658 93.8072 238.658 100.075C238.658 103.823 238.033 107.356 236.776 110.666C235.592 113.888 233.946 116.82 231.837 119.456M160.518 157.531L231.055 118.833M160.518 157.531L159.594 157.775L133.18 164.762L132.27 165.002L132.455 165.925C133.631 171.803 135.92 177.104 139.324 181.818L139.328 181.824C142.719 186.453 146.89 190.395 151.835 193.648L151.843 193.653C156.783 196.838 162.33 199.301 168.477 201.049L168.487 201.051C174.638 202.735 181.043 203.575 187.7 203.575C195.254 203.575 202.278 202.574 208.764 200.563L208.77 200.561C215.311 198.489 221.001 195.6 225.827 191.883C230.66 188.16 234.455 183.647 237.204 178.348M160.518 157.531L215.168 129.361C215.783 129.495 216.391 129.645 216.992 129.81C217.511 129.626 218.023 129.43 218.531 129.223M231.837 119.456C231.837 119.456 231.836 119.457 231.835 119.458L231.055 118.833M231.837 119.456C231.837 119.456 231.837 119.455 231.837 119.455L231.055 118.833M231.837 119.456C229.79 122.031 227.349 124.24 224.518 126.083C222.613 127.324 220.617 128.371 218.531 129.223M231.055 118.833C229.077 121.321 226.716 123.459 223.972 125.245C221.756 126.688 219.415 127.861 216.949 128.763C217.482 128.904 218.009 129.058 218.531 129.223M218.531 129.223C220.977 129.996 223.31 131.031 225.529 132.325C228.688 134.168 231.454 136.473 233.824 139.237C236.202 142.012 238.046 145.21 239.361 148.823M239.361 148.823C239.36 148.82 239.359 148.817 239.358 148.815L238.424 149.171L239.364 148.83C239.363 148.827 239.362 148.825 239.361 148.823ZM239.361 148.823C240.747 152.455 241.434 156.403 241.434 160.656C241.434 167.121 240.029 173.025 237.204 178.348M237.204 178.348C237.205 178.346 237.205 178.345 237.206 178.343L236.318 177.883L237.202 178.352C237.202 178.351 237.203 178.349 237.204 178.348ZM161.19 104.86L160.262 104.487C160.26 104.492 160.258 104.496 160.257 104.501L161.19 104.86ZM161.19 104.86L161.546 103.977C161.422 104.269 161.304 104.564 161.19 104.86Z" stroke="#D9D9D9" stroke-width="2"/>
</svg>
