<svg width="537" height="151" viewBox="0 0 537 151" fill="none" xmlns="http://www.w3.org/2000/svg">
<path d="M450.812 104.002C451.904 107.482 453.439 110.519 455.418 113.112C457.397 115.637 459.683 117.752 462.277 119.458C464.938 121.096 467.804 122.325 470.875 123.144C474.014 123.894 477.256 124.27 480.6 124.27C485.24 124.27 489.164 123.724 492.372 122.632C495.647 121.472 498.275 120.004 500.254 118.23C502.301 116.388 503.768 114.34 504.655 112.088C505.542 109.768 505.986 107.414 505.986 105.025C505.986 99.2245 503.563 94.6523 498.718 91.3084C493.941 87.8963 486.571 86.1902 476.608 86.1902H468.419V61.4182H474.663C483.671 61.4182 490.7 59.951 495.75 57.0166C500.868 54.0821 503.427 49.6123 503.427 43.6069C503.427 41.0137 502.847 38.6935 501.687 36.6462C500.527 34.5307 498.923 32.7564 496.876 31.3233C494.897 29.8902 492.508 28.7983 489.71 28.0477C486.98 27.2287 484.012 26.8193 480.805 26.8193C477.119 26.8193 473.741 27.3311 470.671 28.3547C467.668 29.3784 464.972 30.7773 462.584 32.5517C460.195 34.326 458.114 36.4074 456.34 38.7958C454.634 41.1843 453.269 43.7093 452.245 46.3708L426.04 35.8273C427.61 30.0949 430.203 25.0109 433.82 20.5751C437.436 16.1393 441.667 12.4201 446.513 9.41746C451.426 6.34655 456.817 4.02631 462.686 2.45673C468.555 0.81891 474.526 0 480.6 0C488.175 0 495.204 0.921273 501.687 2.76382C508.17 4.60637 513.8 7.30194 518.577 10.8506C523.422 14.3309 527.209 18.6302 529.939 23.7484C532.669 28.8666 534.034 34.7013 534.034 41.2526C534.034 45.1424 533.385 48.7934 532.089 52.2055C530.86 55.5494 529.154 58.5862 526.971 61.3158C524.855 63.9773 522.33 66.2634 519.396 68.1742C516.461 70.085 513.322 71.5522 509.978 72.5759C513.731 73.3948 517.246 74.7596 520.522 76.6704C523.797 78.5812 526.663 80.9697 529.12 83.8359C531.577 86.702 533.488 90.0118 534.853 93.7651C536.286 97.5185 537.002 101.613 537.002 106.049C537.002 112.805 535.535 118.947 532.601 124.474C529.734 130.002 525.776 134.711 520.726 138.6C515.676 142.49 509.705 145.527 502.813 147.711C495.988 149.826 488.584 150.884 480.6 150.884C473.571 150.884 466.815 149.997 460.332 148.223C453.849 146.38 448.014 143.787 442.828 140.443C437.641 137.031 433.274 132.902 429.725 128.057C426.176 123.144 423.788 117.616 422.56 111.474L450.812 104.002Z" fill="#003078"/>
<path d="M291.123 2.04785L320.911 58.655H321.32L351.722 2.04785H384.991L335.958 89.057V148.837H305.966V89.057L256.934 2.04785H291.123Z" fill="#003078"/>
<path d="M225.406 121.609H171.05L162.759 148.837H131.231L179.24 2.04785H218.24L266.965 148.837H233.799L225.406 121.609ZM179.035 95.4035H217.421L198.382 33.3711H197.972L179.035 95.4035Z" fill="#003078"/>
<path d="M125.088 75.4426C125.088 86.4296 123.587 96.4613 120.584 105.538C117.65 114.546 113.214 122.257 107.277 128.672C101.408 135.087 94.0381 140.068 85.1666 143.617C76.2951 147.097 65.9222 148.837 54.048 148.837H0V2.04785H54.048C65.9222 2.04785 76.2951 3.82216 85.1666 7.37076C94.0381 10.8511 101.408 15.7987 107.277 22.2135C113.214 28.6283 117.65 36.3738 120.584 45.4501C123.587 54.4581 125.088 64.4556 125.088 75.4426ZM94.277 72.5764C94.277 66.3664 93.4922 60.5999 91.9226 55.277C90.4213 49.8858 87.9645 45.2112 84.5524 41.2531C81.2085 37.2951 76.841 34.19 71.4499 31.938C66.0587 29.6178 59.5415 28.4577 51.8984 28.4577H29.6855V122.428H51.8984C59.4733 122.428 65.9563 121.302 71.3475 119.05C76.7386 116.729 81.1062 113.59 84.45 109.632C87.8622 105.606 90.353 100.897 91.9226 95.5059C93.4922 90.1147 94.277 84.3483 94.277 78.2064V72.5764Z" fill="#003078"/>
<mask id="mask0_395_467" style="mask-type:alpha" maskUnits="userSpaceOnUse" x="422" y="0" width="116" height="151">
<path d="M450.812 104.002C451.904 107.482 453.439 110.519 455.418 113.112C457.397 115.637 459.683 117.752 462.277 119.458C464.938 121.096 467.804 122.325 470.875 123.144C474.014 123.894 477.256 124.27 480.6 124.27C485.24 124.27 489.164 123.724 492.372 122.632C495.647 121.472 498.275 120.004 500.254 118.23C502.301 116.388 503.768 114.34 504.655 112.088C505.542 109.768 505.986 107.414 505.986 105.025C505.986 99.2245 503.563 94.6523 498.718 91.3084C493.941 87.8963 486.571 86.1902 476.608 86.1902H468.419V61.4182H474.663C483.671 61.4182 490.7 59.951 495.75 57.0166C500.868 54.0821 503.427 49.6123 503.427 43.6069C503.427 41.0137 502.847 38.6935 501.687 36.6462C500.527 34.5307 498.923 32.7564 496.876 31.3233C494.897 29.8902 492.508 28.7983 489.71 28.0477C486.98 27.2287 484.012 26.8193 480.805 26.8193C477.119 26.8193 473.741 27.3311 470.671 28.3547C467.668 29.3784 464.972 30.7773 462.584 32.5517C460.195 34.326 458.114 36.4074 456.34 38.7958C454.634 41.1843 453.269 43.7093 452.245 46.3708L426.04 35.8273C427.61 30.0949 430.203 25.0109 433.82 20.5751C437.436 16.1393 441.667 12.4201 446.513 9.41746C451.426 6.34655 456.817 4.02631 462.686 2.45673C468.555 0.81891 474.526 0 480.6 0C488.175 0 495.204 0.921273 501.687 2.76382C508.17 4.60637 513.8 7.30194 518.577 10.8506C523.422 14.3309 527.209 18.6302 529.939 23.7484C532.669 28.8666 534.034 34.7013 534.034 41.2526C534.034 45.1424 533.385 48.7934 532.089 52.2055C530.86 55.5494 529.154 58.5862 526.971 61.3158C524.855 63.9773 522.33 66.2634 519.396 68.1742C516.461 70.085 513.322 71.5522 509.978 72.5759C513.731 73.3948 517.246 74.7596 520.522 76.6704C523.797 78.5812 526.663 80.9697 529.12 83.8359C531.577 86.702 533.488 90.0118 534.853 93.7651C536.286 97.5185 537.002 101.613 537.002 106.049C537.002 112.805 535.535 118.947 532.601 124.474C529.734 130.002 525.776 134.711 520.726 138.6C515.676 142.49 509.705 145.527 502.813 147.711C495.988 149.826 488.584 150.884 480.6 150.884C473.571 150.884 466.815 149.997 460.332 148.223C453.849 146.38 448.014 143.787 442.828 140.443C437.641 137.031 433.274 132.902 429.725 128.057C426.176 123.144 423.788 117.616 422.56 111.474L450.812 104.002Z" fill="#003078"/>
</mask>
<g mask="url(#mask0_395_467)">
<rect x="385.016" y="71.54" width="186.004" height="88.4493" fill="#1F70B8"/>
</g>
<mask id="mask1_395_467" style="mask-type:alpha" maskUnits="userSpaceOnUse" x="256" y="2" width="129" height="147">
<path d="M291.123 2.04785L320.911 58.655H321.32L351.722 2.04785H384.991L335.958 89.057V148.837H305.966V89.057L256.934 2.04785H291.123Z" fill="#003078"/>
</mask>
<g mask="url(#mask1_395_467)">
<rect x="287.461" y="-6.90723" width="102.245" height="174.297" transform="rotate(-27.0021 287.461 -6.90723)" fill="#1F70B8"/>
</g>
<mask id="mask2_395_467" style="mask-type:alpha" maskUnits="userSpaceOnUse" x="131" y="2" width="136" height="147">
<path d="M225.406 121.609H171.05L162.759 148.837H131.231L179.24 2.04785H218.24L266.965 148.837H233.799L225.406 121.609ZM179.035 95.4035H217.421L198.382 33.3711H197.972L179.035 95.4035Z" fill="#003078"/>
</mask>
<g mask="url(#mask2_395_467)">
<rect x="160.686" y="-33.5791" width="54.6304" height="199.011" transform="rotate(16.4589 160.686 -33.5791)" fill="#1F70B8"/>
</g>
<mask id="mask3_395_467" style="mask-type:alpha" maskUnits="userSpaceOnUse" x="0" y="2" width="126" height="147">
<path d="M125.088 75.4426C125.088 86.4296 123.587 96.4613 120.584 105.538C117.65 114.546 113.214 122.257 107.277 128.672C101.408 135.087 94.0381 140.068 85.1666 143.617C76.2951 147.097 65.9222 148.837 54.048 148.837H0V2.04785H54.048C65.9222 2.04785 76.2951 3.82216 85.1666 7.37076C94.0381 10.8511 101.408 15.7987 107.277 22.2135C113.214 28.6283 117.65 36.3738 120.584 45.4501C123.587 54.4581 125.088 64.4556 125.088 75.4426ZM94.277 72.5764C94.277 66.3664 93.4922 60.5999 91.9226 55.277C90.4213 49.8858 87.9645 45.2112 84.5524 41.2531C81.2085 37.2951 76.841 34.19 71.4499 31.938C66.0587 29.6178 59.5415 28.4577 51.8984 28.4577H29.6855V122.428H51.8984C59.4733 122.428 65.9563 121.302 71.3475 119.05C76.7386 116.729 81.1062 113.59 84.45 109.632C87.8622 105.606 90.353 100.897 91.9226 95.5059C93.4922 90.1147 94.277 84.3483 94.277 78.2064V72.5764Z" fill="#003078"/>
</mask>
<g mask="url(#mask3_395_467)">
<rect x="-11.7065" y="-3.90234" width="41.6232" height="167.794" fill="#1F70B8"/>
</g>
</svg>
