<?xml version="1.0" encoding="utf-8"?>
<!-- Generator: Adobe Illustrator 27.6.1, SVG Export Plug-In . SVG Version: 6.00 Build 0)  -->
<svg version="1.1" id="Layer_1" xmlns="http://www.w3.org/2000/svg" xmlns:xlink="http://www.w3.org/1999/xlink" x="0px" y="0px"
	 viewBox="0 0 46 41" style="enable-background:new 0 0 46 41;" xml:space="preserve">
<style type="text/css">
	.st0{fill:#1F70B8;}
	.st1{fill:#003078;}
	.st2{fill:#FFFFFF;}
</style>
<g>
	<polygon class="st0" points="41.8,8.8 31.4,20.5 41.8,32.2 	"/>
	<polygon class="st0" points="23,30 15.3,21.3 5.3,32.5 40.7,32.5 30.7,21.3 	"/>
	<polygon class="st0" points="4.2,32.2 14.6,20.5 4.2,8.8 	"/>
</g>
<polygon class="st1" points="23,28.5 40.7,8.5 5.3,8.5 "/>
<path class="st2" d="M42.8,33.3V7.7l0.2-0.2h-0.2V6.9H3.2v0.6H3.1l0.2,0.2v25.6l-0.2,0.2h0.2v0.8h39.5v-0.8h0.2L42.8,33.3z
	 M41.8,32.2L31.4,20.5L41.8,8.8V32.2z M40.7,8.5L23,28.5L5.3,8.5H40.7z M23,30l7.7-8.7l10,11.2H5.3l10-11.2L23,30z M4.2,8.8
	l10.4,11.7L4.2,32.2V8.8z"/>
</svg>
