<svg width="797" height="181" viewBox="0 0 797 181" fill="none" xmlns="http://www.w3.org/2000/svg">
<mask id="mask0_118_946" style="mask-type:alpha" maskUnits="userSpaceOnUse" x="327" y="2" width="106" height="177">
<path d="M327.275 2.45044L362.812 2.45044V145.336H432.417V178.177H327.275V2.45044Z" fill="#1F70B8"/>
</mask>
<g mask="url(#mask0_118_946)">
<path d="M327.275 2.45044L362.812 2.45044V145.336H432.417V178.177H327.275V2.45044Z" fill="#1F70B8"/>
<rect x="327.23" y="144.98" width="104.965" height="49.5117" fill="#003078"/>
</g>
<mask id="mask1_118_946" style="mask-type:alpha" maskUnits="userSpaceOnUse" x="177" y="2" width="124" height="177">
<path d="M177.082 2.45068L295.459 2.45068V34.6796L212.62 34.6796V72.0553H288.964V104.162H212.62V146.071H300.238V178.178H177.082V2.45068Z" fill="#1F70B8"/>
</mask>
<g mask="url(#mask1_118_946)">
<path d="M177.082 2.45068L295.459 2.45068V34.6796L212.62 34.6796V72.0553H288.964V104.162H212.62V146.071H300.238V178.178H177.082V2.45068Z" fill="#1F70B8"/>
<rect x="162.887" y="180.628" width="195.076" height="49.5117" transform="rotate(-90 162.887 180.628)" fill="#003078"/>
</g>
<mask id="mask2_118_946" style="mask-type:alpha" maskUnits="userSpaceOnUse" x="0" y="2" width="149" height="177">
<path d="M112.862 104.162H35.5375V178.178H0L0 2.45093L35.5375 2.45093L35.5375 72.0555H112.862V2.45093L148.522 2.45093V178.178H112.862L112.862 104.162Z" fill="#1F70B8"/>
</mask>
<g mask="url(#mask2_118_946)">
<path d="M112.862 104.162H35.5375V178.178H0L0 2.45093L35.5375 2.45093L35.5375 72.0555H112.862V2.45093L148.522 2.45093V178.178H112.862L112.862 104.162Z" fill="#1F70B8"/>
<rect x="0.769531" y="180.629" width="195.076" height="111.896" transform="rotate(-90 0.769531 180.629)" fill="#003078"/>
</g>
<mask id="mask3_118_946" style="mask-type:alpha" maskUnits="userSpaceOnUse" x="568" y="0" width="169" height="181">
<path d="M652.57 0C665.641 0 677.364 2.36917 687.739 7.10751C698.115 11.7642 706.897 18.1772 714.086 26.3468C721.357 34.4347 726.872 43.993 730.63 55.0219C734.469 65.9691 736.389 77.7333 736.389 90.3144C736.389 102.977 734.469 114.782 730.63 125.729C726.872 136.677 721.357 146.235 714.086 154.404C706.897 162.574 698.115 168.987 687.739 173.644C677.364 178.3 665.641 180.629 652.57 180.629C639.417 180.629 627.652 178.3 617.277 173.644C606.983 168.987 598.201 162.574 590.93 154.404C583.741 146.235 578.227 136.677 574.387 125.729C570.629 114.782 568.75 102.977 568.75 90.3144C568.75 77.7333 570.629 65.9691 574.387 55.0219C578.227 43.993 583.741 34.4347 590.93 26.3468C598.201 18.1772 606.983 11.7642 617.277 7.10751C627.652 2.36917 639.417 0 652.57 0ZM652.57 148.522C660.249 148.522 666.989 147.093 672.789 144.233C678.671 141.292 683.614 137.248 687.617 132.102C691.62 126.955 694.643 120.868 696.685 113.843C698.728 106.817 699.749 99.1375 699.749 90.8045V89.8242C699.749 81.5729 698.728 73.9344 696.685 66.9086C694.643 59.8011 691.62 53.6739 687.617 48.5271C683.614 43.3803 678.671 39.3772 672.789 36.5179C666.989 33.5768 660.249 32.1063 652.57 32.1063C644.89 32.1063 638.109 33.5768 632.227 36.5179C626.345 39.3772 621.403 43.3803 617.4 48.5271C613.478 53.6739 610.496 59.8011 608.454 66.9086C606.412 73.9344 605.39 81.5729 605.39 89.8242V90.8045C605.39 99.1375 606.412 106.817 608.454 113.843C610.496 120.868 613.478 126.955 617.4 132.102C621.403 137.248 626.345 141.292 632.227 144.233C638.109 147.093 644.89 148.522 652.57 148.522Z" fill="#1F70B8"/>
</mask>
<g mask="url(#mask3_118_946)">
<path d="M652.57 0C665.641 0 677.364 2.36917 687.739 7.10751C698.115 11.7642 706.897 18.1772 714.086 26.3468C721.357 34.4347 726.872 43.993 730.63 55.0219C734.469 65.9691 736.389 77.7333 736.389 90.3144C736.389 102.977 734.469 114.782 730.63 125.729C726.872 136.677 721.357 146.235 714.086 154.404C706.897 162.574 698.115 168.987 687.739 173.644C677.364 178.3 665.641 180.629 652.57 180.629C639.417 180.629 627.652 178.3 617.277 173.644C606.983 168.987 598.201 162.574 590.93 154.404C583.741 146.235 578.227 136.677 574.387 125.729C570.629 114.782 568.75 102.977 568.75 90.3144C568.75 77.7333 570.629 65.9691 574.387 55.0219C578.227 43.993 583.741 34.4347 590.93 26.3468C598.201 18.1772 606.983 11.7642 617.277 7.10751C627.652 2.36917 639.417 0 652.57 0ZM652.57 148.522C660.249 148.522 666.989 147.093 672.789 144.233C678.671 141.292 683.614 137.248 687.617 132.102C691.62 126.955 694.643 120.868 696.685 113.843C698.728 106.817 699.749 99.1375 699.749 90.8045V89.8242C699.749 81.5729 698.728 73.9344 696.685 66.9086C694.643 59.8011 691.62 53.6739 687.617 48.5271C683.614 43.3803 678.671 39.3772 672.789 36.5179C666.989 33.5768 660.249 32.1063 652.57 32.1063C644.89 32.1063 638.109 33.5768 632.227 36.5179C626.345 39.3772 621.403 43.3803 617.4 48.5271C613.478 53.6739 610.496 59.8011 608.454 66.9086C606.412 73.9344 605.39 81.5729 605.39 89.8242V90.8045C605.39 99.1375 606.412 106.817 608.454 113.843C610.496 120.868 613.478 126.955 617.4 132.102C621.403 137.248 626.345 141.292 632.227 144.233C638.109 147.093 644.89 148.522 652.57 148.522Z" fill="#1F70B8"/>
<rect x="555.833" y="180.629" width="195.076" height="100.014" transform="rotate(-90 555.833 180.629)" fill="#003078"/>
</g>
<mask id="mask4_118_946" style="mask-type:alpha" maskUnits="userSpaceOnUse" x="750" y="2" width="47" height="179">
<path d="M754.845 2.45093L791.976 2.45093L788.79 118.744H758.154L754.845 2.45093ZM750.066 157.1C750.066 153.914 750.679 150.932 751.904 148.155C753.129 145.295 754.804 142.804 756.928 140.68C759.134 138.556 761.667 136.881 764.526 135.655C767.385 134.43 770.449 133.817 773.717 133.817C776.903 133.817 779.885 134.43 782.662 135.655C785.522 136.881 788.013 138.556 790.138 140.68C792.262 142.804 793.936 145.295 795.162 148.155C796.387 150.932 797 153.914 797 157.1C797 160.368 796.387 163.432 795.162 166.291C793.936 169.151 792.262 171.642 790.138 173.766C788.013 175.89 785.522 177.565 782.662 178.791C779.885 180.016 776.903 180.629 773.717 180.629C770.449 180.629 767.385 180.016 764.526 178.791C761.667 177.565 759.134 175.89 756.928 173.766C754.804 171.642 753.129 169.151 751.904 166.291C750.679 163.432 750.066 160.368 750.066 157.1Z" fill="#1F70B8"/>
</mask>
<g mask="url(#mask4_118_946)">
<path d="M754.845 2.45093L791.976 2.45093L788.79 118.744H758.154L754.845 2.45093ZM750.066 157.1C750.066 153.914 750.679 150.932 751.904 148.155C753.129 145.295 754.804 142.804 756.928 140.68C759.134 138.556 761.667 136.881 764.526 135.655C767.385 134.43 770.449 133.817 773.717 133.817C776.903 133.817 779.885 134.43 782.662 135.655C785.522 136.881 788.013 138.556 790.138 140.68C792.262 142.804 793.936 145.295 795.162 148.155C796.387 150.932 797 153.914 797 157.1C797 160.368 796.387 163.432 795.162 166.291C793.936 169.151 792.262 171.642 790.138 173.766C788.013 175.89 785.522 177.565 782.662 178.791C779.885 180.016 776.903 180.629 773.717 180.629C770.449 180.629 767.385 180.016 764.526 178.791C761.667 177.565 759.134 175.89 756.928 173.766C754.804 171.642 753.129 169.151 751.904 166.291C750.679 163.432 750.066 160.368 750.066 157.1Z" fill="#1F70B8"/>
<rect x="740.284" y="129.136" width="195.076" height="111.896" transform="rotate(-90 740.284 129.136)" fill="#003078"/>
</g>
<mask id="mask5_118_946" style="mask-type:alpha" maskUnits="userSpaceOnUse" x="457" y="2" width="106" height="177">
<path d="M457.039 2.45093L492.576 2.45093V145.336H562.181V178.178H457.039V2.45093Z" fill="#1F70B8"/>
</mask>
<g mask="url(#mask5_118_946)">
<path d="M457.039 2.45093L492.576 2.45093V145.336H562.181V178.178H457.039V2.45093Z" fill="#1F70B8"/>
<rect x="457.534" y="144.98" width="104.965" height="49.5117" fill="#003078"/>
</g>
</svg>
