<?xml version="1.0" encoding="utf-8"?>
<!-- Generator: Adobe Illustrator 27.6.1, SVG Export Plug-In . SVG Version: 6.00 Build 0)  -->
<svg version="1.1" id="Layer_1" xmlns="http://www.w3.org/2000/svg" xmlns:xlink="http://www.w3.org/1999/xlink" x="0px" y="0px"
	 viewBox="0 0 265 323" style="enable-background:new 0 0 265 323;" xml:space="preserve">
<style type="text/css">
	.st0{fill:#003078;fill-opacity:0.9;}
	.st1{fill:#0C4A92;}
	.st2{fill:#074088;}
	.st3{fill:#1F70B8;fill-opacity:0.9;}
	.st4{fill:#1F70B8;}
	.st5{fill-rule:evenodd;clip-rule:evenodd;fill:#003078;}
	.st6{fill-rule:evenodd;clip-rule:evenodd;fill:#1F70B8;}
	.st7{fill:#1F70B8;fill-opacity:0.6;}
</style>
<rect x="60.3" y="2" class="st0" width="56.3" height="56.3"/>
<g>
	<path class="st1" d="M204.3,165.1v-17.3h-17.4C194.8,150.8,201.2,157.1,204.3,165.1z"/>
	<path class="st1" d="M146.9,168.2c2.5-9.4,9.4-17,18.4-20.5h-36.8C137.5,151.2,144.5,158.8,146.9,168.2z"/>
	<rect x="60.3" y="147.9" class="st1" width="56.3" height="56.1"/>
	<path class="st1" d="M145.9,175.9C145.9,175.9,145.9,175.9,145.9,175.9C145.9,175.9,145.9,175.9,145.9,175.9
		c0-15.3-12.1-27.7-27.3-28.2v56.3C133.8,203.6,145.9,191.2,145.9,175.9z"/>
	<path class="st1" d="M204.3,186.8c-3.1,7.9-9.4,14.3-17.4,17.3h17.4V186.8z"/>
	<path class="st1" d="M204.3,177v-2.2c-0.6-15-13-27.1-28.1-27.1c-15.5,0-28.2,12.6-28.2,28.2c0,0,0,0,0,0s0,0,0,0
		c0,15.5,12.6,28.2,28.2,28.2C191.3,204.1,203.7,192,204.3,177z"/>
	<path class="st1" d="M165.4,204.1c-9-3.4-15.9-11-18.4-20.5c-2.5,9.4-9.4,17-18.4,20.5h17.4H165.4z"/>
</g>
<g>
	<path class="st1" d="M234.5,233.4c15.5,0,28.2-12.6,28.2-28.2c0-15.5-12.6-28.1-28.1-28.2h-0.1c-15.5,0-28.1,12.6-28.1,28.2
		C206.3,220.7,218.9,233.4,234.5,233.4z"/>
	<path class="st1" d="M206.3,252.7c3.4-9,11-15.9,20.5-18.4c-9.4-2.5-17-9.4-20.5-18.4V252.7z"/>
	<path class="st1" d="M206.3,177v17.4c3.1-8,9.4-14.3,17.4-17.4H206.3z"/>
	<path class="st1" d="M262.6,177h-17.4c8,3.1,14.3,9.4,17.4,17.4V177z"/>
	<path class="st1" d="M262.6,215.9c-3.4,9-11,15.9-20.5,18.4c9.4,2.5,17,9.4,20.5,18.4V215.9z"/>
	<path class="st1" d="M234.5,235.4c-15.3,0-27.7,12.1-28.1,27.3h56.3C262.1,247.5,249.7,235.4,234.5,235.4z"/>
</g>
<path class="st0" d="M234.4,175C234.4,175,234.4,175,234.4,175C234.5,175,234.5,175,234.4,175h28.2v-56.3h-56.3V175H234.4z"/>
<path class="st2" d="M147.9,321h56.3v-56.3h-56.3v28.1c0,0,0,0,0,0s0,0,0,0V321z"/>
<path class="st3" d="M204.3,175.9c0-15.5-12.6-28.2-28.2-28.2c-15.5,0-28.2,12.6-28.2,28.2c0,0,0,0,0,0s0,0,0,0
	c0,15.5,12.6,28.2,28.2,28.2C191.6,204.1,204.3,191.5,204.3,175.9L204.3,175.9z"/>
<rect x="60.3" y="147.9" class="st4" width="56.3" height="56.1"/>
<path class="st5" d="M118.7,147.8v56.3c15.1-0.5,27.3-12.9,27.3-28.1c0,0,0,0,0,0s0,0,0,0C145.9,160.7,133.8,148.2,118.7,147.8z"/>
<path class="st6" d="M262.6,262.6c-0.5-15.1-12.9-27.3-28.1-27.3c-15.3,0-27.7,12.1-28.1,27.3H262.6z"/>
<g>
	<path class="st1" d="M107,264.6H70.2c9,3.4,15.9,11,18.4,20.5C91.1,275.7,98,268.1,107,264.6z"/>
	<path class="st1" d="M87.6,292.8c0-15.3-12.1-27.7-27.3-28.1v56.3C75.5,320.5,87.6,308,87.6,292.8z"/>
	<rect x="2" y="264.6" class="st1" width="56.3" height="56.3"/>
	<path class="st1" d="M145.9,282v-17.4h-17.4C136.5,267.7,142.9,274,145.9,282z"/>
	<path class="st1" d="M145.9,303.6c-3.1,8-9.4,14.3-17.4,17.4h17.4V303.6z"/>
	<path class="st1" d="M88.6,300.5c-2.5,9.4-9.4,17-18.4,20.5H107C98,317.5,91.1,309.9,88.6,300.5z"/>
</g>
<path class="st5" d="M87.6,292.8c0-15.3-12.1-27.7-27.3-28.1v56.3C75.5,320.5,87.6,308,87.6,292.8z"/>
<g>
	<path class="st1" d="M88.5,262.4c15.5,0,28.2-12.6,28.2-28.2c0-14.4-10.9-26.3-24.9-28h-6.5c-14,1.6-24.9,13.5-24.9,28
		C60.3,249.8,73,262.4,88.5,262.4z"/>
	<path class="st1" d="M117.7,242c-2.8,10.5-11,18.7-21.5,21.5h14.7c2.2-0.5,4.5-0.8,6.8-0.8c2.4,0,4.7,0.3,6.9,0.8h14.6
		C128.8,260.7,120.4,252.5,117.7,242z"/>
	<path class="st1" d="M60.3,206.3v17.2c3-7.8,9.1-14.1,16.9-17.2H60.3z"/>
	<path class="st1" d="M60.3,245v17.6v0c2,0.1,4,0.3,5.9,0.8h14.6C71.4,261,63.8,254,60.3,245z"/>
	<rect x="2" y="206.1" class="st1" width="56.3" height="56.3"/>
	<path class="st1" d="M136.1,206.1h-17.4v0.2H99.7c8.7,3.5,15.5,11,17.9,20.3C120.2,217.1,127.1,209.5,136.1,206.1z"/>
	<path class="st1" d="M145.9,262.4v-56.3c-15.1,0.5-27.3,12.9-27.3,28.1S130.8,261.9,145.9,262.4z"/>
</g>
<g>
	<path class="st1" d="M88.5,60.3C73,60.3,60.3,73,60.3,88.5v0c0,15.5,12.6,28.2,28.2,28.2c15.5,0,28.2-12.6,28.2-28.2
		C116.7,73,104,60.3,88.5,60.3z"/>
	<path class="st1" d="M116.7,136V99.3c-3.5,9-11.1,15.9-20.5,18.4C105.6,120.2,113.2,127.1,116.7,136z"/>
	<path class="st1" d="M116.7,60.3H99.3c8,3.1,14.3,9.4,17.4,17.4V60.3z"/>
	<path class="st1" d="M60.3,99.3V136c3.4-9,11.1-15.9,20.5-18.4C71.4,115.2,63.8,108.3,60.3,99.3z"/>
	<path class="st1" d="M60.3,60.3v17.4c3.1-8,9.4-14.3,17.4-17.4H60.3z"/>
</g>
<circle class="st7" cx="88.5" cy="88.5" r="29.2"/>
</svg>
