<svg width="265" height="295" viewBox="0 0 265 295" fill="none" xmlns="http://www.w3.org/2000/svg">
<rect x="58.8931" y="147" width="146" height="58" transform="rotate(-90 58.8931 147)" fill="#0C4A92" stroke="#CFD5DF" stroke-width="2"/>
<rect x="58.8931" y="59.4219" width="58.4224" height="58.4224" transform="rotate(-90 58.8931 59.4219)" fill="#003078" stroke="#CFD5DF" stroke-width="2"/>
<circle cx="88.1042" cy="117.944" r="29.2112" transform="rotate(-90 88.1042 117.944)" stroke="#CFD5DF" stroke-width="2"/>
<path fill-rule="evenodd" clip-rule="evenodd" d="M58.8932 59.4223C58.8931 59.4553 58.8931 59.4883 58.8931 59.5212C58.8931 75.6541 71.9714 88.7324 88.1042 88.7324C104.237 88.7324 117.315 75.6541 117.315 59.5212C117.315 59.4883 117.315 59.4553 117.315 59.4223L58.8932 59.4223Z" fill="#1F70B8"/>
<path d="M58.8932 59.4223L58.8932 58.4223L57.8965 58.4223L57.8932 59.419L58.8932 59.4223ZM117.315 59.4223L118.315 59.419L118.312 58.4223L117.315 58.4223L117.315 59.4223ZM59.8931 59.5212C59.8931 59.4894 59.8931 59.4575 59.8932 59.4256L57.8932 59.419C57.8931 59.4531 57.8931 59.4871 57.8931 59.5212L59.8931 59.5212ZM88.1042 87.7324C72.5236 87.7324 59.8931 75.1018 59.8931 59.5212L57.8931 59.5212C57.8931 76.2064 71.4191 89.7324 88.1042 89.7324L88.1042 87.7324ZM116.315 59.5212C116.315 75.1018 103.685 87.7324 88.1042 87.7324L88.1042 89.7324C104.789 89.7324 118.315 76.2064 118.315 59.5212L116.315 59.5212ZM116.315 59.4257C116.315 59.4575 116.315 59.4893 116.315 59.5212L118.315 59.5212C118.315 59.4872 118.315 59.4531 118.315 59.419L116.315 59.4257ZM117.315 58.4223L58.8932 58.4223L58.8932 60.4223L117.315 60.4223L117.315 58.4223Z" fill="#CFD5DF"/>
<rect x="59.2266" y="205.674" width="58.2262" height="58.2262" transform="rotate(-90 59.2266 205.674)" fill="#1F70B8" stroke="#CFD5DF" stroke-width="2"/>
<rect x="1" y="205.674" width="58.2262" height="58.2262" transform="rotate(-90 1 205.674)" fill="#074088" stroke="#CFD5DF" stroke-width="2"/>
<circle cx="88.3397" cy="263.998" r="29.1131" transform="rotate(-90 88.3397 263.998)" fill="#1F70B8" fill-opacity="0.6" stroke="#CFD5DF" stroke-width="2"/>
<path fill-rule="evenodd" clip-rule="evenodd" d="M59.2262 205.675C59.2261 205.708 59.2261 205.741 59.2261 205.774C59.2261 221.852 72.2605 234.887 88.3392 234.887C104.418 234.887 117.452 221.852 117.452 205.774C117.452 205.741 117.452 205.708 117.452 205.675L59.2262 205.675Z" fill="#01337B"/>
<path d="M59.2262 205.675L59.2262 204.675L58.2296 204.675L58.2262 205.671L59.2262 205.675ZM117.452 205.675L118.452 205.671L118.449 204.675L117.452 204.675L117.452 205.675ZM60.2261 205.774C60.2261 205.742 60.2261 205.71 60.2262 205.678L58.2262 205.671C58.2261 205.705 58.2261 205.739 58.2261 205.774L60.2261 205.774ZM88.3392 233.887C72.8127 233.887 60.2261 221.3 60.2261 205.774L58.2261 205.774C58.2261 222.405 71.7082 235.887 88.3392 235.887L88.3392 233.887ZM116.452 205.774C116.452 221.3 103.866 233.887 88.3392 233.887L88.3392 235.887C104.97 235.887 118.452 222.405 118.452 205.774L116.452 205.774ZM116.452 205.678C116.452 205.71 116.452 205.742 116.452 205.774L118.452 205.774C118.452 205.74 118.452 205.705 118.452 205.671L116.452 205.678ZM117.452 204.675L59.2262 204.675L59.2262 206.675L117.452 206.675L117.452 204.675Z" fill="#CFD5DF"/>
<rect x="263.954" y="59.2666" width="146.501" height="57.8033" transform="rotate(-180 263.954 59.2666)" fill="#0C4A92" stroke="#CFD5DF" stroke-width="2"/>
<rect x="176.098" y="59.2246" width="58.2242" height="58.2242" transform="rotate(-180 176.098 59.2246)" fill="#1F70B8" stroke="#CFD5DF" stroke-width="2"/>
<circle cx="234.422" cy="30.1125" r="29.1121" transform="rotate(-180 234.422 30.1125)" fill="#1F70B8" fill-opacity="0.9" stroke="#CFD5DF" stroke-width="2"/>
<path fill-rule="evenodd" clip-rule="evenodd" d="M176.099 59.2244C176.132 59.2246 176.164 59.2246 176.197 59.2246C192.275 59.2246 205.309 46.1907 205.309 30.1125C205.309 14.0343 192.275 1.00041 176.197 1.00041C176.164 1.00041 176.132 1.00046 176.099 1.00057L176.099 59.2244Z" fill="#003078"/>
<path d="M176.099 59.2244L175.099 59.2244L175.099 60.2212L176.096 60.2244L176.099 59.2244ZM176.099 1.00057L176.096 0.000573465L175.099 0.00384257L175.099 1.00057L176.099 1.00057ZM176.197 58.2246C176.165 58.2246 176.134 58.2246 176.102 58.2245L176.096 60.2244C176.13 60.2246 176.163 60.2246 176.197 60.2246L176.197 58.2246ZM204.309 30.1125C204.309 45.6384 191.723 58.2246 176.197 58.2246L176.197 60.2246C192.827 60.2246 206.309 46.743 206.309 30.1125L204.309 30.1125ZM176.197 2.00041C191.723 2.00041 204.309 14.5866 204.309 30.1125L206.309 30.1125C206.309 13.4821 192.827 0.000410896 176.197 0.000409442L176.197 2.00041ZM176.102 2.00057C176.134 2.00046 176.165 2.00041 176.197 2.00041L176.197 0.000409442C176.163 0.000409439 176.13 0.000462842 176.096 0.000573465L176.102 2.00057ZM175.099 1.00057L175.099 59.2244L177.099 59.2244L177.099 1.00057L175.099 1.00057Z" fill="#CFD5DF"/>
<rect x="117.506" y="59.2256" width="146.448" height="146.448" fill="#074088" stroke="#D9D9D9" stroke-width="2"/>
<rect x="118.378" y="60.1484" width="144.673" height="68.3423" fill="#1D6CB4"/>
<path d="M160.804 158.442L160.518 157.53L159.594 157.774L133.18 164.761L132.27 165.001L132.455 165.924C133.631 171.802 135.92 177.103 139.324 181.817L139.328 181.823C142.719 186.452 146.89 190.394 151.835 193.647L151.843 193.652C156.783 196.837 162.33 199.3 168.477 201.048L168.487 201.05C174.638 202.734 181.043 203.574 187.7 203.574C195.254 203.574 202.278 202.573 208.764 200.562L208.77 200.56C215.311 198.488 221.001 195.599 225.827 191.882C230.66 188.159 234.456 183.645 237.204 178.346C240.029 173.024 241.434 167.12 241.434 160.655C241.434 156.402 240.747 152.454 239.361 148.821C238.046 145.209 236.202 142.011 233.824 139.236C231.454 136.472 228.688 134.167 225.529 132.324C223.31 131.03 220.977 129.995 218.531 129.222C220.617 128.37 222.613 127.323 224.518 126.082C227.348 124.239 229.789 122.03 231.836 119.456C233.945 116.82 235.592 113.888 236.776 110.665C238.033 107.355 238.658 103.822 238.658 100.074C238.658 93.8062 237.351 88.1858 234.712 83.2378C232.087 78.3157 228.444 74.1821 223.797 70.8421C219.223 67.4456 213.848 64.8776 207.689 63.127C201.528 61.3761 194.864 60.5049 187.7 60.5049C181.932 60.5049 176.261 61.2825 170.688 62.8371C165.113 64.3288 159.982 66.5359 155.302 69.4608C150.678 72.3266 146.639 75.8773 143.188 80.1096C139.715 84.3691 137.228 89.2488 135.725 94.7375L135.49 95.5968L136.316 95.9293L160.817 105.787L161.759 106.166L162.123 105.218C163.048 102.814 164.282 100.53 165.826 98.3659C167.426 96.2145 169.3 94.3405 171.452 92.7418C173.596 91.1493 176.022 89.8884 178.736 88.9627C181.492 88.0447 184.54 87.5796 187.892 87.5796C190.805 87.5796 193.483 87.9514 195.931 88.6859L195.945 88.6901L195.959 88.6939C198.478 89.3699 200.596 90.3441 202.331 91.6005L202.337 91.6052L202.344 91.6098C204.137 92.8649 205.53 94.4096 206.539 96.2481L206.539 96.2481L206.545 96.2603C207.536 98.009 208.042 100.005 208.042 102.275C208.042 107.539 205.835 111.384 201.367 113.945L201.362 113.948C196.855 116.567 190.483 117.928 182.149 117.928H176.311H175.311V118.928V142.088V143.088H176.311H183.968C193.205 143.088 199.844 144.677 204.059 147.687L204.065 147.692L204.072 147.697C208.336 150.64 210.435 154.609 210.435 159.698C210.435 161.803 210.045 163.881 209.259 165.94C208.493 167.881 207.22 169.669 205.407 171.301C203.68 172.849 201.35 174.162 198.378 175.215C195.515 176.189 191.964 176.691 187.7 176.691C184.654 176.691 181.705 176.349 178.853 175.668C176.084 174.929 173.503 173.822 171.106 172.349C168.782 170.818 166.729 168.919 164.948 166.647C163.178 164.326 161.794 161.596 160.804 158.442Z" stroke="#D9D9D9" stroke-width="2"/>
</svg>
