<svg version="1.1" id="Layer_1" xmlns="http://www.w3.org/2000/svg" x="0" y="0" viewBox="0 0 610.3 483" xml:space="preserve"><style>.st1{fill:#0b0c0c}.st2{fill:#b1b4b6}.st3{fill:#fff}.st5{fill:#ffdd00}.st11{fill:#00703c}.st14{fill:#505a5f}</style><path fill="#323232" d="M370.6 132.5h197.5v162.6H370.6z"/><path class="st1" d="M571.1 298.1H367.6V129.5H571v168.6zm-197.5-6h191.5V135.5H373.6v156.6z"/><path class="st2" d="M416.1 163.1l-20.5-11.4c-.4-.2-.8-.4-1.2-.4-1.1 0-2 .9-2 2 0 .8.5 1.5 1.3 1.9l15.9 8.9-16 8.9c-.8.3-1.3 1.1-1.3 1.9 0 1.1.9 1.9 2 1.9.4 0 .9-.2 1.2-.4l20.5-11.5c.5-.3.6-.9.4-1.4-.1-.2-.2-.3-.3-.4zM445.9 187.4c-.5-.4-1.1-.6-1.7-.5H419c-.6 0-1.2.1-1.6.5-.8.7-.8 2-.1 2.8l.1.1c.5.4 1 .6 1.6.5h25.2c.6 0 1.2-.1 1.7-.5.4-.4.6-.9.6-1.4 0-.6-.2-1.1-.6-1.5z"/><path class="st1" d="M48.6 59v124h200.3V33.5H48.6V59zm2 0h196.3v122H50.6V59z"/><path class="st3" d="M50.6 59h196.3v122H50.6z"/><path class="st2" d="M63.1 72h81.7v9H63.1zM63.1 92.5H176v9H63.1z"/><path class="st5" d="M63.1 113.8h95.7v15H63.1z"/><path class="st1" d="M63.1 128.8h95.7v2H63.1z"/><path d="M176 479.5c0-1.9 1.6-3.5 3.5-3.5s3.5 1.6 3.5 3.5-1.6 3.5-3.5 3.5-3.5-1.6-3.5-3.5zm0-14c0-1.9 1.6-3.5 3.5-3.5s3.5 1.6 3.5 3.5-1.6 3.5-3.5 3.5-3.5-1.6-3.5-3.5zm0-14c0-1.9 1.6-3.5 3.5-3.5s3.5 1.6 3.5 3.5-1.6 3.5-3.5 3.5-3.5-1.6-3.5-3.5zm0-14c0-1.9 1.6-3.5 3.5-3.5s3.5 1.6 3.5 3.5-1.6 3.5-3.5 3.5-3.5-1.6-3.5-3.5zm0-14c0-1.9 1.6-3.5 3.5-3.5s3.5 1.6 3.5 3.5-1.6 3.5-3.5 3.5-3.5-1.6-3.5-3.5zm0-14c0-1.9 1.6-3.5 3.5-3.5s3.5 1.6 3.5 3.5-1.6 3.5-3.5 3.5-3.5-1.6-3.5-3.5zm0-14c0-1.9 1.6-3.5 3.5-3.5s3.5 1.6 3.5 3.5-1.6 3.5-3.5 3.5-3.5-1.6-3.5-3.5zm0-14c0-1.9 1.6-3.5 3.5-3.5s3.5 1.6 3.5 3.5-1.6 3.5-3.5 3.5-3.5-1.6-3.5-3.5zm0-14c0-1.9 1.6-3.5 3.5-3.5s3.5 1.6 3.5 3.5-1.6 3.5-3.5 3.5-3.5-1.6-3.5-3.5zm0-14c0-1.9 1.6-3.5 3.5-3.5s3.5 1.6 3.5 3.5-1.6 3.5-3.5 3.5-3.5-1.6-3.5-3.5zm0-14c0-1.9 1.6-3.5 3.5-3.5s3.5 1.6 3.5 3.5-1.6 3.5-3.5 3.5-3.5-1.6-3.5-3.5zm0-14c0-1.9 1.6-3.5 3.5-3.5s3.5 1.6 3.5 3.5-1.6 3.5-3.5 3.5-3.5-1.6-3.5-3.5zm0-14c0-1.9 1.6-3.5 3.5-3.5s3.5 1.6 3.5 3.5-1.6 3.5-3.5 3.5-3.5-1.6-3.5-3.5zm0-14c0-1.9 1.6-3.5 3.5-3.5s3.5 1.6 3.5 3.5-1.6 3.5-3.5 3.5-3.5-1.6-3.5-3.5zm0-14c0-1.9 1.6-3.5 3.5-3.5s3.5 1.6 3.5 3.5-1.6 3.5-3.5 3.5-3.5-1.6-3.5-3.5zm0-14c0-1.9 1.6-3.5 3.5-3.5s3.5 1.6 3.5 3.5-1.6 3.5-3.5 3.5-3.5-1.6-3.5-3.5zm0-14c0-1.9 1.6-3.5 3.5-3.5s3.5 1.6 3.5 3.5-1.6 3.5-3.5 3.5-3.5-1.6-3.5-3.5zm0-14c0-1.9 1.6-3.5 3.5-3.5s3.5 1.6 3.5 3.5-1.6 3.5-3.5 3.5-3.5-1.6-3.5-3.5zm0-14c0-1.9 1.6-3.5 3.5-3.5s3.5 1.6 3.5 3.5-1.6 3.5-3.5 3.5-3.5-1.6-3.5-3.5zm0-14c0-1.9 1.6-3.5 3.5-3.5s3.5 1.6 3.5 3.5-1.6 3.5-3.5 3.5-3.5-1.6-3.5-3.5zm0-14c0-1.9 1.6-3.5 3.5-3.5s3.5 1.6 3.5 3.5-1.6 3.5-3.5 3.5-3.5-1.6-3.5-3.5zm0-14c0-1.9 1.6-3.5 3.5-3.5s3.5 1.6 3.5 3.5-1.6 3.5-3.5 3.5-3.5-1.6-3.5-3.5zm0-14c0-1.9 1.6-3.5 3.5-3.5s3.5 1.6 3.5 3.5-1.6 3.5-3.5 3.5-3.5-1.6-3.5-3.5zm0-14c0-1.9 1.6-3.5 3.5-3.5s3.5 1.6 3.5 3.5-1.6 3.5-3.5 3.5-3.5-1.6-3.5-3.5zm0-14c0-1.9 1.6-3.5 3.5-3.5s3.5 1.6 3.5 3.5-1.6 3.5-3.5 3.5-3.5-1.6-3.5-3.5zm0-14c0-1.9 1.6-3.5 3.5-3.5s3.5 1.6 3.5 3.5-1.6 3.5-3.5 3.5-3.5-1.6-3.5-3.5zm0-14c0-1.9 1.6-3.5 3.5-3.5s3.5 1.6 3.5 3.5-1.6 3.5-3.5 3.5-3.5-1.6-3.5-3.5zm0-14c0-1.9 1.6-3.5 3.5-3.5s3.5 1.6 3.5 3.5-1.6 3.5-3.5 3.5-3.5-1.6-3.5-3.5zm0-14c0-1.9 1.6-3.5 3.5-3.5s3.5 1.6 3.5 3.5-1.6 3.5-3.5 3.5-3.5-1.6-3.5-3.5zm0-14c0-1.9 1.6-3.5 3.5-3.5s3.5 1.6 3.5 3.5-1.6 3.5-3.5 3.5-3.5-1.6-3.5-3.5zm0-14c0-1.9 1.6-3.5 3.5-3.5s3.5 1.6 3.5 3.5-1.6 3.5-3.5 3.5-3.5-1.6-3.5-3.5zm0-14c0-1.9 1.6-3.5 3.5-3.5s3.5 1.6 3.5 3.5-1.6 3.5-3.5 3.5-3.5-1.6-3.5-3.5zm0-14c0-1.9 1.6-3.5 3.5-3.5s3.5 1.6 3.5 3.5-1.6 3.5-3.5 3.5-3.5-1.6-3.5-3.5zm0-14c0-1.9 1.6-3.5 3.5-3.5s3.5 1.6 3.5 3.5-1.6 3.5-3.5 3.5-3.5-1.6-3.5-3.5zm0-14c0-1.9 1.6-3.5 3.5-3.5s3.5 1.6 3.5 3.5-1.6 3.5-3.5 3.5-3.5-1.6-3.5-3.5zm260.2 476c0-1.9 1.6-3.5 3.5-3.5s3.5 1.6 3.5 3.5-1.6 3.5-3.5 3.5c-2 0-3.6-1.5-3.5-3.5-.1 0-.1 0 0 0zm0-14c0-1.9 1.6-3.5 3.5-3.5s3.5 1.6 3.5 3.5-1.6 3.5-3.5 3.5c-2 0-3.6-1.5-3.5-3.5-.1 0-.1 0 0 0zm0-14c0-1.9 1.6-3.5 3.5-3.5s3.5 1.6 3.5 3.5-1.6 3.5-3.5 3.5c-2 0-3.6-1.5-3.5-3.5-.1 0-.1 0 0 0zm0-14c0-1.9 1.6-3.5 3.5-3.5s3.5 1.6 3.5 3.5-1.6 3.5-3.5 3.5c-2 0-3.6-1.5-3.5-3.5-.1 0-.1 0 0 0zm0-14c0-1.9 1.6-3.5 3.5-3.5s3.5 1.6 3.5 3.5-1.6 3.5-3.5 3.5c-2 0-3.6-1.5-3.5-3.5-.1 0-.1 0 0 0zm0-14c0-1.9 1.6-3.5 3.5-3.5s3.5 1.6 3.5 3.5-1.6 3.5-3.5 3.5c-2 0-3.6-1.5-3.5-3.5-.1 0-.1 0 0 0zm0-14c0-1.9 1.6-3.5 3.5-3.5s3.5 1.6 3.5 3.5-1.6 3.5-3.5 3.5c-2 0-3.6-1.5-3.5-3.5-.1 0-.1 0 0 0zm0-14c0-1.9 1.6-3.5 3.5-3.5s3.5 1.6 3.5 3.5-1.6 3.5-3.5 3.5c-2 0-3.6-1.5-3.5-3.5-.1 0-.1 0 0 0zm0-14c0-1.9 1.6-3.5 3.5-3.5s3.5 1.6 3.5 3.5-1.6 3.5-3.5 3.5c-2 0-3.6-1.5-3.5-3.5-.1 0-.1 0 0 0zm0-14c0-1.9 1.6-3.5 3.5-3.5s3.5 1.6 3.5 3.5-1.6 3.5-3.5 3.5c-2 0-3.6-1.5-3.5-3.5-.1 0-.1 0 0 0zm0-14c0-1.9 1.6-3.5 3.5-3.5s3.5 1.6 3.5 3.5-1.6 3.5-3.5 3.5c-2 0-3.6-1.5-3.5-3.5-.1 0-.1 0 0 0zm0-14c0-1.9 1.6-3.5 3.5-3.5s3.5 1.6 3.5 3.5-1.6 3.5-3.5 3.5c-2 0-3.6-1.5-3.5-3.5-.1 0-.1 0 0 0zm0-14c0-1.9 1.6-3.5 3.5-3.5s3.5 1.6 3.5 3.5-1.6 3.5-3.5 3.5c-2 0-3.6-1.5-3.5-3.5-.1 0-.1 0 0 0zm0-14c0-1.9 1.6-3.5 3.5-3.5s3.5 1.6 3.5 3.5-1.6 3.5-3.5 3.5c-2 0-3.6-1.5-3.5-3.5-.1 0-.1 0 0 0zm0-14c0-1.9 1.6-3.5 3.5-3.5s3.5 1.6 3.5 3.5-1.6 3.5-3.5 3.5c-2 0-3.6-1.5-3.5-3.5-.1 0-.1 0 0 0zm0-14c0-1.9 1.6-3.5 3.5-3.5s3.5 1.6 3.5 3.5-1.6 3.5-3.5 3.5c-2 0-3.6-1.5-3.5-3.5-.1 0-.1 0 0 0zm0-14c0-1.9 1.6-3.5 3.5-3.5s3.5 1.6 3.5 3.5-1.6 3.5-3.5 3.5c-2 0-3.6-1.5-3.5-3.5-.1 0-.1 0 0 0zm0-14c0-1.9 1.6-3.5 3.5-3.5s3.5 1.6 3.5 3.5-1.6 3.5-3.5 3.5c-2 0-3.6-1.5-3.5-3.5-.1 0-.1 0 0 0zm0-14c0-1.9 1.6-3.5 3.5-3.5s3.5 1.6 3.5 3.5-1.6 3.5-3.5 3.5c-2 0-3.6-1.5-3.5-3.5-.1 0-.1 0 0 0zm0-14c0-1.9 1.6-3.5 3.5-3.5s3.5 1.6 3.5 3.5-1.6 3.5-3.5 3.5c-2 0-3.6-1.5-3.5-3.5-.1 0-.1 0 0 0zm0-14c0-1.9 1.6-3.5 3.5-3.5s3.5 1.6 3.5 3.5-1.6 3.5-3.5 3.5c-2 0-3.6-1.5-3.5-3.5-.1 0-.1 0 0 0zm0-14c0-1.9 1.6-3.5 3.5-3.5s3.5 1.6 3.5 3.5-1.6 3.5-3.5 3.5c-2 0-3.6-1.5-3.5-3.5-.1 0-.1 0 0 0zm0-14c0-1.9 1.6-3.5 3.5-3.5s3.5 1.6 3.5 3.5-1.6 3.5-3.5 3.5c-2 0-3.6-1.5-3.5-3.5-.1 0-.1 0 0 0zm0-14c0-1.9 1.6-3.5 3.5-3.5s3.5 1.6 3.5 3.5-1.6 3.5-3.5 3.5c-2 0-3.6-1.5-3.5-3.5-.1 0-.1 0 0 0zm0-14c0-1.9 1.6-3.5 3.5-3.5s3.5 1.6 3.5 3.5-1.6 3.5-3.5 3.5c-2 0-3.6-1.5-3.5-3.5-.1 0-.1 0 0 0zm0-14c0-1.9 1.6-3.5 3.5-3.5s3.5 1.6 3.5 3.5-1.6 3.5-3.5 3.5c-2 0-3.6-1.5-3.5-3.5-.1 0-.1 0 0 0zm0-14c0-1.9 1.6-3.5 3.5-3.5s3.5 1.6 3.5 3.5-1.6 3.5-3.5 3.5c-2 0-3.6-1.5-3.5-3.5-.1 0-.1 0 0 0zm0-14c0-1.9 1.6-3.5 3.5-3.5s3.5 1.6 3.5 3.5-1.6 3.5-3.5 3.5c-2 0-3.6-1.5-3.5-3.5-.1 0-.1 0 0 0zm0-14c0-1.9 1.6-3.5 3.5-3.5s3.5 1.6 3.5 3.5-1.6 3.5-3.5 3.5c-2 0-3.6-1.5-3.5-3.5-.1 0-.1 0 0 0zm0-14c0-1.9 1.6-3.5 3.5-3.5s3.5 1.6 3.5 3.5-1.6 3.5-3.5 3.5c-2 0-3.6-1.5-3.5-3.5-.1 0-.1 0 0 0zm0-14c0-1.9 1.6-3.5 3.5-3.5s3.5 1.6 3.5 3.5-1.6 3.5-3.5 3.5c-2 0-3.6-1.5-3.5-3.5-.1 0-.1 0 0 0zm0-14c0-1.9 1.6-3.5 3.5-3.5s3.5 1.6 3.5 3.5-1.6 3.5-3.5 3.5c-2 0-3.6-1.5-3.5-3.5-.1 0-.1 0 0 0zm0-14c0-1.9 1.6-3.5 3.5-3.5s3.5 1.6 3.5 3.5-1.6 3.5-3.5 3.5c-2 0-3.6-1.5-3.5-3.5-.1 0-.1 0 0 0zm0-14c0-1.9 1.6-3.5 3.5-3.5s3.5 1.6 3.5 3.5-1.6 3.5-3.5 3.5c-2 0-3.6-1.5-3.5-3.5-.1 0-.1 0 0 0zm0-14c0-1.9 1.6-3.5 3.5-3.5s3.5 1.6 3.5 3.5-1.6 3.5-3.5 3.5c-2 0-3.6-1.5-3.5-3.5-.1 0-.1 0 0 0zM603.3 257c0-1.9 1.6-3.5 3.5-3.5s3.5 1.6 3.5 3.5-1.6 3.5-3.5 3.5c-2 0-3.5-1.6-3.5-3.5zm-14 0c0-1.9 1.6-3.5 3.5-3.5s3.5 1.6 3.5 3.5-1.6 3.5-3.5 3.5c-2 0-3.5-1.6-3.5-3.5zm-14 0c0-1.9 1.6-3.5 3.5-3.5s3.5 1.6 3.5 3.5-1.6 3.5-3.5 3.5c-2 0-3.5-1.6-3.5-3.5zm-14 0c0-1.9 1.6-3.5 3.5-3.5s3.5 1.6 3.5 3.5-1.6 3.5-3.5 3.5c-2 0-3.5-1.5-3.5-3.5zm-14 0c0-1.9 1.6-3.5 3.5-3.5s3.5 1.6 3.5 3.5-1.6 3.5-3.5 3.5c-2 0-3.5-1.6-3.5-3.5zm-14 0c0-1.9 1.6-3.5 3.5-3.5s3.5 1.6 3.5 3.5-1.6 3.5-3.5 3.5c-2 0-3.5-1.6-3.5-3.5zm-14 0c0-1.9 1.6-3.5 3.5-3.5s3.5 1.6 3.5 3.5-1.6 3.5-3.5 3.5c-2 0-3.5-1.6-3.5-3.5zm-14 0c0-1.9 1.6-3.5 3.5-3.5s3.5 1.6 3.5 3.5-1.6 3.5-3.5 3.5c-2 0-3.5-1.6-3.5-3.5zm-14 0c0-1.9 1.6-3.5 3.5-3.5s3.5 1.6 3.5 3.5-1.6 3.5-3.5 3.5c-2 0-3.5-1.6-3.5-3.5zm-14 0c0-1.9 1.6-3.5 3.5-3.5s3.5 1.6 3.5 3.5-1.6 3.5-3.5 3.5c-2 0-3.5-1.6-3.5-3.5zm-14 0c0-1.9 1.6-3.5 3.5-3.5s3.5 1.6 3.5 3.5-1.6 3.5-3.5 3.5c-2 0-3.5-1.6-3.5-3.5zm-14 0c0-1.9 1.6-3.5 3.5-3.5s3.5 1.6 3.5 3.5-1.6 3.5-3.5 3.5c-2 0-3.5-1.6-3.5-3.5zm-14 0c0-1.9 1.6-3.5 3.5-3.5s3.5 1.6 3.5 3.5-1.6 3.5-3.5 3.5c-2 0-3.5-1.6-3.5-3.5zm-14 0c0-1.9 1.6-3.5 3.5-3.5s3.5 1.6 3.5 3.5-1.6 3.5-3.5 3.5c-2 0-3.5-1.6-3.5-3.5zm-14 0c0-1.9 1.6-3.5 3.5-3.5s3.5 1.6 3.5 3.5-1.6 3.5-3.5 3.5c-2 0-3.5-1.6-3.5-3.5zm-14 0c0-1.9 1.6-3.5 3.5-3.5s3.5 1.6 3.5 3.5-1.6 3.5-3.5 3.5c-2 0-3.5-1.6-3.5-3.5zm-14 0c0-1.9 1.6-3.5 3.5-3.5s3.5 1.6 3.5 3.5-1.6 3.5-3.5 3.5c-2 0-3.5-1.6-3.5-3.5zm-14 0c0-1.9 1.6-3.5 3.5-3.5s3.5 1.6 3.5 3.5-1.6 3.5-3.5 3.5c-2 0-3.5-1.6-3.5-3.5zm-14 0c0-1.9 1.6-3.5 3.5-3.5s3.5 1.6 3.5 3.5-1.6 3.5-3.5 3.5c-2 0-3.5-1.6-3.5-3.5zm-14 0c0-1.9 1.6-3.5 3.5-3.5s3.5 1.6 3.5 3.5-1.6 3.5-3.5 3.5c-2 0-3.5-1.6-3.5-3.5zm-14 0c0-1.9 1.6-3.5 3.5-3.5s3.5 1.6 3.5 3.5-1.6 3.5-3.5 3.5c-2 0-3.5-1.6-3.5-3.5zm-14 0c0-1.9 1.6-3.5 3.5-3.5s3.5 1.6 3.5 3.5-1.6 3.5-3.5 3.5c-2 0-3.5-1.6-3.5-3.5zm-14 0c0-1.9 1.6-3.5 3.5-3.5s3.5 1.6 3.5 3.5-1.6 3.5-3.5 3.5c-2 0-3.5-1.6-3.5-3.5zm-14 0c0-1.9 1.6-3.5 3.5-3.5s3.5 1.6 3.5 3.5-1.6 3.5-3.5 3.5c-2 0-3.5-1.6-3.5-3.5zm-14 0c0-1.9 1.6-3.5 3.5-3.5s3.5 1.6 3.5 3.5-1.6 3.5-3.5 3.5c-2 0-3.5-1.6-3.5-3.5zm-14 0c0-1.9 1.6-3.5 3.5-3.5s3.5 1.6 3.5 3.5-1.6 3.5-3.5 3.5c-2 0-3.5-1.6-3.5-3.5zm-14 0c0-1.9 1.6-3.5 3.5-3.5s3.5 1.6 3.5 3.5-1.6 3.5-3.5 3.5c-2 0-3.5-1.6-3.5-3.5zm-14 0c0-1.9 1.6-3.5 3.5-3.5s3.5 1.6 3.5 3.5-1.6 3.5-3.5 3.5c-2 0-3.5-1.6-3.5-3.5zm-14 0c0-1.9 1.6-3.5 3.5-3.5s3.5 1.6 3.5 3.5-1.6 3.5-3.5 3.5c-2 0-3.5-1.6-3.5-3.5zm-14 0c0-1.9 1.6-3.5 3.5-3.5s3.5 1.6 3.5 3.5-1.6 3.5-3.5 3.5c-2 0-3.5-1.6-3.5-3.5zm-14 0c0-1.9 1.6-3.5 3.5-3.5s3.5 1.6 3.5 3.5-1.6 3.5-3.5 3.5c-2 0-3.5-1.6-3.5-3.5zm-14 0c0-1.9 1.6-3.5 3.5-3.5s3.5 1.6 3.5 3.5-1.6 3.5-3.5 3.5c-2 0-3.5-1.6-3.5-3.5zm-14 0c0-1.9 1.6-3.5 3.5-3.5s3.5 1.6 3.5 3.5-1.6 3.5-3.5 3.5c-2 0-3.5-1.6-3.5-3.5zm-14 0c0-1.9 1.6-3.5 3.5-3.5s3.5 1.6 3.5 3.5-1.6 3.5-3.5 3.5c-2 0-3.5-1.6-3.5-3.5zm-14 0c0-1.9 1.6-3.5 3.5-3.5s3.5 1.6 3.5 3.5-1.6 3.5-3.5 3.5c-2 0-3.5-1.6-3.5-3.5zm-14 0c0-1.9 1.6-3.5 3.5-3.5s3.5 1.6 3.5 3.5-1.6 3.5-3.5 3.5c-2 0-3.5-1.6-3.5-3.5zm-14 0c0-1.9 1.6-3.5 3.5-3.5s3.5 1.6 3.5 3.5-1.6 3.5-3.5 3.5c-2 0-3.5-1.6-3.5-3.5zm-14 0c0-1.9 1.6-3.5 3.5-3.5s3.5 1.6 3.5 3.5-1.6 3.5-3.5 3.5c-2 0-3.5-1.6-3.5-3.5zm516.8 149.5c0-1.9 1.6-3.5 3.5-3.5s3.5 1.6 3.5 3.5-1.6 3.5-3.5 3.5-3.5-1.5-3.5-3.5zm-14 0c0-1.9 1.6-3.5 3.5-3.5s3.5 1.6 3.5 3.5-1.6 3.5-3.5 3.5-3.5-1.5-3.5-3.5zm-14 0c0-1.9 1.6-3.5 3.5-3.5s3.5 1.6 3.5 3.5-1.6 3.5-3.5 3.5-3.5-1.5-3.5-3.5zm-14 0c0-1.9 1.6-3.5 3.5-3.5s3.5 1.6 3.5 3.5-1.6 3.5-3.5 3.5-3.5-1.5-3.5-3.5zm-14 0c0-1.9 1.6-3.5 3.5-3.5s3.5 1.6 3.5 3.5-1.6 3.5-3.5 3.5-3.5-1.5-3.5-3.5zm-14 0c0-1.9 1.6-3.5 3.5-3.5s3.5 1.6 3.5 3.5-1.6 3.5-3.5 3.5-3.5-1.5-3.5-3.5zm-14 0c0-1.9 1.6-3.5 3.5-3.5s3.5 1.6 3.5 3.5-1.6 3.5-3.5 3.5-3.5-1.5-3.5-3.5zm-14 0c0-1.9 1.6-3.5 3.5-3.5s3.5 1.6 3.5 3.5-1.6 3.5-3.5 3.5-3.5-1.5-3.5-3.5zm-14 0c0-1.9 1.6-3.5 3.5-3.5s3.5 1.6 3.5 3.5-1.6 3.5-3.5 3.5-3.5-1.5-3.5-3.5zm-14 0c0-1.9 1.6-3.5 3.5-3.5s3.5 1.6 3.5 3.5-1.6 3.5-3.5 3.5-3.5-1.6-3.5-3.5zm-14 0c0-1.9 1.6-3.5 3.5-3.5s3.5 1.6 3.5 3.5-1.6 3.5-3.5 3.5-3.5-1.6-3.5-3.5zm-14 0c0-1.9 1.6-3.5 3.5-3.5s3.5 1.6 3.5 3.5-1.6 3.5-3.5 3.5-3.5-1.6-3.5-3.5zm-14 0c0-1.9 1.6-3.5 3.5-3.5s3.5 1.6 3.5 3.5-1.6 3.5-3.5 3.5-3.5-1.6-3.5-3.5zm-14 0c0-1.9 1.6-3.5 3.5-3.5s3.5 1.6 3.5 3.5-1.6 3.5-3.5 3.5-3.5-1.6-3.5-3.5zm-14 0c0-1.9 1.6-3.5 3.5-3.5s3.5 1.6 3.5 3.5-1.6 3.5-3.5 3.5-3.5-1.6-3.5-3.5zm-14 0c0-1.9 1.6-3.5 3.5-3.5s3.5 1.6 3.5 3.5-1.6 3.5-3.5 3.5-3.5-1.6-3.5-3.5zm-14 0c0-1.9 1.6-3.5 3.5-3.5s3.5 1.6 3.5 3.5-1.6 3.5-3.5 3.5-3.5-1.6-3.5-3.5zm-14 0c0-1.9 1.6-3.5 3.5-3.5s3.5 1.6 3.5 3.5-1.6 3.5-3.5 3.5-3.5-1.6-3.5-3.5zm-14 0c0-1.9 1.6-3.5 3.5-3.5s3.5 1.6 3.5 3.5-1.6 3.5-3.5 3.5-3.5-1.6-3.5-3.5zm-14 0c0-1.9 1.6-3.5 3.5-3.5s3.5 1.6 3.5 3.5-1.6 3.5-3.5 3.5-3.5-1.6-3.5-3.5zm-14 0c0-1.9 1.6-3.5 3.5-3.5s3.5 1.6 3.5 3.5-1.6 3.5-3.5 3.5-3.5-1.5-3.5-3.5zm-14 0c0-1.9 1.6-3.5 3.5-3.5s3.5 1.6 3.5 3.5-1.6 3.5-3.5 3.5-3.5-1.6-3.5-3.5zm-14 0c0-1.9 1.6-3.5 3.5-3.5s3.5 1.6 3.5 3.5-1.6 3.5-3.5 3.5-3.5-1.6-3.5-3.5zm-14 0c0-1.9 1.6-3.5 3.5-3.5s3.5 1.6 3.5 3.5-1.6 3.5-3.5 3.5-3.5-1.6-3.5-3.5zm-14 0c0-1.9 1.6-3.5 3.5-3.5s3.5 1.6 3.5 3.5-1.6 3.5-3.5 3.5-3.5-1.6-3.5-3.5zm-14 0c0-1.9 1.6-3.5 3.5-3.5s3.5 1.6 3.5 3.5-1.6 3.5-3.5 3.5-3.5-1.6-3.5-3.5zm-14 0c0-1.9 1.6-3.5 3.5-3.5s3.5 1.6 3.5 3.5-1.6 3.5-3.5 3.5-3.5-1.6-3.5-3.5zm-14 0c0-1.9 1.6-3.5 3.5-3.5s3.5 1.6 3.5 3.5-1.6 3.5-3.5 3.5-3.5-1.6-3.5-3.5zm-14 0c0-1.9 1.6-3.5 3.5-3.5s3.5 1.6 3.5 3.5-1.6 3.5-3.5 3.5-3.5-1.6-3.5-3.5zm-14 0c0-1.9 1.6-3.5 3.5-3.5s3.5 1.6 3.5 3.5-1.6 3.5-3.5 3.5-3.5-1.6-3.5-3.5zm-14 0c0-1.9 1.6-3.5 3.5-3.5s3.5 1.6 3.5 3.5-1.6 3.5-3.5 3.5-3.5-1.6-3.5-3.5zm-14 0c0-1.9 1.6-3.5 3.5-3.5s3.5 1.6 3.5 3.5-1.6 3.5-3.5 3.5-3.5-1.6-3.5-3.5zm-14 0c0-1.9 1.6-3.5 3.5-3.5s3.5 1.6 3.5 3.5-1.6 3.5-3.5 3.5-3.5-1.6-3.5-3.5zm-14 0c0-1.9 1.6-3.5 3.5-3.5s3.5 1.6 3.5 3.5-1.6 3.5-3.5 3.5-3.5-1.6-3.5-3.5zm-14 0c0-1.9 1.6-3.5 3.5-3.5s3.5 1.6 3.5 3.5-1.6 3.5-3.5 3.5-3.5-1.6-3.5-3.5zm-14 0c0-1.9 1.6-3.5 3.5-3.5s3.5 1.6 3.5 3.5-1.6 3.5-3.5 3.5-3.5-1.6-3.5-3.5zm-14 0c0-1.9 1.6-3.5 3.5-3.5s3.5 1.6 3.5 3.5-1.6 3.5-3.5 3.5-3.5-1.6-3.5-3.5zm-14 0c0-1.9 1.6-3.5 3.5-3.5s3.5 1.6 3.5 3.5-1.6 3.5-3.5 3.5-3.5-1.6-3.5-3.5zm-14 0c0-1.9 1.6-3.5 3.5-3.5s3.5 1.6 3.5 3.5-1.6 3.5-3.5 3.5-3.5-1.6-3.5-3.5zm-14 0c0-1.9 1.6-3.5 3.5-3.5s3.5 1.6 3.5 3.5-1.6 3.5-3.5 3.5-3.5-1.6-3.5-3.5zm-14 0c0-1.9 1.6-3.5 3.5-3.5s3.5 1.6 3.5 3.5-1.6 3.5-3.5 3.5-3.5-1.6-3.5-3.5zm-14 0c0-1.9 1.6-3.5 3.5-3.5s3.5 1.6 3.5 3.5-1.6 3.5-3.5 3.5-3.5-1.6-3.5-3.5zm-14 0c0-1.9 1.6-3.5 3.5-3.5s3.5 1.6 3.5 3.5-1.6 3.5-3.5 3.5-3.5-1.6-3.5-3.5zm-14 0c0-1.9 1.6-3.5 3.5-3.5s3.5 1.6 3.5 3.5-1.6 3.5-3.5 3.5-3.5-1.6-3.5-3.5z" fill="#009fe3"/><path class="st3" d="M251.9 438h111v32.6h-111z"/><path d="M133.4 461.8V228c0-9.4 7.6-17 17-17h318c9.4 0 17 7.6 17 17v233.8" fill="#1e1e1e"/><path d="M486 461.8h-1V228c0-9.1-7.4-16.5-16.5-16.5h-318c-9.1 0-16.5 7.4-16.5 16.5v233.8h-1V228c.1-9.6 7.9-17.4 17.5-17.5h318c9.6.1 17.4 7.9 17.5 17.5v233.8z" fill="#ededed"/><path fill="#2b8cc4" d="M159.4 237h300v189.5h-300z"/><path class="st1" d="M460 427H159V236.5h301V427zm-300-1h299V237.5H160V426z"/><path class="st3" d="M180.4 258h258v147.5h-258z"/><path class="st1" d="M437.4 259v145.5h-256V259h256m2-2h-260v149.5h260V257z"/><path class="st1" d="M179.4 257h260v25.5h-260z"/><path class="st3" d="M198.6 273.4c.8 1 2 1.5 3.3 1.5 1.4 0 2.6-.7 2.6-2.1 0-.7-.4-1.4-1.1-1.6-1.1-.5-3-.6-4.2-1.3-.9-.5-1.4-1.4-1.4-2.4 0-1.8 1.5-3.2 3.9-3.2 1.4 0 2.8.5 3.8 1.6l-1 .8c-.7-.8-1.7-1.2-2.8-1.2-1.4 0-2.5.7-2.5 1.9 0 1.9 2.7 1.7 4.7 2.5 1.2.4 2 1.5 1.9 2.7 0 2.3-2.1 3.4-4.2 3.4-1.6 0-3.1-.6-4.2-1.8l1.2-.8zM209 272.3c0 1.4 1.1 2.6 2.5 2.7h.1c.8 0 1.6-.3 2.2-.8l.7 1c-.8.7-1.9 1-2.9 1-2.4 0-3.9-1.8-3.9-4.3s1.5-4.3 3.7-4.3 3.5 1.8 3.5 4.3v.4H209zm0-1.1h4.4c0-1.3-.8-2.4-2.1-2.4s-2.3 1.1-2.3 2.4zM221.1 269h-.2c-1.4 0-2.6.6-2.6 2.8v4.2H217v-8.2h1.4v1.3c.5-.9 1.4-1.5 2.5-1.5h.4v1.4zM224.6 276l-2.6-8.2h1.5l2 7 2-7h1.5l-2.6 8.2h-1.8zM231.5 264.5c.6 0 1 .4 1 1s-.4 1-1 1-1-.4-1-1 .5-1 1-1zm.7 11.5h-1.4v-8.2h1.4v8.2zM235.7 271.9c0 1.6.8 3 2.4 3 .9 0 1.8-.6 2.1-1.4l1.1.6c-.6 1.2-1.9 2-3.2 1.9-2.3 0-3.8-1.8-3.8-4.3s1.5-4.3 3.8-4.3c1.4 0 2.6.7 3.2 1.9l-1.1.6c-.4-.8-1.2-1.4-2.1-1.4-1.6 0-2.4 1.4-2.4 3v.4zM244.2 272.3c0 1.4 1.1 2.6 2.5 2.7h.1c.8 0 1.6-.3 2.2-.8l.7 1c-.8.7-1.9 1-2.9 1-2.4 0-3.9-1.8-3.9-4.3s1.5-4.3 3.8-4.3 3.5 1.8 3.5 4.3v.4h-6zm0-1.1h4.4c0-1.3-.8-2.4-2.1-2.4-1.3.1-2.3 1.1-2.3 2.4zM18.5 271.5H7.6l-1.3 4.4h-6l9.2-28h7.4l9.3 28h-6.3l-1.4-4.4zm-9.4-5H17l-3.9-12.6H13l-3.9 12.6zM49.1 265.5c0 6.2-3.8 10.8-9.3 10.8-2 .1-3.8-.7-5.2-2.2v1.8h-5.4v-28h5.4v8.9c1.4-1.5 3.3-2.3 5.3-2.2 5.5 0 9.2 4.6 9.2 10.8v.1zm-14.6 1.9c0 2.2 1.7 3.9 4.3 3.9 3.1 0 4.8-2.4 4.8-5.8v-.2c0-3.3-1.7-5.8-4.8-5.8-2.6 0-4.3 1.7-4.3 3.9v4zM52 265.4c0-6.2 4.2-10.8 10.1-10.8 4.3 0 7.7 2.1 9.1 5.4l-4.8 2.4c-.6-1.8-2.3-2.9-4.2-2.8-3.3 0-4.7 3-4.7 5.8v.2c0 2.7 1.4 5.7 4.7 5.7 1.9.1 3.5-1.1 4.2-2.8l4.8 2.4c-1.4 3.3-4.9 5.4-9.2 5.4-5.9 0-10-4.6-10-10.8v-.1zM7.2 296.3H2.5l-.8 2.6H.3l3.6-11.5h2l3.6 11.5H8l-.8-2.6zm-4.3-1.2h3.9l-1.9-6.5h-.1l-1.9 6.5zM12.8 298.9h-1.4v-11.5h1.4v4.3c.6-.7 1.5-1.2 2.4-1.1 2.1 0 3.5 1.8 3.5 4.3s-1.4 4.3-3.5 4.3c-.9 0-1.8-.4-2.4-1.1v.8zm4.5-4.2c0-1.7-.8-3-2.3-3-1.2 0-2.2.9-2.2 2.1v1.6c-.1 1.2.7 2.2 1.9 2.4h.3c1.5 0 2.3-1.3 2.3-3v-.1zM21.8 294.8c0 1.6.8 3 2.4 3 .9 0 1.8-.5 2.1-1.4l1.1.6c-.6 1.2-1.9 2-3.2 1.9-2.3 0-3.8-1.8-3.8-4.3s1.5-4.3 3.8-4.3c1.4 0 2.6.7 3.2 1.9l-1.1.6c-.4-.8-1.2-1.4-2.1-1.4-1.6 0-2.4 1.4-2.4 3v.4z"/><path class="st2" d="M196.7 299.5h81.7v9h-81.7zM196.7 317.5h170.7v9H196.7zM196.7 335.5h170.7v9H196.7zM196.7 353.5h112.9v9H196.7z"/><path class="st11" d="M196.7 374.8h95.7v15h-95.7z"/><path class="st1" d="M0 374.8h15v15H0z"/><path class="st2" d="M24.2 374.8h15v15h-15z"/><path fill="#d4351c" d="M0 347.6h15v15H0z"/><path class="st3" d="M48.5 374.8h15v15h-15z"/><path fill="#4c2c92" d="M73.4 347.6h15v15h-15z"/><path class="st5" d="M24.2 347.6h15v15h-15z"/><path class="st11" d="M48.5 347.6h15v15h-15z"/><path class="st3" d="M73.4 374.8h15v15h-15z"/><path class="st14" d="M270.3 452.1h78.6v13.6h-78.6z"/><path d="M341.5 460.5h-64.1c-3.8 0-7-4.1-7.3-8H81.4v21l52 6h352l52-6v-21H348.8c-.3 4.1-3.4 8-7.3 8z" fill="#b2b2b2"/><path class="st14" d="M81.4 473.5l52 6h352l52-6z"/><path d="M537.4 452.5H348.8c-.2 4.1-3.3 8-7.3 8h-64.1c-3.8 0-7-4.1-7.3-8H81.4" fill="none" stroke="#ededed" stroke-miterlimit="10"/><path fill="#1a345c" d="M81.4 479.5h456v3h-456z"/><path class="st1" d="M196.7 389.8h95.7v2h-95.7z"/><path class="st2" d="M284.2 148.3h25.5v9h-25.5zM284.2 92.6h25.5v9h-25.5z"/><circle class="st3" cx="248.4" cy="152.8" r="20"/><path class="st1" d="M248.4 136.8c8.8 0 16 7.2 16 16s-7.2 16-16 16-16-7.2-16-16 7.2-16 16-16m0-4c-11 0-20 9-20 20s9 20 20 20 20-9 20-20-9-20-20-20z"/><path class="st5" d="M248.4 132.8c11 0 20 9 20 20s-9 20-20 20-20-9-20-20 9-20 20-20m0-4c-13.3 0-24 10.7-24 24s10.7 24 24 24 24-10.7 24-24c0-13.2-10.7-24-24-24z"/><circle class="st1" cx="248.4" cy="152.8" r="10"/><path class="st3" d="M229.4 79h36v36h-36z"/><path class="st1" d="M263.4 81v32h-32V81h32m4-4h-40v40h40V77z"/><path class="st1" d="M259.8 90.7l-3.5-3.5-12.7 12.7-5-5-3.5 3.6 8.5 8.5 16.2-16.3"/><path class="st5" d="M267.4 77v40h-40V77h40m3-3h-46v46h46V74z"/></svg>