<svg version="1.1" id="Layer_1" xmlns="http://www.w3.org/2000/svg"  x="0px" y="0px"
	 viewBox="0 0 610.3 483" style="enable-background:new 0 0 610.3 483;" xml:space="preserve"><style>.st0{fill:#484949;}.st1{fill:#0B0C0C;}.st2{fill:#CECECE;}.st3{fill:#1D70B8;}.st4{fill:#FFFFFF;}.st5{fill:#FFDD00;}.st6{fill:#8EB8DC;}.st7{fill:#11875A;}.st8{fill:#858686;}.st9{fill:#CA3535;}.st10{fill:#54319F;}.st11{fill:none;stroke:#484949;stroke-miterlimit:10;}</style><path class="st0" d="M370.6,132.5h197.5v162.6H370.6V132.5z"/><path class="st1" d="M571.1,298.1H367.6V129.5H571L571.1,298.1L571.1,298.1z M373.6,292.1h191.5V135.5H373.6L373.6,292.1 L373.6,292.1z"/><path class="st2" d="M416.1,163.1l-20.5-11.4c-0.4-0.2-0.8-0.4-1.2-0.4c-1.1,0-2,0.9-2,2c0,0.8,0.5,1.5,1.3,1.9l15.9,8.9l-16,8.9 c-0.8,0.3-1.3,1.1-1.3,1.9c0,1.1,0.9,1.9,2,1.9c0.4,0,0.9-0.2,1.2-0.4l20.5-11.5c0.5-0.3,0.6-0.9,0.4-1.4 C416.3,163.3,416.2,163.2,416.1,163.1z M445.9,187.4c-0.5-0.4-1.1-0.6-1.7-0.5H419c-0.6,0-1.2,0.1-1.6,0.5c-0.8,0.7-0.8,2-0.1,2.8 l0.1,0.1c0.5,0.4,1,0.6,1.6,0.5h25.2c0.6,0,1.2-0.1,1.7-0.5c0.4-0.4,0.6-0.9,0.6-1.4C446.5,188.3,446.3,187.8,445.9,187.4 L445.9,187.4z"/><path class="st3" d="M50.4,34.7h197.4V59H50.4V34.7z"/><path class="st1" d="M246.9,35.5V181H50.6V35.5H246.9 M248.9,33.5H48.6V183h200.3V33.5L248.9,33.5z"/><path class="st4" d="M50.6,59h196.3v122H50.6V59z"/><path class="st2" d="M63.1,72h81.7v9H63.1V72z M63.1,92.5H176v9H63.1V92.5z"/><path class="st5" d="M63.1,113.8h95.7v15H63.1V113.8z"/><path class="st1" d="M63.1,128.8h95.7v2H63.1V128.8z"/><path class="st6" d="M176,479.5c0-1.9,1.6-3.5,3.5-3.5s3.5,1.6,3.5,3.5s-1.6,3.5-3.5,3.5S176,481.4,176,479.5z M176,465.5 c0-1.9,1.6-3.5,3.5-3.5s3.5,1.6,3.5,3.5s-1.6,3.5-3.5,3.5S176,467.4,176,465.5z M176,451.5c0-1.9,1.6-3.5,3.5-3.5s3.5,1.6,3.5,3.5 s-1.6,3.5-3.5,3.5S176,453.4,176,451.5z M176,437.5c0-1.9,1.6-3.5,3.5-3.5s3.5,1.6,3.5,3.5s-1.6,3.5-3.5,3.5S176,439.4,176,437.5z  M176,423.5c0-1.9,1.6-3.5,3.5-3.5s3.5,1.6,3.5,3.5s-1.6,3.5-3.5,3.5S176,425.4,176,423.5z M176,409.5c0-1.9,1.6-3.5,3.5-3.5 s3.5,1.6,3.5,3.5s-1.6,3.5-3.5,3.5S176,411.4,176,409.5z M176,395.5c0-1.9,1.6-3.5,3.5-3.5s3.5,1.6,3.5,3.5s-1.6,3.5-3.5,3.5 S176,397.4,176,395.5z M176,381.5c0-1.9,1.6-3.5,3.5-3.5s3.5,1.6,3.5,3.5s-1.6,3.5-3.5,3.5S176,383.4,176,381.5z M176,367.5 c0-1.9,1.6-3.5,3.5-3.5s3.5,1.6,3.5,3.5s-1.6,3.5-3.5,3.5S176,369.4,176,367.5z M176,353.5c0-1.9,1.6-3.5,3.5-3.5s3.5,1.6,3.5,3.5 s-1.6,3.5-3.5,3.5S176,355.4,176,353.5z M176,339.5c0-1.9,1.6-3.5,3.5-3.5s3.5,1.6,3.5,3.5s-1.6,3.5-3.5,3.5S176,341.4,176,339.5z M176,325.5c0-1.9,1.6-3.5,3.5-3.5s3.5,1.6,3.5,3.5s-1.6,3.5-3.5,3.5S176,327.4,176,325.5z M176,311.5c0-1.9,1.6-3.5,3.5-3.5
	s3.5,1.6,3.5,3.5s-1.6,3.5-3.5,3.5S176,313.4,176,311.5z M176,297.5c0-1.9,1.6-3.5,3.5-3.5s3.5,1.6,3.5,3.5s-1.6,3.5-3.5,3.5
	S176,299.4,176,297.5z M176,283.5c0-1.9,1.6-3.5,3.5-3.5s3.5,1.6,3.5,3.5s-1.6,3.5-3.5,3.5S176,285.4,176,283.5z M176,269.5
	c0-1.9,1.6-3.5,3.5-3.5s3.5,1.6,3.5,3.5s-1.6,3.5-3.5,3.5S176,271.4,176,269.5z M176,255.5c0-1.9,1.6-3.5,3.5-3.5s3.5,1.6,3.5,3.5
	s-1.6,3.5-3.5,3.5S176,257.4,176,255.5z M176,241.5c0-1.9,1.6-3.5,3.5-3.5s3.5,1.6,3.5,3.5s-1.6,3.5-3.5,3.5S176,243.4,176,241.5z
	 M176,227.5c0-1.9,1.6-3.5,3.5-3.5s3.5,1.6,3.5,3.5s-1.6,3.5-3.5,3.5S176,229.4,176,227.5z M176,213.5c0-1.9,1.6-3.5,3.5-3.5
	s3.5,1.6,3.5,3.5s-1.6,3.5-3.5,3.5S176,215.4,176,213.5z M176,199.5c0-1.9,1.6-3.5,3.5-3.5s3.5,1.6,3.5,3.5s-1.6,3.5-3.5,3.5
	S176,201.4,176,199.5z M176,185.5c0-1.9,1.6-3.5,3.5-3.5s3.5,1.6,3.5,3.5s-1.6,3.5-3.5,3.5S176,187.4,176,185.5z M176,171.5
	c0-1.9,1.6-3.5,3.5-3.5s3.5,1.6,3.5,3.5s-1.6,3.5-3.5,3.5S176,173.4,176,171.5z M176,157.5c0-1.9,1.6-3.5,3.5-3.5s3.5,1.6,3.5,3.5
	s-1.6,3.5-3.5,3.5S176,159.4,176,157.5z M176,143.5c0-1.9,1.6-3.5,3.5-3.5s3.5,1.6,3.5,3.5s-1.6,3.5-3.5,3.5S176,145.4,176,143.5z
	 M176,129.5c0-1.9,1.6-3.5,3.5-3.5s3.5,1.6,3.5,3.5c0,1.9-1.6,3.5-3.5,3.5S176,131.4,176,129.5z M176,115.5c0-1.9,1.6-3.5,3.5-3.5
	s3.5,1.6,3.5,3.5s-1.6,3.5-3.5,3.5S176,117.4,176,115.5z M176,101.5c0-1.9,1.6-3.5,3.5-3.5s3.5,1.6,3.5,3.5s-1.6,3.5-3.5,3.5
	S176,103.4,176,101.5z M176,87.5c0-1.9,1.6-3.5,3.5-3.5s3.5,1.6,3.5,3.5s-1.6,3.5-3.5,3.5S176,89.4,176,87.5z M176,73.5
	c0-1.9,1.6-3.5,3.5-3.5s3.5,1.6,3.5,3.5s-1.6,3.5-3.5,3.5S176,75.4,176,73.5z M176,59.5c0-1.9,1.6-3.5,3.5-3.5s3.5,1.6,3.5,3.5
	s-1.6,3.5-3.5,3.5S176,61.4,176,59.5z M176,45.5c0-1.9,1.6-3.5,3.5-3.5s3.5,1.6,3.5,3.5s-1.6,3.5-3.5,3.5S176,47.4,176,45.5z
	 M176,31.5c0-1.9,1.6-3.5,3.5-3.5s3.5,1.6,3.5,3.5c0,1.9-1.6,3.5-3.5,3.5S176,33.4,176,31.5z M176,17.5c0-1.9,1.6-3.5,3.5-3.5
	s3.5,1.6,3.5,3.5s-1.6,3.5-3.5,3.5S176,19.4,176,17.5z M176,3.5c0-1.9,1.6-3.5,3.5-3.5s3.5,1.6,3.5,3.5S181.4,7,179.5,7
	S176,5.4,176,3.5z M436.2,479.5c0-1.9,1.6-3.5,3.5-3.5s3.5,1.6,3.5,3.5s-1.6,3.5-3.5,3.5C437.7,483,436.1,481.5,436.2,479.5
	C436.1,479.5,436.1,479.5,436.2,479.5z M436.2,465.5c0-1.9,1.6-3.5,3.5-3.5s3.5,1.6,3.5,3.5s-1.6,3.5-3.5,3.5
	C437.7,469,436.1,467.5,436.2,465.5C436.1,465.5,436.1,465.5,436.2,465.5z M436.2,451.5c0-1.9,1.6-3.5,3.5-3.5s3.5,1.6,3.5,3.5
	s-1.6,3.5-3.5,3.5C437.7,455,436.1,453.5,436.2,451.5C436.1,451.5,436.1,451.5,436.2,451.5z M436.2,437.5c0-1.9,1.6-3.5,3.5-3.5
	s3.5,1.6,3.5,3.5s-1.6,3.5-3.5,3.5C437.7,441,436.1,439.5,436.2,437.5C436.1,437.5,436.1,437.5,436.2,437.5z M436.2,423.5
	c0-1.9,1.6-3.5,3.5-3.5s3.5,1.6,3.5,3.5s-1.6,3.5-3.5,3.5C437.7,427,436.1,425.5,436.2,423.5C436.1,423.5,436.1,423.5,436.2,423.5z
	 M436.2,409.5c0-1.9,1.6-3.5,3.5-3.5s3.5,1.6,3.5,3.5s-1.6,3.5-3.5,3.5C437.7,413,436.1,411.5,436.2,409.5
	C436.1,409.5,436.1,409.5,436.2,409.5z M436.2,395.5c0-1.9,1.6-3.5,3.5-3.5s3.5,1.6,3.5,3.5s-1.6,3.5-3.5,3.5
	C437.7,399,436.1,397.5,436.2,395.5C436.1,395.5,436.1,395.5,436.2,395.5z M436.2,381.5c0-1.9,1.6-3.5,3.5-3.5s3.5,1.6,3.5,3.5
	s-1.6,3.5-3.5,3.5C437.7,385,436.1,383.5,436.2,381.5C436.1,381.5,436.1,381.5,436.2,381.5z M436.2,367.5c0-1.9,1.6-3.5,3.5-3.5
	s3.5,1.6,3.5,3.5s-1.6,3.5-3.5,3.5C437.7,371,436.1,369.5,436.2,367.5C436.1,367.5,436.1,367.5,436.2,367.5z M436.2,353.5
	c0-1.9,1.6-3.5,3.5-3.5s3.5,1.6,3.5,3.5s-1.6,3.5-3.5,3.5C437.7,357,436.1,355.5,436.2,353.5C436.1,353.5,436.1,353.5,436.2,353.5z
	 M436.2,339.5c0-1.9,1.6-3.5,3.5-3.5s3.5,1.6,3.5,3.5s-1.6,3.5-3.5,3.5C437.7,343,436.1,341.5,436.2,339.5
	C436.1,339.5,436.1,339.5,436.2,339.5z M436.2,325.5c0-1.9,1.6-3.5,3.5-3.5s3.5,1.6,3.5,3.5s-1.6,3.5-3.5,3.5
	C437.7,329,436.1,327.5,436.2,325.5C436.1,325.5,436.1,325.5,436.2,325.5z M436.2,311.5c0-1.9,1.6-3.5,3.5-3.5s3.5,1.6,3.5,3.5
	s-1.6,3.5-3.5,3.5C437.7,315,436.1,313.5,436.2,311.5C436.1,311.5,436.1,311.5,436.2,311.5z M436.2,297.5c0-1.9,1.6-3.5,3.5-3.5
	s3.5,1.6,3.5,3.5s-1.6,3.5-3.5,3.5C437.7,301,436.1,299.5,436.2,297.5C436.1,297.5,436.1,297.5,436.2,297.5z M436.2,283.5
	c0-1.9,1.6-3.5,3.5-3.5s3.5,1.6,3.5,3.5s-1.6,3.5-3.5,3.5C437.7,287,436.1,285.5,436.2,283.5C436.1,283.5,436.1,283.5,436.2,283.5z
	 M436.2,269.5c0-1.9,1.6-3.5,3.5-3.5s3.5,1.6,3.5,3.5s-1.6,3.5-3.5,3.5C437.7,273,436.1,271.5,436.2,269.5
	C436.1,269.5,436.1,269.5,436.2,269.5z M436.2,255.5c0-1.9,1.6-3.5,3.5-3.5s3.5,1.6,3.5,3.5s-1.6,3.5-3.5,3.5
	C437.7,259,436.1,257.5,436.2,255.5C436.1,255.5,436.1,255.5,436.2,255.5z M436.2,241.5c0-1.9,1.6-3.5,3.5-3.5s3.5,1.6,3.5,3.5
	s-1.6,3.5-3.5,3.5C437.7,245,436.1,243.5,436.2,241.5C436.1,241.5,436.1,241.5,436.2,241.5z M436.2,227.5c0-1.9,1.6-3.5,3.5-3.5
	s3.5,1.6,3.5,3.5s-1.6,3.5-3.5,3.5C437.7,231,436.1,229.5,436.2,227.5C436.1,227.5,436.1,227.5,436.2,227.5z M436.2,213.5
	c0-1.9,1.6-3.5,3.5-3.5s3.5,1.6,3.5,3.5s-1.6,3.5-3.5,3.5C437.7,217,436.1,215.5,436.2,213.5C436.1,213.5,436.1,213.5,436.2,213.5z
	 M436.2,199.5c0-1.9,1.6-3.5,3.5-3.5s3.5,1.6,3.5,3.5s-1.6,3.5-3.5,3.5C437.7,203,436.1,201.5,436.2,199.5
	C436.1,199.5,436.1,199.5,436.2,199.5z M436.2,185.5c0-1.9,1.6-3.5,3.5-3.5s3.5,1.6,3.5,3.5s-1.6,3.5-3.5,3.5
	C437.7,189,436.1,187.5,436.2,185.5C436.1,185.5,436.1,185.5,436.2,185.5z M436.2,171.5c0-1.9,1.6-3.5,3.5-3.5s3.5,1.6,3.5,3.5
	s-1.6,3.5-3.5,3.5C437.7,175,436.1,173.5,436.2,171.5C436.1,171.5,436.1,171.5,436.2,171.5z M436.2,157.5c0-1.9,1.6-3.5,3.5-3.5
	s3.5,1.6,3.5,3.5s-1.6,3.5-3.5,3.5C437.7,161,436.1,159.5,436.2,157.5C436.1,157.5,436.1,157.5,436.2,157.5z M436.2,143.5
	c0-1.9,1.6-3.5,3.5-3.5s3.5,1.6,3.5,3.5s-1.6,3.5-3.5,3.5C437.7,147,436.1,145.5,436.2,143.5C436.1,143.5,436.1,143.5,436.2,143.5z
	 M436.2,129.5c0-1.9,1.6-3.5,3.5-3.5s3.5,1.6,3.5,3.5c0,1.9-1.6,3.5-3.5,3.5C437.7,133,436.1,131.5,436.2,129.5
	C436.1,129.5,436.1,129.5,436.2,129.5z M436.2,115.5c0-1.9,1.6-3.5,3.5-3.5s3.5,1.6,3.5,3.5s-1.6,3.5-3.5,3.5
	C437.7,119,436.1,117.5,436.2,115.5C436.1,115.5,436.1,115.5,436.2,115.5z M436.2,101.5c0-1.9,1.6-3.5,3.5-3.5s3.5,1.6,3.5,3.5
	s-1.6,3.5-3.5,3.5C437.7,105,436.1,103.5,436.2,101.5C436.1,101.5,436.1,101.5,436.2,101.5z M436.2,87.5c0-1.9,1.6-3.5,3.5-3.5
	s3.5,1.6,3.5,3.5s-1.6,3.5-3.5,3.5C437.7,91,436.1,89.5,436.2,87.5C436.1,87.5,436.1,87.5,436.2,87.5z M436.2,73.5
	c0-1.9,1.6-3.5,3.5-3.5s3.5,1.6,3.5,3.5s-1.6,3.5-3.5,3.5C437.7,77,436.1,75.5,436.2,73.5C436.1,73.5,436.1,73.5,436.2,73.5z
	 M436.2,59.5c0-1.9,1.6-3.5,3.5-3.5s3.5,1.6,3.5,3.5s-1.6,3.5-3.5,3.5C437.7,63,436.1,61.5,436.2,59.5
	C436.1,59.5,436.1,59.5,436.2,59.5z M436.2,45.5c0-1.9,1.6-3.5,3.5-3.5s3.5,1.6,3.5,3.5s-1.6,3.5-3.5,3.5
	C437.7,49,436.1,47.5,436.2,45.5C436.1,45.5,436.1,45.5,436.2,45.5z M436.2,31.5c0-1.9,1.6-3.5,3.5-3.5s3.5,1.6,3.5,3.5
	c0,1.9-1.6,3.5-3.5,3.5C437.7,35,436.1,33.5,436.2,31.5C436.1,31.5,436.1,31.5,436.2,31.5z M436.2,17.5c0-1.9,1.6-3.5,3.5-3.5
	s3.5,1.6,3.5,3.5s-1.6,3.5-3.5,3.5C437.7,21,436.1,19.5,436.2,17.5C436.1,17.5,436.1,17.5,436.2,17.5z M436.2,3.5
	c0-1.9,1.6-3.5,3.5-3.5s3.5,1.6,3.5,3.5S441.6,7,439.7,7C437.7,7,436.1,5.5,436.2,3.5C436.1,3.5,436.1,3.5,436.2,3.5z M603.3,257
	c0-1.9,1.6-3.5,3.5-3.5s3.5,1.6,3.5,3.5s-1.6,3.5-3.5,3.5C604.8,260.5,603.3,258.9,603.3,257z M589.3,257c0-1.9,1.6-3.5,3.5-3.5
	s3.5,1.6,3.5,3.5s-1.6,3.5-3.5,3.5C590.8,260.5,589.3,258.9,589.3,257z M575.3,257c0-1.9,1.6-3.5,3.5-3.5s3.5,1.6,3.5,3.5
	s-1.6,3.5-3.5,3.5C576.8,260.5,575.3,258.9,575.3,257z M561.3,257c0-1.9,1.6-3.5,3.5-3.5s3.5,1.6,3.5,3.5s-1.6,3.5-3.5,3.5
	C562.8,260.5,561.3,259,561.3,257z M547.3,257c0-1.9,1.6-3.5,3.5-3.5s3.5,1.6,3.5,3.5s-1.6,3.5-3.5,3.5
	C548.8,260.5,547.3,258.9,547.3,257z M533.3,257c0-1.9,1.6-3.5,3.5-3.5s3.5,1.6,3.5,3.5s-1.6,3.5-3.5,3.5
	C534.8,260.5,533.3,258.9,533.3,257z M519.3,257c0-1.9,1.6-3.5,3.5-3.5s3.5,1.6,3.5,3.5s-1.6,3.5-3.5,3.5
	C520.8,260.5,519.3,258.9,519.3,257z M505.3,257c0-1.9,1.6-3.5,3.5-3.5s3.5,1.6,3.5,3.5s-1.6,3.5-3.5,3.5
	C506.8,260.5,505.3,258.9,505.3,257z M491.3,257c0-1.9,1.6-3.5,3.5-3.5s3.5,1.6,3.5,3.5s-1.6,3.5-3.5,3.5
	C492.8,260.5,491.3,258.9,491.3,257z M477.3,257c0-1.9,1.6-3.5,3.5-3.5s3.5,1.6,3.5,3.5s-1.6,3.5-3.5,3.5
	C478.8,260.5,477.3,258.9,477.3,257z M463.3,257c0-1.9,1.6-3.5,3.5-3.5s3.5,1.6,3.5,3.5s-1.6,3.5-3.5,3.5
	C464.8,260.5,463.3,258.9,463.3,257z M449.3,257c0-1.9,1.6-3.5,3.5-3.5s3.5,1.6,3.5,3.5s-1.6,3.5-3.5,3.5
	C450.8,260.5,449.3,258.9,449.3,257z M435.3,257c0-1.9,1.6-3.5,3.5-3.5s3.5,1.6,3.5,3.5s-1.6,3.5-3.5,3.5
	C436.8,260.5,435.3,258.9,435.3,257z M421.3,257c0-1.9,1.6-3.5,3.5-3.5s3.5,1.6,3.5,3.5s-1.6,3.5-3.5,3.5
	C422.8,260.5,421.3,258.9,421.3,257z M407.3,257c0-1.9,1.6-3.5,3.5-3.5s3.5,1.6,3.5,3.5s-1.6,3.5-3.5,3.5
	C408.8,260.5,407.3,258.9,407.3,257z M393.3,257c0-1.9,1.6-3.5,3.5-3.5s3.5,1.6,3.5,3.5s-1.6,3.5-3.5,3.5
	C394.8,260.5,393.3,258.9,393.3,257z M379.3,257c0-1.9,1.6-3.5,3.5-3.5s3.5,1.6,3.5,3.5s-1.6,3.5-3.5,3.5
	C380.8,260.5,379.3,258.9,379.3,257z M365.3,257c0-1.9,1.6-3.5,3.5-3.5s3.5,1.6,3.5,3.5s-1.6,3.5-3.5,3.5
	C366.8,260.5,365.3,258.9,365.3,257z M351.3,257c0-1.9,1.6-3.5,3.5-3.5s3.5,1.6,3.5,3.5s-1.6,3.5-3.5,3.5
	C352.8,260.5,351.3,258.9,351.3,257z M337.3,257c0-1.9,1.6-3.5,3.5-3.5s3.5,1.6,3.5,3.5s-1.6,3.5-3.5,3.5
	C338.8,260.5,337.3,258.9,337.3,257z M323.3,257c0-1.9,1.6-3.5,3.5-3.5s3.5,1.6,3.5,3.5s-1.6,3.5-3.5,3.5
	C324.8,260.5,323.3,258.9,323.3,257z M309.3,257c0-1.9,1.6-3.5,3.5-3.5s3.5,1.6,3.5,3.5s-1.6,3.5-3.5,3.5
	C310.8,260.5,309.3,258.9,309.3,257z M295.3,257c0-1.9,1.6-3.5,3.5-3.5s3.5,1.6,3.5,3.5s-1.6,3.5-3.5,3.5
	C296.8,260.5,295.3,258.9,295.3,257z M281.3,257c0-1.9,1.6-3.5,3.5-3.5s3.5,1.6,3.5,3.5s-1.6,3.5-3.5,3.5
	C282.8,260.5,281.3,258.9,281.3,257z M267.3,257c0-1.9,1.6-3.5,3.5-3.5s3.5,1.6,3.5,3.5s-1.6,3.5-3.5,3.5
	C268.8,260.5,267.3,258.9,267.3,257z M253.3,257c0-1.9,1.6-3.5,3.5-3.5s3.5,1.6,3.5,3.5s-1.6,3.5-3.5,3.5
	C254.8,260.5,253.3,258.9,253.3,257z M239.3,257c0-1.9,1.6-3.5,3.5-3.5s3.5,1.6,3.5,3.5s-1.6,3.5-3.5,3.5
	C240.8,260.5,239.3,258.9,239.3,257z M225.3,257c0-1.9,1.6-3.5,3.5-3.5s3.5,1.6,3.5,3.5s-1.6,3.5-3.5,3.5
	C226.8,260.5,225.3,258.9,225.3,257z M211.3,257c0-1.9,1.6-3.5,3.5-3.5s3.5,1.6,3.5,3.5s-1.6,3.5-3.5,3.5
	C212.8,260.5,211.3,258.9,211.3,257z M197.3,257c0-1.9,1.6-3.5,3.5-3.5s3.5,1.6,3.5,3.5s-1.6,3.5-3.5,3.5
	C198.8,260.5,197.3,258.9,197.3,257z M183.3,257c0-1.9,1.6-3.5,3.5-3.5s3.5,1.6,3.5,3.5s-1.6,3.5-3.5,3.5
	C184.8,260.5,183.3,258.9,183.3,257z M169.3,257c0-1.9,1.6-3.5,3.5-3.5s3.5,1.6,3.5,3.5s-1.6,3.5-3.5,3.5
	C170.8,260.5,169.3,258.9,169.3,257z M155.3,257c0-1.9,1.6-3.5,3.5-3.5s3.5,1.6,3.5,3.5s-1.6,3.5-3.5,3.5
	C156.8,260.5,155.3,258.9,155.3,257z M141.3,257c0-1.9,1.6-3.5,3.5-3.5s3.5,1.6,3.5,3.5s-1.6,3.5-3.5,3.5
	C142.8,260.5,141.3,258.9,141.3,257z M127.3,257c0-1.9,1.6-3.5,3.5-3.5s3.5,1.6,3.5,3.5s-1.6,3.5-3.5,3.5
	C128.8,260.5,127.3,258.9,127.3,257z M113.3,257c0-1.9,1.6-3.5,3.5-3.5s3.5,1.6,3.5,3.5s-1.6,3.5-3.5,3.5
	C114.8,260.5,113.3,258.9,113.3,257z M99.3,257c0-1.9,1.6-3.5,3.5-3.5s3.5,1.6,3.5,3.5s-1.6,3.5-3.5,3.5
	C100.8,260.5,99.3,258.9,99.3,257z M85.3,257c0-1.9,1.6-3.5,3.5-3.5s3.5,1.6,3.5,3.5s-1.6,3.5-3.5,3.5
	C86.8,260.5,85.3,258.9,85.3,257z M602.1,406.5c0-1.9,1.6-3.5,3.5-3.5s3.5,1.6,3.5,3.5s-1.6,3.5-3.5,3.5S602.1,408.5,602.1,406.5z
	 M588.1,406.5c0-1.9,1.6-3.5,3.5-3.5s3.5,1.6,3.5,3.5s-1.6,3.5-3.5,3.5S588.1,408.5,588.1,406.5z M574.1,406.5
	c0-1.9,1.6-3.5,3.5-3.5s3.5,1.6,3.5,3.5s-1.6,3.5-3.5,3.5S574.1,408.5,574.1,406.5z M560.1,406.5c0-1.9,1.6-3.5,3.5-3.5
	s3.5,1.6,3.5,3.5s-1.6,3.5-3.5,3.5S560.1,408.5,560.1,406.5z M546.1,406.5c0-1.9,1.6-3.5,3.5-3.5s3.5,1.6,3.5,3.5s-1.6,3.5-3.5,3.5
	S546.1,408.5,546.1,406.5z M532.1,406.5c0-1.9,1.6-3.5,3.5-3.5s3.5,1.6,3.5,3.5s-1.6,3.5-3.5,3.5S532.1,408.5,532.1,406.5z
	 M518.1,406.5c0-1.9,1.6-3.5,3.5-3.5s3.5,1.6,3.5,3.5s-1.6,3.5-3.5,3.5S518.1,408.5,518.1,406.5z M504.1,406.5
	c0-1.9,1.6-3.5,3.5-3.5s3.5,1.6,3.5,3.5s-1.6,3.5-3.5,3.5S504.1,408.5,504.1,406.5z M490.1,406.5c0-1.9,1.6-3.5,3.5-3.5
	s3.5,1.6,3.5,3.5s-1.6,3.5-3.5,3.5S490.1,408.5,490.1,406.5z M476.1,406.5c0-1.9,1.6-3.5,3.5-3.5s3.5,1.6,3.5,3.5s-1.6,3.5-3.5,3.5
	S476.1,408.4,476.1,406.5z M462.1,406.5c0-1.9,1.6-3.5,3.5-3.5s3.5,1.6,3.5,3.5s-1.6,3.5-3.5,3.5S462.1,408.4,462.1,406.5z
	 M448.1,406.5c0-1.9,1.6-3.5,3.5-3.5s3.5,1.6,3.5,3.5s-1.6,3.5-3.5,3.5S448.1,408.4,448.1,406.5z M434.1,406.5
	c0-1.9,1.6-3.5,3.5-3.5s3.5,1.6,3.5,3.5s-1.6,3.5-3.5,3.5S434.1,408.4,434.1,406.5z M420.1,406.5c0-1.9,1.6-3.5,3.5-3.5
	s3.5,1.6,3.5,3.5s-1.6,3.5-3.5,3.5S420.1,408.4,420.1,406.5z M406.1,406.5c0-1.9,1.6-3.5,3.5-3.5s3.5,1.6,3.5,3.5s-1.6,3.5-3.5,3.5
	S406.1,408.4,406.1,406.5z M392.1,406.5c0-1.9,1.6-3.5,3.5-3.5s3.5,1.6,3.5,3.5s-1.6,3.5-3.5,3.5S392.1,408.4,392.1,406.5z
	 M378.1,406.5c0-1.9,1.6-3.5,3.5-3.5s3.5,1.6,3.5,3.5s-1.6,3.5-3.5,3.5S378.1,408.4,378.1,406.5z M364.1,406.5
	c0-1.9,1.6-3.5,3.5-3.5s3.5,1.6,3.5,3.5s-1.6,3.5-3.5,3.5S364.1,408.4,364.1,406.5z M350.1,406.5c0-1.9,1.6-3.5,3.5-3.5
	s3.5,1.6,3.5,3.5s-1.6,3.5-3.5,3.5S350.1,408.4,350.1,406.5z M336.1,406.5c0-1.9,1.6-3.5,3.5-3.5s3.5,1.6,3.5,3.5s-1.6,3.5-3.5,3.5
	S336.1,408.4,336.1,406.5z M322.1,406.5c0-1.9,1.6-3.5,3.5-3.5s3.5,1.6,3.5,3.5s-1.6,3.5-3.5,3.5S322.1,408.5,322.1,406.5z
	 M308.1,406.5c0-1.9,1.6-3.5,3.5-3.5s3.5,1.6,3.5,3.5s-1.6,3.5-3.5,3.5S308.1,408.4,308.1,406.5z M294.1,406.5
	c0-1.9,1.6-3.5,3.5-3.5s3.5,1.6,3.5,3.5s-1.6,3.5-3.5,3.5S294.1,408.4,294.1,406.5z M280.1,406.5c0-1.9,1.6-3.5,3.5-3.5
	s3.5,1.6,3.5,3.5s-1.6,3.5-3.5,3.5S280.1,408.4,280.1,406.5z M266.1,406.5c0-1.9,1.6-3.5,3.5-3.5s3.5,1.6,3.5,3.5s-1.6,3.5-3.5,3.5
	S266.1,408.4,266.1,406.5z M252.1,406.5c0-1.9,1.6-3.5,3.5-3.5s3.5,1.6,3.5,3.5s-1.6,3.5-3.5,3.5S252.1,408.4,252.1,406.5z
	 M238.1,406.5c0-1.9,1.6-3.5,3.5-3.5s3.5,1.6,3.5,3.5s-1.6,3.5-3.5,3.5S238.1,408.4,238.1,406.5z M224.1,406.5
	c0-1.9,1.6-3.5,3.5-3.5s3.5,1.6,3.5,3.5s-1.6,3.5-3.5,3.5S224.1,408.4,224.1,406.5z M210.1,406.5c0-1.9,1.6-3.5,3.5-3.5
	s3.5,1.6,3.5,3.5s-1.6,3.5-3.5,3.5S210.1,408.4,210.1,406.5z M196.1,406.5c0-1.9,1.6-3.5,3.5-3.5s3.5,1.6,3.5,3.5s-1.6,3.5-3.5,3.5
	S196.1,408.4,196.1,406.5z M182.1,406.5c0-1.9,1.6-3.5,3.5-3.5s3.5,1.6,3.5,3.5s-1.6,3.5-3.5,3.5S182.1,408.4,182.1,406.5z
	 M168.1,406.5c0-1.9,1.6-3.5,3.5-3.5s3.5,1.6,3.5,3.5s-1.6,3.5-3.5,3.5S168.1,408.4,168.1,406.5z M154.1,406.5
	c0-1.9,1.6-3.5,3.5-3.5s3.5,1.6,3.5,3.5s-1.6,3.5-3.5,3.5S154.1,408.4,154.1,406.5z M140.1,406.5c0-1.9,1.6-3.5,3.5-3.5
	s3.5,1.6,3.5,3.5s-1.6,3.5-3.5,3.5S140.1,408.4,140.1,406.5z M126.1,406.5c0-1.9,1.6-3.5,3.5-3.5c1.9,0,3.5,1.6,3.5,3.5
	s-1.6,3.5-3.5,3.5S126.1,408.4,126.1,406.5z M112.1,406.5c0-1.9,1.6-3.5,3.5-3.5s3.5,1.6,3.5,3.5s-1.6,3.5-3.5,3.5
	S112.1,408.4,112.1,406.5z M98.1,406.5c0-1.9,1.6-3.5,3.5-3.5s3.5,1.6,3.5,3.5s-1.6,3.5-3.5,3.5S98.1,408.4,98.1,406.5z M84.1,406.5
	c0-1.9,1.6-3.5,3.5-3.5s3.5,1.6,3.5,3.5s-1.6,3.5-3.5,3.5S84.1,408.4,84.1,406.5z M70.1,406.5c0-1.9,1.6-3.5,3.5-3.5
	s3.5,1.6,3.5,3.5s-1.6,3.5-3.5,3.5S70.1,408.4,70.1,406.5z M56.1,406.5c0-1.9,1.6-3.5,3.5-3.5s3.5,1.6,3.5,3.5s-1.6,3.5-3.5,3.5
	S56.1,408.4,56.1,406.5z M42.1,406.5c0-1.9,1.6-3.5,3.5-3.5s3.5,1.6,3.5,3.5s-1.6,3.5-3.5,3.5S42.1,408.4,42.1,406.5z M28.1,406.5
	c0-1.9,1.6-3.5,3.5-3.5c1.9,0,3.5,1.6,3.5,3.5s-1.6,3.5-3.5,3.5S28.1,408.4,28.1,406.5z M14.1,406.5c0-1.9,1.6-3.5,3.5-3.5
	s3.5,1.6,3.5,3.5s-1.6,3.5-3.5,3.5S14.1,408.4,14.1,406.5z M0.1,406.5c0-1.9,1.6-3.5,3.5-3.5s3.5,1.6,3.5,3.5S5.5,410,3.6,410
	S0.1,408.4,0.1,406.5z"/>
<path class="st4" d="M251.9,438h111v32.6h-111V438z"/>
<path class="st0" d="M133.4,461.8V228c0-9.4,7.6-17,17-17h318c9.4,0,17,7.6,17,17v233.8"/>
<path class="st6" d="M480,448V228c0-6.3-5.2-11.5-11.5-11.5h-318c-6.3,0-11.5,5.2-11.5,11.5v220H480z"/>
<path class="st1" d="M486,461.8h-1V228c0-9.1-7.4-16.5-16.5-16.5h-318c-9.1,0-16.5,7.4-16.5,16.5v233.8h-1V228
	c0.1-9.6,7.9-17.4,17.5-17.5h318c9.6,0.1,17.4,7.9,17.5,17.5V461.8z"/>
<path class="st4" d="M180.4,258h258v147.5h-258V258z"/>
<path class="st3" d="M180.4,258.2h258v24.3h-258V258.2z"/>
<path class="st1" d="M437.4,259v145.5h-256V259H437.4 M439.4,257h-260v149.5h260V257z"/>
<path class="st4" d="M18.5,271.5H7.6l-1.3,4.4h-6l9.2-28h7.4l9.3,28h-6.3C19.9,275.9,18.5,271.5,18.5,271.5z M9.1,266.5H17
	l-3.9-12.6H13L9.1,266.5z M49.1,265.5c0,6.2-3.8,10.8-9.3,10.8c-2,0.1-3.8-0.7-5.2-2.2v1.8h-5.4v-28h5.4v8.9
	c1.4-1.5,3.3-2.3,5.3-2.2c5.5,0,9.2,4.6,9.2,10.8V265.5L49.1,265.5z M34.5,267.4c0,2.2,1.7,3.9,4.3,3.9c3.1,0,4.8-2.4,4.8-5.8v-0.2
	c0-3.3-1.7-5.8-4.8-5.8c-2.6,0-4.3,1.7-4.3,3.9V267.4z M52,265.4c0-6.2,4.2-10.8,10.1-10.8c4.3,0,7.7,2.1,9.1,5.4l-4.8,2.4
	c-0.6-1.8-2.3-2.9-4.2-2.8c-3.3,0-4.7,3-4.7,5.8v0.2c0,2.7,1.4,5.7,4.7,5.7c1.9,0.1,3.5-1.1,4.2-2.8l4.8,2.4
	c-1.4,3.3-4.9,5.4-9.2,5.4c-5.9,0-10-4.6-10-10.8L52,265.4L52,265.4z M7.2,296.3H2.5l-0.8,2.6H0.3l3.6-11.5h2l3.6,11.5H8L7.2,296.3z
	 M2.9,295.1h3.9l-1.9-6.5H4.8L2.9,295.1z M12.8,298.9h-1.4v-11.5h1.4v4.3c0.6-0.7,1.5-1.2,2.4-1.1c2.1,0,3.5,1.8,3.5,4.3
	s-1.4,4.3-3.5,4.3c-0.9,0-1.8-0.4-2.4-1.1L12.8,298.9L12.8,298.9z M17.3,294.7c0-1.7-0.8-3-2.3-3c-1.2,0-2.2,0.9-2.2,2.1v1.6
	c-0.1,1.2,0.7,2.2,1.9,2.4H15c1.5,0,2.3-1.3,2.3-3V294.7z M21.8,294.8c0,1.6,0.8,3,2.4,3c0.9,0,1.8-0.5,2.1-1.4l1.1,0.6
	c-0.6,1.2-1.9,2-3.2,1.9c-2.3,0-3.8-1.8-3.8-4.3s1.5-4.3,3.8-4.3c1.4,0,2.6,0.7,3.2,1.9l-1.1,0.6c-0.4-0.8-1.2-1.4-2.1-1.4
	c-1.6,0-2.4,1.4-2.4,3V294.8L21.8,294.8z"/>
<path class="st2" d="M196.7,299.5h81.7v9h-81.7V299.5z M196.7,317.5h170.7v9H196.7V317.5z M196.7,335.5h170.7v9H196.7V335.5z
	 M196.7,353.5h112.9v9H196.7V353.5z"/>
<path class="st7" d="M196.7,374.8h95.7v15h-95.7V374.8z"/>
<path class="st1" d="M0,374.8h15v15H0V374.8z"/>
<path class="st8" d="M24.2,374.8h15v15h-15V374.8z"/>
<path class="st9" d="M0,347.6h15v15H0V347.6z"/>
<path class="st2" d="M48.5,374.8h15v15h-15V374.8z"/>
<path class="st10" d="M73.4,347.6h15v15h-15V347.6z"/>
<path class="st5" d="M24.2,347.6h15v15h-15V347.6z"/>
<path class="st7" d="M48.5,347.6h15v15h-15V347.6z"/>
<path class="st4" d="M73.4,374.8h15v15h-15V374.8z"/>
<path class="st8" d="M270.3,452.1h78.6v13.6h-78.6V452.1z"/>
<path class="st2" d="M341.5,460.5h-64.1c-3.8,0-7-4.1-7.3-8H81.4v21l52,6h352l52-6v-21H348.8C348.5,456.6,345.4,460.5,341.5,460.5z"
	/>
<path class="st8" d="M81.4,473.5l52,6h352l52-6H81.4z"/>
<path class="st11" d="M537.4,452.5H348.8c-0.2,4.1-3.3,8-7.3,8h-64.1c-3.8,0-7-4.1-7.3-8H81.4"/>
<path class="st0" d="M81.4,479.5h456v3h-456L81.4,479.5z"/>
<path class="st1" d="M196.7,389.8h95.7v2h-95.7V389.8z"/>
<path class="st2" d="M284.2,148.3h25.5v9h-25.5V148.3z M284.2,92.6h25.5v9h-25.5V92.6z"/>
<circle class="st4" cx="248.4" cy="152.8" r="20"/>
<path class="st1" d="M248.4,136.8c8.8,0,16,7.2,16,16s-7.2,16-16,16s-16-7.2-16-16S239.6,136.8,248.4,136.8 M248.4,132.8
	c-11,0-20,9-20,20s9,20,20,20s20-9,20-20S259.4,132.8,248.4,132.8z"/>
<path class="st5" d="M248.4,132.8c11,0,20,9,20,20s-9,20-20,20s-20-9-20-20S237.4,132.8,248.4,132.8 M248.4,128.8
	c-13.3,0-24,10.7-24,24s10.7,24,24,24c13.3,0,24-10.7,24-24C272.4,139.6,261.7,128.8,248.4,128.8z"/>
<circle class="st1" cx="248.4" cy="152.8" r="10"/>
<path class="st4" d="M229.4,79h36v36h-36V79z"/>
<path class="st1" d="M263.4,81v32h-32V81H263.4 M267.4,77h-40v40h40V77z"/>
<path class="st1" d="M259.8,90.7l-3.5-3.5l-12.7,12.7l-5-5l-3.5,3.6l8.5,8.5L259.8,90.7"/>
<path class="st5" d="M267.4,77v40h-40V77H267.4 M270.4,74h-46v46h46V74z"/>
<path class="st4" d="M198.6,273.4c0.8,1,2,1.5,3.3,1.5c1.4,0,2.6-0.7,2.6-2.1c0-0.7-0.4-1.4-1.1-1.6c-1.1-0.5-3-0.6-4.2-1.3
	c-0.9-0.5-1.4-1.4-1.4-2.4c0-1.8,1.5-3.2,3.9-3.2c1.4,0,2.8,0.5,3.8,1.6l-1,0.8c-0.7-0.8-1.7-1.2-2.8-1.2c-1.4,0-2.5,0.7-2.5,1.9
	c0,1.9,2.7,1.7,4.7,2.5c1.2,0.4,2,1.5,1.9,2.7c0,2.3-2.1,3.4-4.2,3.4c-1.6,0-3.1-0.6-4.2-1.8L198.6,273.4z M209,272.3
	c0,1.4,1.1,2.6,2.5,2.7h0.1c0.8,0,1.6-0.3,2.2-0.8l0.7,1c-0.8,0.7-1.9,1-2.9,1c-2.4,0-3.9-1.8-3.9-4.3s1.5-4.3,3.7-4.3
	s3.5,1.8,3.5,4.3v0.4L209,272.3L209,272.3z M209,271.2h4.4c0-1.3-0.8-2.4-2.1-2.4S209,269.9,209,271.2L209,271.2z M221.1,269h-0.2
	c-1.4,0-2.6,0.6-2.6,2.8v4.2H217v-8.2h1.4v1.3c0.5-0.9,1.4-1.5,2.5-1.5h0.4v1.4L221.1,269z M224.6,276l-2.6-8.2h1.5l2,7l2-7h1.5
	l-2.6,8.2H224.6L224.6,276z M231.5,264.5c0.6,0,1,0.4,1,1s-0.4,1-1,1s-1-0.4-1-1S231,264.5,231.5,264.5z M232.2,276h-1.4v-8.2h1.4
	V276z M235.7,271.9c0,1.6,0.8,3,2.4,3c0.9,0,1.8-0.6,2.1-1.4l1.1,0.6c-0.6,1.2-1.9,2-3.2,1.9c-2.3,0-3.8-1.8-3.8-4.3
	s1.5-4.3,3.8-4.3c1.4,0,2.6,0.7,3.2,1.9l-1.1,0.6c-0.4-0.8-1.2-1.4-2.1-1.4c-1.6,0-2.4,1.4-2.4,3V271.9L235.7,271.9z M244.2,272.3
	c0,1.4,1.1,2.6,2.5,2.7h0.1c0.8,0,1.6-0.3,2.2-0.8l0.7,1c-0.8,0.7-1.9,1-2.9,1c-2.4,0-3.9-1.8-3.9-4.3s1.5-4.3,3.8-4.3
	s3.5,1.8,3.5,4.3v0.4L244.2,272.3L244.2,272.3z M244.2,271.2h4.4c0-1.3-0.8-2.4-2.1-2.4C245.2,268.9,244.2,269.9,244.2,271.2
	L244.2,271.2z"/>
</svg>
