<?xml version="1.0" encoding="utf-8"?>
<!-- Generator: Adobe Illustrator 27.6.1, SVG Export Plug-In . SVG Version: 6.00 Build 0)  -->
<svg version="1.1" id="Layer_1" xmlns="http://www.w3.org/2000/svg" xmlns:xlink="http://www.w3.org/1999/xlink" x="0px" y="0px"
	 viewBox="0 0 328 151" style="enable-background:new 0 0 328 151;" xml:space="preserve">
<style type="text/css">
	.st0{fill-rule:evenodd;clip-rule:evenodd;fill:#003078;}
	.st1{fill:#0C4A92;}
	.st2{fill:#003078;fill-opacity:0.4;}
	.st3{fill:#1F70B8;}
	.st4{fill:#1F70B8;fill-opacity:0.6;}
	.st5{fill:#003078;fill-opacity:0.9;}
</style>
<path class="st0" d="M31.2,88.8C31.2,88.8,31.2,88.8,31.2,88.8C31.2,88.8,31.2,88.8,31.2,88.8c14.4,0,26.4-10.7,28.3-24.6v-3.1H3
	v3.6C5.1,78.4,16.9,88.8,31.2,88.8z"/>
<g>
	<path class="st1" d="M178.2,120.3h-57.1c0.5,15.4,13.1,27.7,28.5,27.7C165.2,147.9,177.8,135.6,178.2,120.3z"/>
	<path class="st1" d="M121,118.3h57.1V61.5H121V87c0.1,0.9,0.1,1.8,0.1,2.7c0,0.9,0,1.9-0.1,2.8V118.3z"/>
	<path class="st1" d="M178.5,129.6c-3.1,8.7-10,15.6-18.7,18.6h18.7V129.6z"/>
	<path class="st1" d="M121,129.9v16.2c0.1,0.7,0.1,1.4,0.1,2.2h18.5C131,145.2,124.1,138.5,121,129.9z"/>
</g>
<g>
	<path class="st1" d="M266.9,118.3v-17.7c-3.1,8.1-9.6,14.6-17.7,17.7H266.9z"/>
	<path class="st1" d="M266.9,89.7c0-15.7-12.8-28.5-28.6-28.5c-15.8,0-28.6,12.8-28.6,28.6s12.8,28.6,28.6,28.6
		C254,118.3,266.8,105.5,266.9,89.7L266.9,89.7z"/>
	<path class="st1" d="M268.9,118.3H326V61.1h-57.1v28.5c0,0,0,0,0,0s0,0,0,0V118.3z"/>
	<path class="st1" d="M266.9,61.1h-17.7c8.1,3.1,14.6,9.6,17.7,17.7V61.1z"/>
	<path class="st1" d="M227.4,118.3c-9.1-3.5-16.2-11.2-18.7-20.8c-2.5,9.6-9.6,17.3-18.7,20.8H227.4z"/>
	<path class="st1" d="M208.7,81.9c2.5-9.6,9.6-17.3,18.7-20.8H190C199.1,64.6,206.2,72.4,208.7,81.9z"/>
</g>
<path class="st2" d="M90.5,59.1C90.5,59.1,90.5,59.1,90.5,59.1C90.6,59.1,90.6,59.1,90.5,59.1h28.4h0.1V2H61.5v57.1h0.3v0H90.5z"/>
<g>
	<path class="st1" d="M59.5,148.2V131c-3.3,8.1-10,14.4-18.3,17.3H59.5z"/>
	<path class="st1" d="M59.5,71.8c-3.6,8.8-11.2,15.6-20.5,18c9.3,2.4,16.9,9.2,20.5,18V71.8z"/>
	<path class="st1" d="M3,131.2v17.1h18.2C13,145.4,6.3,139.1,3,131.2z"/>
	<path class="st1" d="M3,72v35.6c3.6-8.7,11.2-15.4,20.4-17.8C14.2,87.4,6.6,80.7,3,72z"/>
</g>
<g>
	<path class="st1" d="M118.9,78.4V61.1h-17.5C109.4,64.2,115.7,70.4,118.9,78.4z"/>
	<path class="st1" d="M90.5,61.1C74.8,61.2,62,74,62,89.7c0,15.8,12.8,28.6,28.6,28.6c14.6,0,26.7-11.1,28.4-25.3v-6.5
		C117.3,72.2,105.2,61.2,90.5,61.1L90.5,61.1z"/>
	<path class="st1" d="M61.8,60.9c0,1.1-0.1,2.2-0.3,3.3v16c2.9-8.8,9.6-15.8,18.2-19.1H62L61.8,60.9z"/>
	<path class="st1" d="M119,120.3L119,120.3l-0.1-19.2c-3.6,8.9-11.2,15.7-20.6,18.2c9.5,2.5,17.1,9.4,20.7,18.4V120.3z"/>
	<path class="st1" d="M119,146.3c-1.3-14.6-13.5-26-28.4-26c-15.5,0-28.1,12.3-28.5,27.7h57V146.3z"/>
	<path class="st1" d="M61.5,115.2v8.3v15.9c3.2-9.8,11.2-17.5,21.3-20.1c-10-2.6-18.1-10.3-21.3-20.1V115.2z"/>
</g>
<rect x="3" y="2" class="st3" width="56.5" height="57.1"/>
<path class="st0" d="M178.2,120.3h-57.1c0.5,15.4,13.1,27.7,28.5,27.7C165.2,147.9,177.8,135.6,178.2,120.3z"/>
<path class="st4" d="M90.6,61.1L90.6,61.1C74.8,61.2,62,74,62,89.7c0,15.8,12.8,28.6,28.6,28.6c14.6,0,26.7-11.1,28.4-25.3v-6.5
	C117.3,72.2,105.2,61.2,90.6,61.1z"/>
<path class="st0" d="M119,146.3c-1.3-14.6-13.5-26-28.4-26c-15.5,0-28.1,12.3-28.5,27.7h57V146.3z"/>
<path class="st5" d="M268.9,118.3H326V61.1h-57.1v28.5c0,0,0,0,0,0s0,0,0,0V118.3z"/>
<path class="st4" d="M209.7,89.7c0,15.8,12.8,28.6,28.6,28.6c15.7,0,28.5-12.8,28.6-28.5v-0.1c0-15.7-12.8-28.5-28.6-28.5
	C222.5,61.1,209.7,74,209.7,89.7z"/>
<path class="st3" d="M121,118.3h57.1V61.5H121V87c0.1,0.9,0.1,1.8,0.1,2.7c0,0.9,0,1.9-0.1,2.8V118.3z"/>
<g id="Layer_2">
</g>
</svg>
