<?xml version="1.0" encoding="utf-8"?>
<!-- Generator: Adobe Illustrator 27.6.1, SVG Export Plug-In . SVG Version: 6.00 Build 0)  -->
<svg version="1.1" id="Layer_4" xmlns="http://www.w3.org/2000/svg" xmlns:xlink="http://www.w3.org/1999/xlink" x="0px" y="0px"
	 viewBox="0 0 265 265" style="enable-background:new 0 0 265 265;" xml:space="preserve">
<style type="text/css">
	.st0{fill:#0C4A92;}
	.st1{fill:#1F70B8;}
	.st2{fill:#003078;fill-opacity:0.9;}
	.st3{fill:#1F70B8;fill-opacity:0.9;}
	.st4{fill-rule:evenodd;clip-rule:evenodd;fill:#003078;}
	.st5{fill:#CFD5DF;}
	.st6{fill:#003078;}
	.st7{fill:none;}
	.st8{fill-rule:evenodd;clip-rule:evenodd;fill:#1F70B8;}
	.st9{fill:#074088;}
	.st10{fill:#D2D9E3;}
	.st11{fill:#003078;fill-opacity:0.4;}
	.st12{fill:#1F70B8;fill-opacity:0.6;}
	.st13{fill-rule:evenodd;clip-rule:evenodd;fill:#01337B;}
</style>
<g>
	<path class="st0" d="M89.4,88.5c0,15.5,12.6,28.1,28.2,28.1c15.5,0,28.2-12.6,28.2-28.2c0-15.5-12.6-28.2-28.2-28.2
		C102.1,60.3,89.4,73,89.4,88.5L89.4,88.5z"/>
	<path class="st0" d="M89.4,60.3v17.4c3.1-8,9.4-14.3,17.4-17.4H89.4z"/>
	<path class="st0" d="M145.7,117.7V99.3c-3.5,9-11.1,15.9-20.5,18.4c9.4,2.5,17,9.4,20.5,18.4v-17.4v-0.9c0,0,0,0,0,0
		C145.7,117.7,145.7,117.7,145.7,117.7L145.7,117.7z"/>
	<path class="st0" d="M117.6,118.7c-15.3,0-27.7,12.1-28.1,27.3h56.3C145.2,130.8,132.8,118.7,117.6,118.7z"/>
	<path class="st0" d="M89.4,136c3.4-9,11.1-15.9,20.5-18.4c-9.4-2.5-17-9.4-20.5-18.4V136z"/>
	<path class="st0" d="M145.7,77.7V60.3h-17.4C136.3,63.4,142.7,69.8,145.7,77.7z"/>
</g>
<rect x="89.6" y="147.9" class="st1" width="56.1" height="56.3"/>
<g>
	<path class="st2" d="M118.7,2v17.4c3.1-8,9.4-14.3,17.4-17.4H118.7z"/>
	<path class="st2" d="M145.7,58.3V2c-15,0.6-27.1,13-27.1,28.1C118.7,45.3,130.7,57.7,145.7,58.3z"/>
	<path class="st2" d="M118.7,58.3h17.4c-8-3.1-14.3-9.4-17.4-17.4V58.3z"/>
	<rect x="88.4" y="2" class="st2" width="28.3" height="56.3"/>
</g>
<path class="st3" d="M117.6,116.7c15.5,0,28.2-12.6,28.2-28.2c0-15.5-12.6-28.2-28.2-28.2c-15.5,0-28.1,12.6-28.2,28.1v0.1
	C89.4,104.1,102.1,116.7,117.6,116.7z"/>
<path class="st4" d="M145.7,145.9c-0.5-15.1-12.9-27.3-28.1-27.3c-15.3,0-27.7,12.1-28.1,27.3H145.7z"/>
<g>
	<path class="st0" d="M204.3,2C189.1,2.5,177,14.9,177,30.2c0,0,0,0,0,0c0,0,0,0,0,0c0,15.2,12.1,27.7,27.3,28.1V2z"/>
	<path class="st0" d="M176,37.9c-2.5,9.4-9.4,17-18.4,20.5h36.8C185.4,54.9,178.5,47.3,176,37.9z"/>
	<path class="st0" d="M147.7,58.3c15.1-0.5,27.3-12.9,27.3-28.1c0,0,0,0,0,0c0,0,0,0,0,0c0-15.2-12.2-27.7-27.3-28.1V58.3z"/>
	<path class="st0" d="M176,22.5c2.5-9.4,9.4-17,18.4-20.5h-36.8C166.6,5.4,173.5,13.1,176,22.5z"/>
</g>
<polygon class="st2" points="87.4,58.3 88.4,58.3 88.4,2 60.3,2 60.3,58.3 87.4,58.3 "/>
<path class="st5" d="M146.7,146.9v1h1l0-1L146.7,146.9z M88.4,146.9l-1,0l0,1h1V146.9z M145.7,146.8
	C145.7,146.9,145.7,146.9,145.7,146.8l2,0.1c0,0,0-0.1,0-0.1H145.7z M89.4,146.9C89.4,146.9,89.4,146.9,89.4,146.9l-2-0.1
	c0,0,0,0.1,0,0.1L89.4,146.9z"/>
<rect x="206.3" y="2" class="st6" width="56.3" height="56.3"/>
<circle class="st7" cx="146.8" cy="30.2" r="29.2"/>
<path class="st8" d="M204.3,58.3V2C189.1,2.5,177,14.9,177,30.2c0,0,0,0,0,0c0,0,0,0,0,0C177,45.4,189.1,57.8,204.3,58.3z"/>
<g>
	<path class="st0" d="M262.6,157.6c-3.4,9-11.1,15.9-20.5,18.4c9.4,2.5,17,9.4,20.5,18.4V157.6z"/>
	<path class="st0" d="M234.5,118.7c-15.5,0-28.2,12.6-28.2,28.2c0,15.5,12.6,28.2,28.2,28.2c0,0,0,0,0,0c0,0,0,0,0,0
		c15.5,0,28.2-12.6,28.2-28.2C262.6,131.3,250,118.7,234.5,118.7z"/>
	<path class="st0" d="M234.5,177C234.5,177,234.5,177,234.5,177C234.4,177,234.4,177,234.5,177c-15.3,0-27.7,12.1-28.2,27.3h56.3
		C262.1,189.1,249.7,177,234.5,177z"/>
	<path class="st0" d="M206.3,157.6v36.8c3.4-9,11-15.9,20.5-18.4C217.3,173.5,209.7,166.6,206.3,157.6z"/>
	<rect x="206.3" y="60.3" class="st0" width="56.3" height="56.3"/>
	<path class="st0" d="M262.6,118.7h-17.4c8,3.1,14.3,9.4,17.4,17.4V118.7z"/>
	<path class="st0" d="M223.7,118.7h-17.4v17.4C209.3,128.1,215.7,121.7,223.7,118.7z"/>
</g>
<rect x="206.3" y="206.3" class="st1" width="56.3" height="56.3"/>
<rect x="206.3" y="60.3" class="st9" width="56.3" height="56.3"/>
<path class="st10" d="M234.5,118.7c-15.5,0-28.2,12.6-28.2,28.2c0,15.5,12.6,28.2,28.2,28.2c0,0,0,0,0,0c0,0,0,0,0,0
	c15.5,0,28.2-12.6,28.2-28.2C262.6,131.3,250,118.7,234.5,118.7z"/>
<path class="st4" d="M262.6,204.3c-0.5-15.1-12.9-27.3-28.1-27.3c0,0,0,0,0,0c0,0,0,0,0,0c-15.2,0-27.7,12.1-28.1,27.3H262.6z"/>
<g>
	<path class="st0" d="M147.9,187.4v16.9h17.2C157.3,201.3,151.1,195.1,147.9,187.4z"/>
	<path class="st0" d="M204.1,204.3v-17.4c-3.1,8-9.4,14.3-17.4,17.4H204.1z"/>
	<path class="st0" d="M175.9,147.9C175.9,147.9,175.9,147.9,175.9,147.9C175.9,147.9,175.9,147.9,175.9,147.9
		c-14.4,0-26.4,10.9-28,24.9v6.5c1.6,14,13.5,24.9,28,24.9c15.5,0,28.2-12.6,28.2-28.2C204.1,160.6,191.5,148,175.9,147.9z"/>
	<path class="st0" d="M147.7,145.9h0.2v18.9c3.5-8.7,11-15.4,20.3-17.9c-9.4-2.5-17-9.4-20.5-18.4V145.9z"/>
	<path class="st0" d="M175.9,145.9C175.9,145.9,175.9,145.9,175.9,145.9C175.9,145.9,175.9,145.9,175.9,145.9
		c15.3,0,27.7-12.1,28.2-27.3h-56.3C148.2,133.8,160.7,145.9,175.9,145.9z"/>
	<path class="st0" d="M204.1,128.6c-3.4,9-11,15.9-20.5,18.4c9.4,2.5,17,9.4,20.5,18.4V128.6z"/>
</g>
<rect x="147.7" y="206.3" class="st11" width="56.3" height="56.3"/>
<path class="st12" d="M175.9,147.9C175.9,147.9,175.9,147.9,175.9,147.9C175.9,147.9,175.9,147.9,175.9,147.9
	c-14.4,0-26.4,10.9-28,24.9v6.5c1.6,14,13.5,24.9,28,24.9c15.5,0,28.2-12.6,28.2-28.2C204.1,160.6,191.5,148,175.9,147.9z"/>
<path class="st4" d="M147.8,118.7c0.5,15.1,12.9,27.3,28.1,27.3c0,0,0,0,0,0s0,0,0,0c15.2,0,27.7-12.1,28.1-27.3H147.8z"/>
<path class="st12" d="M30.2,147.9C14.6,147.9,2,160.6,2,176.1c0,15.5,12.6,28.2,28.2,28.2c15.5,0,28.2-12.6,28.2-28.2
	C58.3,160.6,45.7,147.9,30.2,147.9z"/>
<path class="st13" d="M87.4,204.3V148c-15,0.6-27.1,13-27.1,28.1S72.4,203.7,87.4,204.3z"/>
</svg>
