<?xml version="1.0" encoding="utf-8"?>
<!-- Generator: Adobe Illustrator 27.6.1, SVG Export Plug-In . SVG Version: 6.00 Build 0)  -->
<svg version="1.1" id="Layer_1" xmlns="http://www.w3.org/2000/svg" xmlns:xlink="http://www.w3.org/1999/xlink" x="0px" y="0px"
	 viewBox="0 0 66 66" style="enable-background:new 0 0 66 66;" xml:space="preserve">
<style type="text/css">
	.st0{fill:#003078;}
	.st1{fill:#1F70B8;}
	.st2{fill:#D2D9E3;fill-opacity:0.4;}
</style>
<g>
	<polygon class="st0" points="10,23.5 23.5,10 10,10 	"/>
	<polygon class="st0" points="56,10 42.5,10 56,23.5 	"/>
	<polygon class="st0" points="41.1,10 24.9,10 17.9,17 48.1,17 	"/>
	<polygon class="st0" points="10,41.1 17,48.1 17,17.9 10,24.9 	"/>
	<rect x="18" y="18" class="st0" width="30" height="30"/>
	<polygon class="st0" points="56,24.9 49,17.9 49,48.1 56,41.1 	"/>
	<polygon class="st0" points="10,56 23.5,56 10,42.5 	"/>
	<polygon class="st0" points="56,42.5 42.5,56 56,56 	"/>
	<polygon class="st0" points="41.1,56 48.1,49 17.9,49 24.9,56 	"/>
</g>
<g>
	<polygon class="st1" points="40.1,57 25.9,57 33,64.1 	"/>
	<polygon class="st1" points="48.1,49 17.9,49 24.9,56 41.1,56 	"/>
	<polygon class="st1" points="56,41.1 56,24.9 49,17.9 49,48.1 	"/>
	<polygon class="st1" points="64.1,33 57,25.9 57,40.1 	"/>
	<rect x="18" y="18" class="st1" width="30" height="30"/>
	<polygon class="st1" points="17.9,17 48.1,17 41.1,10 24.9,10 	"/>
	<polygon class="st1" points="17,48.1 17,17.9 10,24.9 10,41.1 	"/>
	<polygon class="st1" points="9,25.9 1.9,33 9,40.1 	"/>
	<polygon class="st1" points="25.9,9 40.1,9 33,1.9 	"/>
</g>
<rect x="18" y="18" class="st2" width="30" height="30"/>
</svg>
