<?xml version="1.0" encoding="utf-8"?>
<!-- Generator: Adobe Illustrator 27.6.1, SVG Export Plug-In . SVG Version: 6.00 Build 0)  -->
<svg version="1.1" xmlns="http://www.w3.org/2000/svg" xmlns:xlink="http://www.w3.org/1999/xlink" x="0px" y="0px"
	 viewBox="0 0 811 225" style="enable-background:new 0 0 811 225;" xml:space="preserve">
<style type="text/css">
	.st0{fill:#1F70B8;fill-opacity:0.9;}
	.st1{fill:#003078;}
	.st2{fill:#1F70B8;}
	.st3{fill:#003078;fill-opacity:0.6;}
	.st4{display:none;}
	.st5{display:inline;fill:#FFFFFF;}
</style>
<g id="Layer_2">
	<g>
		<g>
			<rect x="215" y="183.9" class="st0" width="52" height="37.6"/>
			<polygon class="st0" points="56.6,183.9 56.6,221.5 213,221.5 213,183.9 123.5,183.9 123.5,183.9 			"/>
			<rect x="2" y="183.9" class="st0" width="52.6" height="37.6"/>
		</g>
		<g>
			<path class="st1" d="M127.1,179.9c10.6-5.7,21.1-12.2,31.1-19.3c10-7.2,18.9-15.2,26.6-23.8c7.7-8.7,13.9-18.2,18.5-28.3
				c4.7-10.1,7-21.2,7-32.8c0-10.6-2-20.5-5.8-29.3c-3.8-8.9-9.2-16.7-16.1-23C181.4,17,172.9,12,163.1,8.5
				c-7.3-2.7-15.2-4.4-23.7-5h-17.7c-8.1,0.6-15.7,2.2-22.8,4.6c-9.5,3.2-17.9,8-25,14.2c-7,6.1-12.7,13.9-16.7,23
				c-4,8.8-6.1,19-6.3,30.4l43,3.9c0.1-5,0.8-9.8,2.2-14.1c1.4-4.8,3.7-9,6.7-12.5c3-3.5,6.9-6.3,11.4-8.3c4.5-2,9.9-3,16-3
				c5.9,0,11.1,1,15.4,3c4.4,2,8.1,4.6,10.9,7.8c2.9,3.2,5.1,6.9,6.6,11.1c1.4,4.1,2.2,8.4,2.2,12.6c0,7.4-1.6,14.7-4.8,21.6
				c-3.2,6.8-7.5,13.6-12.9,20.1c-5.3,6.4-11.6,12.7-18.8,18.6c-7.2,6-14.9,11.8-22.9,17.3c-8,5.4-16.3,10.8-24.9,15.8
				c-7.1,4.2-14.1,8.3-21,12.1h63.2L127.1,179.9z"/>
			<path class="st1" d="M104.9,152.4c8-5.5,15.7-11.3,22.8-17.2c7.1-5.9,13.3-12.1,18.5-18.4c5.3-6.4,9.5-13,12.6-19.6
				c3.1-6.7,4.6-13.7,4.6-20.8c0-4-0.7-8-2.1-12c-1.4-3.9-3.4-7.4-6.2-10.4c-2.6-3-6.1-5.5-10.3-7.3c-4.1-1.9-9-2.8-14.6-2.8
				c-5.8,0-10.9,0.9-15.2,2.8c-4.3,1.9-7.9,4.5-10.7,7.8c-2.8,3.3-5,7.3-6.3,11.8c-1.4,4.4-2.1,9.3-2.1,14.6v1.1l-47-4.3l0-0.9
				c0.1-12,2.3-22.8,6.4-32.1c4.2-9.4,10-17.4,17.2-23.7c7.2-6.4,15.9-11.3,25.6-14.6c3.2-1.1,6.4-2,9.8-2.7H2v178.4h53.9
				c7.9-4.3,16-8.9,24.2-13.8C88.6,163.1,97,157.8,104.9,152.4z"/>
			<path class="st1" d="M267,3.5H152.9c3.8,0.8,7.4,1.9,10.9,3.2c10.1,3.6,18.8,8.7,25.9,15.2c7.1,6.5,12.7,14.5,16.6,23.7
				c4,9.1,6,19.2,6,30.1c0,11.9-2.4,23.2-7.2,33.6c-4.7,10.2-11,19.9-18.8,28.8c-7.8,8.7-16.9,16.8-27,24.1
				c-10.1,7.2-20.6,13.7-31.3,19.5l-0.4,0.2H267V3.5z"/>
		</g>
		<g>
			<polygon class="st2" points="534,77.5 534,3.5 465.8,3.5 465.8,131.6 498,131.6 498,173.8 465.8,173.8 465.8,221.5 534,221.5 			
				"/>
			<polygon class="st2" points="463.8,221.5 463.8,171.8 496,171.8 496,133.6 463.8,133.6 463.8,3.5 421,3.5 421,43.4 421,43.4 
				421,133.6 421,133.6 421,171.8 421,171.8 421,221.5 			"/>
		</g>
		<g>
			<polygon class="st3" points="419,49.1 353.5,131.6 419,131.6 			"/>
			<polygon class="st3" points="419,3.5 408.2,3.5 311,125.7 311,171.8 419,171.8 419,133.6 349.3,133.6 419,45.9 			"/>
			<polygon class="st3" points="309.2,124.8 405.7,3.5 269,3.5 269,181.9 269,183.9 269,221.5 419,221.5 419,173.8 309,173.8 
				309,125 			"/>
		</g>
		<g>
			<polygon class="st2" points="807,77.5 807,3.5 536,3.5 536,77.5 691.2,77.5 629.5,16.1 717,16.1 717.3,16.4 778.7,77.5 			"/>
			<polygon class="st2" points="634.4,18.1 694.1,77.5 775.8,77.5 716.1,18.1 			"/>
		</g>
		<g>
			<polygon class="st1" points="807,108.5 777.8,79.5 536.1,79.5 536.1,138.6 696,138.6 634.4,200.3 716.1,200.3 807,109.5 			"/>
			<polygon class="st1" points="807,79.5 780.7,79.5 807,105.7 			"/>
			<polygon class="st1" points="691.2,140.6 536,140.6 536,221.5 807,221.5 807,112.3 717,202.3 629.5,202.3 			"/>
		</g>
	</g>
</g>
<g id="Layer_1" class="st4">
	<path class="st5" d="M810.3,389.5l-1.3-1.3V358v-76H536h-2h-68.2H421h-13.7H269h-2H139.6c-2.9-0.2-5.9-0.4-9-0.4
		c-3,0-6,0.1-8.9,0.4H0v180.4v2V504h54.6H215h52h2h150h2h44.8H534h2h273V390.8L810.3,389.5z M121.7,284h17.7
		c8.5,0.7,16.4,2.4,23.7,5c9.8,3.5,18.3,8.5,25.3,14.8c6.9,6.3,12.3,14.1,16.1,23c3.9,8.8,5.8,18.7,5.8,29.3c0,11.6-2.4,22.7-7,32.8
		c-4.6,10.1-10.8,19.6-18.5,28.3c-7.7,8.6-16.7,16.6-26.6,23.8c-10,7.1-20.5,13.6-31.1,19.3l-3.9,2H60.1c6.9-3.8,14-7.9,21-12.1
		c8.6-5,16.9-10.4,24.9-15.8c8.1-5.5,15.8-11.4,22.9-17.3c7.2-6,13.5-12.2,18.8-18.6c5.4-6.5,9.7-13.3,12.9-20.1
		c3.2-7,4.8-14.3,4.8-21.6c0-4.2-0.7-8.5-2.2-12.6c-1.5-4.2-3.7-7.9-6.6-11.1c-2.8-3.2-6.5-5.9-10.9-7.8c-4.4-2-9.5-3-15.4-3
		c-6.1,0-11.4,1-16,3c-4.6,2-8.4,4.8-11.4,8.3c-3,3.5-5.3,7.7-6.7,12.5c-1.3,4.3-2.1,9-2.2,14.1l-43-3.9c0.2-11.4,2.3-21.6,6.3-30.4
		c4.1-9.1,9.7-16.9,16.7-23c7-6.2,15.4-11,25-14.2C106,286.2,113.7,284.6,121.7,284z M54.6,502H2v-37.6h52.6V502z M2,462.4V284
		h106.1c-3.4,0.7-6.6,1.6-9.8,2.7c-9.8,3.3-18.4,8.2-25.6,14.6c-7.2,6.3-13,14.3-17.2,23.7c-4.2,9.3-6.3,20.1-6.4,32.1l0,0.9l47,4.3
		v-1.1c0-5.2,0.7-10.1,2.1-14.6c1.4-4.5,3.5-8.5,6.3-11.8c2.8-3.3,6.4-5.9,10.7-7.8c4.3-1.9,9.4-2.8,15.2-2.8
		c5.6,0,10.5,0.9,14.6,2.8c4.2,1.9,7.6,4.3,10.3,7.3c2.7,3,4.8,6.5,6.2,10.4c1.4,3.9,2.1,7.9,2.1,12c0,7.1-1.5,14.1-4.6,20.8
		c-3.1,6.7-7.3,13.3-12.6,19.6c-5.2,6.3-11.4,12.5-18.5,18.4c-7.1,5.9-14.8,11.7-22.8,17.2c-7.9,5.4-16.3,10.7-24.8,15.7
		c-8.2,4.9-16.3,9.5-24.2,13.8H2z M213,502H56.6v-37.6h66.9l0,0H213V502z M267,502h-52v-37.6h52V502z M267,462.4H127.6l0.4-0.2
		c10.7-5.8,21.2-12.3,31.3-19.5c10.1-7.3,19.2-15.4,27-24.1c7.8-8.8,14.1-18.5,18.8-28.8c4.8-10.4,7.2-21.7,7.2-33.6
		c0-10.9-2-21-6-30.1c-3.9-9.2-9.5-17.2-16.6-23.7c-7.1-6.5-15.9-11.7-25.9-15.2c-3.5-1.3-7.1-2.3-10.9-3.2H267V462.4z M419,502H269
		v-37.6v-2V284h136.7l-96.4,121.3l-0.2,0.3v48.8h110V502z M419,412.1h-65.5l65.5-82.5V412.1z M419,326.4l-69.7,87.7H419v38.2H311
		v-46.1L408.2,284H419V326.4z M694.1,358l-59.7-59.4h81.8l59.7,59.4H694.1z M536.1,360h241.7l29.2,29v0.9l-90.9,90.9h-81.8
		l61.7-61.7H536.1V360z M780.7,360H807v26.2L780.7,360z M536,284h271v74h-28.3l-61.4-61.1l-0.3-0.3h-87.4l61.7,61.4H536V284z
		 M463.8,452.3V502H421v-49.7h0v-38.2h0v-90.2l0,0.1V284h42.8v130.1H496v38.2H463.8z M534,502h-68.2v-47.7H498v-42.2h-32.2V284H534
		v74V502z M807,502H536v-80.9h155.2l-61.7,61.7H717l90-90V502z"/>
</g>
</svg>
