<svg xmlns="http://www.w3.org/2000/svg" width="79" height="55" viewBox="0 0 79 55" fill="none">
<path d="M39.7503 0H40.1861C44.2104 0.014681 64.6016 0.161492 70.0996 1.63938C71.7617 2.09042 73.2763 2.96959 74.492 4.18902C75.7076 5.40846 76.5818 6.92545 77.0272 8.5884C77.5217 10.448 77.8693 12.9095 78.1043 15.4493L78.1533 15.9583L78.261 17.2306L78.3001 17.7396C78.6184 22.2124 78.6575 26.4014 78.6624 27.3165V27.6835C78.6575 28.6329 78.6135 33.1057 78.261 37.7645L78.2218 38.2783L78.1777 38.7873C77.9329 41.5864 77.5706 44.366 77.0272 46.4116C76.5832 48.0752 75.7094 49.5929 74.4936 50.8126C73.2777 52.0322 71.7624 52.9109 70.0996 53.3606C64.4204 54.8874 42.8347 54.9951 39.8434 55H39.1481C37.6353 55 31.3785 54.9706 24.818 54.7455L23.9858 54.7162L23.5598 54.6966L22.7226 54.6623L21.8854 54.6281C16.4511 54.3883 11.2762 54.0017 8.8919 53.3557C7.22972 52.9065 5.71482 52.0285 4.49899 50.8097C3.28315 49.591 2.40907 48.0743 1.9643 46.4116C1.42086 44.3709 1.05857 41.5864 0.813776 38.7873L0.774609 38.2734L0.735443 37.7645C0.493822 34.4485 0.359932 31.1256 0.333984 27.801L0.333984 27.199C0.343776 26.1469 0.382943 22.5109 0.647318 18.4981L0.681589 17.994L0.696276 17.7396L0.735443 17.2306L0.843151 15.9583L0.892109 15.4493C1.12711 12.9095 1.47471 10.4431 1.96919 8.5884C2.41321 6.92478 3.28697 5.40707 4.50285 4.18743C5.71874 2.96779 7.23402 2.08907 8.8968 1.63938C11.2811 1.0032 16.456 0.611709 21.8903 0.367025L22.7226 0.33277L23.5647 0.303409L23.9858 0.288727L24.8229 0.254472C29.4823 0.104601 34.1437 0.0213994 38.8054 0.0048939H39.7503V0ZM31.6673 15.7087V39.2864L52.0193 27.5024L31.6673 15.7087Z" fill="#EA3323"/>
<path d="M31.668 15.7087V39.2865L52.0199 27.5025L31.668 15.7087Z" fill="white"/>
</svg>