<svg fill="none" height="310" viewBox="0 0 465 310" width="465" xmlns="http://www.w3.org/2000/svg" xmlns:xlink="http://www.w3.org/1999/xlink"><mask id="a" fill="#fff"><path clip-rule="evenodd" d="m102 150c-1.105 0-2 .895-2 2v8.3l-6 4.639 6 4.64v14.421h295v-32c0-1.105-.895-2-2-2z" fill="#fff" fill-rule="evenodd"/></mask><mask id="b" fill="#fff"><path clip-rule="evenodd" d="m108 158c-1.105 0-2 .895-2 2v22h-6v77c0 1.105.895 2 2 2h291c1.105 0 2-.895 2-2v-77h-237v-22c0-1.105-.895-2-2-2z" fill="#fff" fill-rule="evenodd"/></mask><mask id="c" fill="#fff"><path clip-rule="evenodd" d="m103 68c-1.105 0-2 .8954-2 2v7.9967l-6 4.5033 6 4.5033v8.9967h295v-26c0-1.1046-.895-2-2-2z" fill="#fff" fill-rule="evenodd"/></mask><path d="m0 0h465v310h-465z" fill="#28a197"/><rect fill="#fff" height="248" rx="4" width="384" x="41" y="29"/><path d="m41 33c0-2.2091 1.7909-4 4-4h376c2.209 0 4 1.7909 4 4v19h-384z" fill="#f3f2f1"/><circle cx="50.5" cy="40.5" fill="#d4351c" r="3.5"/><circle cx="62.5" cy="40.5" fill="#fd0" r="3.5"/><circle cx="74.5" cy="40.5" fill="#00703c" r="3.5"/><path d="m113 92v98.5" stroke="#d9d9d9" stroke-width="2"/><path clip-rule="evenodd" d="m102 150c-1.105 0-2 .895-2 2v8.3l-6 4.639 6 4.64v14.421h295v-32c0-1.105-.895-2-2-2z" fill="#f3f2f1" fill-rule="evenodd"/><path d="m100 160.3 1.223 1.582.777-.601v-.981zm-6 4.639-1.2235-1.582-2.0459 1.582 2.0459 1.583zm6 4.64h2v-.981l-.777-.601zm0 14.421h-2v2h2zm295 0v2h2v-2zm-293-32v-4c-2.2091 0-4 1.791-4 4zm0 8.3v-8.3h-4v8.3zm-3.2235-1.583-6 4.64 2.447 3.165 5.9995-4.64zm-6 7.805 6 4.639 2.4465-3.164-5.9995-4.64zm9.2235 17.478v-14.421h-4v14.421zm293-2h-295v4h295zm-2-30v32h4v-32zm0 0h4c0-2.209-1.791-4-4-4zm-291 0h291v-4h-291z" fill="#d9d9d9" mask="url(#a)"/><path clip-rule="evenodd" d="m108 158c-1.105 0-2 .895-2 2v22h-6v77c0 1.105.895 2 2 2h291c1.105 0 2-.895 2-2v-77h-237v-22c0-1.105-.895-2-2-2z" fill="#fff" fill-rule="evenodd"/><path d="m106 182v2h2v-2zm-6 0v-2h-2v2zm295 0h2v-2h-2zm-237 0h-2v2h2zm-50-22v-4c-2.209 0-4 1.791-4 4zm0 22v-22h-4v22zm-8 2h6v-4h-6zm2 75v-77h-4v77zm0 0h-4c0 2.209 1.7909 4 4 4zm291 0h-291v4h291zm0 0v4c2.209 0 4-1.791 4-4zm0-77v77h4v-77zm-235 2h237v-4h-237zm-2-24v22h4v-22zm0 0h4c0-2.209-1.791-4-4-4zm-48 0h48v-4h-48z" fill="#d9d9d9" mask="url(#b)"/><rect fill="#f3f2f1" height="30" rx="1" stroke="#d9d9d9" stroke-width="2" width="279" x="108" y="190"/><rect fill="#fff" height="68" rx="1" stroke="#d9d9d9" stroke-width="2" width="293" x="102" y="69"/><path d="m113 110h195v12h-195z" fill="#b1b4b6"/><circle cx="70" cy="83" fill="#f47738" r="15"/><path d="m112 199h195v12h-195z" fill="#b1b4b6"/><path clip-rule="evenodd" d="m103 68c-1.105 0-2 .8954-2 2v7.9967l-6 4.5033 6 4.5033v8.9967h295v-26c0-1.1046-.895-2-2-2z" fill="#f3f2f1" fill-rule="evenodd"/><path d="m101 77.9967 1.201 1.5995.799-.6v-.9995zm-6 4.5033-1.2006-1.5996-2.1312 1.5996 2.1312 1.5996zm6 4.5033h2v-.9995l-.799-.6zm0 8.9967h-2v2h2zm295 0v2h2v-2zm-293-26v-4c-2.209 0-4 1.7909-4 4zm0 7.9967v-7.9967h-4v7.9967zm-3.2006-1.5996-6 4.5033 2.4012 3.1992 6.0004-4.5034zm-6 7.7025 6 4.5033 2.4016-3.1991-6.0004-4.5034zm9.2006 11.9004v-8.9967h-4v8.9967zm293-2h-295v4h295zm-2-24v26h4v-26zm0 0h4c0-2.2091-1.791-4-4-4zm-291 0h291v-4h-291z" fill="#d9d9d9" mask="url(#c)"/><circle cx="69" cy="165" fill="#4c2c92" r="15"/><rect fill="#00a357" height="16" rx="2" width="49" x="339" y="225"/><circle cx="365" cy="82" r="5" stroke="#b1b4b6"/><circle cx="363.125" cy="81.375" fill="#b1b4b6" r=".625"/><circle cx="366.875" cy="81.375" fill="#b1b4b6" r=".625"/><path d="m362.5 83.25s.625 1.25 2.5 1.25 2.5-1.25 2.5-1.25" stroke="#b1b4b6" stroke-linecap="round"/><g fill="#b1b4b6"><circle cx="376" cy="82" r="1"/><circle cx="380" cy="82" r="1"/><circle cx="384" cy="82" r="1"/></g><path d="m113 77h40v12h-40z" fill="#0b0c0c"/><path d="m159 77h66v12h-66z" fill="#b1b4b6"/><path d="m112 165h40v12h-40z" fill="#b1b4b6"/><path d="m164 165h44v12h-44z" fill="#d9d9d9"/><g stroke="#d9d9d9"><path d="m385 214-4 4"/><path d="m385 216-2 2"/></g></svg>