<?xml version="1.0" encoding="UTF-8"?><svg id="Layer_1" xmlns="http://www.w3.org/2000/svg" viewBox="0 0 441.56 455"><defs><style>.cls-1{fill:#003078;}.cls-2{fill:#fd0;}.cls-3{fill:#0b0c0c;}.cls-4{fill:#505a5f;}.cls-5{fill:#f3f2f1;stroke:#505a5f;stroke-width:8px;}.cls-5,.cls-6{stroke-miterlimit:10;}.cls-6{fill:none;stroke:#fd0;stroke-width:4px;}</style></defs><rect class="cls-5" x="257.56" y="91" width="180" height="360" rx="10" ry="10"/><path class="cls-1" d="M0,0H200c13.25,0,24,10.75,24,24V296c0,13.25-10.75,24-24,24H0V0H0Z"/><g><circle class="cls-6" cx="111.9" cy="107.14" r="75"/><ellipse class="cls-6" cx="111.9" cy="107.14" rx="36.79" ry="75"/><line class="cls-6" x1="111.9" y1="32.14" x2="111.9" y2="182.14"/><line class="cls-6" x1="186.85" y1="107.14" x2="36.85" y2="107.14"/><line class="cls-6" x1="177.57" y1="70.98" x2="46.43" y2="70.98"/><line class="cls-6" x1="177.57" y1="143.3" x2="46.43" y2="143.3"/></g><g><path class="cls-2" d="M82,250v18h18.08c.92-5.71,5.86-10.08,11.83-10.08s10.91,4.37,11.83,10.08h18.25v4h-18.28c-.99,5.63-5.89,9.92-11.81,9.92s-10.82-4.28-11.81-9.92h-18.11v18h60v-40h-60Z"/><circle class="cls-2" cx="111.92" cy="269.92" r="8"/></g><g><path class="cls-3" d="M359.56,251v-4c0-1.1-.9-2-2-2h-20c-1.1,0-2,.9-2,2v4h-18v40h60v-40h-18Zm-12,31.92c-6.63,0-12-5.37-12-12s5.37-12,12-12,12,5.37,12,12-5.37,12-12,12Z"/><circle class="cls-3" cx="347.56" cy="270.92" r="8"/></g><rect class="cls-4" x="297.56" y="89" width="100" height="20" rx="4" ry="4"/></svg>