<svg width="930" height="600" viewBox="0 0 930 600" fill="none" xmlns="http://www.w3.org/2000/svg">
<rect width="930" height="600" fill="white"/>
<rect width="930" height="600" fill="#DBD5E9"/>
<path d="M709.171 450.551H782.197V472.125H709.171V450.551Z" fill="white"/>
<path d="M631.21 466.301V311.581C631.21 305.36 636.21 300.331 642.395 300.331H851.605C857.789 300.331 862.789 305.36 862.789 311.581V466.301" fill="#1E1E1E"/>
<path d="M863.184 466.301H862.526V311.581C862.526 305.559 857.658 300.662 851.671 300.662H642.46C636.474 300.662 631.605 305.559 631.605 311.581V466.301H630.947V311.581C631.013 305.228 636.145 300.066 642.46 300H851.671C857.987 300.066 863.118 305.228 863.184 311.581V466.301Z" fill="#EDEDED"/>
<path d="M648.316 317.536H845.684V442.94H648.316V317.536Z" fill="#2B8CC4"/>
<path d="M846.079 443.272H648.053V317.206H846.079V443.272ZM648.711 442.61H845.421V317.867H648.711V442.61Z" fill="#0B0C0C"/>
<path d="M662.132 331.434H831.869V429.044H662.132V331.434Z" fill="white"/>
<rect x="673" y="358" width="100" height="8" fill="#0B0C0C"/>
<line x1="673" y1="380" x2="773" y2="380" stroke="#B1B4B6" stroke-width="4"/>
<line x1="673" y1="388" x2="773" y2="388" stroke="#B1B4B6" stroke-width="4"/>
<line x1="673" y1="396" x2="759" y2="396" stroke="#B1B4B6" stroke-width="4"/>
<path d="M831.211 332.095V428.382H662.79V332.095H831.211ZM832.527 330.771H661.474V429.705H832.527V330.771Z" fill="#0B0C0C"/>
<path d="M661.474 330.771H832.527V347.646H661.474V330.771Z" fill="#0B0C0C"/>
<path d="M672.855 408.728H735.815V418.654H672.855V408.728Z" fill="#00703C"/>
<path d="M721.276 459.882H772.987V468.882H721.276V459.882Z" fill="#505A5F"/>
<path d="M768.118 465.441H725.947C723.447 465.441 721.342 462.728 721.145 460.147H597V474.044L631.211 478.015H862.789L897 474.044V460.147H772.921C772.724 462.86 770.684 465.441 768.118 465.441Z" fill="#B2B2B2"/>
<path d="M597 474.044L631.211 478.015H862.789L897 474.044H597Z" fill="#505A5F"/>
<path d="M897 460.147H772.921C772.789 462.86 770.75 465.441 768.118 465.441H725.947C723.447 465.441 721.342 462.728 721.145 460.147H597" stroke="#EDEDED" stroke-miterlimit="10"/>
<path d="M597 478.015H897V480H597V478.015Z" fill="#1A345C"/>
<path d="M672.855 418.654H735.815V419.978H672.855V418.654Z" fill="#0B0C0C"/>
<path d="M143.171 450.551H216.197V472.125H143.171V450.551Z" fill="white"/>
<path d="M65.2104 466.301V311.581C65.2104 305.36 70.2104 300.331 76.3947 300.331H285.605C291.789 300.331 296.789 305.36 296.789 311.581V466.301" fill="#1E1E1E"/>
<path d="M297.184 466.301H296.526V311.581C296.526 305.559 291.658 300.662 285.671 300.662H76.4604C70.4736 300.662 65.6052 305.559 65.6052 311.581V466.301H64.9473V311.581C65.0131 305.228 70.1446 300.066 76.4604 300H285.671C291.987 300.066 297.118 305.228 297.184 311.581V466.301Z" fill="#EDEDED"/>
<path d="M82.3159 317.536H279.684V442.94H82.3159V317.536Z" fill="#2B8CC4"/>
<path d="M280.079 443.272H82.0527V317.206H280.079V443.272ZM82.7106 442.61H279.421V317.867H82.7106V442.61Z" fill="#0B0C0C"/>
<path d="M155.276 459.882H206.987V468.882H155.276V459.882Z" fill="#505A5F"/>
<path d="M202.118 465.441H159.947C157.447 465.441 155.342 462.728 155.145 460.147H31V474.044L65.2105 478.015H296.789L331 474.044V460.147H206.921C206.724 462.86 204.684 465.441 202.118 465.441Z" fill="#B2B2B2"/>
<path d="M31 474.044L65.2105 478.015H296.789L331 474.044H31Z" fill="#505A5F"/>
<path d="M331 460.147H206.921C206.789 462.86 204.75 465.441 202.118 465.441H159.947C157.447 465.441 155.342 462.728 155.145 460.147H31" stroke="#EDEDED" stroke-miterlimit="10"/>
<path d="M31 478.015H331V480H31V478.015Z" fill="#1A345C"/>
<path d="M98.5 338.5H263.5V421.5H98.5V338.5Z" fill="white" stroke="black"/>
<mask id="mask0_6706_80553" style="mask-type:alpha" maskUnits="userSpaceOnUse" x="113" y="350" width="60" height="60">
<circle cx="143" cy="380" r="30" fill="#D2E2F1"/>
</mask>
<g mask="url(#mask0_6706_80553)">
<circle cx="143" cy="380" r="30" fill="#D2E2F1"/>
<circle cx="143" cy="374" r="12" fill="#0B0C0C"/>
<circle cx="143" cy="412.25" r="23.25" fill="#0B0C0C"/>
</g>
<circle cx="143" cy="380" r="30" stroke="black" stroke-width="2"/>
<path d="M185 361H247V376H185V361Z" fill="white" stroke="black" stroke-width="2"/>
<path d="M190 367H241V370H190V367Z" fill="#0B0C0C"/>
<path d="M185 384H247V399H185V384Z" fill="white" stroke="black" stroke-width="2"/>
<circle cx="192.5" cy="391.5" r="2.5" fill="#0B0C0C"/>
<circle cx="206.5" cy="391.5" r="2.5" fill="#0B0C0C"/>
<circle cx="227.5" cy="391.5" r="2.5" fill="#0B0C0C"/>
<circle cx="220.5" cy="391.5" r="2.5" fill="#0B0C0C"/>
<circle cx="213.5" cy="391.5" r="2.5" fill="#0B0C0C"/>
<circle cx="199.5" cy="391.5" r="2.5" fill="#0B0C0C"/>
<path d="M179 296V180H407" stroke="#505A5F" stroke-width="12"/>
<path d="M387.5 156L411.5 180L387.5 204" stroke="#505A5F" stroke-width="12"/>
<circle cx="297" cy="180" r="41" fill="#1D70B8" stroke="#DBD5E9" stroke-width="4"/>
<path d="M292.636 187.228V185.229C292.636 183.79 292.851 182.49 293.28 181.33C293.731 180.17 294.279 179.117 294.924 178.172C295.59 177.205 296.299 176.324 297.051 175.529C297.824 174.713 298.533 173.939 299.178 173.209C299.844 172.479 300.392 171.759 300.821 171.05C301.272 170.341 301.498 169.589 301.498 168.794C301.498 168.192 301.369 167.655 301.111 167.183C300.875 166.688 300.542 166.27 300.112 165.926C299.704 165.582 299.21 165.324 298.63 165.152C298.071 164.98 297.459 164.895 296.793 164.895C295.826 164.895 294.924 165.023 294.086 165.281C293.27 165.518 292.507 165.829 291.798 166.216C291.089 166.603 290.434 167.043 289.832 167.537C289.252 168.031 288.736 168.536 288.285 169.052L283 162.413C283.838 161.511 284.783 160.673 285.836 159.899C286.889 159.104 288.038 158.417 289.284 157.837C290.53 157.257 291.862 156.806 293.28 156.483C294.698 156.161 296.202 156 297.792 156C299.897 156 301.82 156.322 303.561 156.967C305.301 157.59 306.794 158.449 308.04 159.545C309.286 160.619 310.253 161.876 310.94 163.315C311.628 164.733 311.972 166.237 311.972 167.827C311.972 168.987 311.832 170.062 311.553 171.05C311.295 172.017 310.908 172.94 310.393 173.821C309.877 174.702 309.243 175.572 308.491 176.432C307.739 177.27 306.88 178.14 305.913 179.042C305.354 179.558 304.817 180.073 304.302 180.589C303.808 181.104 303.367 181.663 302.98 182.265C302.615 182.845 302.314 183.479 302.078 184.166C301.863 184.854 301.756 185.627 301.756 186.486V187.228H292.636ZM291.057 197.379C291.057 196.541 291.218 195.746 291.54 194.994C291.884 194.242 292.335 193.587 292.894 193.028C293.452 192.47 294.107 192.029 294.859 191.707C295.633 191.363 296.438 191.191 297.276 191.191C298.114 191.191 298.898 191.363 299.629 191.707C300.381 192.029 301.036 192.47 301.595 193.028C302.153 193.587 302.594 194.242 302.916 194.994C303.238 195.746 303.399 196.541 303.399 197.379C303.399 198.217 303.238 199.012 302.916 199.764C302.594 200.494 302.153 201.139 301.595 201.697C301.036 202.256 300.381 202.696 299.629 203.019C298.898 203.341 298.114 203.502 297.276 203.502C296.438 203.502 295.633 203.341 294.859 203.019C294.107 202.696 293.452 202.256 292.894 201.697C292.335 201.139 291.884 200.494 291.54 199.764C291.218 199.012 291.057 198.217 291.057 197.379Z" fill="white"/>
<path d="M751 283V180H508" stroke="#505A5F" stroke-width="12"/>
<path d="M775 263L751 287L727 263" stroke="#505A5F" stroke-width="12"/>
<circle cx="631" cy="180" r="41" fill="#005A30" stroke="#DBD5E9" stroke-width="4"/>
<path fill-rule="evenodd" clip-rule="evenodd" d="M656.035 168.535L623 201.571L605.464 184.035L612.535 176.964L623 187.429L648.964 161.464L656.035 168.535Z" fill="white"/>
<rect x="427" y="111" width="76" height="144" rx="3" fill="white" stroke="black" stroke-width="2"/>
<path d="M426 114C426 111.791 427.791 110 430 110H500C502.209 110 504 111.791 504 114V126H426V114Z" fill="#0B0C0C"/>
<path d="M426 240H504V252C504 254.209 502.209 256 500 256H430C427.791 256 426 254.209 426 252V240Z" fill="#0B0C0C"/>
<path d="M440.518 197.418C440.133 197.418 439.798 197.48 439.512 197.604C439.225 197.727 438.988 197.9 438.799 198.121C438.61 198.342 438.47 198.603 438.379 198.902C438.288 199.195 438.242 199.514 438.242 199.859L435.342 199.596C435.348 198.827 435.485 198.147 435.752 197.555C436.019 196.956 436.383 196.454 436.846 196.051C437.308 195.641 437.852 195.331 438.477 195.123C439.108 194.908 439.795 194.801 440.537 194.801C441.312 194.801 442.018 194.918 442.656 195.152C443.301 195.38 443.851 195.702 444.307 196.119C444.762 196.536 445.114 197.037 445.361 197.623C445.615 198.202 445.742 198.84 445.742 199.537C445.742 200.299 445.589 201.012 445.283 201.676C444.984 202.333 444.583 202.945 444.082 203.512C443.581 204.072 443.005 204.586 442.354 205.055C441.702 205.517 441.032 205.934 440.342 206.305L440.078 206.441H445.918V209H435.703V206.461C436.23 206.174 436.768 205.868 437.314 205.543C437.868 205.217 438.402 204.879 438.916 204.527C439.437 204.169 439.928 203.798 440.391 203.414C440.853 203.03 441.253 202.633 441.592 202.223C441.937 201.806 442.21 201.38 442.412 200.943C442.614 200.501 442.715 200.045 442.715 199.576C442.715 199.309 442.669 199.046 442.578 198.785C442.487 198.525 442.35 198.294 442.168 198.092C441.992 197.89 441.764 197.727 441.484 197.604C441.211 197.48 440.889 197.418 440.518 197.418ZM456.436 197.418C456.051 197.418 455.716 197.48 455.43 197.604C455.143 197.727 454.906 197.9 454.717 198.121C454.528 198.342 454.388 198.603 454.297 198.902C454.206 199.195 454.16 199.514 454.16 199.859L451.26 199.596C451.266 198.827 451.403 198.147 451.67 197.555C451.937 196.956 452.301 196.454 452.764 196.051C453.226 195.641 453.77 195.331 454.395 195.123C455.026 194.908 455.713 194.801 456.455 194.801C457.23 194.801 457.936 194.918 458.574 195.152C459.219 195.38 459.769 195.702 460.225 196.119C460.68 196.536 461.032 197.037 461.279 197.623C461.533 198.202 461.66 198.84 461.66 199.537C461.66 200.299 461.507 201.012 461.201 201.676C460.902 202.333 460.501 202.945 460 203.512C459.499 204.072 458.923 204.586 458.271 205.055C457.62 205.517 456.95 205.934 456.26 206.305L455.996 206.441H461.836V209H451.621V206.461C452.148 206.174 452.686 205.868 453.232 205.543C453.786 205.217 454.32 204.879 454.834 204.527C455.355 204.169 455.846 203.798 456.309 203.414C456.771 203.03 457.171 202.633 457.51 202.223C457.855 201.806 458.128 201.38 458.33 200.943C458.532 200.501 458.633 200.045 458.633 199.576C458.633 199.309 458.587 199.046 458.496 198.785C458.405 198.525 458.268 198.294 458.086 198.092C457.91 197.89 457.682 197.727 457.402 197.604C457.129 197.48 456.807 197.418 456.436 197.418ZM469.795 204.723C469.899 205.055 470.046 205.344 470.234 205.592C470.423 205.833 470.641 206.035 470.889 206.197C471.143 206.354 471.416 206.471 471.709 206.549C472.008 206.62 472.318 206.656 472.637 206.656C473.079 206.656 473.454 206.604 473.76 206.5C474.072 206.389 474.323 206.249 474.512 206.08C474.707 205.904 474.847 205.709 474.932 205.494C475.016 205.273 475.059 205.048 475.059 204.82C475.059 204.267 474.827 203.831 474.365 203.512C473.91 203.186 473.206 203.023 472.256 203.023H471.475V200.66H472.07C472.93 200.66 473.6 200.52 474.082 200.24C474.57 199.96 474.814 199.534 474.814 198.961C474.814 198.714 474.759 198.492 474.648 198.297C474.538 198.095 474.385 197.926 474.189 197.789C474.001 197.652 473.773 197.548 473.506 197.477C473.245 197.398 472.962 197.359 472.656 197.359C472.305 197.359 471.982 197.408 471.689 197.506C471.403 197.604 471.146 197.737 470.918 197.906C470.69 198.076 470.492 198.274 470.322 198.502C470.16 198.73 470.029 198.971 469.932 199.225L467.432 198.219C467.581 197.672 467.829 197.187 468.174 196.764C468.519 196.34 468.923 195.986 469.385 195.699C469.854 195.406 470.368 195.185 470.928 195.035C471.488 194.879 472.057 194.801 472.637 194.801C473.359 194.801 474.03 194.889 474.648 195.064C475.267 195.24 475.804 195.497 476.26 195.836C476.722 196.168 477.083 196.578 477.344 197.066C477.604 197.555 477.734 198.111 477.734 198.736C477.734 199.107 477.673 199.456 477.549 199.781C477.432 200.1 477.269 200.39 477.061 200.65C476.859 200.904 476.618 201.122 476.338 201.305C476.058 201.487 475.758 201.627 475.439 201.725C475.798 201.803 476.133 201.933 476.445 202.115C476.758 202.298 477.031 202.525 477.266 202.799C477.5 203.072 477.682 203.388 477.812 203.746C477.949 204.104 478.018 204.495 478.018 204.918C478.018 205.562 477.878 206.148 477.598 206.676C477.324 207.203 476.947 207.652 476.465 208.023C475.983 208.395 475.413 208.684 474.756 208.893C474.105 209.094 473.398 209.195 472.637 209.195C471.966 209.195 471.322 209.111 470.703 208.941C470.085 208.766 469.528 208.518 469.033 208.199C468.538 207.874 468.122 207.48 467.783 207.018C467.445 206.549 467.217 206.021 467.1 205.436L469.795 204.723ZM489.951 209V205.836H482.969V202.818L489.17 194.996H492.793V203.277H494.834V205.836H492.793V209H489.951ZM489.951 203.277V197.779L485.596 203.277H489.951Z" fill="black"/>
<path fill-rule="evenodd" clip-rule="evenodd" d="M444.512 173.133C445.774 173.133 448.171 171.651 448.171 168C448.171 164.349 445.774 162.867 444.512 162.867C443.25 162.867 440.854 164.349 440.854 168C440.854 171.651 443.25 173.133 444.512 173.133ZM444.512 179C449.766 179 454.024 174.075 454.024 168C454.024 161.925 449.766 157 444.512 157C439.259 157 435 161.925 435 168C435 174.075 439.259 179 444.512 179Z" fill="#505A5F"/>
<path fill-rule="evenodd" clip-rule="evenodd" d="M489.146 170.933H451.098V165.067H495V177.9H489.146V170.933Z" fill="#505A5F"/>
<path fill-rule="evenodd" clip-rule="evenodd" d="M478.171 178.267L478.171 168L484.024 168L484.024 178.267L478.171 178.267Z" fill="#505A5F"/>
</svg>
