<?xml version="1.0" encoding="UTF-8"?><svg id="Layer_1" xmlns="http://www.w3.org/2000/svg" viewBox="0 0 110 150"><defs><style>.cls-1{fill:#006853;}.cls-2{fill:#f0f0f1;}.cls-3{fill:#b1b4b6;}.cls-4{fill:#c7df98;}.cls-5{fill:#5a5a59;}.cls-6{fill:#79b108;}</style></defs><path class="cls-3" d="M109,1V149H1V1H109m1-1H0V150H110V0h0Z"/><rect class="cls-6" x="91" y="5" width="14" height="12"/><rect class="cls-3" x="7" y="5" width="4" height="4"/><rect class="cls-5" x="35" y="9" width="40" height="4"/><rect class="cls-2" x="57" y="113" width="48" height="21"/><polygon class="cls-2" points="14 113 14 122 5 122 5 134 53 134 53 113 14 113"/><rect class="cls-4" x="5" y="113" width="8" height="8"/><rect class="cls-4" x="5" y="79" width="48" height="28"/><rect class="cls-4" x="5" y="59" width="48" height="16"/><rect class="cls-6" x="57" y="55" width="48" height="4"/><path class="cls-3" d="M104,22v4h-22v-4h22m1-1h-24v6h24v-6h0Z"/><rect class="cls-1" x="5" y="5" width="1" height="10"/><rect class="cls-5" x="12.5" y="4.5" width="1" height="12" transform="translate(2.5 23.5) rotate(-90)"/><rect class="cls-5" x="16.5" y="10.5" width="1" height="24" transform="translate(-5.5 39.5) rotate(-90)"/><rect class="cls-5" x="16.5" y="14.5" width="1" height="24" transform="translate(-9.5 43.5) rotate(-90)"/><rect class="cls-5" x="16.5" y="18.5" width="1" height="24" transform="translate(-13.5 47.5) rotate(-90)"/><rect class="cls-5" x="16.5" y="22.5" width="1" height="24" transform="translate(-17.5 51.5) rotate(-90)"/><rect class="cls-5" x="86.5" y="14.5" width="1" height="36" transform="translate(54.5 119.5) rotate(-90)"/><rect class="cls-5" x="86.5" y="18.5" width="1" height="36" transform="translate(50.5 123.5) rotate(-90)"/><rect class="cls-5" x="86.5" y="22.5" width="1" height="36" transform="translate(46.5 127.5) rotate(-90)"/><rect class="cls-5" x="86.5" y="26.5" width="1" height="36" transform="translate(42.5 131.5) rotate(-90)"/><rect class="cls-5" x="11.5" y="7.5" width="1" height="10" transform="translate(-.5 24.5) rotate(-90)"/><rect class="cls-5" x="10.5" y="10.5" width="1" height="8" transform="translate(-3.5 25.5) rotate(-90)"/><rect class="cls-5" x="46" y="140" width="1" height="4"/><rect class="cls-5" x="48" y="140" width="1" height="4"/><rect class="cls-5" x="50" y="140" width="1" height="4"/><rect class="cls-5" x="52" y="140" width="1" height="4"/><rect class="cls-5" x="54" y="140" width="1" height="4"/><rect class="cls-5" x="56" y="140" width="1" height="4"/><rect class="cls-5" x="58" y="140" width="1" height="4"/><rect class="cls-5" x="60" y="140" width="1" height="4"/><rect class="cls-5" x="62" y="140" width="1" height="4"/><polygon class="cls-2" points="57 63 57 107 79 107 79 67 75 63 57 63"/><polygon class="cls-6" points="5 55 5 59 53 59 49 55 5 55"/><polygon class="cls-2" points="83 63 83 107 105 107 105 67 101 63 83 63"/></svg>